<svg t="1708497177291" class="icon" viewBox="0 0 1024 1024" version="1.1" xmlns="http://www.w3.org/2000/svg" p-id="11505" width="128" height="128"><path d="M893.905455 298.356364c-7.447273 0-13.730909 6.981818-13.73091 15.592727V812.218182c0 35.374545-25.134545 64.232727-56.32 64.232727-53.76 0.232727-56.087273-63.767273-56.552727-75.869091V163.84c0-26.065455-18.618182-47.476364-41.658182-47.476364H162.210909C137.076364 116.363636 116.363636 139.869091 116.363636 168.727273v590.429091C116.363636 841.076364 174.778182 907.636364 246.690909 907.636364h577.163636c46.08 0 83.781818-42.821818 83.781819-95.418182V313.949091c0-8.610909-6.050909-15.592727-13.730909-15.592727z m-221.556364 398.196363H212.014545c-7.447273 0-13.730909-13.730909-13.730909-30.72s6.050909-30.72 13.730909-30.72h460.334546c7.447273 0 13.730909 13.730909 13.730909 30.72-0.232727 16.989091-6.283636 30.72-13.730909 30.72z m0-151.272727H212.014545c-7.447273 0-13.730909-13.730909-13.730909-30.72s6.050909-30.72 13.730909-30.72h460.334546c7.447273 0 13.730909 13.730909 13.730909 30.72-0.232727 16.989091-6.283636 30.72-13.730909 30.72z m0-151.505455H212.014545c-7.447273 0-13.730909-13.730909-13.730909-30.72s6.050909-30.72 13.730909-30.72h460.334546c7.447273 0 13.730909 13.730909 13.730909 30.72-0.232727 16.989091-6.283636 30.72-13.730909 30.72z" fill="#F85F79" p-id="11506"></path></svg>