<svg t="1708487870156" class="icon" viewBox="0 0 1024 1024" version="1.1" xmlns="http://www.w3.org/2000/svg" p-id="6782" width="128" height="128"><path d="M513.28 433.28h-2.56C335.552 433.28 192 574.464 192 747.008v198.144c0.064 20.864 8.512 40.896 23.488 55.68 14.976 14.72 35.328 23.04 56.512 23.104h480c21.184 0 41.536-8.32 56.512-23.168 14.976-14.72 23.424-34.752 23.488-55.616v-198.144c0-172.544-143.488-313.856-318.72-313.856zM312 196.864c0 25.856 5.12 51.456 15.168 75.328 10.112 23.936 24.832 45.632 43.392 63.872a202.688 202.688 0 0 0 282.88 0c18.56-18.24 33.28-39.936 43.264-63.872A194.24 194.24 0 0 0 653.44 57.664 201.6 201.6 0 0 0 512 0a201.6 201.6 0 0 0-141.44 57.664 195.392 195.392 0 0 0-58.496 139.264z" fill="#A456FF" p-id="6783"></path><path d="M354.432 439.04a248.832 248.832 0 0 0-101.376-21.568C113.856 417.472 0 532.288 0 672.64v144.832C0 860.672 35.072 896 77.888 896H154.88v-164.672c0-132.928 83.2-247.168 199.68-292.288z m416.512-21.568c-34.944 0-69.504 7.296-101.376 21.568 58.88 23.04 109.376 63.36 144.96 115.456 35.648 52.096 54.656 113.728 54.656 176.832V896h76.864c42.88 0 77.952-35.328 77.952-78.528V672.64c0-140.352-113.856-255.168-253.056-255.168z m-534.656-39.36c31.616 0 62.528-9.472 88.64-27.2a195.328 195.328 0 0 1-49.28-129.856c0-47.808 17.472-94.016 49.28-129.856a157.824 157.824 0 0 0-239.232 83.648 156.608 156.608 0 0 0 79.616 186.432c22.016 11.072 46.336 16.832 71.04 16.832z m469.632-25.152a157.888 157.888 0 0 0 223.616-48.768 156.736 156.736 0 0 0-61.248-219.904 157.952 157.952 0 0 0-162.368 8.96c31.808 35.84 49.28 82.048 49.28 129.92 0 49.664-18.56 95.232-49.28 129.792z" fill="#D1A9FF" p-id="6784"></path></svg>