<svg t="1708400878817" class="icon" viewBox="0 0 1024 1024" version="1.1" xmlns="http://www.w3.org/2000/svg" p-id="21147" width="128" height="128"><path d="M94.208 565.290667m17.066667 0l154.325333 0q17.066667 0 17.066667 17.066666l0 279.936q0 17.066667-17.066667 17.066667l-154.325333 0q-17.066667 0-17.066667-17.066667l0-279.936q0-17.066667 17.066667-17.066666Z" fill="#9EB7FF" p-id="21148"></path><path d="M408.277333 125.610667m17.066667 0l154.325333 0q17.066667 0 17.066667 17.066666l0 719.658667q0 17.066667-17.066667 17.066667l-154.325333 0q-17.066667 0-17.066667-17.066667l0-719.658667q0-17.066667 17.066667-17.066666Z" fill="#6F93FF" p-id="21149"></path><path d="M722.346667 376.874667m17.066666 0l154.325334 0q17.066667 0 17.066666 17.066666l0 468.394667q0 17.066667-17.066666 17.066667l-154.325334 0q-17.066667 0-17.066666-17.066667l0-468.394667q0-17.066667 17.066666-17.066666Z" fill="#ADC2FF" p-id="21150"></path></svg>