<svg t="1709085669647" class="icon" viewBox="0 0 1024 1024" version="1.1" xmlns="http://www.w3.org/2000/svg" p-id="19166" width="128" height="128"><path d="M582.1952 119.6032l72.8064 147.5072a89.7024 89.7024 0 0 0 67.5328 49.1008l162.7648 23.6544a89.7024 89.7024 0 0 1 49.7152 152.9856l-117.76 114.7904a89.8048 89.8048 0 0 0-25.6 79.4112l27.5456 162.1504a89.7024 89.7024 0 0 1-130.1504 94.5664l-145.6128-76.8a89.4464 89.4464 0 0 0-83.456 0l-145.6128 76.8A89.7024 89.7024 0 0 1 184.32 849.2032l27.8016-162.1504a89.8048 89.8048 0 0 0-25.6-79.4112l-117.76-114.7904a89.7024 89.7024 0 0 1 49.7152-152.9856l162.7648-23.6544a89.7024 89.7024 0 0 0 67.5328-49.1008l72.5504-147.5072a89.7024 89.7024 0 0 1 160.8704 0z" fill="#CCDAFF" p-id="19167"></path><path d="M535.5008 357.632l30.72 61.9008a37.5808 37.5808 0 0 0 28.3136 20.48l68.3008 9.9328a37.632 37.632 0 0 1 20.8384 64.1536l-49.408 48.1792a37.632 37.632 0 0 0-10.8032 33.28l11.4176 68.0448a37.632 37.632 0 0 1-54.5792 39.68l-61.0304-32.1024a37.4784 37.4784 0 0 0-35.0208 0l-61.0304 32.1024A37.632 37.632 0 0 1 368.64 663.6032l11.6224-67.9936a37.632 37.632 0 0 0-10.8032-33.28l-49.408-48.1792a37.632 37.632 0 0 1 20.8384-64.1536L409.1904 440.32a37.5808 37.5808 0 0 0 28.3136-20.48l30.72-61.9008a37.632 37.632 0 0 1 67.2768-0.3072z" fill="#7A7AF9" p-id="19168"></path></svg>