<svg t="1708756954202" class="icon" viewBox="0 0 1024 1024" version="1.1" xmlns="http://www.w3.org/2000/svg" p-id="15135" width="128" height="128"><path d="M1020.164267 442.453333a66.389333 66.389333 0 0 0-47.829334-49.066666l-16.64-3.84a165.888 165.888 0 0 1-96-74.24 160.298667 160.298667 0 0 1-17.706666-119.466667l5.290666-15.36a66.389333 66.389333 0 0 0-19.456-65.28 501.376 501.376 0 0 0-59.733333-37.973333 496.042667 496.042667 0 0 0-63.189333-31.573334 69.376 69.376 0 0 0-67.242667 15.786667l-11.605333 12.373333a169.173333 169.173333 0 0 1-227.968-0.426666l-11.264-11.946667a69.162667 69.162667 0 0 0-67.285334-15.786667 485.418667 485.418667 0 0 0-63.402666 31.573334 436.053333 436.053333 0 0 0-59.733334 38.4 65.066667 65.066667 0 0 0-19.456 64.853333l4.821334 15.36a160.469333 160.469333 0 0 1-17.706667 119.466667A165.376 165.376 0 0 1 67.460267 389.973333l-16.042667 3.413334a67.157333 67.157333 0 0 0-47.829333 49.066666 667.861333 667.861333 0 0 0 0 139.093334 66.389333 66.389333 0 0 0 47.829333 49.066666l15.701333 3.413334a164.309333 164.309333 0 0 1 96.682667 75.093333 160 160 0 0 1 17.706667 119.466667l-4.565334 14.933333a66.346667 66.346667 0 0 0 19.456 65.28 690.304 690.304 0 0 0 122.922667 69.546667 69.376 69.376 0 0 0 67.285333-15.786667l11.008-11.946667a169.002667 169.002667 0 0 1 228.778667 0.426667l11.008 11.52a69.162667 69.162667 0 0 0 67.242667 15.786667A486.4 486.4 0 0 0 768.046933 946.773333a417.493333 417.493333 0 0 0 59.733334-37.973333 66.090667 66.090667 0 0 0 19.456-65.28l-4.821334-15.786667a158.421333 158.421333 0 0 1 17.706667-118.613333 163.968 163.968 0 0 1 96.682667-74.666667l15.701333-3.84a67.2 67.2 0 0 0 47.786667-49.066666A442.965333 442.965333 0 0 0 1024.046933 512a454.784 454.784 0 0 0-3.882666-69.546667zM512.046933 712.106667A200.149333 200.149333 0 1 1 716.206933 512 202.24 202.24 0 0 1 512.046933 712.106667z" fill="#898AA7" p-id="15136"></path></svg>