<svg height="1024" node-id="1" sillyvg="true" template-height="1024" template-width="1024" version="1.1" viewBox="0 0 1024 1024" width="1024" xmlns="http://www.w3.org/2000/svg" xmlns:xlink="http://www.w3.org/1999/xlink"><defs node-id="68"><linearGradient gradientUnits="userSpaceOnUse" id="SVGID_1_" node-id="27" spreadMethod="pad" x1="118.522" x2="669.5325" y1="505.8478" y2="505.8478"><stop offset="0" stop-color="#8eb0ec"/><stop offset="1" stop-color="#6386db"/></linearGradient><linearGradient gradientUnits="userSpaceOnUse" id="SVGID_2_" node-id="32" spreadMethod="pad" x1="235.3137" x2="683.6509" y1="541.2184" y2="541.2184"><stop offset="0" stop-color="#6386db"/><stop offset="1" stop-color="#8eb0ec"/></linearGradient><linearGradient gradientUnits="userSpaceOnUse" id="SVGID_3_" node-id="39" spreadMethod="pad" x1="280.6869" x2="313.7129" y1="665.0609" y2="665.0609"><stop offset="0" stop-color="#c6cad0"/><stop offset="1" stop-color="#c0c9cf"/></linearGradient><linearGradient gradientUnits="userSpaceOnUse" id="SVGID_4_" node-id="44" spreadMethod="pad" x1="280.6869" x2="659.3156" y1="365.7571" y2="365.7571"><stop offset="0" stop-color="#c6cad0"/><stop offset="1" stop-color="#c0c9cf"/></linearGradient><linearGradient gradientUnits="userSpaceOnUse" id="SVGID_5_" node-id="49" spreadMethod="pad" x1="312.5834" x2="660.4451" y1="574.236" y2="574.236"><stop offset="0" stop-color="#fbfbfb"/><stop offset="1" stop-color="#fbfbfb"/></linearGradient><linearGradient gradientUnits="userSpaceOnUse" id="SVGID_6_" node-id="53" spreadMethod="pad" x1="405.7441" x2="852.6505" y1="607.1027" y2="607.1027"><stop offset="0" stop-color="#ffa21e"/><stop offset="1" stop-color="#ffcb27"/></linearGradient></defs><g node-id="163"><g node-id="166"><path d="M 646.20 94.50 C 647.20 94.10 648.20 93.80 649.20 93.50 C 649.80 93.30 650.50 93.10 651.10 93.00 C 651.70 92.90 652.30 92.70 652.80 92.60 C 653.60 92.50 654.30 92.30 655.10 92.30 C 655.50 92.30 656.00 92.20 656.40 92.20 C 657.30 92.10 658.20 92.10 659.10 92.10 C 659.30 92.10 659.50 92.10 659.70 92.10 C 660.80 92.20 661.80 92.30 662.90 92.50 C 663.20 92.50 663.40 92.60 663.60 92.70 C 664.40 92.90 665.20 93.10 666.00 93.40 C 666.20 93.50 666.50 93.60 666.70 93.70 C 667.70 94.10 668.60 94.50 669.50 95.00 L 669.50 95.00 C 669.50 95.00 669.50 95.00 669.50 95.00 L 552.70 27.00 C 552.60 27.00 552.50 26.90 552.50 26.90 C 551.80 26.50 551.10 26.20 550.40 25.90 C 550.30 25.80 550.10 25.80 550.00 25.80 C 549.80 25.70 549.50 25.60 549.30 25.50 C 548.90 25.40 548.60 25.20 548.20 25.10 C 547.80 25.00 547.40 24.90 547.00 24.80 C 546.70 24.70 546.50 24.70 546.20 24.60 C 546.10 24.60 545.90 24.50 545.80 24.50 C 545.00 24.40 544.10 24.30 543.20 24.20 C 543.10 24.20 543.10 24.20 543.00 24.20 C 542.80 24.20 542.60 24.20 542.40 24.20 C 541.70 24.20 541.10 24.20 540.40 24.20 C 540.20 24.20 539.90 24.30 539.70 24.30 C 539.30 24.30 538.80 24.40 538.40 24.40 C 538.00 24.40 537.60 24.50 537.20 24.50 C 536.90 24.60 536.50 24.70 536.10 24.70 C 535.50 24.80 534.90 24.90 534.40 25.10 C 534.10 25.20 533.80 25.20 533.50 25.30 C 533.20 25.40 532.90 25.50 532.50 25.60 C 531.50 25.90 530.50 26.20 529.50 26.60 C 529.10 26.70 528.80 26.80 528.40 27.00 C 528.10 27.10 527.70 27.30 527.30 27.50 C 527.00 27.60 526.60 27.80 526.30 28.00 C 525.00 28.60 523.70 29.30 522.40 30.00 L 161.10 238.50 C 159.70 239.30 158.40 240.20 157.00 241.10 C 156.60 241.40 156.10 241.70 155.70 242.00 C 154.80 242.70 153.90 243.30 153.00 244.00 C 152.50 244.40 152.00 244.80 151.50 245.20 C 150.70 245.90 149.90 246.60 149.10 247.30 C 148.60 247.70 148.10 248.20 147.70 248.60 C 147.40 248.90 147.10 249.20 146.80 249.40 C 146.50 249.70 146.20 250.10 145.90 250.40 C 144.90 251.40 144.00 252.40 143.10 253.40 C 142.80 253.70 142.50 254.00 142.20 254.40 C 142.00 254.70 141.70 255.00 141.50 255.30 C 140.90 256.00 140.40 256.60 139.80 257.30 C 139.40 257.70 139.10 258.20 138.70 258.60 C 138.40 259.00 138.10 259.40 137.90 259.70 C 137.50 260.20 137.10 260.80 136.70 261.30 C 136.40 261.70 136.20 262.00 135.90 262.40 C 135.50 263.00 135.00 263.70 134.60 264.40 C 134.30 264.80 134.00 265.20 133.80 265.60 C 133.70 265.80 133.60 265.90 133.50 266.10 C 132.70 267.30 132.00 268.50 131.30 269.70 C 131.20 269.80 131.20 269.90 131.20 270.00 C 131.10 270.30 130.90 270.50 130.80 270.80 C 130.30 271.70 129.80 272.50 129.40 273.40 C 129.20 273.80 129.00 274.20 128.80 274.70 C 128.60 275.10 128.40 275.60 128.10 276.00 C 127.90 276.40 127.70 276.70 127.50 277.10 C 127.00 278.10 126.50 279.10 126.10 280.20 C 126.00 280.40 125.90 280.50 125.90 280.70 C 125.90 280.70 125.90 280.80 125.80 280.80 C 125.20 282.10 124.70 283.40 124.20 284.60 C 124.10 284.80 124.00 285.10 123.90 285.30 C 123.70 285.80 123.60 286.30 123.40 286.70 C 123.20 287.30 122.90 288.00 122.70 288.60 C 122.50 289.10 122.40 289.60 122.20 290.10 C 122.00 290.70 121.80 291.30 121.70 291.90 C 121.60 292.30 121.50 292.60 121.40 293.00 C 121.20 293.70 121.10 294.30 120.90 295.00 C 120.70 295.70 120.50 296.50 120.40 297.20 C 120.30 297.40 120.30 297.70 120.20 297.90 C 120.10 298.40 120.00 298.90 119.90 299.50 C 119.70 300.70 119.50 301.80 119.30 302.90 C 119.30 303.20 119.20 303.50 119.10 303.80 C 119.00 304.50 119.00 305.20 118.90 305.90 C 118.80 306.40 118.80 306.90 118.70 307.40 C 118.60 309.00 118.50 310.60 118.50 312.10 L 120.10 892.00 C 120.10 905.50 124.90 915.00 132.60 919.40 L 249.40 987.30 C 241.70 982.80 237.00 973.30 236.90 959.90 L 235.30 380.00 C 235.30 378.40 235.40 376.90 235.50 375.30 C 235.50 374.80 235.60 374.30 235.60 373.80 C 235.70 372.80 235.80 371.80 236.00 370.70 C 236.20 369.60 236.40 368.40 236.60 367.30 C 236.70 366.50 236.90 365.80 237.10 365.00 C 237.30 364.30 237.50 363.50 237.60 362.80 C 237.90 361.80 238.10 360.80 238.40 359.80 C 238.60 359.20 238.80 358.60 238.90 358.00 C 239.30 356.90 239.60 355.70 240.00 354.60 C 240.20 354.10 240.30 353.60 240.50 353.20 C 241.10 351.60 241.70 350.10 242.40 348.50 C 242.50 348.30 242.60 348.20 242.60 348.00 C 243.20 346.60 243.90 345.20 244.60 343.80 C 244.80 343.40 245.00 342.90 245.20 342.50 C 245.90 341.20 246.50 339.90 247.30 338.70 C 247.40 338.40 247.60 338.20 247.70 337.90 C 248.60 336.40 249.50 335.00 250.40 333.50 C 250.70 333.10 250.90 332.70 251.20 332.30 C 251.90 331.30 252.60 330.20 253.30 329.20 C 253.70 328.70 254.10 328.10 254.50 327.60 C 255.10 326.80 255.80 326.00 256.40 325.10 C 256.90 324.40 257.50 323.70 258.10 323.10 C 258.60 322.50 259.20 321.90 259.70 321.30 C 260.60 320.30 261.60 319.30 262.50 318.30 C 263.10 317.70 263.70 317.10 264.30 316.50 C 264.80 316.00 265.30 315.60 265.70 315.20 C 266.50 314.50 267.30 313.80 268.10 313.10 C 268.60 312.70 269.10 312.30 269.60 311.90 C 270.50 311.20 271.40 310.50 272.30 309.90 C 272.70 309.60 273.20 309.30 273.60 309.00 C 274.90 308.10 276.30 307.20 277.70 306.40 L 639.10 97.90 C 640.40 97.10 641.70 96.50 643.00 95.90 C 643.30 95.70 643.70 95.60 644.00 95.40 C 644.80 95.00 645.50 94.80 646.20 94.50 Z" fill="url(#SVGID_1_)" fill-rule="nonzero" group-id="1,4" node-id="111" stroke="none" target-height="963.1" target-width="551" target-x="118.5" target-y="24.2"/><g node-id="168"><path d="M 639.10 97.90 C 662.70 84.30 681.90 95.20 682.00 122.40 L 683.60 702.30 C 683.70 729.40 664.60 762.50 641.00 776.10 L 279.80 984.60 C 256.20 998.20 237.00 987.30 236.90 960.10 L 235.30 380.20 C 235.20 353.10 254.30 320.00 277.90 306.40 L 639.10 97.90 Z" fill="url(#SVGID_2_)" fill-rule="nonzero" group-id="1,4,6" node-id="115" stroke="none" target-height="913.9" target-width="448.5" target-x="235.2" target-y="84.3"/></g></g></g><g node-id="164"><g node-id="167"><g node-id="169"><path d="M 313.70 873.50 L 281.80 855.00 L 280.70 456.60 L 312.60 475.10 Z" fill="url(#SVGID_3_)" fill-rule="nonzero" group-id="2,5,7" node-id="126" stroke="none" target-height="416.9" target-width="33" target-x="280.7" target-y="456.6"/></g><g node-id="170"><path d="M 312.60 475.10 L 280.70 456.60 L 627.40 256.40 L 659.30 274.90 Z" fill="url(#SVGID_4_)" fill-rule="nonzero" group-id="2,5,8" node-id="131" stroke="none" target-height="218.70001" target-width="378.59998" target-x="280.7" target-y="256.4"/></g><path d="M 659.30 274.90 L 660.40 673.40 L 313.70 873.50 L 312.60 475.10 Z" fill="url(#SVGID_5_)" fill-rule="nonzero" group-id="2,5,9" node-id="136" stroke="none" target-height="598.6" target-width="347.80002" target-x="312.6" target-y="274.9"/></g></g><path d="M 406.10 508.80 L 406.10 688.30 C 406.10 688.30 502.40 629.50 572.80 630.20 C 572.80 630.20 671.10 624.90 694.50 686.80 C 717.90 748.70 743.20 756.20 743.20 756.20 C 743.20 756.20 781.10 778.80 852.70 753.20 C 852.70 753.20 806.50 743.40 794.10 593.30 C 794.10 593.30 788.90 429.60 547.40 450.70 C 547.40 450.70 455.60 470.50 405.80 502.70 L 406.10 508.80 Z" fill="url(#SVGID_6_)" fill-rule="nonzero" node-id="141" stroke="none" target-height="349.19998" target-width="446.90002" target-x="405.8" target-y="429.6"/><path d="M 789.80 944.30 C 789.80 944.30 779.50 966.80 760.70 963.60 C 760.70 963.60 727.30 963.70 730.60 981.50 C 730.60 981.50 727.30 993.80 777.50 996.50 C 777.50 996.50 793.50 994.00 794.90 999.20 C 794.90 999.20 821.70 1004.00 824.00 993.20 C 824.00 993.20 826.30 959.80 818.40 940.60 L 789.80 944.30 Z" fill="#f7aeb0" fill-rule="nonzero" group-id="3" node-id="145" stroke="none" target-height="63.400024" target-width="99" target-x="727.3" target-y="940.6"/><path d="M 851.30 894.50 C 851.30 894.50 829.80 893.40 831.10 907.10 C 831.10 907.10 827.80 929.70 851.30 935.40 C 851.30 935.40 861.20 935.40 864.90 944.80 C 864.90 944.80 874.30 958.90 886.00 956.10 C 886.00 956.10 898.70 953.30 895.90 940.60 C 895.90 940.60 893.10 911.50 884.60 900.20 L 851.30 894.50 Z" fill="#f7aeb0" fill-rule="nonzero" group-id="3" node-id="147" stroke="none" target-height="65.5" target-width="70.900024" target-x="827.8" target-y="893.4"/><path d="M 774.30 643.10 C 774.30 643.10 773.80 899.20 782.30 943.40 C 782.30 943.40 786.00 955.60 802.50 956.10 C 802.50 956.10 822.70 956.10 827.40 946.70 C 827.40 946.70 833.50 663.40 830.20 646.00 C 830.20 646.00 774.30 638.80 774.30 643.10 Z" fill="#242100" fill-rule="nonzero" group-id="3" node-id="149" stroke="none" target-height="317.3" target-width="59.700012" target-x="773.8" target-y="638.8"/><path d="M 882.40 915.40 C 887.40 913.90 890.30 912.40 890.30 912.40 C 889.80 907.70 872.70 759.20 872.70 759.20 C 874.80 708.50 866.80 626.70 866.80 626.70 L 807.10 646.40 L 809.40 673.60 C 814.80 714.70 836.80 850.70 844.60 899.20 C 844.70 899.30 846.70 923.60 882.40 915.40 Z" fill="#242100" fill-rule="nonzero" group-id="3" node-id="151" stroke="none" target-height="296.89996" target-width="83.20001" target-x="807.1" target-y="626.7"/><path d="M 888.60 596.10 C 888.60 596.10 883.80 629.70 874.70 643.10 C 874.70 643.10 860.20 633.30 859.70 630.20 C 859.20 627.10 856.80 611.20 856.80 611.20 C 856.80 611.20 871.40 588.00 871.90 586.70 C 871.90 586.70 888.30 593.20 888.60 596.10 Z" fill="#f7aeb0" fill-rule="nonzero" group-id="3" node-id="153" stroke="none" target-height="56.399963" target-width="31.799988" target-x="856.8" target-y="586.7"/><path d="M 792.80 405.90 C 792.80 405.90 771.40 450.50 787.20 466.30 C 787.20 466.30 798.50 470.30 798.70 474.30 C 798.70 474.30 804.10 489.30 798.70 496.40 C 798.70 496.40 820.30 506.70 835.60 485.10 C 835.60 485.10 830.40 475.60 832.10 452.40 C 832.10 452.40 843.60 418.40 831.20 413.20 C 831.10 413.20 805.50 400.50 792.80 405.90 Z" fill="#f7aeb0" fill-rule="nonzero" group-id="3" node-id="155" stroke="none" target-height="106.20001" target-width="72.19995" target-x="771.4" target-y="400.5"/><path d="M 804.20 389.10 C 804.20 389.10 785.50 386.80 787.30 402.00 C 787.30 402.00 786.20 412.20 804.20 417.90 C 804.20 417.90 805.60 420.40 804.20 424.20 C 804.20 424.20 793.30 437.20 802.80 450.30 C 802.80 450.30 807.00 452.40 809.80 447.10 C 809.80 447.10 815.40 444.80 817.60 450.70 C 817.60 450.70 819.70 454.20 812.30 457.30 C 812.30 457.30 807.90 463.30 817.90 469.60 C 817.90 469.60 824.70 474.20 833.50 469.60 C 833.50 469.60 834.60 467.50 836.30 463.60 C 836.30 463.60 839.50 459.40 844.40 456.20 C 844.40 456.20 861.00 449.20 857.80 424.80 C 857.80 424.80 850.70 385.40 804.20 389.10 Z" fill="#536fff" fill-rule="nonzero" group-id="3" node-id="157" stroke="none" target-height="88.80002" target-width="75.5" target-x="785.5" target-y="385.4"/><path d="M 800.70 491.90 C 800.70 491.90 799.80 492.40 798.40 493.30 C 792.20 497.20 775.20 508.70 767.30 522.90 C 767.30 522.90 750.50 528.50 742.60 599.60 C 742.60 599.60 739.20 605.20 731.30 599.60 C 731.30 599.60 712.90 591.00 700.00 585.30 C 700.00 585.30 694.60 584.10 691.10 590.10 C 691.10 590.10 686.70 594.50 690.30 605.40 C 690.30 605.40 717.40 636.30 737.00 643.90 C 737.00 643.90 753.40 651.70 759.50 642.30 L 771.20 618.80 C 771.20 618.80 771.60 631.40 769.70 643.20 C 769.70 643.20 770.50 655.40 784.60 656.90 C 784.60 656.90 834.50 669.20 868.70 638.50 C 868.70 638.50 872.70 630.10 868.70 623.10 C 868.70 623.10 862.40 551.30 867.50 531.50 C 867.50 531.50 872.00 528.20 879.50 542.10 C 879.50 542.10 872.40 580.90 869.60 589.10 C 869.60 589.10 867.30 589.60 869.40 591.40 C 869.40 591.40 881.10 588.80 888.70 603.40 C 888.70 603.40 889.60 604.10 890.30 599.40 C 890.30 599.40 914.00 544.00 916.00 526.60 C 916.00 526.60 915.20 518.10 903.20 506.40 C 903.20 506.40 874.50 465.60 833.40 478.80" fill="#536fff" fill-rule="nonzero" group-id="3" node-id="159" stroke="none" target-height="203.6" target-width="229.29999" target-x="686.7" target-y="465.6"/><path d="M 691.30 604.00 C 691.30 604.00 690.40 603.10 688.90 601.60 C 684.70 597.40 676.30 588.80 673.10 586.20 C 673.10 586.20 670.10 585.00 665.90 584.80 C 665.90 584.80 638.20 575.50 639.00 565.90 C 639.00 565.90 642.40 564.30 649.30 564.50 C 649.30 564.50 674.00 567.10 675.20 567.50 C 675.20 567.50 680.10 568.50 680.10 564.40 C 680.10 564.40 678.00 553.00 684.20 550.70 C 684.20 550.70 687.50 549.50 688.80 554.00 C 688.80 554.00 688.90 571.40 693.00 575.80 C 693.00 575.80 701.50 587.80 702.30 589.40 C 702.40 589.60 697.80 607.00 691.30 604.00 Z" fill="#f7aeb0" fill-rule="nonzero" group-id="3" node-id="161" stroke="none" target-height="57.5" target-width="64.20001" target-x="638.2" target-y="549.5"/></svg>