<svg height="1024" node-id="1" sillyvg="true" template-height="1024" template-width="1024" version="1.1" viewBox="0 0 1024 1024" width="1024" xmlns="http://www.w3.org/2000/svg" xmlns:xlink="http://www.w3.org/1999/xlink"><defs node-id="102"><linearGradient gradientUnits="userSpaceOnUse" id="SVGID_1_" node-id="27" spreadMethod="pad" x1="41.5563" x2="987.3603" y1="836.8725" y2="836.8725"><stop offset="0" stop-color="#c6cad0"/><stop offset="1" stop-color="#c0c9cf"/></linearGradient><linearGradient gradientUnits="userSpaceOnUse" id="SVGID_2_" node-id="32" spreadMethod="pad" x1="41.7319" x2="987.3604" y1="669.0893" y2="669.0893"><stop offset="0" stop-color="#d7d8d5"/><stop offset="1" stop-color="#f6f6f9"/></linearGradient><linearGradient gradientUnits="userSpaceOnUse" id="SVGID_3_" node-id="38" spreadMethod="pad" x1="116.8137" x2="619.7737" y1="381.2917" y2="381.2917"><stop offset="0" stop-color="#8474f9"/><stop offset="1" stop-color="#a298fe"/></linearGradient><linearGradient gradientUnits="userSpaceOnUse" id="SVGID_4_" node-id="43" spreadMethod="pad" x1="152.6416" x2="630.5283" y1="392.8224" y2="392.8224"><stop offset="0" stop-color="#a298fe"/><stop offset="1" stop-color="#8474f9"/></linearGradient><linearGradient gradientUnits="userSpaceOnUse" id="SVGID_5_" node-id="48" spreadMethod="pad" x1="175.4712" x2="604.9906" y1="397.6006" y2="397.6006"><stop offset="0" stop-color="#8474f9"/><stop offset="1" stop-color="#a298fe"/></linearGradient><linearGradient gradientUnits="userSpaceOnUse" id="SVGID_7_" node-id="55" spreadMethod="pad" x1="175.4712" x2="604.9906" y1="397.6006" y2="397.6006"><stop offset="0" stop-color="#8474f9"/><stop offset="1" stop-color="#a298fe"/></linearGradient><linearGradient gradientUnits="userSpaceOnUse" id="SVGID_9_" node-id="69" spreadMethod="pad" x1="474.7877" x2="653.9532" y1="692.2353" y2="692.2353"><stop offset="0" stop-color="#ffa21e"/><stop offset="1" stop-color="#ffcb27"/></linearGradient><linearGradient gradientUnits="userSpaceOnUse" id="SVGID_10_" node-id="74" spreadMethod="pad" x1="528.3252" x2="675.3359" y1="710.2766" y2="710.2766"><stop offset="0" stop-color="#ffcb27"/><stop offset="1" stop-color="#ffa21e"/></linearGradient><linearGradient gradientUnits="userSpaceOnUse" id="SVGID_11_" node-id="79" spreadMethod="pad" x1="486.5803" x2="672.7623" y1="448.0689" y2="448.0689"><stop offset="0" stop-color="#ffa21e"/><stop offset="1" stop-color="#ffcb27"/></linearGradient><linearGradient gradientUnits="userSpaceOnUse" id="SVGID_13_" node-id="86" spreadMethod="pad" x1="377.0209" x2="747.1708" y1="279.8066" y2="279.8066"><stop offset="0" stop-color="#ffa21e"/><stop offset="1" stop-color="#ffcb27"/></linearGradient><linearGradient gradientUnits="userSpaceOnUse" id="SVGID_15_" node-id="92" spreadMethod="pad" x1="377.0209" x2="747.1709" y1="279.8065" y2="279.8065"><stop offset="0" stop-color="#ffa21e"/><stop offset="1" stop-color="#ffcb27"/></linearGradient><linearGradient gradientUnits="userSpaceOnUse" id="SVGID_16_" node-id="97" spreadMethod="pad" x1="430.5585" x2="789.1353" y1="392.8371" y2="392.8371"><stop offset="0" stop-color="#ffcb27"/><stop offset="1" stop-color="#ffa21e"/></linearGradient><clipPath id="SVGID_14_" node-id="90"><path d="M 437.50 428.40 L 384.00 397.30 C 376.40 392.90 374.60 382.80 380.50 369.00 C 405.50 310.90 436.80 256.80 480.90 215.00 C 506.90 190.20 532.20 170.70 556.40 156.70 C 607.00 127.50 653.30 122.70 693.70 146.10 L 747.20 177.20 C 706.80 153.70 660.50 158.50 609.90 187.80 C 585.70 201.80 560.50 221.40 534.40 246.10 C 490.30 287.80 459.00 341.90 434.00 400.10 C 428.20 413.90 430.00 424.00 437.50 428.40 Z" fill="#000000" fill-rule="nonzero" node-id="177" stroke="none" target-height="305.7" target-width="372.6" target-x="374.6" target-y="122.7"/></clipPath></defs><g node-id="268"><g node-id="275"><path d="M 987.20 671.20 C 987.10 671.90 987.10 672.50 987.00 673.20 C 986.90 673.80 986.70 674.30 986.60 674.80 C 986.40 675.40 986.30 676.10 986.10 676.70 C 985.90 677.20 985.70 677.70 985.40 678.30 C 985.10 679.00 984.80 679.60 984.50 680.30 C 984.20 680.80 983.90 681.30 983.60 681.70 C 983.10 682.50 982.60 683.20 982.10 683.90 C 981.80 684.30 981.40 684.80 981.10 685.20 C 980.30 686.20 979.40 687.20 978.40 688.10 C 978.00 688.40 977.70 688.80 977.30 689.20 C 976.70 689.80 976.00 690.30 975.30 690.80 C 974.70 691.30 974.10 691.80 973.50 692.20 C 972.80 692.70 972.00 693.20 971.20 693.70 C 970.40 694.20 969.60 694.80 968.70 695.30 L 561.50 932.00 C 559.60 933.10 557.50 934.10 555.40 935.10 C 554.80 935.40 554.20 935.60 553.60 935.90 C 552.00 936.60 550.30 937.20 548.50 937.80 C 547.90 938.00 547.30 938.20 546.70 938.40 C 545.60 938.70 544.50 939.00 543.40 939.30 C 542.60 939.50 541.70 939.80 540.90 940.00 C 539.70 940.30 538.50 940.50 537.30 940.80 C 536.50 941.00 535.70 941.10 534.90 941.30 C 532.50 941.70 530.10 942.10 527.60 942.30 C 526.80 942.40 526.10 942.40 525.30 942.50 C 523.90 942.60 522.40 942.70 521.00 942.80 C 520.10 942.80 519.10 942.90 518.20 942.90 C 517.00 942.90 515.90 942.90 514.70 942.90 C 513.70 942.90 512.70 942.90 511.80 942.80 C 510.70 942.80 509.60 942.70 508.50 942.60 C 507.50 942.50 506.50 942.40 505.50 942.40 C 504.40 942.30 503.40 942.20 502.30 942.00 C 501.30 941.90 500.40 941.70 499.40 941.60 C 498.30 941.40 497.10 941.20 496.00 941.00 C 495.10 940.80 494.20 940.70 493.30 940.50 C 492.00 940.20 490.60 939.90 489.30 939.50 C 488.60 939.30 487.80 939.10 487.10 938.90 C 484.70 938.20 482.40 937.40 480.20 936.60 C 479.10 936.20 478.00 935.70 476.90 935.20 C 476.40 935.00 475.80 934.70 475.30 934.50 C 473.70 933.70 472.10 932.90 470.60 932.00 L 60.70 695.40 C 48.00 688.10 41.70 678.50 41.70 668.90 L 41.50 730.80 C 41.50 740.40 47.80 750.00 60.50 757.30 L 470.40 994.00 C 471.90 994.90 473.50 995.70 475.10 996.50 C 475.60 996.80 476.20 997.00 476.70 997.20 C 477.70 997.60 478.60 998.10 479.60 998.50 C 479.70 998.50 479.80 998.60 480.00 998.60 C 482.20 999.50 484.50 1000.20 486.90 1000.90 C 487.10 1001.00 487.30 1001.00 487.40 1001.10 C 487.90 1001.30 488.50 1001.40 489.00 1001.50 C 490.30 1001.90 491.60 1002.20 493.00 1002.50 C 493.40 1002.60 493.70 1002.70 494.10 1002.80 C 494.60 1002.90 495.20 1003.00 495.70 1003.10 C 496.80 1003.30 498.00 1003.50 499.10 1003.70 C 499.60 1003.80 500.00 1003.90 500.50 1003.90 C 501.00 1004.00 501.50 1004.00 502.00 1004.10 C 503.10 1004.20 504.10 1004.40 505.20 1004.50 C 505.70 1004.50 506.20 1004.60 506.70 1004.70 C 507.20 1004.70 507.70 1004.70 508.10 1004.80 C 509.20 1004.90 510.30 1004.90 511.40 1005.00 C 511.90 1005.00 512.50 1005.10 513.00 1005.10 C 513.40 1005.10 513.90 1005.10 514.30 1005.10 C 515.50 1005.10 516.70 1005.10 517.80 1005.10 C 518.40 1005.10 519.00 1005.10 519.50 1005.10 C 519.90 1005.10 520.20 1005.00 520.50 1005.00 C 522.00 1004.90 523.40 1004.80 524.80 1004.70 C 525.40 1004.70 526.00 1004.60 526.60 1004.60 C 526.80 1004.60 527.00 1004.50 527.10 1004.50 C 529.60 1004.20 532.00 1003.90 534.40 1003.50 C 534.50 1003.50 534.60 1003.50 534.70 1003.50 C 535.40 1003.40 536.10 1003.20 536.80 1003.10 C 538.00 1002.90 539.20 1002.60 540.40 1002.30 C 541.30 1002.10 542.10 1001.80 542.90 1001.60 C 544.00 1001.30 545.10 1001.00 546.20 1000.70 C 546.40 1000.60 546.70 1000.60 546.90 1000.50 C 547.30 1000.40 547.70 1000.20 548.00 1000.10 C 549.70 999.50 551.40 998.90 553.10 998.20 C 553.70 997.90 554.30 997.70 554.90 997.40 C 557.00 996.50 559.00 995.50 561.00 994.30 L 968.20 757.70 C 968.50 757.50 968.70 757.40 969.00 757.20 C 969.60 756.80 970.10 756.50 970.70 756.10 C 971.50 755.60 972.30 755.10 973.00 754.60 C 973.60 754.10 974.20 753.70 974.80 753.20 C 975.50 752.70 976.20 752.10 976.80 751.60 C 976.90 751.50 977.10 751.40 977.20 751.30 C 977.50 751.10 977.60 750.80 977.90 750.60 C 978.90 749.60 979.80 748.70 980.60 747.70 C 980.80 747.50 981.00 747.30 981.20 747.10 C 981.40 746.90 981.50 746.70 981.60 746.40 C 982.20 745.70 982.60 744.90 983.10 744.20 C 983.30 743.90 983.60 743.60 983.70 743.30 C 983.80 743.10 983.80 743.00 983.90 742.80 C 984.30 742.10 984.50 741.50 984.80 740.80 C 985.00 740.40 985.20 740.00 985.30 739.60 C 985.30 739.50 985.40 739.30 985.40 739.20 C 985.60 738.60 985.80 737.90 986.00 737.30 C 986.10 736.90 986.30 736.40 986.40 736.00 C 986.40 735.90 986.40 735.80 986.40 735.70 C 986.50 735.00 986.60 734.40 986.60 733.70 C 986.60 733.30 986.70 732.80 986.80 732.40 C 986.80 732.20 986.80 732.00 986.80 731.80 L 987.00 669.90 C 987.40 669.90 987.30 670.50 987.20 671.20 Z" fill="url(#SVGID_1_)" fill-rule="nonzero" group-id="1,8" node-id="185" stroke="none" target-height="336.19995" target-width="945.9" target-x="41.5" target-y="668.9"/><g node-id="280"><path d="M 968.40 642.80 C 993.60 657.30 993.70 680.90 968.70 695.50 L 561.50 932.00 C 536.50 946.50 495.80 946.60 470.60 932.00 L 60.70 695.40 C 35.50 680.90 35.40 657.30 60.40 642.70 L 467.60 406.10 C 492.60 391.50 533.40 391.60 558.50 406.10 L 968.40 642.80 Z" fill="url(#SVGID_2_)" fill-rule="nonzero" group-id="1,8,13" node-id="189" stroke="none" target-height="555.1" target-width="958.3" target-x="35.4" target-y="391.5"/></g></g></g><g node-id="269"><g node-id="276"><path d="M 601.70 46.60 C 602.50 46.30 603.30 46.00 604.00 45.80 C 604.50 45.70 605.00 45.50 605.50 45.40 C 606.00 45.30 606.40 45.20 606.80 45.10 C 607.40 45.00 608.00 44.90 608.60 44.80 C 608.90 44.80 609.30 44.70 609.60 44.70 C 610.30 44.60 611.10 44.60 611.80 44.70 C 611.90 44.70 612.10 44.70 612.20 44.70 C 613.00 44.70 613.90 44.90 614.60 45.00 C 614.80 45.00 615.00 45.10 615.20 45.10 C 615.80 45.20 616.40 45.40 617.00 45.60 C 617.20 45.70 617.40 45.70 617.60 45.80 C 618.40 46.10 619.10 46.40 619.80 46.80 L 583.90 26.00 C 583.80 26.00 583.80 25.90 583.70 25.90 C 583.20 25.60 582.60 25.30 582.00 25.10 C 581.90 25.10 581.80 25.00 581.70 25.00 C 581.50 24.90 581.30 24.90 581.10 24.80 C 580.80 24.70 580.50 24.60 580.20 24.50 C 579.90 24.40 579.60 24.40 579.30 24.30 C 579.10 24.30 578.90 24.20 578.70 24.20 C 578.60 24.20 578.50 24.10 578.40 24.10 C 577.70 24.00 577.10 23.90 576.40 23.90 C 576.40 23.90 576.30 23.90 576.30 23.90 C 576.20 23.90 576.00 23.90 575.90 23.90 C 575.40 23.90 574.80 23.90 574.20 23.90 C 574.00 23.90 573.90 23.90 573.70 24.00 C 573.40 24.00 573.00 24.10 572.70 24.10 C 572.40 24.10 572.10 24.10 571.70 24.20 C 571.40 24.20 571.20 24.30 570.90 24.40 C 570.50 24.50 570.00 24.60 569.60 24.70 C 569.30 24.80 569.10 24.80 568.80 24.90 C 568.60 25.00 568.30 25.10 568.10 25.20 C 567.30 25.40 566.60 25.70 565.80 26.00 C 565.50 26.10 565.30 26.20 565.00 26.30 C 564.80 26.40 564.70 26.50 564.50 26.50 C 563.10 27.10 561.80 27.70 560.40 28.50 L 149.80 265.40 C 148.10 266.40 146.40 267.60 144.70 268.80 C 144.40 269.00 144.10 269.20 143.80 269.50 C 142.20 270.80 140.70 272.10 139.20 273.60 C 139.10 273.70 138.90 273.80 138.80 273.90 C 138.60 274.10 138.30 274.40 138.10 274.70 C 137.40 275.50 136.60 276.20 135.90 277.10 C 135.70 277.40 135.40 277.60 135.20 277.80 C 135.00 278.00 134.80 278.30 134.60 278.50 C 134.20 279.00 133.70 279.60 133.30 280.10 C 133.00 280.40 132.80 280.70 132.50 281.10 C 132.30 281.40 132.10 281.70 131.80 282.00 C 131.50 282.40 131.20 282.80 130.90 283.30 C 130.70 283.60 130.50 283.80 130.30 284.10 C 129.90 284.60 129.60 285.10 129.30 285.60 C 129.10 285.90 128.90 286.20 128.70 286.60 C 128.60 286.70 128.50 286.80 128.40 287.00 C 127.80 287.90 127.20 288.90 126.70 289.80 C 126.70 289.90 126.60 289.90 126.60 290.00 C 126.50 290.20 126.40 290.40 126.30 290.60 C 125.90 291.30 125.50 291.90 125.20 292.60 C 125.00 292.90 124.90 293.20 124.70 293.50 C 124.50 293.80 124.40 294.20 124.20 294.50 C 124.10 294.80 123.90 295.10 123.80 295.40 C 123.40 296.20 123.10 296.90 122.80 297.70 C 122.70 297.90 122.70 298.00 122.60 298.20 C 122.60 298.20 122.60 298.30 122.50 298.30 C 122.10 299.30 121.70 300.30 121.30 301.30 C 121.20 301.50 121.20 301.60 121.10 301.80 C 121.00 302.20 120.80 302.50 120.70 302.90 C 120.50 303.40 120.30 303.90 120.10 304.40 C 120.00 304.80 119.90 305.10 119.80 305.50 C 119.70 306.00 119.50 306.40 119.40 306.90 C 119.30 307.20 119.20 307.50 119.10 307.80 C 119.00 308.30 118.90 308.80 118.70 309.30 C 118.60 309.90 118.40 310.40 118.30 311.00 C 118.30 311.20 118.20 311.40 118.10 311.60 C 118.00 312.00 118.00 312.40 117.90 312.80 C 117.70 313.70 117.60 314.50 117.50 315.40 C 117.50 315.60 117.40 315.90 117.40 316.20 C 117.40 316.40 117.40 316.60 117.40 316.90 C 117.20 318.80 117.00 320.80 117.00 322.60 L 118.10 696.80 C 118.10 702.00 119.00 706.40 120.70 710.00 C 122.40 713.60 124.80 716.30 127.80 718.00 L 163.60 738.80 C 157.70 735.30 153.90 728.00 153.90 717.60 L 152.80 343.40 C 152.80 341.50 152.90 339.60 153.20 337.70 C 153.30 337.20 153.30 336.80 153.40 336.30 C 153.50 335.40 153.70 334.60 153.80 333.70 C 153.90 333.10 154.00 332.50 154.20 331.90 C 154.30 331.30 154.50 330.80 154.60 330.20 C 154.80 329.40 155.00 328.60 155.20 327.80 C 155.30 327.30 155.50 326.90 155.60 326.40 C 155.90 325.50 156.20 324.60 156.50 323.70 C 156.60 323.30 156.80 323.00 156.90 322.60 C 157.40 321.40 157.80 320.20 158.40 319.00 C 158.50 318.80 158.50 318.70 158.60 318.50 C 159.10 317.40 159.60 316.40 160.10 315.30 C 160.30 315.00 160.40 314.60 160.60 314.30 C 161.10 313.30 161.60 312.30 162.20 311.30 C 162.30 311.10 162.40 310.90 162.50 310.70 C 163.20 309.50 163.90 308.40 164.60 307.30 C 164.80 307.00 165.00 306.70 165.30 306.30 C 165.80 305.50 166.40 304.70 166.90 303.90 C 167.20 303.50 167.50 303.00 167.80 302.60 C 168.30 302.00 168.80 301.30 169.30 300.70 C 169.70 300.20 170.20 299.60 170.60 299.10 C 171.00 298.60 171.40 298.10 171.90 297.70 C 172.60 296.90 173.40 296.10 174.10 295.30 C 174.50 294.90 174.80 294.60 175.20 294.20 C 176.70 292.70 178.20 291.40 179.80 290.10 C 180.10 289.90 180.40 289.70 180.70 289.40 C 182.40 288.10 184.10 287.00 185.80 286.00 L 596.30 49.10 C 597.70 48.30 599.10 47.60 600.40 47.10 C 600.80 46.90 601.20 46.70 601.70 46.60 Z" fill="url(#SVGID_3_)" fill-rule="nonzero" group-id="2,9" node-id="198" stroke="none" target-height="714.89996" target-width="502.8" target-x="117" target-y="23.9"/><g node-id="281"><path d="M 596.30 49.10 C 614.50 38.60 629.40 47.10 629.50 68.10 L 630.60 442.30 C 630.70 463.20 615.80 488.90 597.60 499.40 L 186.90 736.50 C 168.70 747.00 153.80 738.50 153.70 717.60 L 152.60 343.40 C 152.50 322.50 167.40 296.70 185.60 286.20 L 596.30 49.10 Z" fill="url(#SVGID_4_)" fill-rule="nonzero" group-id="2,9,14" node-id="202" stroke="none" target-height="708.4" target-width="478.2" target-x="152.5" target-y="38.6"/></g></g></g><g node-id="270"><path d="M 575.70 106.60 C 591.30 97.60 604.10 104.90 604.10 122.80 L 605.00 424.90 C 605.10 442.80 592.30 464.80 576.70 473.90 L 204.70 688.70 C 189.10 697.70 176.30 690.40 176.30 672.50 L 175.40 370.40 C 175.30 352.50 188.10 330.50 203.60 321.50 L 575.70 106.60 Z" fill="url(#SVGID_5_)" fill-rule="nonzero" group-id="3" node-id="209" stroke="none" target-height="600.10004" target-width="429.8" target-x="175.3" target-y="97.6"/><g node-id="277"><g node-id="282"><path d="M 575.70 106.60 C 591.30 97.60 604.10 104.90 604.10 122.80 L 605.00 424.90 C 605.10 442.80 592.30 464.80 576.70 473.90 L 204.70 688.70 C 189.10 697.70 176.30 690.40 176.30 672.50 L 175.40 370.40 C 175.30 352.50 188.10 330.50 203.60 321.50 L 575.70 106.60 Z" fill="url(#SVGID_7_)" fill-rule="nonzero" group-id="3,10,15" node-id="215" stroke="none" target-height="600.10004" target-width="429.8" target-x="175.3" target-y="97.6"/></g></g></g><g node-id="271"><path d="M 550.20 193.40 C 558.60 188.60 565.40 192.50 565.50 202.10 L 565.50 203.90 C 565.50 213.50 558.70 225.30 550.30 230.20 L 230.40 414.90 C 222.00 419.70 215.20 415.80 215.10 406.20 L 215.10 404.40 C 215.10 394.80 221.90 383.00 230.30 378.10 L 550.20 193.40 Z" fill="#ffffff" fill-rule="nonzero" group-id="4" node-id="222" stroke="none" target-height="231.1" target-width="350.4" target-x="215.1" target-y="188.6"/></g><g node-id="272"><path d="M 561.70 286.10 C 570.10 281.30 576.90 285.20 577.00 294.80 L 577.00 296.60 C 577.00 306.20 570.20 318.00 561.80 322.90 L 242.00 507.50 C 233.70 512.30 226.80 508.40 226.80 498.80 L 226.80 497.00 C 226.80 487.40 233.60 475.60 241.90 470.80 L 561.70 286.10 Z" fill="#ffffff" fill-rule="nonzero" group-id="5" node-id="227" stroke="none" target-height="231" target-width="350.2" target-x="226.8" target-y="281.3"/></g><g node-id="273"><path d="M 565.20 378.70 C 573.60 373.90 580.40 377.80 580.50 387.40 L 580.50 389.20 C 580.50 398.80 573.70 410.60 565.30 415.40 L 245.50 600.10 C 237.10 604.90 230.30 601.00 230.20 591.40 L 230.20 589.60 C 230.20 580.00 237.00 568.20 245.40 563.30 L 565.20 378.70 Z" fill="#ffffff" fill-rule="nonzero" group-id="6" node-id="232" stroke="none" target-height="231.00003" target-width="350.3" target-x="230.2" target-y="373.9"/></g><g node-id="274"><g node-id="278"><path d="M 616.80 619.00 C 616.80 619.00 616.80 619.00 616.80 619.00 C 618.80 618.30 620.70 617.80 622.60 617.40 C 623.60 617.20 624.60 616.90 625.60 616.80 C 626.90 616.60 628.20 616.30 629.40 616.20 C 630.10 616.10 630.90 616.00 631.60 616.00 C 633.10 615.90 634.60 615.90 636.10 615.90 C 636.50 615.90 636.90 615.90 637.40 615.90 C 639.20 616.00 641.00 616.20 642.80 616.60 C 643.20 616.70 643.60 616.80 644.00 616.90 C 645.40 617.20 646.70 617.60 648.10 618.10 C 648.50 618.20 648.90 618.40 649.30 618.50 C 650.90 619.10 652.50 619.90 654.10 620.80 L 654.10 620.80 C 654.10 620.80 654.10 620.80 654.10 620.80 L 600.60 589.70 C 600.50 589.60 600.30 589.50 600.20 589.50 C 599.00 588.80 597.80 588.30 596.60 587.70 C 596.40 587.60 596.10 587.50 595.80 587.40 C 595.40 587.20 595.00 587.10 594.60 587.00 C 594.00 586.80 593.40 586.50 592.80 586.40 C 592.10 586.20 591.30 586.10 590.60 585.90 C 590.20 585.80 589.80 585.70 589.40 585.60 C 589.20 585.60 589.00 585.50 588.80 585.50 C 587.40 585.30 585.90 585.10 584.40 585.00 C 584.30 585.00 584.10 585.00 584.00 585.00 C 583.60 585.00 583.20 585.00 582.80 585.00 C 581.80 585.00 580.70 584.90 579.60 585.00 C 579.20 585.00 578.70 585.10 578.30 585.10 C 577.60 585.20 576.80 585.20 576.10 585.30 C 575.50 585.40 574.90 585.40 574.20 585.50 C 573.60 585.60 572.90 585.80 572.20 585.90 C 571.20 586.10 570.20 586.30 569.20 586.50 C 568.70 586.60 568.20 586.70 567.70 586.80 C 566.30 587.20 564.90 587.60 563.50 588.10 C 563.50 588.10 563.50 588.10 563.40 588.10 C 561.90 588.60 560.50 589.20 559.00 589.80 C 558.40 590.10 557.70 590.40 557.00 590.70 C 556.40 591.00 555.80 591.20 555.20 591.50 C 553.00 592.60 550.70 593.70 548.40 595.00 C 546.00 596.40 543.60 597.90 541.30 599.50 C 540.50 600.00 539.80 600.60 539.00 601.10 C 537.40 602.20 535.90 603.40 534.30 604.60 C 533.40 605.30 532.60 606.00 531.70 606.70 C 530.30 607.90 528.90 609.10 527.60 610.30 C 526.70 611.10 525.90 611.90 525.00 612.70 C 524.40 613.30 523.80 613.80 523.20 614.40 C 522.70 614.90 522.30 615.40 521.80 615.90 C 520.10 617.60 518.40 619.40 516.80 621.30 C 516.30 621.90 515.70 622.40 515.20 623.10 C 514.90 623.50 514.60 623.90 514.20 624.30 C 513.30 625.40 512.30 626.50 511.40 627.70 C 510.70 628.60 509.90 629.40 509.30 630.30 C 508.90 630.80 508.50 631.40 508.10 631.90 C 507.40 632.80 506.80 633.70 506.10 634.60 C 505.60 635.40 505.00 636.10 504.40 636.90 C 503.70 637.80 503.10 638.80 502.50 639.80 C 502.00 640.50 501.50 641.30 501.00 642.00 C 500.70 642.40 500.50 642.80 500.20 643.20 C 498.90 645.20 497.70 647.20 496.50 649.30 C 496.50 649.40 496.40 649.40 496.40 649.50 C 496.30 649.70 496.10 650.00 496.00 650.20 C 495.00 651.90 494.00 653.60 493.10 655.40 C 492.80 656.00 492.50 656.70 492.10 657.30 C 491.70 658.00 491.40 658.70 491.00 659.40 C 490.70 660.10 490.30 660.80 489.90 661.50 C 489.10 663.10 488.40 664.80 487.60 666.50 C 487.50 666.80 487.30 667.20 487.10 667.50 C 487.10 667.60 487.00 667.70 487.00 667.80 C 486.10 669.90 485.20 672.10 484.40 674.30 C 484.20 674.70 484.10 675.10 484.00 675.50 C 483.70 676.30 483.40 677.10 483.20 677.90 C 482.80 679.00 482.40 680.10 482.00 681.10 C 481.70 682.00 481.50 682.90 481.20 683.80 C 480.90 684.80 480.60 685.80 480.30 686.80 C 480.10 687.40 479.90 688.00 479.80 688.60 C 479.50 689.80 479.20 690.90 478.90 692.10 C 478.60 693.30 478.30 694.60 478.00 695.80 C 477.90 696.20 477.80 696.60 477.70 697.00 C 477.50 697.90 477.40 698.80 477.20 699.70 C 476.80 701.70 476.50 703.70 476.20 705.70 C 476.10 706.20 476.00 706.70 475.90 707.30 C 475.70 708.60 475.70 709.80 475.50 711.10 C 475.40 712.00 475.30 712.90 475.20 713.70 C 475.00 716.50 474.90 719.20 474.90 721.90 C 475.00 745.10 483.20 761.40 496.40 769.10 L 549.90 800.20 C 536.60 792.50 528.40 776.20 528.40 753.00 C 528.40 750.30 528.50 747.50 528.70 744.80 C 528.80 743.90 528.90 743.00 529.00 742.20 C 529.20 740.40 529.40 738.60 529.60 736.90 C 529.90 734.90 530.20 732.90 530.60 730.90 C 530.90 729.60 531.10 728.30 531.40 727.00 C 531.70 725.80 532.00 724.50 532.30 723.30 C 532.70 721.50 533.20 719.80 533.70 718.00 C 534.00 717.00 534.30 716.00 534.60 715.00 C 535.20 713.00 535.90 711.10 536.60 709.10 C 536.90 708.30 537.20 707.50 537.50 706.70 C 538.50 704.00 539.60 701.30 540.70 698.70 C 540.80 698.40 541.00 698.00 541.20 697.70 C 542.20 695.30 543.40 693.00 544.50 690.70 C 544.90 690.00 545.20 689.30 545.60 688.60 C 546.80 686.20 548.10 683.80 549.50 681.50 C 549.60 681.30 549.70 681.00 549.90 680.80 C 551.40 678.30 552.90 675.80 554.50 673.30 C 555.00 672.50 555.50 671.80 556.00 671.10 C 557.20 669.40 558.40 667.70 559.60 666.00 C 560.30 665.10 560.90 664.20 561.60 663.30 C 562.70 661.90 563.80 660.50 564.90 659.10 C 565.80 658.00 566.70 656.80 567.70 655.70 C 568.60 654.70 569.40 653.70 570.30 652.80 C 572.00 651.00 573.60 649.20 575.40 647.40 C 576.50 646.30 577.60 645.20 578.70 644.20 C 579.60 643.40 580.40 642.60 581.30 641.80 C 582.70 640.60 584.10 639.40 585.50 638.20 C 586.40 637.50 587.20 636.80 588.10 636.10 C 589.60 634.90 591.20 633.70 592.80 632.60 C 593.60 632.10 594.30 631.50 595.10 631.00 C 597.40 629.40 599.80 627.90 602.20 626.50 C 604.50 625.20 606.70 624.00 609.00 623.00 C 609.60 622.70 610.20 622.40 610.80 622.20 C 612.50 620.60 614.70 619.70 616.80 619.00 Z" fill="url(#SVGID_9_)" fill-rule="nonzero" group-id="7,11" node-id="239" stroke="none" target-height="215.29999" target-width="179.19998" target-x="474.9" target-y="584.9"/><g node-id="283"><path d="M 601.80 625.90 C 642.90 602.20 675.20 621.10 675.30 668.30 C 675.40 714.40 642.40 771.60 602.30 794.80 C 561.70 818.30 528.50 799.30 528.30 752.60 C 528.20 705.50 560.70 649.60 601.80 625.90 Z" fill="url(#SVGID_10_)" fill-rule="nonzero" group-id="7,11,16" node-id="243" stroke="none" target-height="216.09998" target-width="147.20001" target-x="528.2" target-y="602.2"/></g></g><g node-id="279"><path d="M 672.80 331.90 C 672.80 331.00 672.80 330.20 672.70 329.40 C 672.70 328.70 672.70 327.90 672.60 327.20 C 672.50 326.40 672.40 325.60 672.20 324.80 C 672.10 324.10 672.00 323.40 671.90 322.80 C 671.70 322.00 671.50 321.30 671.20 320.50 C 671.00 319.90 670.90 319.30 670.70 318.70 C 670.40 318.00 670.10 317.30 669.70 316.60 C 669.40 316.10 669.20 315.50 668.90 315.00 C 668.50 314.30 668.00 313.60 667.60 313.00 C 667.30 312.50 667.00 312.10 666.70 311.60 C 666.10 310.90 665.50 310.20 664.80 309.60 C 664.50 309.30 664.20 308.90 663.90 308.60 C 662.90 307.70 661.80 306.80 660.60 306.00 C 660.20 305.80 659.80 305.50 659.50 305.30 L 606.00 274.20 C 606.40 274.40 606.80 274.70 607.10 274.90 C 608.30 275.70 609.40 276.60 610.40 277.50 C 610.70 277.80 611.00 278.20 611.30 278.50 C 611.90 279.20 612.60 279.80 613.20 280.50 C 613.50 280.90 613.80 281.40 614.10 281.90 C 614.60 282.60 615.00 283.20 615.40 283.90 C 615.70 284.40 615.90 285.00 616.20 285.50 C 616.50 286.20 616.90 286.90 617.20 287.60 C 617.40 288.20 617.60 288.80 617.70 289.40 C 617.90 290.20 618.20 290.90 618.40 291.70 C 618.50 292.30 618.60 293.00 618.70 293.70 C 618.80 294.50 619.00 295.30 619.10 296.10 C 619.20 296.80 619.20 297.50 619.20 298.30 C 619.20 299.10 619.30 300.00 619.30 300.80 C 619.30 301.60 619.20 302.30 619.10 303.10 C 619.00 304.00 619.00 304.80 618.90 305.70 C 618.80 306.90 618.50 308.10 618.30 309.40 C 618.20 309.80 618.20 310.30 618.10 310.70 C 617.80 312.30 617.30 313.90 616.90 315.60 C 616.80 316.00 616.70 316.40 616.50 316.80 C 616.10 318.20 615.60 319.60 615.10 321.00 C 615.00 321.30 614.90 321.60 614.80 322.00 C 614.20 323.60 613.50 325.30 612.70 327.00 C 612.50 327.40 612.30 327.80 612.20 328.20 C 611.50 329.70 610.80 331.10 610.00 332.60 C 609.80 333.00 609.60 333.30 609.50 333.70 C 608.60 335.50 607.60 337.30 606.50 339.10 C 606.20 339.60 605.90 340.10 605.60 340.60 C 604.80 341.90 603.90 343.30 603.10 344.60 C 602.60 345.40 602.00 346.20 601.50 347.00 C 600.40 348.60 599.30 350.20 598.10 351.80 C 594.80 356.30 591.40 360.80 588.00 365.20 C 587.10 366.30 586.30 367.40 585.40 368.50 C 582.00 372.90 578.50 377.30 575.00 381.60 C 570.10 387.70 565.20 393.90 560.20 400.00 C 556.80 404.30 553.30 408.70 549.90 413.10 C 549.60 413.50 549.30 413.90 549.00 414.30 C 548.10 415.50 547.20 416.70 546.20 417.90 C 543.50 421.50 540.70 425.10 538.00 428.80 C 536.80 430.40 535.70 432.00 534.50 433.60 C 533.60 434.90 532.60 436.20 531.70 437.50 C 530.30 439.40 529.00 441.50 527.70 443.40 C 526.30 445.50 524.80 447.60 523.40 449.80 C 522.90 450.60 522.30 451.40 521.80 452.20 C 519.30 456.10 516.90 460.00 514.60 464.00 C 514.40 464.40 514.10 464.80 513.90 465.20 C 512.70 467.30 511.60 469.40 510.50 471.40 C 510.40 471.60 510.30 471.70 510.20 471.90 C 509.10 474.00 508.10 476.00 507.10 478.10 C 506.90 478.60 506.60 479.00 506.40 479.50 C 506.40 479.50 506.40 479.60 506.30 479.60 C 505.10 482.10 503.90 484.70 502.80 487.20 C 502.80 487.30 502.70 487.40 502.70 487.40 C 502.40 488.00 502.20 488.60 502.00 489.10 C 501.20 491.00 500.40 492.90 499.70 494.80 C 499.60 495.00 499.50 495.30 499.40 495.50 C 499.20 496.10 499.00 496.80 498.70 497.40 C 498.00 499.20 497.40 501.00 496.80 502.80 C 496.70 503.20 496.50 503.60 496.40 504.00 C 496.20 504.50 496.10 505.00 496.00 505.40 C 495.30 507.60 494.60 509.70 494.00 511.90 C 493.90 512.40 493.70 512.90 493.50 513.40 C 493.40 513.60 493.40 513.80 493.40 514.00 C 492.50 517.20 491.70 520.40 491.00 523.60 C 490.90 523.90 490.80 524.20 490.80 524.50 C 490.70 525.10 490.60 525.70 490.50 526.30 C 490.20 527.70 489.90 529.10 489.70 530.60 C 489.50 531.60 489.30 532.60 489.20 533.60 C 489.00 535.00 488.80 536.40 488.60 537.90 C 488.50 538.50 488.40 539.10 488.30 539.70 C 488.30 540.00 488.20 540.30 488.20 540.70 C 487.90 543.30 487.60 545.80 487.40 548.30 C 487.40 548.40 487.40 548.50 487.40 548.70 C 487.20 551.40 487.00 554.00 486.90 556.70 C 486.90 557.50 486.80 558.20 486.80 559.00 C 486.70 561.00 486.70 562.90 486.70 564.90 C 486.70 565.70 486.70 566.40 486.70 567.20 C 486.70 569.80 486.80 572.40 486.90 575.00 C 487.40 583.30 489.60 588.80 493.50 591.10 L 547.00 622.20 C 543.10 619.90 540.90 614.50 540.40 606.10 C 540.30 603.50 540.20 600.90 540.20 598.30 C 540.20 597.50 540.20 596.80 540.20 596.00 C 540.20 594.00 540.20 592.10 540.30 590.10 C 540.30 589.30 540.30 588.60 540.40 587.80 C 540.50 585.10 540.70 582.50 540.90 579.80 C 540.90 579.70 540.90 579.60 540.90 579.40 C 541.10 576.90 541.40 574.30 541.70 571.80 C 541.80 570.90 541.90 570.00 542.10 569.00 C 542.30 567.60 542.50 566.20 542.70 564.70 C 542.90 563.70 543.00 562.70 543.20 561.70 C 543.50 560.30 543.70 558.90 544.00 557.40 C 544.20 556.50 544.40 555.60 544.60 554.70 C 545.30 551.50 546.10 548.30 547.00 545.10 C 547.20 544.40 547.40 543.70 547.60 543.10 C 548.20 541.00 548.90 538.80 549.60 536.70 C 549.90 535.80 550.20 534.90 550.50 534.00 C 551.10 532.20 551.80 530.40 552.40 528.60 C 552.70 527.80 553.00 526.90 553.30 526.10 C 554.00 524.20 554.80 522.30 555.60 520.40 C 555.90 519.80 556.10 519.10 556.40 518.50 C 557.50 516.00 558.60 513.50 559.90 510.90 C 560.10 510.40 560.40 509.90 560.70 509.40 C 561.70 507.40 562.70 505.30 563.80 503.20 C 565.00 501.00 566.20 498.70 567.50 496.40 C 570.60 491.10 573.80 486.00 577.10 480.90 C 578.50 478.70 579.90 476.60 581.40 474.50 C 583.60 471.20 585.90 467.90 588.20 464.60 C 589.30 463.00 590.50 461.40 591.70 459.80 C 594.40 456.10 597.10 452.50 599.90 448.90 C 600.80 447.70 601.70 446.50 602.70 445.30 C 606.40 440.50 610.10 435.70 613.90 431.00 C 618.80 424.80 623.70 418.70 628.60 412.60 C 632.10 408.20 635.50 403.90 639.00 399.50 C 639.70 398.60 640.40 397.70 641.10 396.80 C 641.30 396.60 641.40 396.40 641.60 396.10 C 645.00 391.70 648.40 387.20 651.70 382.70 C 652.40 381.70 653.10 380.70 653.80 379.80 C 654.20 379.20 654.60 378.50 655.10 377.90 C 655.60 377.10 656.20 376.30 656.70 375.50 C 657.00 375.10 657.20 374.70 657.50 374.30 C 658.10 373.30 658.70 372.40 659.20 371.40 C 659.50 370.90 659.80 370.40 660.10 369.90 C 660.20 369.70 660.30 369.60 660.40 369.40 C 661.30 367.90 662.10 366.50 662.80 365.00 C 662.90 364.80 663.00 364.70 663.00 364.50 C 663.20 364.10 663.40 363.80 663.50 363.40 C 663.90 362.60 664.40 361.70 664.80 360.90 C 665.10 360.30 665.40 359.60 665.70 359.00 C 665.90 358.60 666.10 358.20 666.20 357.80 C 666.30 357.50 666.40 357.30 666.60 357.00 C 667.10 355.80 667.60 354.50 668.10 353.30 C 668.20 353.10 668.20 353.00 668.30 352.80 C 668.40 352.50 668.50 352.20 668.60 351.80 C 668.90 351.10 669.10 350.30 669.40 349.60 C 669.60 348.90 669.80 348.30 670.00 347.60 C 670.10 347.20 670.20 346.80 670.40 346.40 C 670.50 346.20 670.50 346.00 670.60 345.70 C 671.00 344.30 671.30 343.00 671.60 341.60 C 671.60 341.60 671.60 341.50 671.60 341.50 C 671.70 341.10 671.70 340.60 671.80 340.20 C 672.00 339.10 672.20 337.90 672.40 336.90 C 672.40 336.80 672.40 336.70 672.40 336.60 C 672.50 335.70 672.50 334.80 672.60 333.90 C 672.70 333.50 672.70 332.70 672.80 331.90 Z" fill="url(#SVGID_11_)" fill-rule="nonzero" group-id="7,12" node-id="249" stroke="none" target-height="348" target-width="186.09998" target-x="486.7" target-y="274.2"/><g node-id="284"><g node-id="286"><path d="M 437.50 428.40 L 384.00 397.30 C 376.40 392.90 374.60 382.80 380.50 369.00 C 405.50 310.90 436.80 256.80 480.90 215.00 C 506.90 190.20 532.20 170.70 556.40 156.70 C 607.00 127.50 653.30 122.70 693.70 146.10 L 747.20 177.20 C 706.80 153.70 660.50 158.50 609.90 187.80 C 585.70 201.80 560.50 221.40 534.40 246.10 C 490.30 287.80 459.00 341.90 434.00 400.10 C 428.20 413.90 430.00 424.00 437.50 428.40 Z" fill="url(#SVGID_13_)" fill-rule="nonzero" group-id="7,12,17,19" node-id="255" stroke="none" target-height="305.7" target-width="372.6" target-x="374.6" target-y="122.7"/></g><g clip-path="url(#SVGID_14_)" group-id="7,12,17,20" node-id="258"><path d="M 693.60 146.10 C 693.10 145.80 692.70 145.60 692.20 145.30 C 688.30 143.10 684.30 141.20 680.30 139.50 C 676.50 137.90 672.70 136.60 668.80 135.40 C 665.00 134.30 661.20 133.40 657.40 132.80 C 653.60 132.10 649.70 131.70 645.80 131.40 C 641.80 131.10 637.70 131.10 633.50 131.30 C 629.10 131.50 624.60 131.90 620.00 132.60 C 614.80 133.40 609.60 134.50 604.30 135.90 C 597.30 137.80 590.30 140.20 583.10 143.20 C 574.30 146.90 565.30 151.30 556.20 156.60 C 532.00 170.60 506.80 190.20 480.70 214.90 C 479.10 216.40 477.50 218.00 475.90 219.60 C 470.00 225.50 464.30 231.60 458.80 237.90 C 454.40 243.00 450.10 248.20 446.00 253.60 C 442.20 258.50 438.50 263.50 434.90 268.70 C 431.40 273.80 427.90 278.90 424.60 284.10 C 421.10 289.50 417.80 295.00 414.50 300.60 C 411.00 306.60 407.60 312.80 404.30 319.00 C 400.50 326.10 396.90 333.20 393.40 340.50 C 389.20 349.20 385.20 358.10 381.30 367.00 C 381.00 367.70 380.70 368.30 380.40 369.00 C 380.10 369.60 379.90 370.30 379.60 370.90 C 379.30 371.60 379.10 372.30 378.80 373.00 C 378.60 373.70 378.30 374.50 378.10 375.20 C 377.90 376.00 377.70 376.80 377.50 377.50 C 377.30 378.40 377.10 379.30 377.00 380.20 C 376.00 388.20 378.40 394.10 383.80 397.20 L 437.30 428.30 C 432.00 425.20 429.50 419.30 430.50 411.30 C 430.60 410.40 430.80 409.50 431.00 408.60 C 431.20 407.80 431.40 407.10 431.60 406.30 C 431.80 405.60 432.00 404.80 432.30 404.10 C 432.50 403.40 432.80 402.70 433.10 402.00 C 433.30 401.40 433.60 400.80 433.90 400.10 C 434.20 399.40 434.50 398.80 434.80 398.10 C 438.70 389.10 442.70 380.30 446.90 371.60 C 450.40 364.30 454.00 357.20 457.80 350.10 C 461.10 343.90 464.50 337.80 468.00 331.70 C 471.30 326.10 474.60 320.60 478.10 315.20 C 481.40 310.00 484.90 304.80 488.40 299.80 C 492.00 294.70 495.70 289.70 499.50 284.70 C 503.60 279.40 507.90 274.10 512.30 269.00 C 517.80 262.70 523.50 256.60 529.40 250.70 C 531.00 249.10 532.60 247.60 534.20 246.00 C 560.20 221.20 585.50 201.70 609.70 187.70 C 618.80 182.40 627.80 178.00 636.60 174.30 C 643.80 171.30 650.80 168.90 657.80 167.00 C 663.10 165.60 668.40 164.40 673.50 163.70 C 678.00 163.00 682.50 162.60 687.00 162.40 C 691.10 162.20 695.20 162.30 699.30 162.50 C 703.20 162.70 707.10 163.20 710.90 163.90 C 714.70 164.60 718.60 165.40 722.30 166.50 C 726.20 167.60 730.00 169.00 733.80 170.60 C 737.80 172.30 741.80 174.20 745.70 176.40 C 746.20 176.70 746.60 176.90 747.10 177.20 L 693.60 146.10 Z" fill="url(#SVGID_15_)" fill-rule="nonzero" group-id="7,12,17,20" node-id="260" stroke="none" target-height="297.19998" target-width="371.09998" target-x="376" target-y="131.1"/></g></g><path d="M 752.60 180.60 C 792.90 207.10 801.10 277.60 770.80 350.50 C 758.50 379.90 740.90 405.90 721.90 430.50 C 706.90 449.80 691.00 468.70 676.50 489.20 C 667.30 502.60 662.40 515.60 662.50 529.30 C 662.60 552.60 655.10 565.10 634.80 576.80 C 623.80 584.70 612.30 591.30 601.30 597.70 L 564.20 619.10 C 549.20 627.80 541.20 622.70 540.30 606.00 C 538.90 571.30 545.00 535.70 567.40 496.40 C 581.00 472.80 597.30 451.70 613.70 431.10 C 626.50 415.10 639.20 399.60 651.60 382.80 C 676.20 349.30 679.70 318.80 660.70 305.90 C 654.00 301.60 645.60 299.90 635.90 301.90 C 623.50 303.90 611.50 308.20 600.10 314.80 C 577.70 327.70 557.20 349.70 538.80 381.80 C 531.80 394.00 525.60 406.20 519.50 418.40 C 513.60 430.00 507.70 437.50 501.40 441.20 C 496.40 444.10 491.20 444.50 485.50 442.60 C 470.50 438.60 455.40 434.10 440.80 429.80 C 430.60 426.50 427.50 415.60 434.10 400.10 C 459.10 342.00 490.40 287.90 534.50 246.10 C 560.50 221.30 585.80 201.80 610.00 187.80 C 662.80 157.30 711.00 153.40 752.60 180.60 Z" fill="url(#SVGID_16_)" fill-rule="nonzero" group-id="7,12,18" node-id="266" stroke="none" target-height="474.4" target-width="373.59998" target-x="427.5" target-y="153.4"/></g></g></svg>