<svg height="1024" node-id="1" sillyvg="true" template-height="1024" template-width="1024" version="1.1" viewBox="0 0 1024 1024" width="1024" xmlns="http://www.w3.org/2000/svg" xmlns:xlink="http://www.w3.org/1999/xlink"><defs node-id="138"><linearGradient gradientUnits="userSpaceOnUse" id="SVGID_1_" node-id="27" spreadMethod="pad" x1="147.661" x2="972.8689" y1="815.2039" y2="815.2039"><stop offset="0" stop-color="#f6f6f9"/><stop offset="1" stop-color="#d7d8d5"/></linearGradient><linearGradient gradientUnits="userSpaceOnUse" id="SVGID_2_" node-id="32" spreadMethod="pad" x1="148.0975" x2="972.8688" y1="607.709" y2="607.709"><stop offset="0" stop-color="#d7d8d5"/><stop offset="1" stop-color="#f6f6f9"/></linearGradient><linearGradient gradientUnits="userSpaceOnUse" id="SVGID_3_" node-id="36" spreadMethod="pad" x1="83.2121" x2="83.2121" y1="688.1516" y2="435.5429"><stop offset="0" stop-color="#ffffff" stop-opacity="0"/><stop offset="1" stop-color="#00b182"/></linearGradient><linearGradient gradientUnits="userSpaceOnUse" id="SVGID_4_" node-id="40" spreadMethod="pad" x1="733.441" x2="733.441" y1="447.6906" y2="195.0818"><stop offset="0" stop-color="#ffffff" stop-opacity="0"/><stop offset="1" stop-color="#00b182"/></linearGradient><linearGradient gradientUnits="userSpaceOnUse" id="SVGID_5_" node-id="44" spreadMethod="pad" x1="926.9045" x2="926.9045" y1="576.2356" y2="323.6269"><stop offset="0" stop-color="#ffffff" stop-opacity="0"/><stop offset="1" stop-color="#00b182"/></linearGradient><linearGradient gradientUnits="userSpaceOnUse" id="SVGID_6_" node-id="48" spreadMethod="pad" x1="341.9954" x2="341.9954" y1="305.2454" y2="52.6367"><stop offset="0" stop-color="#ffffff" stop-opacity="0"/><stop offset="1" stop-color="#00b182"/></linearGradient><linearGradient gradientUnits="userSpaceOnUse" id="SVGID_7_" node-id="54" spreadMethod="pad" x1="132.3122" x2="566.7856" y1="313.3783" y2="313.3783"><stop offset="0" stop-color="#00c692"/><stop offset="1" stop-color="#00ab7e"/></linearGradient><linearGradient gradientUnits="userSpaceOnUse" id="SVGID_8_" node-id="59" spreadMethod="pad" x1="161.7858" x2="575.5821" y1="322.8644" y2="322.8644"><stop offset="0" stop-color="#00ab7e"/><stop offset="1" stop-color="#00c692"/></linearGradient><linearGradient gradientUnits="userSpaceOnUse" id="SVGID_9_" node-id="63" spreadMethod="pad" x1="181" x2="550.9214" y1="327.1792" y2="327.1792"><stop offset="0" stop-color="#00c692"/><stop offset="1" stop-color="#00ab7e"/></linearGradient><linearGradient gradientUnits="userSpaceOnUse" id="SVGID_10_" node-id="69" spreadMethod="pad" x1="575.5319" x2="660.5604" y1="509.7893" y2="439.4086"><stop offset="0" stop-color="#ffe2c4"/><stop offset="1" stop-color="#ffb870"/></linearGradient><linearGradient gradientUnits="userSpaceOnUse" id="SVGID_11_" node-id="77" spreadMethod="pad" x1="600.611" x2="694.0726" y1="658.9045" y2="658.9045"><stop offset="0" stop-color="#343546"/><stop offset="1" stop-color="#585a6c"/></linearGradient><linearGradient gradientUnits="userSpaceOnUse" id="SVGID_12_" node-id="81" spreadMethod="pad" x1="600.611" x2="638.3496" y1="657.2406" y2="657.2406"><stop offset="0" stop-color="#343546"/><stop offset="1" stop-color="#585a6c"/></linearGradient><linearGradient gradientUnits="userSpaceOnUse" id="SVGID_13_" node-id="85" spreadMethod="pad" x1="613.1318" x2="659.8608" y1="672.3957" y2="672.3957"><stop offset="0" stop-color="#343546"/><stop offset="1" stop-color="#585a6c"/></linearGradient><linearGradient gradientUnits="userSpaceOnUse" id="SVGID_14_" node-id="89" spreadMethod="pad" x1="600.611" x2="694.0726" y1="597.8429" y2="597.8429"><stop offset="0" stop-color="#343546"/><stop offset="1" stop-color="#585a6c"/></linearGradient><linearGradient gradientTransform="matrix(0.9245 -0.3811 0.3811 0.9245 -158.4207 233.6931)" gradientUnits="userSpaceOnUse" id="SVGID_15_" node-id="101" spreadMethod="pad" x1="650.0281" x2="692.2982" y1="489.6264" y2="489.6264"><stop offset="0" stop-color="#ffe2c4"/><stop offset="1" stop-color="#ffb870"/></linearGradient><linearGradient gradientTransform="matrix(0.7703 -0.6376 0.6376 0.7703 -184.7574 472.5178)" gradientUnits="userSpaceOnUse" id="SVGID_16_" node-id="106" spreadMethod="pad" x1="510.9051" x2="623.42" y1="550.7697" y2="550.7697"><stop offset="0" stop-color="#ffe2c4"/><stop offset="1" stop-color="#ffb870"/></linearGradient></defs><g node-id="387"><g node-id="395"><path d="M 693.10 792.30 L 676.10 802.20 C 672.10 804.20 668.00 806.10 663.90 808.00 C 662.50 808.60 661.10 809.20 659.70 809.80 C 656.90 811.00 654.20 812.20 651.40 813.30 C 649.70 814.00 648.00 814.60 646.20 815.30 C 643.60 816.30 641.10 817.30 638.50 818.30 C 636.60 819.00 634.70 819.60 632.90 820.30 C 630.40 821.20 627.90 822.10 625.30 822.90 C 623.60 823.50 621.80 824.00 620.00 824.50 C 617.10 825.40 614.20 826.30 611.20 827.20 C 609.30 827.80 607.30 828.30 605.40 828.80 C 602.60 829.60 599.80 830.30 596.90 831.10 C 594.90 831.60 592.80 832.10 590.80 832.60 C 588.00 833.30 585.20 833.90 582.30 834.60 C 580.20 835.10 578.10 835.50 576.10 835.90 C 573.30 836.50 570.40 837.10 567.50 837.60 C 565.60 838.00 563.70 838.30 561.70 838.70 C 555.70 839.80 549.60 840.80 543.50 841.60 C 543.00 841.70 542.50 841.70 542.00 841.80 C 536.30 842.60 530.60 843.20 524.90 843.80 C 523.10 844.00 521.30 844.20 519.40 844.30 C 515.80 844.60 512.10 844.90 508.50 845.20 C 506.70 845.30 504.80 845.50 503.00 845.60 C 498.50 845.90 494.10 846.10 489.60 846.30 C 488.60 846.30 487.60 846.40 486.60 846.40 C 481.40 846.60 476.20 846.70 471.00 846.70 C 469.70 846.70 468.50 846.70 467.20 846.70 C 463.30 846.70 459.30 846.70 455.40 846.60 C 453.30 846.60 451.30 846.50 449.20 846.40 C 446.20 846.30 443.20 846.20 440.20 846.00 C 438.00 845.90 435.90 845.70 433.80 845.60 C 430.90 845.40 428.00 845.20 425.10 845.00 C 422.90 844.80 420.70 844.60 418.50 844.40 C 415.70 844.10 412.90 843.90 410.00 843.60 C 407.80 843.40 405.60 843.10 403.30 842.80 C 400.50 842.50 397.80 842.10 395.00 841.70 C 392.80 841.40 390.70 841.10 388.50 840.80 C 385.50 840.40 382.60 839.90 379.60 839.40 C 377.50 839.10 375.40 838.70 373.40 838.30 C 370.40 837.80 367.40 837.20 364.40 836.60 C 362.50 836.20 360.50 835.80 358.60 835.40 C 354.10 834.40 349.60 833.40 345.10 832.30 C 344.40 832.10 343.80 832.00 343.10 831.80 C 338.00 830.50 332.90 829.20 327.90 827.80 C 326.80 827.50 325.60 827.10 324.50 826.80 C 319.50 825.40 314.70 823.80 309.80 822.20 C 308.40 821.70 307.00 821.30 305.70 820.80 C 300.10 818.90 294.50 816.90 289.00 814.70 C 286.70 813.80 284.50 812.90 282.20 811.90 C 280.50 811.20 278.70 810.50 277.00 809.70 C 274.60 808.70 272.20 807.60 269.90 806.50 C 268.30 805.80 266.70 805.10 265.20 804.30 C 262.60 803.10 260.10 801.80 257.60 800.50 C 256.30 799.80 255.00 799.20 253.70 798.50 C 249.90 796.50 246.20 794.50 242.50 792.40 C 179.40 756.00 148.00 708.30 148.10 660.80 L 147.70 814.80 C 147.60 862.30 179.00 910.00 242.10 946.40 C 245.80 948.50 249.50 950.60 253.30 952.50 C 254.60 953.20 255.90 953.80 257.20 954.50 C 259.70 955.80 262.20 957.10 264.80 958.30 C 266.40 959.00 268.00 959.70 269.50 960.50 C 271.90 961.60 274.20 962.70 276.60 963.70 C 278.30 964.40 280.10 965.10 281.80 965.90 C 283.80 966.70 285.80 967.60 287.80 968.40 C 288.00 968.50 288.30 968.60 288.50 968.70 C 294.00 970.80 299.50 972.90 305.20 974.80 C 306.60 975.30 308.00 975.70 309.30 976.20 C 314.10 977.80 319.00 979.30 324.00 980.80 C 324.80 981.00 325.50 981.30 326.30 981.50 C 326.70 981.60 327.00 981.70 327.40 981.80 C 332.40 983.20 337.50 984.60 342.60 985.80 C 343.30 986.00 344.00 986.10 344.60 986.30 C 349.10 987.40 353.60 988.40 358.10 989.40 C 358.60 989.50 359.10 989.60 359.70 989.80 C 361.10 990.10 362.50 990.30 363.90 990.60 C 366.90 991.20 369.90 991.80 372.90 992.30 C 375.00 992.70 377.10 993.00 379.10 993.40 C 382.10 993.90 385.00 994.40 388.00 994.80 C 389.10 995.00 390.10 995.10 391.20 995.30 C 392.30 995.50 393.40 995.60 394.50 995.70 C 397.30 996.10 400.00 996.40 402.80 996.80 C 405.00 997.10 407.20 997.30 409.50 997.60 C 412.30 997.90 415.10 998.20 418.00 998.40 C 419.40 998.50 420.80 998.70 422.20 998.80 C 423.00 998.90 423.80 998.90 424.60 999.00 C 427.50 999.20 430.40 999.40 433.30 999.60 C 435.40 999.70 437.60 999.90 439.70 1000.00 C 442.70 1000.20 445.70 1000.30 448.70 1000.40 C 450.30 1000.50 451.90 1000.60 453.60 1000.60 C 454.00 1000.60 454.40 1000.60 454.90 1000.60 C 458.90 1000.70 462.80 1000.70 466.80 1000.70 C 468.00 1000.70 469.20 1000.70 470.50 1000.70 C 475.70 1000.70 480.90 1000.60 486.10 1000.40 C 486.20 1000.40 486.40 1000.40 486.50 1000.40 C 487.30 1000.40 488.20 1000.30 489.00 1000.30 C 493.50 1000.10 498.00 999.90 502.50 999.60 C 504.30 999.50 506.20 999.30 508.00 999.20 C 511.70 998.90 515.30 998.60 519.00 998.30 C 520.00 998.20 521.00 998.20 522.00 998.10 C 522.80 998.00 523.60 997.90 524.40 997.80 C 530.10 997.20 535.90 996.50 541.60 995.80 C 542.10 995.70 542.50 995.70 543.00 995.60 C 549.10 994.70 555.10 993.80 561.20 992.70 C 561.90 992.60 562.60 992.50 563.30 992.40 C 564.50 992.20 565.80 991.90 567.00 991.70 C 569.90 991.20 572.70 990.60 575.60 990.00 C 577.70 989.60 579.80 989.10 581.90 988.70 C 584.70 988.10 587.60 987.40 590.40 986.70 C 592.40 986.20 594.50 985.70 596.50 985.20 C 599.30 984.50 602.20 983.70 605.00 982.90 C 606.90 982.40 608.90 981.80 610.80 981.30 C 613.70 980.40 616.70 979.50 619.60 978.60 C 621.00 978.20 622.40 977.80 623.80 977.30 C 624.20 977.20 624.50 977.10 624.90 976.90 C 627.50 976.10 630.00 975.20 632.50 974.30 C 634.40 973.60 636.30 973.00 638.10 972.30 C 640.70 971.30 643.30 970.30 645.80 969.30 C 647.50 968.60 649.30 968.00 651.00 967.30 C 653.80 966.20 656.60 965.00 659.30 963.80 C 660.70 963.20 662.20 962.60 663.60 962.00 C 667.70 960.10 671.80 958.20 675.80 956.20 L 692.80 946.30 L 972.60 783.70 L 973.00 629.70 L 693.10 792.30 Z" fill="url(#SVGID_1_)" fill-rule="nonzero" group-id="1,9" node-id="241" stroke="none" target-height="371" target-width="825.4" target-x="147.6" target-y="629.7"/><g node-id="406"><path d="M 972.90 629.80 L 693.10 792.30 L 676.10 802.20 C 550.80 864.50 361.50 861.40 242.40 792.70 C 122.80 723.60 117.00 614.00 224.70 541.60 L 240.50 531.70 L 520.80 368.80 L 972.90 629.80 Z" fill="url(#SVGID_2_)" fill-rule="nonzero" group-id="1,9,20" node-id="245" stroke="none" target-height="495.7" target-width="855.9" target-x="117" target-y="368.8"/></g></g></g><path d="M 83.20 688.20 L 83.20 688.20 C 71.40 688.20 61.70 678.50 61.70 666.70 L 61.70 457.00 C 61.70 445.20 71.40 435.50 83.20 435.50 L 83.20 435.50 C 95.00 435.50 104.70 445.20 104.70 457.00 L 104.70 666.60 C 104.70 678.50 95.00 688.20 83.20 688.20 Z" fill="url(#SVGID_3_)" fill-rule="nonzero" node-id="250" stroke="none" target-height="252.70001" target-width="42.999996" target-x="61.7" target-y="435.5"/><path d="M 733.40 447.70 L 733.40 447.70 C 721.60 447.70 711.90 438.00 711.90 426.20 L 711.90 216.60 C 711.90 204.80 721.60 195.10 733.40 195.10 L 733.40 195.10 C 745.20 195.10 754.90 204.80 754.90 216.60 L 754.90 426.20 C 754.90 438.00 745.30 447.70 733.40 447.70 Z" fill="url(#SVGID_4_)" fill-rule="nonzero" node-id="252" stroke="none" target-height="252.6" target-width="43" target-x="711.9" target-y="195.1"/><path d="M 926.90 576.20 L 926.90 576.20 C 915.10 576.20 905.40 566.50 905.40 554.70 L 905.40 345.10 C 905.40 333.30 915.10 323.60 926.90 323.60 L 926.90 323.60 C 938.70 323.60 948.40 333.30 948.40 345.10 L 948.40 554.70 C 948.40 566.60 938.70 576.20 926.90 576.20 Z" fill="url(#SVGID_5_)" fill-rule="nonzero" node-id="254" stroke="none" target-height="252.6" target-width="43" target-x="905.4" target-y="323.6"/><path d="M 342.00 305.20 L 342.00 305.20 C 330.20 305.20 320.50 295.50 320.50 283.70 L 320.50 74.10 C 320.50 62.30 330.20 52.60 342.00 52.60 L 342.00 52.60 C 353.80 52.60 363.50 62.30 363.50 74.10 L 363.50 283.70 C 363.50 295.60 353.80 305.20 342.00 305.20 Z" fill="url(#SVGID_6_)" fill-rule="nonzero" node-id="256" stroke="none" target-height="252.6" target-width="43" target-x="320.5" target-y="52.6"/><path d="M 537.30 24.50 C 537.30 24.50 537.20 24.40 537.10 24.40 C 536.70 24.10 536.20 23.90 535.70 23.70 C 535.60 23.70 535.50 23.60 535.40 23.60 C 535.20 23.50 535.10 23.50 534.90 23.40 C 534.70 23.30 534.40 23.20 534.20 23.10 C 534.00 23.00 533.70 23.00 533.40 22.90 C 533.20 22.90 533.10 22.80 532.90 22.80 C 532.80 22.80 532.70 22.80 532.60 22.70 C 532.10 22.60 531.50 22.50 530.90 22.50 C 530.90 22.50 530.80 22.50 530.80 22.50 C 530.70 22.50 530.60 22.50 530.40 22.50 C 529.90 22.50 529.50 22.50 529.00 22.50 C 528.90 22.50 528.70 22.50 528.60 22.50 C 528.30 22.50 528.10 22.60 527.80 22.60 C 527.50 22.60 527.30 22.60 527.00 22.70 C 526.80 22.70 526.60 22.80 526.30 22.80 C 525.90 22.90 525.60 22.90 525.20 23.00 C 525.00 23.10 524.80 23.10 524.60 23.10 C 524.40 23.20 524.20 23.20 524.00 23.30 C 523.40 23.50 522.70 23.70 522.10 24.00 C 521.90 24.10 521.60 24.10 521.40 24.20 C 521.30 24.30 521.10 24.30 521.00 24.40 C 519.90 24.90 518.80 25.40 517.60 26.10 L 159.10 233.10 C 157.70 233.90 156.30 234.90 154.90 235.90 C 154.70 236.10 154.40 236.30 154.20 236.40 C 152.90 237.40 151.60 238.60 150.40 239.70 C 150.30 239.80 150.20 239.90 150.10 240.00 C 149.90 240.20 149.70 240.40 149.50 240.60 C 148.90 241.20 148.30 241.90 147.70 242.50 C 147.50 242.70 147.30 242.90 147.10 243.10 C 146.90 243.30 146.80 243.50 146.60 243.70 C 146.20 244.10 145.90 244.60 145.50 245.00 C 145.30 245.30 145.00 245.50 144.80 245.80 C 144.60 246.00 144.40 246.30 144.20 246.60 C 143.90 246.90 143.70 247.30 143.40 247.60 C 143.20 247.80 143.10 248.10 142.90 248.30 C 142.60 248.70 142.30 249.10 142.00 249.60 C 141.80 249.90 141.70 250.10 141.50 250.40 C 141.40 250.50 141.40 250.60 141.30 250.70 C 140.80 251.50 140.30 252.20 139.90 253.00 C 139.90 253.10 139.80 253.10 139.80 253.20 C 139.70 253.40 139.60 253.50 139.50 253.70 C 139.20 254.30 138.90 254.80 138.60 255.40 C 138.50 255.70 138.30 255.90 138.20 256.20 C 138.10 256.50 137.90 256.80 137.80 257.00 C 137.70 257.20 137.50 257.50 137.40 257.70 C 137.10 258.30 136.80 258.90 136.50 259.60 C 136.40 259.70 136.40 259.90 136.30 260.00 C 136.30 260.00 136.30 260.10 136.20 260.10 C 135.80 260.90 135.50 261.70 135.20 262.60 C 135.10 262.70 135.10 262.90 135.00 263.00 C 134.90 263.30 134.80 263.60 134.70 263.90 C 134.50 264.30 134.40 264.70 134.20 265.20 C 134.10 265.50 134.00 265.80 133.90 266.10 C 133.80 266.50 133.70 266.90 133.60 267.20 C 133.50 267.40 133.40 267.70 133.40 267.90 C 133.30 268.30 133.20 268.70 133.10 269.10 C 133.00 269.60 132.90 270.00 132.80 270.50 C 132.80 270.70 132.70 270.80 132.70 271.00 C 132.60 271.30 132.60 271.70 132.50 272.00 C 132.40 272.70 132.20 273.40 132.10 274.10 C 132.10 274.30 132.00 274.50 132.00 274.70 C 132.00 274.90 132.00 275.10 132.00 275.30 C 131.80 276.90 131.70 278.50 131.70 280.00 L 132.50 569.30 L 132.50 569.30 C 132.50 577.80 135.60 583.90 140.50 586.70 L 170.00 603.80 C 165.10 601.00 162.10 594.90 162.00 586.40 L 161.20 297.10 C 161.20 295.60 161.30 294.00 161.50 292.40 C 161.50 292.00 161.60 291.60 161.60 291.20 C 161.70 290.50 161.80 289.80 162.00 289.10 C 162.10 288.60 162.20 288.10 162.30 287.60 C 162.40 287.10 162.50 286.70 162.60 286.20 C 162.80 285.60 162.90 284.90 163.10 284.30 C 163.20 283.90 163.30 283.50 163.40 283.20 C 163.60 282.50 163.90 281.70 164.10 281.00 C 164.20 280.70 164.30 280.40 164.40 280.10 C 164.80 279.10 165.20 278.10 165.60 277.10 C 165.70 277.00 165.70 276.80 165.80 276.70 C 166.20 275.80 166.60 275.00 167.00 274.10 C 167.10 273.80 167.30 273.50 167.40 273.30 C 167.80 272.50 168.30 271.70 168.70 270.80 C 168.80 270.60 168.90 270.50 169.00 270.30 C 169.60 269.30 170.10 268.40 170.70 267.50 C 170.90 267.20 171.00 267.00 171.20 266.70 C 171.60 266.00 172.10 265.40 172.60 264.70 C 172.90 264.40 173.10 264.00 173.40 263.70 C 173.80 263.20 174.20 262.60 174.60 262.10 C 175.00 261.70 175.30 261.20 175.70 260.80 C 176.00 260.40 176.40 260.00 176.80 259.60 C 177.40 258.90 178.00 258.30 178.60 257.70 C 178.90 257.40 179.20 257.10 179.50 256.80 C 180.70 255.60 182.00 254.50 183.30 253.50 C 183.50 253.30 183.80 253.10 184.00 253.00 C 185.40 252.00 186.80 251.00 188.20 250.20 L 546.70 43.20 C 547.80 42.50 549.00 42.00 550.10 41.50 C 550.50 41.30 550.80 41.20 551.20 41.10 C 551.80 40.90 552.50 40.60 553.10 40.40 C 553.50 40.30 553.90 40.20 554.30 40.10 C 554.70 40.00 555.00 39.90 555.40 39.90 C 555.90 39.80 556.40 39.70 556.90 39.70 C 557.20 39.70 557.40 39.60 557.70 39.60 C 558.30 39.60 558.90 39.50 559.50 39.60 C 559.60 39.60 559.70 39.60 559.90 39.60 C 560.60 39.60 561.30 39.70 561.90 39.90 C 562.10 39.90 562.20 40.00 562.40 40.00 C 562.90 40.10 563.40 40.30 563.90 40.40 C 564.10 40.50 564.20 40.50 564.40 40.60 C 565.00 40.80 565.60 41.10 566.20 41.50 L 537.30 24.50 Z" fill="url(#SVGID_7_)" fill-rule="nonzero" group-id="2,10" node-id="262" stroke="none" target-height="581.3" target-width="434.5" target-x="131.7" target-y="22.5"/><path d="M 547.40 43.40 C 562.40 34.70 574.70 41.80 574.70 59.00 L 575.50 348.30 C 575.50 365.50 563.30 386.70 548.30 395.30 L 190.00 602.30 C 175.00 611.00 162.70 604.00 162.70 586.80 L 161.90 297.50 C 161.90 280.30 174.10 259.10 189.10 250.40 L 547.40 43.40 Z" fill="url(#SVGID_8_)" fill-rule="nonzero" group-id="2,10,21" node-id="266" stroke="none" target-height="576.3" target-width="413.6" target-x="161.9" target-y="34.7"/><path d="M 550.30 102.90 C 550.30 88.90 540.30 83.20 528.10 90.20 L 495.40 109.10 C 495.20 109.20 495.00 109.30 494.90 109.40 L 203.10 277.80 C 190.90 284.80 181.00 302.10 181.00 316.10 L 181.70 551.50 C 181.70 565.50 191.70 571.20 203.90 564.20 L 236.60 545.30 C 236.80 545.20 237.00 545.10 237.10 545.00 L 528.80 376.60 C 541.00 369.60 550.90 352.30 550.90 338.30 L 550.30 102.90 Z" fill="url(#SVGID_9_)" fill-rule="nonzero" node-id="271" stroke="none" target-height="488" target-width="369.90002" target-x="181" target-y="83.2"/><path d="M 576.40 119.80 C 576.40 105.80 566.40 100.10 554.20 107.10 L 521.50 126.00 C 521.30 126.10 521.10 126.20 521.00 126.30 L 229.20 294.60 C 217.00 301.60 207.10 318.90 207.10 332.90 L 207.80 568.30 C 207.80 582.30 217.80 588.00 230.00 581.00 L 262.70 562.10 C 262.90 562.00 263.10 561.90 263.20 561.80 L 555.00 393.40 C 567.20 386.40 577.10 369.10 577.10 355.10 L 576.40 119.80 Z" fill="#fbfbfb" fill-opacity="0.15" fill-rule="nonzero" group-id="3" node-id="275" stroke="none" target-height="487.9" target-width="369.99997" target-x="207.1" target-y="100.1"/><path d="M 573.30 480.80 L 560.20 491.20 L 578.50 486.00 L 599.40 486.00 L 622.90 486.00 L 646.50 483.40 L 688.30 472.90 L 672.60 459.90 L 636.00 465.10 L 604.60 472.90 L 591.60 472.90 L 583.70 475.60 L 555.00 470.30 L 555.00 475.60 L 560.20 475.60 L 562.80 475.60 L 578.50 480.80" fill="url(#SVGID_10_)" fill-rule="nonzero" group-id="4" node-id="280" stroke="none" target-height="31.300018" target-width="133.29999" target-x="555" target-y="459.9"/><path d="M 615.20 636.50 C 615.20 636.50 617.60 647.10 617.10 650.40 C 616.60 653.70 614.90 659.40 601.20 657.20 C 587.60 655.00 567.30 649.20 564.40 643.30 C 561.50 637.50 571.00 634.50 584.40 638.70 C 592.30 641.00 598.80 635.90 598.80 635.90 L 615.20 636.50 Z" fill="#2b2b2b" fill-rule="nonzero" group-id="4,11" node-id="284" stroke="none" target-height="24.900024" target-width="56.099976" target-x="561.5" target-y="634.5"/><path d="M 670.70 541.30 C 644.30 525.70 600.80 503.10 595.10 518.90 C 586.80 541.80 595.00 636.90 595.00 636.90 C 595.00 636.90 606.90 644.10 618.00 638.10 C 619.80 600.20 621.00 555.70 621.00 555.70 C 621.00 555.70 644.20 583.10 670.70 593.00 L 670.70 541.30 Z" fill="#04467c" fill-rule="nonzero" group-id="4,11" node-id="286" stroke="none" target-height="140.99997" target-width="83.900024" target-x="586.8" target-y="503.1"/><path d="M 600.60 590.60 L 600.60 693.00 L 613.10 720.00 L 659.90 727.20 L 694.10 707.40 L 694.10 605.10 Z" fill="url(#SVGID_11_)" fill-rule="nonzero" group-id="4,12" node-id="291" stroke="none" target-height="136.60004" target-width="93.5" target-x="600.6" target-y="590.6"/><path d="M 638.30 596.50 L 600.60 590.60 L 600.60 693.00 L 613.10 720.00 L 638.30 723.90 Z" fill="url(#SVGID_12_)" fill-rule="nonzero" group-id="4,12" node-id="293" stroke="none" target-height="133.30005" target-width="37.700012" target-x="600.6" target-y="590.6"/><path d="M 613.10 617.60 L 613.10 720.00 L 659.90 727.20 L 659.90 624.80 Z" fill="url(#SVGID_13_)" fill-rule="nonzero" group-id="4,12" node-id="295" stroke="none" target-height="109.60004" target-width="46.80005" target-x="613.1" target-y="617.6"/><path d="M 634.80 570.90 L 681.60 578.10 L 694.10 605.10 L 659.90 624.80 L 613.10 617.60 L 600.60 590.60 Z" fill="url(#SVGID_14_)" fill-rule="nonzero" group-id="4,12" node-id="297" stroke="none" target-height="53.899963" target-width="93.5" target-x="600.6" target-y="570.9"/><path d="M 497.60 516.40 L 588.30 553.20 L 625.30 510.90 L 543.30 474.30 Z" fill="#dfecf2" fill-rule="nonzero" group-id="4" node-id="300" stroke="none" target-height="78.900024" target-width="127.69998" target-x="497.6" target-y="474.3"/><path d="M 605.40 579.50 C 605.40 579.50 604.30 589.70 603.00 592.50 C 601.70 595.30 598.80 599.80 588.70 593.50 C 578.70 587.20 564.60 575.50 563.90 569.40 C 563.30 563.20 571.50 563.70 580.70 571.70 C 586.20 576.20 592.70 573.80 592.70 573.80 L 605.40 579.50 Z" fill="#2b2b2b" fill-rule="nonzero" group-id="4" node-id="302" stroke="none" target-height="36.599976" target-width="42.100037" target-x="563.3" target-y="563.2"/><path d="M 574.20 666.50 C 574.20 666.50 577.40 676.90 577.20 680.20 C 577.00 683.50 575.70 689.30 561.90 688.30 C 548.10 687.20 527.50 683.00 524.10 677.40 C 520.70 671.80 530.00 668.10 543.60 671.20 C 551.60 672.80 557.70 667.30 557.70 667.30 L 574.20 666.50 Z" fill="#2b2b2b" fill-rule="nonzero" group-id="4,13" node-id="306" stroke="none" target-height="22.799988" target-width="56.700012" target-x="520.7" target-y="666.5"/><path d="M 643.20 578.10 C 643.20 578.10 551.20 527.40 544.80 550.90 C 538.40 574.40 554.10 668.50 554.10 668.50 C 554.10 668.50 566.50 674.80 577.10 667.90 C 575.90 630.00 573.60 585.60 573.60 585.60 C 573.60 585.60 610.20 622.50 642.70 621.00 C 675.20 619.50 715.80 589.80 692.60 552.20 C 665.20 550.10 643.20 578.10 643.20 578.10 Z" fill="#1067bf" fill-rule="nonzero" group-id="4,13" node-id="308" stroke="none" target-height="147.39996" target-width="177.39996" target-x="538.4" target-y="527.4"/><path d="M 664.40 453.30 C 664.40 453.30 644.50 460.30 637.20 479.10 C 629.90 497.90 621.50 537.10 621.50 537.10 L 619.00 550.40 C 619.00 550.40 610.90 610.70 684.60 594.90 C 714.30 588.50 703.70 573.20 704.40 568.40 C 705.10 563.50 701.60 547.90 704.50 527.00 C 707.40 506.10 714.20 435.90 676.10 441.80 C 657.60 447.80 664.40 453.30 664.40 453.30 Z" fill="#f7ffff" fill-rule="nonzero" group-id="4,14" node-id="313" stroke="none" target-height="174.80002" target-width="103.39996" target-x="610.9" target-y="435.9"/><path d="M 632.80 406.70 C 632.80 406.70 632.70 406.90 632.60 407.20 C 631.80 408.90 629.60 414.50 630.70 419.60 C 632.00 425.70 625.80 428.20 625.80 428.20 C 625.80 428.20 624.20 429.80 627.10 430.80 C 630.00 431.70 631.40 432.50 631.40 432.50 C 631.40 432.50 633.80 444.10 634.90 446.00 C 636.00 447.90 641.30 447.60 645.70 447.60 C 650.10 447.60 653.80 454.90 654.20 458.80 C 667.10 455.90 677.20 444.70 677.20 444.70 L 673.00 434.60 C 673.10 434.60 657.30 389.30 632.80 406.70 Z" fill="url(#SVGID_15_)" fill-rule="nonzero" group-id="4,14,22" node-id="317" stroke="none" target-height="69.5" target-width="53" target-x="624.2" target-y="389.3"/><path d="M 646.70 431.40 C 646.70 431.40 638.70 418.50 640.80 411.60 C 642.90 404.60 631.90 408.80 631.90 408.80 C 631.90 408.80 621.80 400.30 624.80 391.60 C 626.80 393.50 629.90 392.90 629.90 392.90 L 627.90 388.80 C 627.90 388.80 638.10 390.00 641.10 389.50 C 638.50 388.00 636.90 385.10 636.90 385.10 C 636.90 385.10 647.90 386.80 653.50 386.90 C 659.10 387.00 671.80 385.90 675.60 396.80 C 682.40 405.90 686.10 431.40 674.90 438.80 C 668.20 443.60 664.20 441.70 664.20 441.70 C 664.20 441.70 659.30 429.80 658.60 425.20 C 657.90 420.60 647.50 418.30 649.30 427.00 C 650.40 431.30 650.00 433.80 650.00 433.80 L 646.70 431.40 Z" fill="#333333" fill-rule="nonzero" group-id="4,14,22" node-id="319" stroke="none" target-height="58.5" target-width="64.29999" target-x="621.8" target-y="385.1"/><path d="M 633.20 519.00 C 633.20 519.00 618.90 552.20 618.10 556.90 C 608.40 553.30 566.60 543.40 556.80 541.60 C 556.80 541.50 556.70 541.50 556.70 541.50 C 556.70 541.50 553.00 535.80 549.70 533.00 C 546.40 530.20 546.20 527.30 546.00 525.50 C 545.80 523.70 541.90 521.70 541.60 526.60 C 541.40 531.50 543.70 535.10 543.70 535.10 L 527.70 529.00 C 527.70 529.00 531.80 544.40 552.30 552.30 C 552.30 552.30 552.30 552.40 552.30 552.40 C 552.30 552.40 580.20 565.80 600.00 572.40 C 619.80 579.00 633.10 584.10 640.50 572.00 C 647.90 559.90 662.70 518.80 662.70 518.80 L 633.20 519.00 Z" fill="url(#SVGID_16_)" fill-rule="nonzero" group-id="4" node-id="323" stroke="none" target-height="65.29999" target-width="135" target-x="527.7" target-y="518.8"/><path d="M 625.30 532.70 C 625.30 532.70 635.30 483.70 639.90 476.30 C 644.50 468.80 663.50 466.70 670.00 482.60 C 676.50 498.50 659.80 542.60 659.80 542.60 L 625.30 532.70 Z" fill="#edf4f4" fill-rule="nonzero" group-id="4" node-id="325" stroke="none" target-height="75.89996" target-width="51.200012" target-x="625.3" target-y="466.7"/><path d="M 502.40 191.50 C 508.50 188.00 513.50 190.80 513.50 197.80 L 513.50 199.10 C 513.50 206.10 508.60 214.70 502.50 218.20 L 270.40 352.20 C 264.30 355.70 259.30 352.90 259.30 345.90 L 259.30 344.60 C 259.30 337.60 264.20 329.00 270.30 325.50 L 502.40 191.50 Z" fill="#ffffff" fill-rule="nonzero" group-id="5" node-id="330" stroke="none" target-height="167.70001" target-width="254.20001" target-x="259.3" target-y="188"/><path d="M 502.40 258.70 C 508.50 255.20 513.50 258.00 513.50 265.00 L 513.50 266.40 C 513.50 273.40 508.60 281.90 502.50 285.40 L 270.40 419.40 C 264.30 422.90 259.30 420.10 259.30 413.10 L 259.30 411.70 C 259.30 404.70 264.20 396.10 270.30 392.60 L 502.40 258.70 Z" fill="#ffffff" fill-rule="nonzero" group-id="6" node-id="335" stroke="none" target-height="167.7" target-width="254.20001" target-x="259.3" target-y="255.2"/><path d="M 502.40 325.90 C 508.50 322.40 513.50 325.20 513.50 332.20 L 513.50 333.60 C 513.50 340.60 508.60 349.20 502.50 352.70 L 270.40 486.70 C 264.30 490.20 259.30 487.40 259.30 480.40 L 259.30 479.00 C 259.30 472.00 264.20 463.50 270.30 460.00 L 502.40 325.90 Z" fill="#ffffff" fill-rule="nonzero" group-id="7" node-id="340" stroke="none" target-height="167.80002" target-width="254.20001" target-x="259.3" target-y="322.4"/><path d="M 440.40 541.10 C 439.20 544.00 438.20 544.60 436.70 547.10 C 435.20 549.60 436.30 556.00 436.30 558.10 C 436.30 560.30 439.30 561.20 439.60 558.40 C 439.80 556.30 438.90 553.50 440.80 552.40 C 441.20 554.60 440.60 558.80 440.40 560.20 C 439.70 563.60 435.70 558.70 436.50 564.00 C 437.70 564.50 439.00 565.10 441.80 565.60 C 444.10 566.00 445.30 566.30 447.50 565.70 C 450.50 564.90 453.40 564.60 455.00 562.20 L 454.90 551.70 L 455.60 541.60 L 440.40 541.10 Z" fill="#ffdba7" fill-rule="evenodd" group-id="8,15" node-id="347" stroke="none" target-height="25.200012" target-width="20.399994" target-x="435.2" target-y="541.1"/><path d="M 439.00 420.60 C 443.90 424.20 448.00 428.10 449.30 430.80 C 456.00 445.00 454.80 465.90 458.00 486.30 L 457.20 542.70 C 452.70 545.00 442.60 546.10 438.90 543.10 L 437.60 486.80 L 427.90 454.70 C 424.70 433.90 432.60 418.20 439.00 420.60 Z" fill="#d8ecfc" fill-rule="evenodd" group-id="8,15" node-id="349" stroke="none" target-height="127.89996" target-width="33.299988" target-x="424.7" target-y="418.2"/><path d="M 404.40 705.20 C 406.50 712.30 408.20 714.10 411.30 717.30 C 413.60 719.70 426.20 727.70 427.10 730.00 C 427.80 731.80 427.80 734.70 425.10 736.50 C 422.20 738.40 416.50 738.30 412.70 737.70 C 404.50 736.50 398.20 731.70 391.70 726.90 C 391.00 727.60 388.10 726.60 385.40 725.00 C 383.20 723.70 382.00 722.60 381.80 720.50 C 381.60 719.10 381.90 715.90 382.10 714.40 C 382.60 710.20 384.40 706.90 386.30 702.60 L 394.40 700.80 L 404.40 705.20 Z" fill="#279cd6" fill-rule="evenodd" group-id="8,16" node-id="354" stroke="none" target-height="37.600037" target-width="46.19998" target-x="381.6" target-y="700.8"/><path d="M 427.40 731.20 C 427.60 732.90 427.20 734.90 425.00 736.30 C 422.10 738.20 416.40 738.10 412.60 737.50 C 404.40 736.30 398.10 731.50 391.60 726.70 C 390.90 727.40 388.00 726.40 385.30 724.80 C 383.10 723.50 381.90 722.40 381.70 720.30 C 381.60 719.50 381.60 718.30 381.70 717.10 C 382.70 720.20 389.30 723.30 392.40 723.40 C 398.90 728.20 405.30 732.70 413.40 734.00 C 417.30 734.60 422.90 734.70 425.80 732.80 C 426.50 732.30 427.00 731.80 427.40 731.20 Z" fill="#163240" fill-rule="evenodd" group-id="8,16" node-id="356" stroke="none" target-height="21.100037" target-width="46" target-x="381.6" target-y="717.1"/><path d="M 424.60 693.30 C 426.70 700.40 428.40 702.20 431.50 705.40 C 433.80 707.80 446.40 715.80 447.30 718.10 C 448.00 719.90 448.00 722.80 445.30 724.60 C 442.40 726.50 436.70 726.40 432.90 725.80 C 424.70 724.60 418.40 719.80 411.90 715.00 C 411.20 715.70 408.30 714.70 405.60 713.10 C 403.40 711.80 402.20 710.70 402.00 708.60 C 401.80 707.20 402.10 704.00 402.30 702.50 C 402.80 698.30 404.60 695.00 406.50 690.70 L 414.60 688.90 L 424.60 693.30 Z" fill="#279cd6" fill-rule="evenodd" group-id="8,17" node-id="361" stroke="none" target-height="37.599976" target-width="46.200012" target-x="401.8" target-y="688.9"/><path d="M 447.60 719.40 C 447.80 721.10 447.40 723.10 445.20 724.50 C 442.30 726.40 436.60 726.30 432.80 725.70 C 424.60 724.50 418.30 719.70 411.80 714.90 C 411.10 715.60 408.20 714.60 405.50 713.00 C 403.30 711.70 402.10 710.60 401.90 708.50 C 401.80 707.70 401.80 706.50 401.90 705.30 C 402.90 708.40 409.50 711.50 412.60 711.60 C 419.10 716.40 425.50 720.90 433.60 722.20 C 437.50 722.80 443.10 722.90 446.00 721.00 C 446.70 720.50 447.20 719.90 447.60 719.40 Z" fill="#163240" fill-rule="evenodd" group-id="8,17" node-id="363" stroke="none" target-height="21.100037" target-width="46" target-x="401.8" target-y="705.3"/><path d="M 404.60 528.30 C 402.60 537.80 400.20 546.00 399.40 555.60 C 398.00 573.70 406.10 603.50 407.30 623.10 L 406.60 637.30 C 405.10 652.10 405.90 667.60 404.60 690.30 C 404.50 691.00 404.50 691.70 404.50 692.30 C 401.50 694.70 403.90 699.20 410.10 702.80 C 416.70 706.60 425.20 707.90 429.00 705.60 C 430.10 705.00 430.70 704.20 430.80 703.20 L 430.80 703.20 C 431.20 702.60 434.00 619.20 435.10 609.00 C 436.30 579.80 436.30 553.30 437.30 522.20 L 404.60 528.30 Z" fill="#032747" fill-rule="evenodd" group-id="8" node-id="366" stroke="none" target-height="185.70001" target-width="39.299988" target-x="398" target-y="522.2"/><path d="M 382.60 533.20 C 380.90 548.50 377.20 555.90 380.20 572.30 C 383.20 588.70 385.40 607.10 386.40 623.70 L 384.00 645.10 C 382.50 659.90 384.50 683.80 383.30 706.50 L 383.30 706.50 C 382.60 709.00 385.00 712.50 390.00 715.40 C 396.60 719.20 405.10 720.50 408.90 718.20 C 410.00 717.50 410.60 716.60 410.80 715.60 L 410.80 715.50 L 416.30 617.70 C 417.50 588.50 418.40 565.30 419.40 534.20 L 382.60 533.20 Z" fill="#05345e" fill-rule="evenodd" group-id="8" node-id="368" stroke="none" target-height="187.29999" target-width="42.19998" target-x="377.2" target-y="533.2"/><path d="M 371.50 454.30 C 370.20 463.10 376.10 479.10 377.10 487.40 C 378.80 501.80 380.20 509.50 380.30 527.50 C 380.30 532.10 379.20 544.60 378.80 554.30 C 378.40 557.30 379.60 560.00 382.70 561.80 C 390.90 566.60 409.10 563.90 423.20 555.70 C 432.20 550.50 437.40 544.30 437.90 539.30 L 437.90 539.30 L 445.20 463.70 C 446.90 446.10 447.30 426.10 435.60 420.90 C 426.40 415.50 409.20 417.90 393.40 427.00 C 379.20 435.20 370.80 445.40 371.50 454.30 Z" fill="#c6def2" fill-rule="evenodd" group-id="8" node-id="370" stroke="none" target-height="151.09998" target-width="77.099976" target-x="370.2" target-y="415.5"/><path d="M 401.60 410.30 C 401.10 415.60 400.10 422.20 400.10 427.10 C 400.00 436.20 418.70 440.00 421.00 432.00 C 421.30 427.40 422.20 422.70 422.70 418.20 L 401.60 410.30 Z" fill="#f0c17d" fill-rule="evenodd" group-id="8" node-id="372" stroke="none" target-height="29.700012" target-width="22.700012" target-x="400" target-y="410.3"/><path d="M 432.00 396.70 C 431.50 403.40 432.80 406.20 428.60 416.90 C 427.40 420.10 425.40 424.00 424.40 424.60 C 423.10 425.40 419.40 427.40 417.80 427.10 C 414.70 426.50 408.30 422.30 406.00 421.00 C 400.80 418.10 401.20 416.60 400.40 410.20 L 398.10 401.10 L 400.60 383.30 C 411.40 380.50 420.90 378.70 425.80 380.80 C 430.80 382.90 433.00 383.60 432.00 396.70 Z" fill="#ffdba7" fill-rule="evenodd" group-id="8,18" node-id="376" stroke="none" target-height="48.69998" target-width="34.899994" target-x="398.1" target-y="378.7"/><path d="M 402.80 376.50 C 396.90 378.00 393.30 384.90 393.50 392.60 C 393.70 400.10 397.60 407.70 400.80 413.30 C 401.40 408.10 399.20 402.50 401.60 401.20 C 402.90 400.40 406.90 400.60 408.70 407.70 C 410.20 403.10 409.80 401.80 410.60 397.40 C 411.60 383.50 431.10 397.60 435.50 384.20 C 432.20 382.20 430.60 376.80 425.00 373.90 C 418.90 370.70 407.40 371.20 402.80 376.50 Z" fill="#000000" fill-rule="evenodd" group-id="8,18" node-id="378" stroke="none" target-height="42.599976" target-width="42.200012" target-x="393.3" target-y="370.7"/><path d="M 386.40 557.90 C 387.80 560.70 388.80 561.30 390.40 563.70 C 392.00 566.10 391.30 572.60 391.40 574.60 C 391.50 576.80 388.50 577.90 388.10 575.00 C 387.80 573.00 388.60 570.10 386.70 569.10 C 386.40 571.40 387.20 575.50 387.50 576.80 C 388.30 580.20 392.10 575.00 391.60 580.40 C 390.40 580.90 389.20 581.60 386.40 582.30 C 384.20 582.80 382.90 583.10 380.70 582.70 C 377.60 582.10 374.70 581.90 373.00 579.50 L 372.60 569.00 L 371.50 558.90 L 386.40 557.90 Z" fill="#ffdba7" fill-rule="evenodd" group-id="8,19" node-id="383" stroke="none" target-height="25.199951" target-width="20.600006" target-x="371.5" target-y="557.9"/><path d="M 382.10 437.40 C 377.40 441.20 373.50 445.30 372.30 448.10 C 366.30 462.60 368.50 483.40 366.20 504.00 L 369.60 560.30 C 374.20 562.40 384.30 563.00 387.90 559.80 L 386.50 503.50 L 394.70 471.00 C 397.10 450.10 388.50 434.80 382.10 437.40 Z" fill="#d8ecfc" fill-rule="evenodd" group-id="8,19" node-id="385" stroke="none" target-height="128.20001" target-width="30.899994" target-x="366.2" target-y="434.8"/></svg>