<svg height="1024" node-id="1" sillyvg="true" template-height="1024" template-width="1024" version="1.1" viewBox="0 0 1024 1024" width="1024" xmlns="http://www.w3.org/2000/svg" xmlns:xlink="http://www.w3.org/1999/xlink"><defs node-id="75"><linearGradient gradientUnits="userSpaceOnUse" id="SVGID_1_" node-id="26" spreadMethod="pad" x1="197.8837" x2="670.1688" y1="480.1106" y2="480.1106"><stop offset="0" stop-color="#2872ff"/><stop offset="1" stop-color="#398bff"/></linearGradient><linearGradient gradientUnits="userSpaceOnUse" id="SVGID_2_" node-id="31" spreadMethod="pad" x1="251.2162" x2="723.5013" y1="511.2211" y2="511.2211"><stop offset="0" stop-color="#2872ff"/><stop offset="1" stop-color="#398bff"/></linearGradient><linearGradient gradientUnits="userSpaceOnUse" id="SVGID_3_" node-id="37" spreadMethod="pad" x1="329.8232" x2="845.6133" y1="550.6907" y2="550.6907"><stop offset="0" stop-color="#6386db"/><stop offset="1" stop-color="#8eb0ec"/></linearGradient><linearGradient gradientUnits="userSpaceOnUse" id="SVGID_4_" node-id="42" spreadMethod="pad" x1="423.2866" x2="860.7186" y1="579.4108" y2="579.4108"><stop offset="0" stop-color="#6386db"/><stop offset="1" stop-color="#8eb0ec"/></linearGradient><linearGradient gradientUnits="userSpaceOnUse" id="SVGID_5_" node-id="47" spreadMethod="pad" x1="454.2138" x2="846.2838" y1="432.3018" y2="432.3018"><stop offset="0" stop-color="#c6cad0"/><stop offset="1" stop-color="#c0c9cf"/></linearGradient><linearGradient gradientUnits="userSpaceOnUse" id="SVGID_6_" node-id="54" spreadMethod="pad" x1="454.2138" x2="846.2838" y1="615.6321" y2="615.6321"><stop offset="0" stop-color="#c6cad0"/><stop offset="1" stop-color="#c0c9cf"/></linearGradient><linearGradient gradientUnits="userSpaceOnUse" id="SVGID_7_" node-id="59" spreadMethod="pad" x1="500.4257" x2="852.4377" y1="629.7719" y2="629.7719"><stop offset="0" stop-color="#fbfbfb"/><stop offset="1" stop-color="#fbfbfb"/></linearGradient><linearGradient gradientUnits="userSpaceOnUse" id="SVGID_8_" node-id="64" spreadMethod="pad" x1="454.2138" x2="846.2838" y1="798.9623" y2="798.9623"><stop offset="0" stop-color="#c6cad0"/><stop offset="1" stop-color="#c0c9cf"/></linearGradient></defs><g node-id="187"><path d="M 642.10 21.80 C 656.60 13.40 668.40 20.10 668.50 36.80 L 670.20 651.80 C 670.20 668.50 658.50 688.80 644.00 697.20 L 226.00 938.40 C 211.50 946.80 199.70 940.10 199.60 923.40 L 197.90 308.40 C 197.90 291.70 209.60 271.40 224.10 263.00 L 642.10 21.80 Z" fill="url(#SVGID_1_)" fill-opacity="0.12" fill-rule="nonzero" group-id="1" node-id="128" stroke="none" target-height="933.39996" target-width="472.30002" target-x="197.9" target-y="13.4"/></g><g node-id="188"><path d="M 695.40 52.90 C 709.90 44.50 721.70 51.20 721.80 67.90 L 723.50 682.90 C 723.50 699.60 711.80 719.90 697.30 728.30 L 279.30 969.60 C 264.80 978.00 253.00 971.30 252.90 954.60 L 251.20 339.60 C 251.20 322.90 262.90 302.60 277.40 294.20 L 695.40 52.90 Z" fill="url(#SVGID_2_)" fill-opacity="0.23" fill-rule="nonzero" group-id="2" node-id="133" stroke="none" target-height="933.5" target-width="472.3" target-x="251.2" target-y="44.5"/></g><g node-id="189"><g node-id="194"><path d="M 817.90 153.40 C 818.70 153.10 819.40 152.80 820.20 152.50 C 821.30 152.10 822.40 151.70 823.50 151.40 C 824.20 151.20 824.90 151.00 825.60 150.80 C 826.20 150.60 826.90 150.50 827.50 150.40 C 828.30 150.20 829.20 150.10 830.00 150.00 C 830.50 149.90 830.90 149.90 831.40 149.90 C 832.40 149.80 833.40 149.80 834.40 149.80 C 834.60 149.80 834.90 149.80 835.10 149.80 C 836.30 149.90 837.40 150.00 838.50 150.20 C 838.80 150.30 839.00 150.30 839.30 150.40 C 840.20 150.60 841.00 150.80 841.90 151.10 C 842.20 151.20 842.40 151.30 842.70 151.40 C 843.80 151.80 844.80 152.30 845.80 152.80 L 752.30 98.50 C 752.20 98.50 752.10 98.40 752.00 98.40 C 751.20 98.00 750.50 97.60 749.70 97.30 C 749.60 97.20 749.40 97.20 749.20 97.10 C 748.90 97.00 748.70 96.90 748.40 96.80 C 748.00 96.70 747.60 96.50 747.20 96.40 C 746.80 96.30 746.30 96.20 745.90 96.10 C 745.60 96.00 745.40 96.00 745.10 95.90 C 744.90 95.90 744.80 95.80 744.70 95.80 C 743.80 95.60 742.80 95.50 741.90 95.50 C 741.80 95.50 741.80 95.50 741.70 95.50 C 741.50 95.50 741.20 95.50 741.00 95.50 C 740.30 95.50 739.50 95.40 738.80 95.50 C 738.60 95.50 738.30 95.60 738.00 95.60 C 737.50 95.60 737.10 95.70 736.60 95.70 C 736.20 95.70 735.70 95.80 735.30 95.80 C 734.90 95.90 734.50 96.00 734.10 96.00 C 733.50 96.10 732.80 96.30 732.20 96.40 C 731.90 96.50 731.50 96.50 731.20 96.60 C 730.90 96.70 730.50 96.90 730.20 97.00 C 729.10 97.30 728.00 97.70 726.90 98.10 C 726.50 98.30 726.10 98.30 725.70 98.50 C 725.30 98.70 724.90 98.90 724.60 99.00 C 724.20 99.20 723.90 99.30 723.50 99.50 C 722.10 100.20 720.70 100.90 719.20 101.70 L 376.30 299.70 C 374.80 300.60 373.30 301.50 371.90 302.50 C 371.40 302.80 371.00 303.20 370.50 303.50 C 369.50 304.20 368.50 304.90 367.60 305.70 C 367.10 306.10 366.50 306.60 366.00 307.00 C 365.10 307.70 364.20 308.50 363.40 309.30 C 362.90 309.80 362.30 310.30 361.80 310.80 C 361.50 311.10 361.10 311.40 360.80 311.70 C 360.50 312.00 360.10 312.40 359.80 312.80 C 358.70 313.90 357.70 315.00 356.70 316.10 C 356.40 316.50 356.00 316.80 355.70 317.20 C 355.40 317.50 355.20 317.80 354.90 318.20 C 354.30 318.90 353.70 319.70 353.10 320.40 C 352.70 320.90 352.30 321.30 351.90 321.80 C 351.60 322.20 351.30 322.60 351.00 323.00 C 350.60 323.60 350.10 324.20 349.70 324.70 C 349.40 325.10 349.10 325.50 348.80 325.90 C 348.30 326.60 347.90 327.30 347.40 328.00 C 347.10 328.40 346.80 328.90 346.50 329.30 C 346.40 329.50 346.20 329.70 346.10 329.90 C 345.30 331.20 344.50 332.50 343.70 333.80 C 343.60 333.90 343.60 334.00 343.60 334.10 C 343.40 334.40 343.30 334.60 343.10 334.90 C 342.60 335.80 342.00 336.80 341.50 337.70 C 341.30 338.10 341.00 338.60 340.80 339.00 C 340.60 339.50 340.30 339.90 340.10 340.40 C 339.90 340.80 339.70 341.20 339.50 341.60 C 339.00 342.70 338.50 343.80 338.00 344.90 C 337.90 345.10 337.80 345.30 337.70 345.50 C 337.70 345.60 337.70 345.60 337.60 345.70 C 337.00 347.10 336.40 348.50 335.90 349.90 C 335.80 350.20 335.70 350.40 335.60 350.70 C 335.40 351.20 335.20 351.70 335.10 352.20 C 334.90 352.90 334.60 353.60 334.30 354.30 C 334.10 354.80 334.00 355.40 333.80 355.90 C 333.60 356.50 333.40 357.20 333.20 357.80 C 333.10 358.20 332.90 358.60 332.80 359.00 C 332.60 359.70 332.50 360.40 332.30 361.10 C 332.10 361.90 331.90 362.70 331.70 363.50 C 331.60 363.80 331.60 364.10 331.50 364.30 C 331.40 364.90 331.30 365.40 331.20 366.00 C 331.00 367.20 330.70 368.50 330.60 369.70 C 330.60 370.00 330.50 370.40 330.40 370.70 C 330.30 371.50 330.20 372.20 330.20 373.00 C 330.10 373.50 330.10 374.10 330.00 374.60 C 329.90 376.30 329.80 378.00 329.80 379.70 L 331.30 921.40 C 331.30 936.10 336.50 946.40 344.90 951.20 L 438.40 1005.50 C 430.10 1000.60 424.90 990.30 424.80 975.70 L 423.30 434.00 C 423.30 432.30 423.40 430.60 423.50 428.90 C 423.50 428.40 423.60 427.80 423.70 427.30 C 423.80 426.20 423.90 425.10 424.10 424.00 C 424.30 422.80 424.50 421.50 424.70 420.30 C 424.90 419.50 425.00 418.60 425.20 417.80 C 425.40 417.00 425.60 416.20 425.80 415.40 C 426.10 414.30 426.40 413.20 426.70 412.10 C 426.90 411.50 427.10 410.80 427.30 410.20 C 427.70 409.00 428.10 407.70 428.50 406.50 C 428.70 406.00 428.90 405.50 429.00 405.00 C 429.60 403.30 430.30 401.60 431.10 399.90 C 431.20 399.70 431.30 399.50 431.40 399.30 C 432.10 397.80 432.80 396.30 433.50 394.80 C 433.70 394.30 434.00 393.90 434.20 393.40 C 434.90 392.00 435.70 390.60 436.50 389.20 C 436.70 388.90 436.80 388.70 437.00 388.40 C 437.90 386.80 438.90 385.20 439.90 383.60 C 440.20 383.10 440.50 382.70 440.80 382.30 C 441.60 381.20 442.30 380.10 443.10 379.00 C 443.50 378.40 444.00 377.80 444.40 377.30 C 445.10 376.40 445.80 375.50 446.50 374.60 C 447.10 373.90 447.70 373.10 448.30 372.40 C 448.90 371.70 449.50 371.10 450.10 370.40 C 451.10 369.30 452.10 368.20 453.20 367.10 C 453.90 366.40 454.50 365.80 455.20 365.10 C 455.70 364.60 456.20 364.10 456.80 363.60 C 457.70 362.80 458.50 362.10 459.40 361.30 C 459.90 360.90 460.50 360.40 461.00 360.00 C 462.00 359.20 462.90 358.50 463.90 357.80 C 464.40 357.50 464.80 357.10 465.30 356.80 C 466.80 355.80 468.20 354.80 469.70 354.00 L 812.60 156.00 C 814.00 155.20 815.50 154.50 816.90 153.80 C 817.20 153.70 817.50 153.60 817.90 153.40 Z" fill="url(#SVGID_3_)" fill-rule="nonzero" group-id="3,8" node-id="140" stroke="none" target-height="910.1" target-width="516" target-x="329.8" target-y="95.4"/><g node-id="199"><path d="M 812.50 156.10 C 838.20 141.30 859.10 153.20 859.20 182.70 L 860.70 724.40 C 860.80 753.90 840.00 789.90 814.30 804.70 L 471.40 1002.70 C 445.70 1017.50 424.80 1005.60 424.70 976.10 L 423.20 434.40 C 423.10 404.90 443.90 368.90 469.60 354.10 L 812.50 156.10 Z" fill="url(#SVGID_4_)" fill-rule="nonzero" group-id="3,8,13" node-id="144" stroke="none" target-height="876.2" target-width="437.69998" target-x="423.1" target-y="141.3"/></g></g></g><g node-id="190"><path d="M 833.00 331.40 C 833.30 331.20 833.70 331.10 834.00 331.00 C 834.10 330.90 834.20 330.90 834.40 330.80 C 834.70 330.70 835.00 330.60 835.30 330.50 C 835.40 330.50 835.50 330.40 835.60 330.40 C 836.00 330.30 836.40 330.20 836.70 330.10 C 836.70 330.10 836.80 330.10 836.80 330.10 C 837.40 329.90 838.00 329.80 838.50 329.70 C 838.50 329.70 838.50 329.70 838.60 329.70 C 839.10 329.60 839.50 329.60 840.00 329.60 C 840.10 329.60 840.20 329.60 840.30 329.60 C 840.70 329.60 841.10 329.60 841.50 329.60 C 841.60 329.60 841.60 329.60 841.70 329.60 C 842.00 329.60 842.40 329.70 842.70 329.70 C 842.80 329.70 842.90 329.70 843.00 329.70 C 843.40 329.80 843.70 329.80 844.10 329.90 C 844.10 329.90 844.10 329.90 844.10 329.90 C 844.40 330.00 844.80 330.10 845.10 330.20 C 845.20 330.20 845.30 330.30 845.40 330.30 C 845.70 330.40 845.90 330.50 846.20 330.70 C 846.30 330.70 846.40 330.80 846.50 330.80 L 800.10 304.00 C 800.10 304.00 800.00 304.00 800.00 303.90 C 800.00 303.90 799.90 303.90 799.90 303.80 C 799.60 303.70 799.40 303.50 799.10 303.40 C 799.10 303.40 799.00 303.40 799.00 303.30 C 799.00 303.30 798.90 303.30 798.90 303.30 C 798.60 303.20 798.30 303.10 797.90 303.00 C 797.90 303.00 797.90 303.00 797.90 303.00 L 797.90 303.00 C 797.60 302.90 797.20 302.80 796.80 302.80 C 796.80 302.80 796.70 302.80 796.70 302.80 C 796.60 302.80 796.60 302.80 796.50 302.80 C 796.20 302.70 795.90 302.70 795.50 302.70 C 795.50 302.70 795.40 302.70 795.40 302.70 C 795.40 302.70 795.40 302.70 795.40 302.70 C 795.00 302.70 794.60 302.70 794.20 302.70 C 794.20 302.70 794.10 302.70 794.10 302.70 C 794.00 302.70 794.00 302.70 793.90 302.70 C 793.40 302.70 793.00 302.80 792.50 302.80 C 792.50 302.80 792.50 302.80 792.50 302.80 C 792.50 302.80 792.50 302.80 792.50 302.80 C 791.90 302.90 791.40 303.00 790.80 303.20 C 790.80 303.20 790.70 303.20 790.70 303.20 C 790.70 303.20 790.70 303.20 790.70 303.20 C 790.30 303.30 789.90 303.40 789.60 303.50 C 789.50 303.50 789.40 303.60 789.30 303.60 C 789.00 303.70 788.70 303.80 788.40 303.90 C 788.40 303.90 788.30 303.90 788.30 304.00 C 788.20 304.00 788.10 304.10 788.10 304.10 C 787.80 304.20 787.40 304.40 787.10 304.50 C 787.00 304.60 786.80 304.60 786.70 304.70 C 786.30 304.90 785.80 305.20 785.40 305.40 L 475.20 484.30 C 474.50 484.70 473.90 485.10 473.20 485.60 C 473.00 485.70 472.80 485.90 472.60 486.10 C 472.20 486.40 471.70 486.70 471.30 487.10 C 471.10 487.30 470.80 487.50 470.60 487.70 C 470.20 488.00 469.80 488.40 469.40 488.70 C 469.20 488.90 468.90 489.10 468.70 489.40 C 468.60 489.50 468.40 489.70 468.30 489.80 C 468.10 490.00 468.00 490.10 467.80 490.30 C 467.30 490.80 466.90 491.30 466.40 491.80 C 466.30 492.00 466.10 492.10 466.00 492.30 C 465.90 492.40 465.80 492.60 465.60 492.70 C 465.30 493.00 465.00 493.40 464.80 493.70 C 464.60 493.90 464.40 494.10 464.30 494.30 C 464.20 494.50 464.00 494.70 463.90 494.90 C 463.70 495.20 463.50 495.40 463.30 495.70 C 463.20 495.90 463.00 496.10 462.90 496.20 C 462.70 496.50 462.50 496.80 462.30 497.20 C 462.20 497.40 462.00 497.60 461.90 497.80 C 461.80 497.90 461.80 498.00 461.70 498.00 C 461.30 498.60 461.00 499.20 460.60 499.80 C 460.60 499.80 460.60 499.90 460.50 499.90 C 460.40 500.00 460.40 500.10 460.30 500.30 C 460.10 500.70 459.80 501.20 459.60 501.60 C 459.50 501.80 459.40 502.00 459.30 502.20 C 459.20 502.40 459.10 502.60 459.00 502.80 C 458.90 503.00 458.80 503.20 458.70 503.40 C 458.50 503.90 458.30 504.40 458.00 504.80 C 458.00 504.90 457.90 505.00 457.90 505.10 C 457.90 505.10 457.90 505.20 457.90 505.20 C 457.60 505.80 457.40 506.50 457.10 507.10 C 457.10 507.20 457.00 507.30 457.00 507.40 C 456.90 507.60 456.80 507.90 456.80 508.10 C 456.70 508.40 456.60 508.80 456.40 509.10 C 456.30 509.30 456.30 509.60 456.20 509.80 C 456.10 510.10 456.00 510.40 455.90 510.70 C 455.80 510.90 455.80 511.10 455.70 511.30 C 455.60 511.60 455.50 511.90 455.50 512.20 C 455.40 512.60 455.30 512.90 455.20 513.30 C 455.20 513.40 455.10 513.60 455.10 513.70 C 455.00 514.30 454.90 514.90 454.80 515.40 C 454.80 515.50 454.80 515.60 454.70 515.70 C 454.70 516.00 454.60 516.20 454.60 516.50 C 454.60 516.80 454.50 517.20 454.50 517.50 C 454.50 517.70 454.40 518.00 454.40 518.20 C 454.30 519.00 454.30 519.80 454.30 520.50 L 454.30 521.60 C 454.30 525.70 455.20 529.10 456.80 531.60 C 457.80 533.10 459.00 534.30 460.40 535.10 L 506.60 562.00 C 502.80 559.80 500.50 555.10 500.40 548.50 L 500.40 547.40 C 500.40 546.60 500.40 545.90 500.50 545.10 C 500.50 544.90 500.50 544.60 500.60 544.40 C 500.70 543.80 500.70 543.20 500.80 542.60 C 500.80 542.50 500.80 542.40 500.90 542.30 C 501.00 541.60 501.20 540.90 501.30 540.20 C 501.40 539.80 501.50 539.50 501.60 539.10 C 501.70 538.60 501.90 538.10 502.00 537.60 C 502.10 537.30 502.20 537.00 502.30 536.70 C 502.50 536.10 502.70 535.60 502.90 535.00 C 503.00 534.80 503.10 534.50 503.10 534.30 C 503.40 533.50 503.70 532.80 504.00 532.00 C 504.00 531.90 504.10 531.80 504.10 531.70 C 504.40 531.00 504.70 530.40 505.00 529.70 C 505.10 529.50 505.20 529.30 505.30 529.10 C 505.60 528.50 506.00 527.80 506.30 527.20 C 506.40 527.10 506.40 527.00 506.50 526.80 C 506.90 526.10 507.40 525.30 507.80 524.60 C 507.90 524.40 508.10 524.20 508.20 524.00 C 508.50 523.50 508.90 523.00 509.20 522.50 C 509.40 522.20 509.60 522.00 509.80 521.70 C 510.10 521.30 510.40 520.90 510.70 520.50 C 511.00 520.20 511.20 519.80 511.50 519.50 C 511.80 519.20 512.00 518.90 512.30 518.60 C 512.80 518.10 513.20 517.60 513.70 517.10 C 514.00 516.80 514.30 516.50 514.60 516.20 C 514.80 516.00 515.10 515.80 515.30 515.50 C 515.70 515.10 516.10 514.80 516.50 514.50 C 516.70 514.30 517.00 514.10 517.20 513.90 C 517.60 513.60 518.10 513.20 518.50 512.90 C 518.70 512.70 518.90 512.60 519.10 512.40 C 519.80 511.90 520.40 511.50 521.10 511.10 L 831.00 332.20 C 831.40 331.90 831.90 331.70 832.30 331.50 C 832.80 331.50 832.90 331.40 833.00 331.40 Z" fill="url(#SVGID_5_)" fill-rule="nonzero" group-id="4" node-id="151" stroke="none" target-height="259.3" target-width="392.2" target-x="454.3" target-y="302.7"/><g node-id="195"><path d="M 831.30 332.30 C 842.90 325.60 852.40 331.00 852.40 344.30 L 852.40 345.40 C 852.40 358.70 843.00 375.00 831.40 381.70 L 521.50 560.60 C 509.90 567.30 500.40 561.90 500.40 548.60 L 500.40 547.50 C 500.40 534.20 509.80 517.90 521.40 511.20 L 831.30 332.30 Z" fill="#ffffff" fill-rule="nonzero" group-id="4,9" node-id="155" stroke="none" target-height="241.69998" target-width="352.00003" target-x="500.4" target-y="325.6"/></g></g><g node-id="191"><path d="M 833.00 514.70 C 833.30 514.50 833.70 514.40 834.00 514.30 C 834.10 514.20 834.20 514.20 834.40 514.10 C 834.70 514.00 835.00 513.90 835.30 513.80 C 835.40 513.80 835.50 513.70 835.60 513.70 C 836.00 513.60 836.40 513.50 836.70 513.40 C 836.70 513.40 836.80 513.40 836.80 513.40 C 837.40 513.20 838.00 513.10 838.50 513.00 C 838.50 513.00 838.50 513.00 838.60 513.00 C 839.10 512.90 839.50 512.90 840.00 512.90 C 840.10 512.90 840.20 512.90 840.30 512.90 C 840.70 512.90 841.10 512.90 841.50 512.90 C 841.60 512.90 841.60 512.90 841.70 512.90 C 842.00 512.90 842.40 513.00 842.70 513.00 C 842.80 513.00 842.90 513.00 843.00 513.00 C 843.40 513.10 843.70 513.10 844.10 513.20 C 844.10 513.20 844.10 513.20 844.10 513.20 C 844.40 513.30 844.80 513.40 845.10 513.50 C 845.20 513.50 845.30 513.60 845.40 513.60 C 845.70 513.70 845.90 513.80 846.20 514.00 C 846.30 514.00 846.40 514.10 846.50 514.10 L 800.30 487.20 C 800.30 487.20 800.20 487.20 800.20 487.10 C 800.20 487.10 800.10 487.10 800.10 487.00 C 799.80 486.90 799.60 486.70 799.30 486.60 C 799.30 486.60 799.20 486.60 799.20 486.50 C 799.20 486.50 799.10 486.50 799.10 486.50 C 798.80 486.40 798.50 486.30 798.10 486.20 C 798.10 486.20 798.10 486.20 798.10 486.20 L 798.10 486.20 C 797.80 486.10 797.40 486.00 797.00 486.00 C 797.00 486.00 796.90 486.00 796.90 486.00 C 796.80 486.00 796.80 486.00 796.70 486.00 C 796.40 485.90 796.10 485.90 795.70 485.90 C 795.70 485.90 795.60 485.90 795.60 485.90 C 795.60 485.90 795.60 485.90 795.60 485.90 C 795.20 485.90 794.80 485.90 794.40 485.90 C 794.40 485.90 794.30 485.90 794.30 485.90 C 794.20 485.90 794.20 485.90 794.10 485.90 C 793.60 485.90 793.20 486.00 792.70 486.00 C 792.70 486.00 792.70 486.00 792.70 486.00 C 792.70 486.00 792.70 486.00 792.70 486.00 C 792.10 486.10 791.60 486.20 791.00 486.40 C 791.00 486.40 790.90 486.40 790.90 486.40 C 790.90 486.40 790.90 486.40 790.90 486.40 C 790.50 486.50 790.10 486.60 789.80 486.70 C 789.70 486.70 789.60 486.80 789.50 486.80 C 789.20 486.90 788.90 487.00 788.60 487.10 C 788.60 487.10 788.50 487.10 788.50 487.20 C 788.40 487.20 788.30 487.30 788.30 487.30 C 788.00 487.40 787.60 487.60 787.30 487.70 C 787.20 487.80 787.00 487.80 786.90 487.90 C 786.50 488.10 786.00 488.40 785.60 488.60 L 475.20 667.70 C 474.50 668.10 473.90 668.50 473.20 669.00 C 473.00 669.10 472.80 669.30 472.60 669.50 C 472.20 669.80 471.70 670.10 471.30 670.50 C 471.10 670.70 470.80 670.90 470.60 671.10 C 470.20 671.40 469.80 671.80 469.40 672.10 C 469.20 672.30 468.90 672.50 468.70 672.80 C 468.60 672.90 468.40 673.10 468.30 673.20 C 468.10 673.40 468.00 673.50 467.80 673.70 C 467.30 674.20 466.90 674.70 466.40 675.20 C 466.30 675.40 466.10 675.50 466.00 675.70 C 465.90 675.80 465.80 676.00 465.60 676.10 C 465.30 676.40 465.00 676.80 464.80 677.10 C 464.60 677.30 464.40 677.50 464.30 677.70 C 464.20 677.90 464.00 678.10 463.90 678.30 C 463.70 678.60 463.50 678.80 463.30 679.10 C 463.20 679.30 463.00 679.50 462.90 679.60 C 462.70 679.90 462.50 680.20 462.30 680.60 C 462.20 680.80 462.00 681.00 461.90 681.20 C 461.80 681.30 461.80 681.40 461.70 681.40 C 461.30 682.00 461.00 682.60 460.60 683.20 C 460.60 683.20 460.60 683.30 460.50 683.30 C 460.40 683.40 460.40 683.50 460.30 683.70 C 460.10 684.10 459.80 684.60 459.60 685.00 C 459.50 685.20 459.40 685.40 459.30 685.60 C 459.20 685.80 459.10 686.00 459.00 686.20 C 458.90 686.40 458.80 686.60 458.70 686.80 C 458.50 687.30 458.30 687.80 458.00 688.20 C 458.00 688.30 457.90 688.40 457.90 688.50 C 457.90 688.50 457.90 688.60 457.90 688.60 C 457.60 689.20 457.40 689.90 457.10 690.50 C 457.10 690.60 457.00 690.70 457.00 690.80 C 456.90 691.00 456.80 691.30 456.80 691.50 C 456.70 691.80 456.60 692.20 456.40 692.50 C 456.30 692.70 456.30 693.00 456.20 693.20 C 456.10 693.50 456.00 693.80 455.90 694.10 C 455.80 694.30 455.80 694.50 455.70 694.70 C 455.60 695.00 455.50 695.30 455.50 695.60 C 455.40 696.00 455.30 696.30 455.20 696.70 C 455.20 696.80 455.10 697.00 455.10 697.10 C 455.00 697.70 454.90 698.30 454.80 698.80 C 454.80 698.90 454.80 699.00 454.70 699.10 C 454.70 699.40 454.60 699.60 454.60 699.90 C 454.60 700.20 454.50 700.60 454.50 700.90 C 454.50 701.10 454.40 701.40 454.40 701.60 C 454.30 702.40 454.30 703.20 454.30 703.90 L 454.30 705.00 C 454.30 709.10 455.20 712.50 456.80 715.00 C 457.80 716.50 459.00 717.70 460.40 718.50 L 506.60 745.40 C 502.80 743.20 500.50 738.50 500.40 731.90 L 500.40 730.80 C 500.40 730.00 500.40 729.30 500.50 728.50 C 500.50 728.30 500.50 728.00 500.60 727.80 C 500.70 727.20 500.70 726.60 500.80 726.00 C 500.80 725.90 500.80 725.80 500.90 725.70 C 501.00 725.00 501.20 724.30 501.30 723.60 C 501.40 723.20 501.50 722.90 501.60 722.50 C 501.70 722.00 501.90 721.50 502.00 721.00 C 502.10 720.70 502.20 720.40 502.30 720.10 C 502.50 719.50 502.70 719.00 502.90 718.40 C 503.00 718.20 503.10 717.90 503.10 717.70 C 503.40 716.90 503.70 716.20 504.00 715.40 C 504.00 715.30 504.10 715.20 504.10 715.10 C 504.40 714.40 504.70 713.80 505.00 713.10 C 505.10 712.90 505.20 712.70 505.30 712.50 C 505.60 711.90 506.00 711.20 506.30 710.60 C 506.40 710.50 506.40 710.40 506.50 710.20 C 506.90 709.50 507.40 708.70 507.80 708.00 C 507.90 707.80 508.10 707.60 508.20 707.40 C 508.50 706.90 508.90 706.40 509.20 705.90 C 509.40 705.60 509.60 705.40 509.80 705.10 C 510.10 704.70 510.40 704.30 510.70 703.90 C 511.00 703.60 511.20 703.20 511.50 702.90 C 511.80 702.60 512.00 702.30 512.30 702.00 C 512.80 701.50 513.20 701.00 513.70 700.50 C 514.00 700.20 514.30 699.90 514.60 699.60 C 514.80 699.40 515.10 699.20 515.30 698.90 C 515.70 698.50 516.10 698.20 516.50 697.90 C 516.70 697.70 517.00 697.50 517.20 697.30 C 517.60 697.00 518.10 696.60 518.50 696.30 C 518.70 696.10 518.90 696.00 519.10 695.80 C 519.80 695.30 520.40 694.90 521.10 694.50 L 831.00 515.60 C 831.40 515.30 831.90 515.10 832.30 514.90 C 832.80 514.80 832.90 514.70 833.00 514.70 Z" fill="url(#SVGID_6_)" fill-rule="nonzero" group-id="5" node-id="161" stroke="none" target-height="259.50003" target-width="392.2" target-x="454.3" target-y="485.9"/><g node-id="196"><path d="M 831.30 515.60 C 842.90 508.90 852.40 514.30 852.40 527.60 L 852.40 528.70 C 852.40 542.00 843.00 558.30 831.40 565.00 L 521.50 744.00 C 509.90 750.70 500.40 745.30 500.40 732.00 L 500.40 730.90 C 500.40 717.60 509.80 701.30 521.40 694.60 L 831.30 515.60 Z" fill="url(#SVGID_7_)" fill-rule="nonzero" group-id="5,10" node-id="165" stroke="none" target-height="241.80002" target-width="352.00003" target-x="500.4" target-y="508.9"/></g></g><g node-id="192"><path d="M 833.00 698.00 C 833.30 697.80 833.70 697.70 834.00 697.60 C 834.10 697.50 834.20 697.50 834.40 697.40 C 834.70 697.30 835.00 697.20 835.30 697.10 C 835.40 697.10 835.50 697.00 835.60 697.00 C 836.00 696.90 836.40 696.80 836.70 696.70 C 836.70 696.70 836.80 696.70 836.80 696.70 C 837.40 696.50 838.00 696.40 838.50 696.30 C 838.50 696.30 838.50 696.30 838.60 696.30 C 839.10 696.20 839.50 696.20 840.00 696.20 C 840.10 696.20 840.20 696.20 840.30 696.20 C 840.70 696.20 841.10 696.20 841.50 696.20 C 841.60 696.20 841.60 696.20 841.70 696.20 C 842.00 696.20 842.40 696.30 842.70 696.30 C 842.80 696.30 842.90 696.30 843.00 696.30 C 843.40 696.40 843.70 696.40 844.10 696.50 C 844.10 696.50 844.10 696.50 844.10 696.50 C 844.40 696.60 844.80 696.70 845.10 696.80 C 845.20 696.80 845.30 696.90 845.40 696.90 C 845.70 697.00 845.90 697.10 846.20 697.30 C 846.30 697.30 846.40 697.40 846.50 697.40 L 800.30 670.50 C 800.30 670.50 800.20 670.50 800.20 670.40 C 800.20 670.40 800.10 670.40 800.10 670.30 C 799.80 670.20 799.60 670.00 799.30 669.90 C 799.30 669.90 799.20 669.90 799.20 669.80 C 799.20 669.80 799.10 669.80 799.10 669.80 C 798.80 669.70 798.50 669.60 798.10 669.50 C 798.10 669.50 798.10 669.50 798.10 669.50 C 798.10 669.50 798.10 669.50 798.10 669.50 C 797.80 669.40 797.40 669.30 797.00 669.30 C 797.00 669.30 796.90 669.30 796.90 669.30 C 796.80 669.30 796.80 669.30 796.70 669.30 C 796.40 669.20 796.10 669.20 795.70 669.20 C 795.70 669.20 795.60 669.20 795.60 669.20 C 795.60 669.20 795.60 669.20 795.60 669.20 C 795.20 669.20 794.80 669.20 794.40 669.20 C 794.40 669.20 794.30 669.20 794.30 669.20 C 794.20 669.20 794.20 669.20 794.10 669.20 C 793.60 669.20 793.20 669.30 792.70 669.30 C 792.70 669.30 792.70 669.30 792.70 669.30 C 792.70 669.30 792.70 669.30 792.70 669.30 C 792.10 669.40 791.60 669.50 791.00 669.70 C 791.00 669.70 790.90 669.70 790.90 669.70 C 790.90 669.70 790.90 669.70 790.90 669.70 C 790.50 669.80 790.10 669.90 789.80 670.00 C 789.70 670.00 789.60 670.10 789.50 670.10 C 789.20 670.20 788.90 670.30 788.60 670.40 C 788.60 670.40 788.50 670.40 788.50 670.50 C 788.40 670.50 788.30 670.60 788.30 670.60 C 788.00 670.70 787.60 670.90 787.30 671.00 C 787.20 671.10 787.00 671.10 786.90 671.20 C 786.50 671.40 786.00 671.70 785.60 671.90 L 475.20 851.00 C 474.50 851.40 473.90 851.80 473.20 852.30 C 473.00 852.40 472.80 852.60 472.60 852.80 C 472.20 853.10 471.70 853.40 471.30 853.80 C 471.10 854.00 470.80 854.20 470.60 854.40 C 470.20 854.70 469.80 855.10 469.40 855.40 C 469.20 855.60 468.90 855.80 468.70 856.10 C 468.60 856.20 468.40 856.40 468.30 856.50 C 468.10 856.70 468.00 856.80 467.80 857.00 C 467.30 857.50 466.90 858.00 466.40 858.50 C 466.30 858.70 466.10 858.80 466.00 859.00 C 465.90 859.10 465.80 859.30 465.60 859.40 C 465.30 859.70 465.00 860.10 464.80 860.40 C 464.60 860.60 464.40 860.80 464.30 861.00 C 464.20 861.20 464.00 861.40 463.90 861.60 C 463.70 861.90 463.50 862.10 463.30 862.40 C 463.20 862.60 463.00 862.80 462.90 862.90 C 462.70 863.20 462.50 863.50 462.30 863.90 C 462.20 864.10 462.00 864.30 461.90 864.50 C 461.80 864.60 461.80 864.70 461.70 864.70 C 461.30 865.30 461.00 865.90 460.60 866.50 C 460.60 866.50 460.60 866.60 460.50 866.60 C 460.40 866.70 460.40 866.80 460.30 867.00 C 460.10 867.40 459.80 867.90 459.60 868.30 C 459.50 868.50 459.40 868.70 459.30 868.90 C 459.20 869.10 459.10 869.30 459.00 869.50 C 458.90 869.70 458.80 869.90 458.70 870.10 C 458.50 870.60 458.30 871.10 458.00 871.50 C 458.00 871.60 457.90 871.70 457.90 871.80 C 457.90 871.80 457.90 871.90 457.90 871.90 C 457.60 872.50 457.40 873.20 457.10 873.80 C 457.10 873.90 457.00 874.00 457.00 874.10 C 456.90 874.30 456.80 874.60 456.80 874.80 C 456.70 875.10 456.60 875.50 456.40 875.80 C 456.30 876.00 456.30 876.30 456.20 876.50 C 456.10 876.80 456.00 877.10 455.90 877.40 C 455.80 877.60 455.80 877.80 455.70 878.00 C 455.60 878.30 455.50 878.60 455.50 878.90 C 455.40 879.30 455.30 879.60 455.20 880.00 C 455.20 880.10 455.10 880.30 455.10 880.40 C 455.00 881.00 454.90 881.60 454.80 882.10 C 454.80 882.20 454.80 882.30 454.70 882.40 C 454.70 882.70 454.60 882.90 454.60 883.20 C 454.60 883.50 454.50 883.90 454.50 884.20 C 454.50 884.40 454.40 884.70 454.40 884.90 C 454.30 885.70 454.30 886.50 454.30 887.20 L 454.30 888.30 C 454.30 892.40 455.20 895.80 456.80 898.30 C 457.80 899.80 459.00 901.00 460.40 901.80 L 506.60 928.70 C 502.80 926.50 500.50 921.80 500.40 915.20 L 500.40 914.10 C 500.40 913.30 500.40 912.60 500.50 911.80 C 500.50 911.60 500.50 911.30 500.60 911.10 C 500.70 910.50 500.70 909.90 500.80 909.30 C 500.80 909.20 500.80 909.10 500.90 909.00 C 501.00 908.30 501.20 907.60 501.30 906.90 C 501.40 906.50 501.50 906.20 501.60 905.80 C 501.70 905.30 501.90 904.80 502.00 904.30 C 502.10 904.00 502.20 903.70 502.30 903.40 C 502.50 902.80 502.70 902.30 502.90 901.70 C 503.00 901.50 503.10 901.20 503.10 901.00 C 503.40 900.20 503.70 899.50 504.00 898.70 C 504.00 898.60 504.10 898.50 504.10 898.40 C 504.40 897.70 504.70 897.10 505.00 896.40 C 505.10 896.20 505.20 896.00 505.30 895.80 C 505.60 895.20 506.00 894.50 506.30 893.90 C 506.40 893.80 506.40 893.70 506.50 893.50 C 506.90 892.80 507.40 892.00 507.80 891.30 C 507.90 891.10 508.10 890.90 508.20 890.70 C 508.50 890.20 508.90 889.70 509.20 889.20 C 509.40 888.90 509.60 888.70 509.80 888.40 C 510.10 888.00 510.40 887.60 510.70 887.20 C 511.00 886.90 511.20 886.50 511.50 886.20 C 511.80 885.90 512.00 885.60 512.30 885.30 C 512.80 884.80 513.20 884.30 513.70 883.80 C 514.00 883.50 514.30 883.20 514.60 882.90 C 514.80 882.70 515.10 882.50 515.30 882.20 C 515.70 881.80 516.10 881.50 516.50 881.20 C 516.70 881.00 517.00 880.80 517.20 880.60 C 517.60 880.30 518.10 879.90 518.50 879.60 C 518.70 879.40 518.90 879.30 519.10 879.10 C 519.80 878.60 520.40 878.20 521.10 877.80 L 831.00 698.90 C 831.40 698.60 831.90 698.40 832.30 698.20 C 832.80 698.10 832.90 698.10 833.00 698.00 Z" fill="url(#SVGID_8_)" fill-rule="nonzero" group-id="6" node-id="171" stroke="none" target-height="259.5" target-width="392.2" target-x="454.3" target-y="669.2"/><g node-id="197"><path d="M 831.30 698.90 C 842.90 692.20 852.40 697.60 852.40 710.90 L 852.40 712.00 C 852.40 725.30 843.00 741.60 831.40 748.30 L 521.50 927.30 C 509.90 934.00 500.40 928.60 500.40 915.30 L 500.40 914.20 C 500.40 900.90 509.80 884.60 521.40 877.90 L 831.30 698.90 Z" fill="#ffffff" fill-rule="nonzero" group-id="6,11" node-id="175" stroke="none" target-height="241.79999" target-width="352.00003" target-x="500.4" target-y="692.2"/></g></g><g node-id="193"><path d="M 592.90 172.10 C 592.90 172.10 592.80 172.00 592.80 172.00 C 592.80 172.00 592.70 172.00 592.60 171.90 C 592.30 171.70 592.00 171.60 591.70 171.50 C 591.60 171.50 591.60 171.40 591.50 171.40 C 591.50 171.40 591.40 171.40 591.40 171.40 C 591.00 171.30 590.70 171.10 590.30 171.00 C 590.30 171.00 590.30 171.00 590.30 171.00 C 590.30 171.00 590.30 171.00 590.30 171.00 C 589.90 170.90 589.50 170.80 589.10 170.70 C 589.10 170.70 589.00 170.70 589.00 170.70 C 588.90 170.70 588.90 170.70 588.80 170.70 C 588.40 170.60 588.10 170.60 587.70 170.60 C 587.60 170.60 587.60 170.60 587.50 170.60 C 587.50 170.60 587.50 170.60 587.40 170.60 C 587.00 170.60 586.50 170.60 586.00 170.60 C 586.00 170.60 585.90 170.60 585.90 170.60 C 585.80 170.60 585.80 170.60 585.70 170.60 C 585.20 170.60 584.70 170.70 584.10 170.80 C 584.10 170.80 584.10 170.80 584.10 170.80 C 583.80 170.90 583.40 170.90 583.10 171.00 C 583.00 171.00 582.90 171.00 582.80 171.10 C 582.50 171.20 582.30 171.20 582.00 171.30 C 582.00 171.30 582.00 171.30 581.90 171.30 C 581.50 171.40 581.10 171.50 580.60 171.70 C 580.50 171.70 580.40 171.80 580.30 171.80 C 580.00 171.90 579.60 172.00 579.30 172.20 C 579.30 172.20 579.20 172.20 579.20 172.30 C 579.10 172.30 579.00 172.40 578.90 172.40 C 578.50 172.60 578.20 172.70 577.80 172.90 C 577.70 173.00 577.50 173.00 577.40 173.10 C 576.90 173.30 576.40 173.60 575.90 173.90 L 473.40 233.10 C 472.80 233.50 472.20 233.80 471.60 234.30 C 471.50 234.40 471.40 234.40 471.30 234.50 C 470.70 234.90 470.10 235.30 469.60 235.80 C 469.50 235.90 469.40 236.00 469.30 236.10 C 468.70 236.60 468.10 237.00 467.60 237.50 C 467.60 237.50 467.50 237.60 467.50 237.60 C 467.00 238.10 466.40 238.60 465.90 239.10 C 465.80 239.20 465.80 239.20 465.70 239.30 C 465.70 239.30 465.60 239.40 465.60 239.40 C 465.20 239.80 464.90 240.20 464.50 240.50 C 464.50 240.50 464.40 240.60 464.40 240.60 C 464.00 241.00 463.60 241.50 463.20 241.90 C 463.20 241.90 463.10 242.00 463.10 242.00 C 463.10 242.00 463.00 242.10 463.00 242.10 C 462.40 242.80 461.80 243.50 461.20 244.20 C 461.20 244.20 461.20 244.20 461.20 244.30 C 461.20 244.40 461.10 244.40 461.10 244.50 C 460.60 245.10 460.20 245.70 459.80 246.30 C 459.80 246.40 459.70 246.40 459.70 246.50 C 459.70 246.50 459.70 246.60 459.60 246.60 C 459.20 247.20 458.80 247.80 458.40 248.40 C 458.40 248.50 458.30 248.50 458.30 248.60 C 458.20 248.70 458.20 248.80 458.10 248.90 C 457.80 249.40 457.50 249.90 457.20 250.40 C 457.20 250.50 457.10 250.60 457.10 250.60 C 457.10 250.60 457.10 250.70 457.00 250.70 C 456.70 251.30 456.30 251.90 456.00 252.50 C 456.00 252.50 455.90 252.60 455.90 252.60 C 455.80 252.70 455.80 252.80 455.80 252.90 C 455.50 253.40 455.30 253.90 455.10 254.30 C 455.10 254.40 455.00 254.50 455.00 254.60 C 455.00 254.70 454.90 254.70 454.90 254.80 C 454.60 255.40 454.30 256.00 454.10 256.60 C 454.10 256.60 454.10 256.60 454.10 256.70 C 454.10 256.80 454.00 256.80 454.00 256.90 C 453.80 257.40 453.50 258.00 453.30 258.50 C 453.30 258.60 453.20 258.70 453.20 258.80 C 453.20 258.90 453.20 258.90 453.10 259.00 C 452.90 259.70 452.60 260.30 452.40 261.00 C 452.40 261.00 452.40 261.00 452.40 261.10 C 452.40 261.20 452.40 261.20 452.40 261.30 C 452.20 262.00 452.00 262.60 451.80 263.30 C 451.80 263.40 451.70 263.50 451.70 263.50 C 451.70 263.50 451.70 263.60 451.70 263.60 C 451.50 264.40 451.30 265.20 451.10 266.00 C 451.10 266.10 451.10 266.10 451.00 266.20 C 451.00 266.30 451.00 266.40 450.90 266.50 C 450.80 266.80 450.80 267.10 450.70 267.40 C 450.70 267.60 450.60 267.80 450.60 268.00 C 450.50 268.30 450.50 268.60 450.50 269.00 C 450.50 269.20 450.50 269.30 450.40 269.50 C 450.40 269.50 450.40 269.60 450.40 269.60 C 450.30 270.30 450.20 270.90 450.20 271.60 C 450.20 271.70 450.20 271.90 450.20 272.00 C 450.20 272.70 450.10 273.40 450.10 274.00 L 450.10 307.80 L 450.20 333.10 L 450.40 416.60 L 450.50 441.90 L 489.70 464.70 L 489.60 439.40 L 489.40 355.90 L 489.30 330.60 L 489.30 296.80 C 489.30 296.10 489.30 295.50 489.40 294.80 C 489.40 294.70 489.40 294.50 489.40 294.40 C 489.40 293.70 489.50 293.10 489.60 292.40 C 489.60 292.20 489.70 292.00 489.70 291.80 C 489.70 291.50 489.80 291.20 489.80 290.80 C 489.80 290.60 489.90 290.40 489.90 290.20 C 490.00 289.90 490.00 289.60 490.10 289.30 C 490.10 289.10 490.20 289.00 490.20 288.80 C 490.40 288.00 490.60 287.20 490.80 286.40 C 490.80 286.30 490.90 286.10 490.90 286.00 C 491.10 285.30 491.30 284.70 491.50 284.00 C 491.50 283.90 491.50 283.90 491.60 283.80 C 491.80 283.10 492.10 282.50 492.30 281.80 C 492.40 281.60 492.40 281.50 492.50 281.30 C 492.70 280.80 492.90 280.20 493.20 279.70 C 493.20 279.60 493.30 279.50 493.30 279.40 C 493.60 278.80 493.80 278.20 494.10 277.60 C 494.20 277.40 494.30 277.30 494.30 277.10 C 494.50 276.60 494.80 276.10 495.00 275.70 C 495.10 275.60 495.20 275.40 495.20 275.30 C 495.50 274.70 495.80 274.10 496.20 273.50 C 496.30 273.40 496.30 273.30 496.40 273.20 C 496.70 272.70 497.00 272.20 497.30 271.70 C 497.40 271.60 497.50 271.40 497.60 271.30 C 498.00 270.70 498.40 270.10 498.80 269.50 C 498.90 269.40 498.90 269.30 499.00 269.20 C 499.40 268.60 499.90 268.00 500.30 267.40 C 500.40 267.30 500.40 267.30 500.50 267.20 C 501.10 266.50 501.70 265.70 502.30 265.10 C 502.40 265.00 502.40 264.90 502.50 264.90 C 502.90 264.50 503.30 264.00 503.70 263.60 C 503.70 263.60 503.80 263.50 503.80 263.50 C 504.20 263.10 504.50 262.70 504.90 262.40 C 505.00 262.30 505.10 262.20 505.20 262.10 C 505.70 261.60 506.30 261.10 506.80 260.60 C 506.80 260.60 506.90 260.50 506.90 260.50 C 507.50 260.00 508.00 259.50 508.60 259.10 C 508.70 259.00 508.80 258.90 508.90 258.80 C 509.50 258.40 510.00 257.90 510.60 257.50 C 510.70 257.40 510.80 257.40 510.90 257.30 C 511.50 256.90 512.10 256.50 512.70 256.10 L 615.20 196.90 C 615.70 196.60 616.20 196.40 616.70 196.10 C 616.80 196.00 617.00 196.00 617.10 195.90 C 617.50 195.70 617.80 195.60 618.20 195.40 C 618.30 195.30 618.50 195.30 618.60 195.20 C 618.90 195.10 619.30 194.90 619.60 194.80 C 619.70 194.80 619.80 194.70 619.90 194.70 C 620.30 194.60 620.80 194.40 621.20 194.30 C 621.50 194.20 621.80 194.20 622.00 194.10 C 622.10 194.10 622.20 194.10 622.30 194.00 C 622.70 193.90 623.00 193.90 623.40 193.80 C 623.90 193.70 624.50 193.70 625.00 193.60 C 625.10 193.60 625.20 193.60 625.30 193.60 C 625.80 193.60 626.20 193.60 626.70 193.60 C 626.80 193.60 626.80 193.60 626.90 193.60 C 627.30 193.60 627.60 193.70 628.00 193.70 C 628.10 193.70 628.20 193.70 628.30 193.80 C 628.70 193.90 629.10 194.00 629.50 194.10 C 629.50 194.10 629.50 194.10 629.50 194.10 C 629.90 194.20 630.20 194.30 630.60 194.50 C 630.70 194.50 630.80 194.60 630.90 194.60 C 631.20 194.70 631.50 194.90 631.80 195.00 C 631.90 195.10 632.00 195.10 632.10 195.10 L 592.90 172.10 Z" fill="#f8921a" fill-rule="nonzero" group-id="7" node-id="181" stroke="none" target-height="294.1" target-width="181.99997" target-x="450.1" target-y="170.6"/><g node-id="198"><path d="M 615.20 196.40 C 628.20 188.90 638.90 195.00 638.90 209.90 L 639.00 257.50 C 639.00 258.30 639.00 259.10 638.90 259.90 L 638.90 269.00 L 639.10 352.50 L 639.20 377.80 L 564.20 385.40 L 489.40 464.30 L 489.30 439.00 L 489.10 355.50 L 489.00 330.20 L 489.00 296.40 C 489.00 281.50 499.60 263.10 512.60 255.60 L 615.20 196.40 Z" fill="#ffbd30" fill-rule="nonzero" group-id="7,12" node-id="185" stroke="none" target-height="275.4" target-width="150.20001" target-x="489" target-y="188.9"/></g></g></svg>