<svg height="1024" node-id="1" sillyvg="true" template-height="1024" template-width="1024" version="1.1" viewBox="0 0 1024 1024" width="1024" xmlns="http://www.w3.org/2000/svg" xmlns:xlink="http://www.w3.org/1999/xlink"><defs node-id="87"><linearGradient gradientUnits="userSpaceOnUse" id="SVGID_1_" node-id="27" spreadMethod="pad" x1="227.3588" x2="820.1203" y1="816.6866" y2="816.6866"><stop offset="0" stop-color="#ffb438"/><stop offset="1" stop-color="#e97d08"/></linearGradient><linearGradient gradientUnits="userSpaceOnUse" id="SVGID_2_" node-id="32" spreadMethod="pad" x1="227.7471" x2="820.1205" y1="662.8475" y2="662.8475"><stop offset="0" stop-color="#e97d08"/><stop offset="1" stop-color="#ffb438"/></linearGradient><linearGradient gradientUnits="userSpaceOnUse" id="SVGID_3_" node-id="39" spreadMethod="pad" x1="363.7879" x2="683.6802" y1="570.1546" y2="570.1546"><stop offset="0" stop-color="#ffa21e"/><stop offset="1" stop-color="#ffcb27"/></linearGradient><linearGradient gradientUnits="userSpaceOnUse" id="SVGID_4_" node-id="44" spreadMethod="pad" x1="406.2673" x2="642.583" y1="403.5363" y2="403.5363"><stop offset="0" stop-color="#ffa21e"/><stop offset="1" stop-color="#ffcb27"/></linearGradient><linearGradient gradientUnits="userSpaceOnUse" id="SVGID_5_" node-id="48" spreadMethod="pad" x1="326.8818" x2="720.5905" y1="325.1356" y2="325.1356"><stop offset="0" stop-color="#ffcc21"/><stop offset="1" stop-color="#ffe037"/></linearGradient><linearGradient gradientUnits="userSpaceOnUse" id="SVGID_6_" node-id="54" spreadMethod="pad" x1="674.5878" x2="733.2507" y1="642.6125" y2="642.6125"><stop offset="0" stop-color="#f9fae6"/><stop offset="1" stop-color="#fbfdf0"/></linearGradient><linearGradient gradientUnits="userSpaceOnUse" id="SVGID_7_" node-id="58" spreadMethod="pad" x1="559.8082" x2="626.5394" y1="712.9047" y2="712.9047"><stop offset="0" stop-color="#f9fae6"/><stop offset="1" stop-color="#fbfdf0"/></linearGradient><linearGradient gradientUnits="userSpaceOnUse" id="SVGID_8_" node-id="62" spreadMethod="pad" x1="453.4447" x2="515.5488" y1="717.8518" y2="717.8518"><stop offset="0" stop-color="#f9fae6"/><stop offset="1" stop-color="#fbfdf0"/></linearGradient><linearGradient gradientUnits="userSpaceOnUse" id="SVGID_9_" node-id="66" spreadMethod="pad" x1="314.2219" x2="406.5899" y1="650.0253" y2="650.0253"><stop offset="0" stop-color="#f9fae6"/><stop offset="1" stop-color="#fbfdf0"/></linearGradient><linearGradient gradientUnits="userSpaceOnUse" id="SVGID_10_" node-id="70" spreadMethod="pad" x1="689.5988" x2="977.6407" y1="561.5911" y2="561.5911"><stop offset="0" stop-color="#d5cbca"/><stop offset="1" stop-color="#f8f4f1"/></linearGradient><linearGradient gradientUnits="userSpaceOnUse" id="SVGID_11_" node-id="74" spreadMethod="pad" x1="37.6147" x2="325.6566" y1="476.9325" y2="476.9325"><stop offset="0" stop-color="#d5cbca"/><stop offset="1" stop-color="#f8f4f1"/></linearGradient><linearGradient gradientUnits="userSpaceOnUse" id="SVGID_12_" node-id="78" spreadMethod="pad" x1="207.3945" x2="315.0296" y1="164.0159" y2="164.0159"><stop offset="0" stop-color="#d5cbca"/><stop offset="1" stop-color="#f8f4f1"/></linearGradient><linearGradient gradientUnits="userSpaceOnUse" id="SVGID_13_" node-id="82" spreadMethod="pad" x1="746.5637" x2="854.1987" y1="216.0947" y2="216.0947"><stop offset="0" stop-color="#d5cbca"/><stop offset="1" stop-color="#f8f4f1"/></linearGradient></defs><g node-id="219"><path d="M 819.90 668.90 C 819.80 670.40 819.70 671.90 819.60 673.40 C 819.50 674.70 819.30 676.00 819.10 677.30 C 818.90 678.80 818.70 680.30 818.40 681.70 C 818.20 683.00 817.90 684.30 817.60 685.60 C 817.30 687.00 816.90 688.50 816.50 689.90 C 816.10 691.20 815.80 692.50 815.40 693.80 C 815.00 695.20 814.50 696.70 814.00 698.10 C 813.50 699.40 813.10 700.70 812.60 701.90 C 812.00 703.40 811.40 704.90 810.70 706.40 C 810.10 707.70 809.60 708.90 808.90 710.20 C 808.20 711.70 807.40 713.20 806.60 714.60 C 806.00 715.80 805.30 717.00 804.60 718.20 C 803.60 720.00 802.50 721.70 801.40 723.50 C 800.70 724.60 800.10 725.60 799.30 726.70 C 798.00 728.60 796.60 730.50 795.10 732.40 C 794.40 733.30 793.80 734.20 793.10 735.10 C 792.80 735.50 792.40 735.90 792.10 736.30 C 790.60 738.20 788.90 740.10 787.30 742.00 C 786.80 742.50 786.40 743.00 785.90 743.50 C 783.90 745.70 781.90 747.80 779.70 749.90 C 779.30 750.30 778.90 750.70 778.50 751.00 C 776.90 752.60 775.20 754.20 773.40 755.70 C 772.00 757.00 770.60 758.20 769.10 759.40 C 767.80 760.50 766.40 761.70 765.00 762.80 C 763.50 764.00 761.90 765.20 760.40 766.40 C 759.00 767.50 757.50 768.60 756.00 769.70 C 754.40 770.90 752.70 772.10 751.00 773.20 C 749.40 774.30 747.90 775.30 746.30 776.40 C 744.50 777.50 742.70 778.70 740.90 779.80 C 738.60 781.20 736.40 782.60 734.00 784.00 C 729.60 786.60 725.00 789.00 720.40 791.40 C 719.10 792.10 717.70 792.70 716.40 793.40 C 712.80 795.20 709.10 796.90 705.40 798.60 C 704.10 799.20 702.90 799.70 701.60 800.30 C 696.80 802.40 691.80 804.40 686.80 806.30 C 685.90 806.60 685.00 806.90 684.10 807.30 C 679.90 808.90 675.60 810.40 671.20 811.80 C 669.40 812.40 667.60 813.00 665.90 813.50 C 663.50 814.30 661.10 815.00 658.70 815.70 C 656.70 816.30 654.60 816.90 652.60 817.50 C 650.10 818.20 647.70 818.80 645.20 819.50 C 643.10 820.00 641.10 820.60 639.00 821.10 C 636.50 821.70 634.00 822.30 631.40 822.80 C 629.30 823.30 627.20 823.70 625.10 824.20 C 622.50 824.70 619.90 825.20 617.30 825.70 C 615.30 826.10 613.30 826.50 611.30 826.80 C 605.80 827.80 600.20 828.70 594.60 829.50 C 593.80 829.60 593.00 829.70 592.20 829.80 C 587.30 830.50 582.40 831.00 577.40 831.60 C 575.50 831.80 573.60 832.00 571.80 832.20 C 568.60 832.50 565.40 832.80 562.30 833.00 C 560.30 833.10 558.30 833.30 556.30 833.40 C 553.00 833.60 549.60 833.80 546.30 833.90 C 544.40 834.00 542.60 834.10 540.70 834.10 C 537.80 834.20 534.90 834.20 532.00 834.30 C 530.00 834.30 528.00 834.40 526.00 834.40 C 522.90 834.40 519.80 834.40 516.70 834.30 C 514.90 834.30 513.10 834.30 511.30 834.20 C 508.50 834.10 505.60 834.00 502.80 833.90 C 500.80 833.80 498.90 833.80 496.90 833.70 C 493.90 833.50 490.80 833.30 487.80 833.10 C 486.10 833.00 484.30 832.90 482.60 832.70 C 478.90 832.40 475.30 832.00 471.60 831.60 C 470.50 831.50 469.40 831.40 468.40 831.30 C 463.70 830.80 458.90 830.20 454.20 829.50 C 453.40 829.40 452.70 829.30 452.00 829.10 C 448.00 828.50 443.90 827.90 439.90 827.20 C 438.20 826.90 436.50 826.60 434.90 826.30 C 431.90 825.70 428.80 825.20 425.80 824.60 C 424.20 824.30 422.60 823.90 421.10 823.60 C 417.80 822.90 414.40 822.10 411.10 821.30 C 409.30 820.90 407.50 820.40 405.60 819.90 C 402.60 819.10 399.60 818.30 396.60 817.50 C 394.90 817.00 393.20 816.50 391.50 816.10 C 386.80 814.70 382.10 813.30 377.50 811.70 C 376.70 811.40 375.90 811.20 375.10 810.90 C 369.80 809.10 364.60 807.20 359.40 805.20 C 357.30 804.40 355.30 803.50 353.20 802.70 C 351.50 802.00 349.90 801.40 348.30 800.70 C 346.00 799.70 343.70 798.70 341.40 797.60 C 339.90 796.90 338.40 796.20 336.90 795.50 C 334.40 794.30 332.00 793.10 329.50 791.90 C 328.30 791.30 327.00 790.70 325.80 790.10 C 322.20 788.20 318.60 786.30 315.10 784.20 C 256.70 750.50 227.50 706.20 227.70 662.00 L 227.30 799.00 C 227.20 843.20 256.30 887.40 314.70 921.20 C 318.20 923.20 321.80 925.20 325.40 927.10 C 326.60 927.70 327.80 928.30 329.00 928.90 C 331.50 930.10 333.90 931.40 336.40 932.60 C 337.90 933.30 339.40 934.00 340.90 934.60 C 343.20 935.60 345.50 936.70 347.80 937.70 C 349.40 938.40 351.10 939.10 352.70 939.70 C 354.30 940.30 355.80 941.00 357.40 941.70 C 357.90 941.90 358.40 942.10 358.90 942.30 C 364.00 944.30 369.30 946.20 374.60 948.00 C 375.40 948.30 376.20 948.50 377.00 948.80 C 381.60 950.30 386.30 951.80 391.00 953.20 C 391.80 953.40 392.50 953.70 393.30 953.90 C 394.20 954.20 395.10 954.40 396.00 954.60 C 399.00 955.40 402.00 956.20 405.00 957.00 C 406.80 957.50 408.60 957.90 410.50 958.40 C 413.80 959.20 417.10 959.90 420.50 960.70 C 421.70 961.00 423.00 961.30 424.20 961.50 C 424.50 961.60 424.90 961.60 425.20 961.70 C 428.30 962.30 431.30 962.90 434.40 963.50 C 436.10 963.80 437.70 964.10 439.30 964.40 C 443.30 965.10 447.30 965.70 451.30 966.30 C 452.10 966.40 452.80 966.50 453.60 966.70 C 453.60 966.70 453.70 966.70 453.70 966.70 C 458.40 967.40 463.10 968.00 467.80 968.50 C 468.80 968.60 469.90 968.70 470.90 968.80 C 474.60 969.20 478.30 969.60 482.00 969.90 C 482.10 969.90 482.20 969.90 482.30 969.90 C 483.90 970.00 485.50 970.10 487.20 970.20 C 490.30 970.40 493.30 970.70 496.40 970.80 C 498.40 970.90 500.30 971.00 502.30 971.00 C 505.20 971.10 508.00 971.30 510.90 971.30 C 511.10 971.30 511.40 971.30 511.60 971.30 C 513.20 971.30 514.70 971.30 516.30 971.30 C 519.40 971.30 522.50 971.40 525.70 971.40 C 527.70 971.40 529.70 971.30 531.70 971.30 C 534.60 971.30 537.50 971.20 540.40 971.10 C 540.90 971.10 541.50 971.10 542.00 971.10 C 543.30 971.10 544.70 971.00 546.00 970.90 C 549.30 970.80 552.70 970.60 556.00 970.40 C 558.00 970.30 560.00 970.10 562.00 970.00 C 565.20 969.80 568.40 969.50 571.50 969.20 C 572.60 969.10 573.70 969.00 574.80 968.90 C 575.60 968.80 576.30 968.70 577.10 968.60 C 582.10 968.10 587.00 967.50 591.90 966.80 C 592.70 966.70 593.50 966.60 594.20 966.50 C 599.80 965.70 605.40 964.80 611.00 963.80 C 611.50 963.70 612.00 963.60 612.60 963.50 C 614.10 963.20 615.50 962.90 617.00 962.60 C 619.60 962.10 622.20 961.60 624.80 961.10 C 626.90 960.70 629.00 960.20 631.10 959.70 C 633.60 959.10 636.20 958.60 638.70 958.00 C 640.80 957.50 642.80 957.00 644.90 956.40 C 647.40 955.80 649.80 955.10 652.30 954.40 C 654.30 953.80 656.40 953.20 658.40 952.60 C 660.80 951.90 663.20 951.20 665.60 950.40 C 666.60 950.10 667.70 949.80 668.70 949.40 C 669.40 949.20 670.20 948.90 670.90 948.60 C 675.20 947.20 679.50 945.70 683.80 944.10 C 684.70 943.80 685.60 943.50 686.50 943.10 C 691.50 941.20 696.40 939.20 701.30 937.10 C 702.60 936.60 703.80 936.00 705.10 935.40 C 708.80 933.70 712.50 932.00 716.10 930.20 C 717.40 929.50 718.80 928.90 720.10 928.20 C 724.70 925.80 729.30 923.40 733.70 920.80 C 734.90 920.10 736.10 919.40 737.30 918.70 C 738.40 918.00 739.40 917.30 740.50 916.60 C 742.30 915.50 744.10 914.30 745.90 913.20 C 747.50 912.10 749.10 911.10 750.60 910.00 C 752.30 908.80 754.00 907.70 755.60 906.50 C 757.10 905.40 758.60 904.30 760.00 903.20 C 761.60 902.00 763.10 900.80 764.60 899.60 C 766.00 898.50 767.30 897.30 768.70 896.20 C 770.20 895.00 771.60 893.70 773.00 892.50 C 773.60 892.00 774.20 891.50 774.80 891.00 C 775.90 889.90 777.00 888.90 778.10 887.80 C 778.50 887.40 778.90 887.00 779.30 886.60 C 781.40 884.50 783.50 882.30 785.50 880.20 C 786.00 879.70 786.40 879.20 786.90 878.70 C 788.60 876.80 790.20 874.90 791.70 873.00 C 792.00 872.60 792.40 872.20 792.70 871.80 C 792.90 871.60 793.00 871.40 793.20 871.20 C 793.70 870.50 794.20 869.80 794.70 869.10 C 796.10 867.20 797.60 865.30 798.90 863.40 C 799.60 862.30 800.30 861.30 801.00 860.20 C 802.10 858.50 803.20 856.70 804.20 855.00 C 804.50 854.50 804.80 854.00 805.10 853.60 C 805.50 852.90 805.80 852.20 806.20 851.40 C 807.00 849.90 807.80 848.40 808.50 847.00 C 809.10 845.80 809.70 844.50 810.20 843.20 C 810.90 841.70 811.50 840.20 812.10 838.70 C 812.40 838.00 812.70 837.40 812.90 836.70 C 813.10 836.10 813.30 835.50 813.50 834.90 C 814.00 833.50 814.50 832.00 814.90 830.60 C 815.30 829.30 815.70 828.00 816.00 826.70 C 816.40 825.30 816.70 823.80 817.10 822.40 C 817.30 821.60 817.50 820.80 817.70 820.10 C 817.80 819.60 817.90 819.00 817.90 818.50 C 818.20 817.00 818.40 815.50 818.60 814.10 C 818.80 812.80 819.00 811.50 819.10 810.20 C 819.20 808.70 819.30 807.20 819.40 805.70 C 819.40 804.80 819.60 804.00 819.60 803.10 C 819.60 802.20 819.60 801.40 819.60 800.50 L 820.00 663.50 C 820.10 665.40 820.00 667.20 819.90 668.90 Z" fill="url(#SVGID_1_)" fill-rule="nonzero" group-id="1" node-id="171" stroke="none" target-height="309.40002" target-width="592.89996" target-x="227.2" target-y="662"/><g node-id="222"><path d="M 732.70 541.50 C 848.70 608.50 849.30 717.10 734.00 784.10 C 618.70 851.10 431.20 851.10 315.10 784.10 C 199.00 717.10 198.50 608.50 313.70 541.50 C 429.10 474.50 616.60 474.50 732.70 541.50 Z" fill="url(#SVGID_2_)" fill-rule="nonzero" group-id="1,4" node-id="175" stroke="none" target-height="376.59998" target-width="650.8" target-x="198.5" target-y="474.5"/></g></g><g node-id="220"><g node-id="223"><g node-id="225"><path d="M 683.70 647.10 C 683.70 647.10 683.70 647.10 683.70 647.10 C 683.70 646.90 683.70 646.70 683.70 646.50 C 683.70 646.40 683.70 646.30 683.70 646.20 C 683.70 646.10 683.70 645.90 683.70 645.80 C 683.70 645.30 683.70 644.90 683.70 644.40 C 683.70 644.10 683.70 643.80 683.70 643.50 C 683.70 643.50 683.70 643.40 683.70 643.40 C 683.70 643.40 683.70 643.40 683.70 643.40 C 683.70 643.30 683.70 643.30 683.70 643.20 C 683.70 643.10 683.70 643.10 683.70 643.00 C 683.70 643.00 683.70 643.00 683.70 643.00 L 683.70 643.00 C 683.70 642.80 683.60 642.50 683.60 642.30 C 683.60 642.00 683.60 641.70 683.50 641.40 C 683.50 641.30 683.50 641.20 683.50 641.00 C 683.50 640.90 683.50 640.90 683.50 640.80 C 683.50 640.70 683.50 640.60 683.40 640.40 C 683.40 640.40 683.40 640.30 683.40 640.30 C 683.30 639.90 683.30 639.50 683.20 639.10 C 683.20 639.00 683.20 638.80 683.20 638.70 C 683.20 638.60 683.20 638.50 683.20 638.40 C 683.20 638.30 683.20 638.30 683.20 638.20 C 683.20 638.00 683.10 637.70 683.10 637.50 C 683.10 637.40 683.10 637.40 683.10 637.30 C 683.10 637.10 683.10 637.00 683.00 636.80 C 683.00 636.70 683.00 636.70 683.00 636.60 C 683.00 636.60 683.00 636.60 683.00 636.60 L 683.00 636.60 C 683.00 636.60 683.00 636.50 683.00 636.50 C 683.00 636.40 683.00 636.40 683.00 636.30 C 683.00 636.10 682.90 636.00 682.90 635.80 C 682.90 635.70 682.90 635.60 682.80 635.60 C 682.80 635.50 682.80 635.40 682.70 635.30 C 682.60 635.00 682.60 634.80 682.50 634.50 C 682.40 634.20 682.40 633.90 682.30 633.60 C 682.30 633.60 682.30 633.50 682.30 633.50 C 682.30 633.30 682.20 633.20 682.20 633.00 C 682.10 632.70 682.10 632.50 682.00 632.20 C 681.90 632.00 681.90 631.80 681.80 631.60 C 681.70 631.40 681.70 631.20 681.60 631.00 C 681.60 631.00 681.60 631.00 681.60 630.90 C 681.50 630.70 681.50 630.50 681.50 630.40 C 681.50 630.40 681.50 630.30 681.50 630.30 C 681.50 630.20 681.40 630.20 681.40 630.10 C 681.40 630.10 681.40 630.10 681.40 630.10 C 681.40 630.10 681.40 630.10 681.40 630.10 C 681.40 630.10 681.40 630.00 681.40 630.00 C 681.40 629.90 681.40 629.90 681.30 629.80 C 681.30 629.80 681.30 629.70 681.30 629.70 C 681.30 629.60 681.20 629.40 681.20 629.30 C 681.20 629.20 681.10 629.00 681.10 628.90 C 681.10 628.90 681.10 628.90 681.10 628.80 C 681.10 628.70 681.00 628.60 681.00 628.60 C 681.00 628.50 680.90 628.30 680.90 628.20 C 680.40 626.90 679.90 625.50 679.30 624.20 L 679.30 624.20 C 679.20 624.00 679.10 623.80 679.10 623.70 L 678.80 622.90 C 678.80 622.90 678.80 622.90 678.80 622.80 C 678.10 621.00 677.40 619.10 676.70 617.10 C 676.30 615.90 675.80 614.60 675.50 613.50 C 675.50 613.40 675.40 613.30 675.40 613.20 L 674.20 609.50 C 673.60 607.60 673.00 605.60 672.40 603.60 C 672.40 603.40 672.30 603.30 672.30 603.10 C 672.10 602.40 671.90 601.60 671.70 600.90 L 669.70 593.80 C 669.00 591.10 668.10 587.50 667.40 584.80 C 666.10 579.50 665.20 575.80 664.50 572.40 C 663.80 569.50 663.10 566.20 662.50 563.50 C 662.50 563.30 662.40 563.10 662.40 562.90 L 659.90 550.70 C 659.40 548.10 658.80 544.90 658.30 541.90 C 656.80 533.30 655.50 525.10 654.30 517.20 C 649.80 486.10 645.90 448.10 643.20 401.80 C 643.30 403.70 643.20 405.70 643.00 407.60 C 643.00 407.80 643.00 407.90 642.90 408.10 C 642.90 408.40 642.80 408.70 642.80 409.00 C 642.80 409.20 642.70 409.50 642.70 409.70 C 642.70 409.90 642.60 410.10 642.60 410.20 C 642.40 411.40 642.20 412.50 641.90 413.70 C 641.80 414.10 641.70 414.60 641.50 415.00 C 641.30 415.60 641.10 416.20 640.90 416.80 C 640.50 418.00 640.10 419.20 639.60 420.40 C 639.60 420.40 639.60 420.50 639.50 420.50 C 639.10 421.40 638.70 422.20 638.20 423.00 C 637.60 424.20 637.00 425.50 636.20 426.70 C 636.10 426.80 636.00 427.00 636.00 427.10 C 635.70 427.50 635.40 428.00 635.10 428.40 C 634.20 429.80 633.20 431.10 632.10 432.50 C 631.60 433.10 631.20 433.70 630.70 434.20 C 629.50 435.60 628.20 437.00 626.80 438.40 C 626.50 438.70 626.20 439.00 625.90 439.30 C 625.80 439.40 625.70 439.50 625.50 439.60 C 623.70 441.30 621.80 442.90 619.80 444.50 C 619.50 444.70 619.20 445.00 618.80 445.20 C 616.70 446.80 614.50 448.30 612.10 449.80 C 611.00 450.50 610.00 451.10 608.90 451.80 C 600.40 456.70 590.90 460.70 580.90 463.90 C 580.10 464.20 579.20 464.40 578.40 464.60 C 576.00 465.30 573.70 465.90 571.20 466.50 C 570.00 466.80 568.90 467.00 567.70 467.30 C 565.50 467.80 563.30 468.20 561.10 468.60 C 559.90 468.80 558.70 469.00 557.50 469.20 C 555.20 469.60 552.80 469.90 550.40 470.20 C 549.60 470.30 548.80 470.40 548.00 470.50 C 547.70 470.50 547.30 470.60 547.00 470.60 C 545.80 470.70 544.60 470.80 543.50 470.90 C 540.40 471.20 537.30 471.40 534.20 471.50 C 532.90 471.60 531.50 471.60 530.20 471.60 C 529.80 471.60 529.30 471.60 528.90 471.60 C 526.30 471.60 523.70 471.70 521.10 471.60 C 520.10 471.60 519.10 471.60 518.10 471.50 C 517.00 471.50 515.80 471.40 514.70 471.30 C 512.20 471.20 509.70 471.00 507.20 470.80 C 507.00 470.80 506.90 470.80 506.70 470.80 C 506.40 470.80 506.00 470.70 505.70 470.70 C 504.20 470.60 502.70 470.40 501.20 470.20 C 498.60 469.90 496.00 469.50 493.50 469.10 C 491.70 468.80 490.00 468.50 488.20 468.20 C 486.40 467.90 484.60 467.40 482.90 467.10 C 482.10 466.90 481.20 466.70 480.40 466.50 C 479.10 466.20 477.90 465.90 476.60 465.60 C 476.10 465.50 475.60 465.30 475.10 465.20 C 473.30 464.70 471.50 464.20 469.80 463.60 C 469.20 463.40 468.70 463.30 468.10 463.10 C 467.20 462.80 466.40 462.60 465.50 462.30 C 465.00 462.10 464.50 462.00 464.00 461.80 C 463.80 461.70 463.70 461.70 463.50 461.60 C 463.30 461.50 463.10 461.50 463.00 461.40 C 460.90 460.60 458.90 459.80 456.80 459.00 C 456.50 458.90 456.20 458.80 455.90 458.60 C 455.50 458.40 455.00 458.20 454.50 458.00 C 454.20 457.90 454.00 457.80 453.70 457.70 C 453.60 457.70 453.50 457.60 453.40 457.60 C 453.10 457.50 452.90 457.40 452.60 457.30 C 452.30 457.20 452.00 457.00 451.70 456.90 C 451.70 456.90 451.60 456.90 451.60 456.80 C 448.20 455.20 444.80 453.60 441.70 451.70 C 417.50 437.70 405.90 419.20 406.90 400.80 C 406.90 401.00 406.90 401.20 406.90 401.40 C 403.70 450.40 399.30 490.00 394.30 522.10 C 393.30 528.00 392.10 535.00 390.90 541.50 L 389.40 549.70 C 388.70 553.50 387.60 558.40 386.80 562.20 C 386.80 562.40 386.70 562.50 386.70 562.70 L 384.20 573.80 C 384.20 573.90 384.10 574.10 384.10 574.20 C 383.00 578.60 382.10 582.20 381.30 585.50 L 379.30 592.90 C 378.70 595.20 377.70 598.40 377.10 600.70 L 375.50 605.90 C 375.00 607.40 374.60 608.70 374.20 610.00 C 374.10 610.20 374.10 610.40 374.00 610.60 C 373.70 611.50 373.40 612.40 373.10 613.20 L 372.40 615.20 C 371.40 618.10 370.30 620.80 369.30 623.30 C 368.60 625.00 367.90 626.60 367.40 628.30 C 367.30 628.50 367.30 628.70 367.20 628.90 C 367.10 629.40 366.90 629.80 366.80 630.30 C 366.50 631.40 366.20 632.40 365.90 633.50 C 365.80 633.90 365.70 634.20 365.60 634.60 C 365.50 635.00 365.40 635.50 365.30 635.90 C 365.10 636.80 365.00 637.70 364.80 638.60 C 364.70 639.20 364.60 639.70 364.60 640.30 C 364.60 640.70 364.50 641.00 364.50 641.40 C 364.40 642.20 364.40 643.00 364.40 643.90 C 364.40 644.60 364.30 645.20 364.30 645.90 C 364.30 646.20 364.30 646.50 364.30 646.80 C 364.30 646.90 364.30 646.90 364.30 647.00 C 364.30 647.80 364.40 648.50 364.40 649.20 C 364.40 649.80 364.40 650.40 364.50 651.00 C 364.50 651.40 364.60 651.80 364.60 652.20 C 364.70 652.80 364.80 653.30 364.80 653.90 C 364.90 654.40 364.90 654.90 365.00 655.40 C 365.00 655.60 365.10 655.90 365.10 656.10 C 365.20 656.60 365.30 657.10 365.40 657.60 C 365.50 658.20 365.70 658.90 365.80 659.50 C 365.90 660.10 366.10 660.60 366.20 661.20 C 366.30 661.70 366.50 662.20 366.70 662.70 C 366.80 662.90 366.80 663.10 366.90 663.20 C 367.10 663.70 367.20 664.30 367.40 664.80 C 367.60 665.30 367.70 665.70 367.90 666.20 C 368.10 666.80 368.40 667.50 368.70 668.10 C 369.00 668.80 369.20 669.50 369.50 670.10 C 369.50 670.20 369.60 670.30 369.70 670.40 C 369.80 670.70 370.00 670.90 370.10 671.20 C 370.40 671.90 370.70 672.50 371.10 673.20 C 371.50 673.90 371.80 674.60 372.30 675.30 C 372.50 675.70 372.80 676.10 373.00 676.60 C 373.30 677.10 373.60 677.70 374.00 678.20 C 374.50 679.00 375.00 679.80 375.60 680.60 C 375.90 681.10 376.30 681.60 376.60 682.10 C 376.80 682.40 377.10 682.80 377.40 683.10 C 378.10 684.10 378.90 685.00 379.70 685.90 C 380.10 686.40 380.40 686.90 380.80 687.30 C 380.90 687.50 381.10 687.60 381.20 687.80 C 382.50 689.30 383.90 690.80 385.30 692.30 C 385.40 692.40 385.40 692.40 385.50 692.50 C 385.90 692.90 386.30 693.30 386.70 693.70 C 387.60 694.60 388.60 695.50 389.60 696.40 C 389.60 696.40 389.60 696.40 389.60 696.40 C 390.00 696.80 390.40 697.20 390.80 697.50 C 391.10 697.80 391.40 698.00 391.80 698.30 C 393.40 699.70 395.10 701.00 396.80 702.40 C 397.50 703.00 398.30 703.50 399.10 704.00 C 400.30 704.90 401.50 705.80 402.80 706.60 C 402.80 706.60 402.80 706.60 402.80 706.60 C 405.50 708.40 408.40 710.30 411.40 712.00 C 412.50 712.60 413.60 713.20 414.70 713.80 C 414.70 713.80 414.70 713.80 414.70 713.80 C 415.90 714.40 417.10 715.10 418.30 715.70 C 418.40 715.70 418.50 715.80 418.50 715.80 C 418.50 715.80 418.60 715.80 418.60 715.90 C 418.70 716.00 418.80 716.00 418.90 716.10 C 419.10 716.20 419.20 716.30 419.40 716.30 C 419.50 716.40 419.60 716.40 419.70 716.50 C 419.70 716.50 419.80 716.50 419.80 716.60 C 420.00 716.70 420.20 716.80 420.40 716.90 C 420.70 717.10 421.10 717.20 421.40 717.40 C 421.60 717.50 421.70 717.60 421.90 717.70 C 422.10 717.80 422.30 717.90 422.40 717.90 C 422.70 718.00 422.90 718.20 423.20 718.30 C 423.30 718.40 423.40 718.40 423.50 718.50 C 423.60 718.50 423.60 718.60 423.70 718.60 C 423.80 718.60 423.90 718.70 424.00 718.70 C 424.10 718.80 424.30 718.80 424.40 718.90 C 424.70 719.10 425.00 719.20 425.40 719.30 C 425.50 719.40 425.70 719.40 425.80 719.50 C 425.80 719.50 425.80 719.50 425.80 719.50 C 425.90 719.60 426.00 719.60 426.20 719.70 C 426.40 719.80 426.60 719.90 426.80 720.00 C 427.10 720.20 427.50 720.30 427.80 720.40 C 428.00 720.50 428.20 720.60 428.40 720.70 C 428.50 720.70 428.50 720.80 428.60 720.80 C 429.00 721.00 429.40 721.10 429.80 721.30 C 430.30 721.50 430.70 721.70 431.20 721.90 C 431.60 722.10 432.10 722.30 432.50 722.50 C 432.60 722.60 432.80 722.60 432.90 722.70 C 433.00 722.70 433.10 722.80 433.30 722.80 C 433.50 722.90 433.70 723.00 434.00 723.10 C 434.30 723.20 434.50 723.30 434.80 723.40 C 435.00 723.50 435.10 723.50 435.30 723.60 C 435.60 723.70 435.90 723.80 436.20 723.90 C 436.30 723.90 436.40 724.00 436.50 724.00 C 436.50 724.00 436.50 724.00 436.50 724.00 C 436.60 724.10 436.80 724.10 436.90 724.20 C 436.90 724.20 436.90 724.20 436.90 724.20 C 437.00 724.20 437.10 724.30 437.20 724.30 C 437.30 724.30 437.40 724.40 437.50 724.40 C 437.60 724.40 437.60 724.50 437.70 724.50 C 437.70 724.50 437.80 724.50 437.80 724.60 C 438.00 724.70 438.30 724.80 438.50 724.90 C 439.10 725.10 439.70 725.30 440.30 725.60 C 440.60 725.70 440.90 725.80 441.20 725.90 C 441.40 726.00 441.70 726.10 441.90 726.20 C 442.30 726.40 442.80 726.50 443.20 726.60 C 443.50 726.70 443.90 726.80 444.20 726.90 C 444.30 726.90 444.30 726.90 444.40 727.00 C 444.70 727.10 445.00 727.20 445.30 727.30 C 445.40 727.30 445.60 727.40 445.70 727.40 C 446.00 727.50 446.20 727.60 446.50 727.70 C 446.50 727.70 446.50 727.70 446.50 727.70 C 446.60 727.70 446.70 727.80 446.80 727.80 C 446.90 727.80 447.00 727.90 447.10 727.90 C 447.20 727.90 447.40 728.00 447.50 728.00 C 447.80 728.10 448.00 728.10 448.30 728.20 C 448.30 728.20 448.40 728.20 448.40 728.20 C 448.90 728.40 449.40 728.50 449.90 728.70 C 450.00 728.70 450.10 728.80 450.30 728.80 C 450.50 728.90 450.70 728.90 450.90 729.00 C 451.00 729.00 451.20 729.10 451.30 729.10 C 451.50 729.10 451.60 729.20 451.80 729.20 C 452.00 729.30 452.20 729.30 452.30 729.40 C 452.80 729.50 453.20 729.70 453.70 729.80 C 454.40 730.00 455.00 730.20 455.70 730.30 C 456.00 730.40 456.20 730.50 456.50 730.50 C 456.60 730.50 456.60 730.50 456.70 730.60 C 456.70 730.60 456.70 730.60 456.70 730.60 L 456.70 730.60 C 456.80 730.60 456.90 730.60 457.00 730.70 C 457.20 730.80 457.50 730.80 457.70 730.90 C 458.10 731.00 458.40 731.10 458.80 731.20 C 459.40 731.30 459.90 731.50 460.50 731.60 C 460.90 731.70 461.20 731.80 461.60 731.90 C 461.90 732.00 462.10 732.00 462.40 732.10 C 462.50 732.10 462.60 732.10 462.70 732.20 C 462.90 732.30 463.20 732.30 463.40 732.40 C 463.50 732.40 463.70 732.50 463.80 732.50 C 464.20 732.60 464.70 732.70 465.10 732.80 C 465.40 732.90 465.80 733.00 466.10 733.00 C 466.30 733.00 466.50 733.10 466.70 733.10 C 466.70 733.10 466.70 733.10 466.80 733.10 C 466.80 733.10 466.90 733.10 466.90 733.10 C 466.90 733.10 466.90 733.10 467.00 733.10 L 467.00 733.10 C 467.10 733.10 467.10 733.10 467.20 733.10 C 467.40 733.10 467.60 733.20 467.80 733.20 C 468.10 733.30 468.30 733.30 468.60 733.40 C 468.90 733.50 469.20 733.50 469.50 733.60 C 470.10 733.70 470.60 733.80 471.20 734.00 C 471.80 734.10 472.50 734.20 473.10 734.40 C 473.60 734.50 474.10 734.60 474.60 734.70 C 474.80 734.70 475.00 734.80 475.20 734.80 C 475.60 734.90 476.00 734.90 476.40 735.00 C 476.60 735.00 476.90 735.10 477.10 735.10 C 477.10 735.10 477.20 735.10 477.20 735.10 C 477.20 735.10 477.20 735.10 477.20 735.10 C 477.30 735.10 477.40 735.10 477.40 735.10 C 477.70 735.10 477.90 735.20 478.20 735.20 C 478.40 735.20 478.70 735.30 478.90 735.30 C 479.10 735.30 479.20 735.40 479.40 735.40 C 479.60 735.40 479.80 735.50 480.00 735.50 C 480.10 735.50 480.30 735.50 480.40 735.60 C 480.60 735.60 480.70 735.70 480.90 735.70 C 481.00 735.70 481.20 735.70 481.30 735.80 C 481.70 735.90 482.00 735.90 482.40 736.00 C 482.50 736.00 482.50 736.00 482.60 736.00 C 483.40 736.10 484.20 736.30 485.10 736.40 C 485.50 736.50 485.80 736.50 486.20 736.60 C 486.50 736.60 486.80 736.70 487.10 736.70 C 487.20 736.70 487.20 736.70 487.30 736.70 L 487.30 736.70 C 487.40 736.70 487.60 736.70 487.70 736.80 C 488.00 736.80 488.30 736.90 488.60 736.90 C 488.90 736.90 489.30 737.00 489.60 737.00 C 490.40 737.10 491.20 737.20 491.90 737.30 C 492.50 737.40 493.10 737.50 493.70 737.50 C 493.90 737.50 494.00 737.50 494.20 737.60 C 494.40 737.60 494.60 737.60 494.70 737.70 C 495.10 737.70 495.50 737.80 495.80 737.80 C 496.10 737.80 496.40 737.90 496.60 737.90 C 496.80 737.90 497.10 738.00 497.30 738.00 C 497.30 738.00 497.30 738.00 497.30 738.00 C 498.00 738.10 498.80 738.20 499.50 738.20 C 500.10 738.30 500.60 738.30 501.20 738.30 C 501.70 738.30 502.20 738.40 502.70 738.40 C 502.90 738.40 503.00 738.40 503.20 738.40 C 504.20 738.50 505.20 738.50 506.20 738.60 C 506.60 738.60 507.10 738.70 507.50 738.70 C 507.50 738.70 507.50 738.70 507.60 738.70 C 507.90 738.70 508.20 738.70 508.50 738.80 C 508.80 738.80 509.10 738.80 509.40 738.90 C 509.60 738.90 509.80 738.90 509.90 738.90 C 510.20 738.90 510.50 738.90 510.80 738.90 C 511.10 738.90 511.40 738.90 511.70 738.90 C 511.80 738.90 511.90 738.90 511.90 738.90 C 513.30 739.00 514.80 739.00 516.20 739.00 C 516.70 739.00 517.10 739.10 517.60 739.10 C 517.60 739.10 517.60 739.10 517.60 739.10 C 517.90 739.10 518.30 739.10 518.60 739.10 C 519.10 739.10 519.70 739.10 520.20 739.20 C 520.30 739.20 520.30 739.20 520.40 739.20 C 520.40 739.20 520.50 739.20 520.50 739.20 C 521.50 739.20 522.50 739.20 523.40 739.20 C 524.20 739.20 524.90 739.20 525.70 739.20 C 525.90 739.20 526.20 739.20 526.40 739.20 C 526.70 739.20 527.10 739.20 527.40 739.20 C 527.40 739.20 527.40 739.20 527.40 739.20 C 528.00 739.20 528.60 739.20 529.20 739.20 C 529.40 739.20 529.50 739.20 529.70 739.20 C 530.00 739.20 530.20 739.20 530.50 739.20 C 531.40 739.20 532.20 739.10 533.10 739.10 C 534.50 739.10 536.00 739.00 537.40 739.00 C 537.40 739.00 537.40 739.00 537.40 739.00 C 538.00 739.00 538.60 739.00 539.20 738.90 C 539.40 738.90 539.60 738.90 539.80 738.90 C 539.90 738.90 539.90 738.90 540.00 738.90 C 540.30 738.90 540.60 738.90 540.90 738.80 C 542.00 738.70 543.10 738.60 544.20 738.60 C 545.40 738.50 546.60 738.50 547.80 738.40 C 547.80 738.40 547.90 738.40 547.90 738.40 C 549.00 738.30 550.10 738.20 551.20 738.10 C 552.20 738.00 553.10 737.90 554.10 737.80 C 554.90 737.70 555.70 737.60 556.50 737.50 C 557.40 737.40 558.40 737.30 559.30 737.20 C 559.40 737.20 559.40 737.20 559.40 737.10 C 562.20 736.70 565.10 736.30 567.90 735.90 C 569.10 735.70 570.20 735.50 571.40 735.30 C 572.10 735.20 572.90 735.10 573.60 734.90 C 573.80 734.80 573.90 734.80 574.10 734.70 C 597.30 730.30 619.10 722.90 637.50 712.20 C 638.80 711.50 639.90 710.70 641.10 709.90 C 641.20 709.90 641.40 709.80 641.50 709.80 C 642.10 709.40 642.60 709.00 643.20 708.70 C 644.30 708.00 645.40 707.30 646.50 706.50 C 647.70 705.70 648.90 704.90 650.00 704.00 C 651.00 703.20 652.00 702.50 653.00 701.70 C 654.10 700.80 655.10 700.00 656.20 699.10 C 656.30 699.00 656.50 698.90 656.60 698.80 C 656.60 698.80 656.70 698.80 656.70 698.80 C 656.90 698.60 657.10 698.50 657.30 698.30 C 657.90 697.80 658.40 697.30 658.90 696.80 C 659.50 696.30 660.10 695.70 660.70 695.20 C 661.30 694.60 661.90 694.10 662.40 693.50 C 663.00 692.90 663.60 692.30 664.10 691.70 C 664.10 691.70 664.20 691.60 664.20 691.60 C 664.60 691.20 665.00 690.80 665.30 690.40 C 665.40 690.30 665.60 690.10 665.70 690.00 C 665.70 690.00 665.70 690.00 665.70 690.00 C 666.20 689.40 666.70 688.80 667.20 688.20 C 667.60 687.80 667.90 687.30 668.30 686.90 C 668.60 686.60 668.80 686.30 669.10 686.00 C 669.20 685.90 669.30 685.80 669.40 685.60 C 669.70 685.30 669.90 684.90 670.10 684.60 C 670.70 683.80 671.30 683.10 671.80 682.30 L 671.80 682.30 C 671.80 682.30 671.80 682.30 671.80 682.30 C 671.90 682.20 671.90 682.20 671.90 682.10 C 672.00 682.00 672.10 681.80 672.20 681.70 C 672.40 681.40 672.70 681.00 672.90 680.70 C 673.20 680.30 673.40 679.90 673.70 679.50 C 674.10 678.80 674.60 678.20 675.00 677.50 C 675.20 677.20 675.40 676.90 675.50 676.60 C 675.60 676.30 675.80 676.10 675.90 675.80 C 676.00 675.60 676.10 675.40 676.20 675.30 C 676.20 675.30 676.20 675.30 676.20 675.30 C 676.20 675.20 676.30 675.10 676.30 675.10 C 676.40 674.90 676.50 674.80 676.60 674.60 C 676.90 674.10 677.10 673.60 677.40 673.10 C 677.70 672.50 678.00 672.00 678.20 671.40 C 678.30 671.10 678.50 670.90 678.60 670.60 C 678.70 670.30 678.90 670.00 679.00 669.70 C 679.10 669.50 679.20 669.40 679.20 669.20 C 679.30 669.00 679.30 668.80 679.40 668.60 C 679.40 668.60 679.40 668.60 679.40 668.50 C 679.40 668.50 679.40 668.50 679.40 668.50 C 679.40 668.40 679.40 668.40 679.50 668.30 C 679.60 668.20 679.60 668.00 679.70 667.90 C 679.80 667.50 680.00 667.20 680.10 666.80 C 680.30 666.40 680.40 665.90 680.60 665.40 C 680.70 665.00 680.80 664.70 681.00 664.30 C 681.10 664.00 681.20 663.60 681.30 663.30 C 681.40 663.10 681.40 663.00 681.50 662.80 C 681.50 662.80 681.50 662.80 681.50 662.70 C 681.50 662.70 681.50 662.60 681.50 662.60 C 681.50 662.50 681.60 662.40 681.60 662.20 C 681.60 662.10 681.70 662.00 681.70 661.90 L 681.70 661.90 C 681.70 661.90 681.70 661.90 681.70 661.90 C 681.80 661.70 681.80 661.40 681.90 661.20 C 682.00 660.90 682.00 660.60 682.10 660.30 C 682.10 660.20 682.10 660.20 682.10 660.10 C 682.20 659.60 682.30 659.10 682.40 658.70 C 682.40 658.50 682.50 658.20 682.60 658.00 C 682.60 657.90 682.60 657.90 682.60 657.80 C 682.60 657.70 682.60 657.70 682.60 657.60 C 682.60 657.50 682.60 657.50 682.60 657.40 C 682.60 657.20 682.70 656.90 682.70 656.70 C 682.80 656.30 682.80 656.00 682.90 655.60 C 682.90 655.60 682.90 655.60 682.90 655.60 C 683.00 655.20 683.00 654.90 683.00 654.50 C 683.00 654.20 683.10 653.90 683.10 653.70 C 683.10 653.70 683.10 653.60 683.10 653.60 C 683.10 653.60 683.10 653.50 683.10 653.50 C 683.10 653.40 683.10 653.40 683.10 653.30 C 683.10 653.20 683.10 653.00 683.10 652.90 C 683.10 652.80 683.10 652.70 683.10 652.60 C 683.10 652.50 683.10 652.40 683.10 652.30 C 683.10 652.20 683.10 652.10 683.10 652.00 C 683.10 651.50 683.20 651.10 683.20 650.60 C 683.20 650.30 683.30 650.10 683.30 649.80 C 683.30 649.70 683.30 649.60 683.30 649.40 L 683.30 649.40 C 683.30 649.40 683.30 649.30 683.30 649.30 C 683.30 649.10 683.30 649.00 683.30 648.80 C 683.30 648.60 683.30 648.30 683.30 648.10 C 683.30 648.00 683.30 647.90 683.30 647.90 C 683.30 647.80 683.30 647.80 683.30 647.70 C 683.70 647.40 683.70 647.30 683.70 647.10 Z" fill="url(#SVGID_3_)" fill-rule="nonzero" group-id="2,5,7" node-id="185" stroke="none" target-height="338.40002" target-width="319.40002" target-x="364.3" target-y="400.8"/><g node-id="226"><path d="M 607.70 355.10 C 654.00 381.80 654.20 425.20 608.20 451.90 C 562.30 478.60 487.30 478.60 441.10 451.90 C 394.80 425.20 394.60 381.80 440.60 355.10 C 486.50 328.40 561.50 328.40 607.70 355.10 Z" fill="url(#SVGID_4_)" fill-rule="nonzero" group-id="2,5,7,8" node-id="189" stroke="none" target-height="150.20001" target-width="259.6" target-x="394.6" target-y="328.4"/></g></g></g></g><path d="M 720.60 325.10 C 720.60 433.84 632.44 522.00 523.70 522.00 C 414.96 522.00 326.80 433.84 326.80 325.10 C 326.80 216.36 414.96 128.20 523.70 128.20 C 632.44 128.20 720.60 216.36 720.60 325.10 Z" fill="url(#SVGID_5_)" fill-rule="nonzero" node-id="195" stroke="none" target-height="393.8" target-width="393.8" target-x="326.8" target-y="128.2"/><path d="M 733.20 533.50 C 733.10 537.50 732.60 541.50 731.80 545.50 C 731.00 549.50 729.90 553.40 728.40 557.30 C 726.90 561.30 725.00 565.30 722.80 569.20 C 720.40 573.40 717.60 577.60 714.40 581.70 C 710.60 586.50 706.30 591.10 701.40 595.70 C 693.90 602.60 685.10 609.20 674.90 615.30 L 674.50 753.60 C 684.70 747.50 693.50 740.90 701.00 734.00 C 705.90 729.50 710.20 724.80 714.00 720.00 C 717.20 715.90 720.00 711.70 722.40 707.50 C 724.60 703.60 726.50 699.60 728.00 695.60 C 729.50 691.70 730.60 687.80 731.40 683.80 C 732.20 679.80 732.70 675.80 732.80 671.80 C 732.80 671.20 732.80 670.60 732.80 670.00 L 733.20 531.70 C 733.20 532.30 733.20 532.90 733.20 533.50 Z" fill="url(#SVGID_6_)" fill-opacity="0.31" fill-rule="nonzero" group-id="3,6" node-id="201" stroke="none" target-height="221.89996" target-width="58.700012" target-x="674.5" target-y="531.7"/><path d="M 560.20 650.60 L 559.80 788.90 C 568.80 788.00 577.70 786.80 586.50 785.20 C 600.10 782.70 613.40 779.50 626.10 775.30 L 626.50 637.00 C 613.80 641.10 600.50 644.40 586.90 646.90 C 578.10 648.40 569.20 649.70 560.20 650.60 Z" fill="url(#SVGID_7_)" fill-opacity="0.31" fill-rule="nonzero" group-id="3,6" node-id="203" stroke="none" target-height="151.90002" target-width="66.70001" target-x="559.8" target-y="637"/><path d="M 474.60 648.80 C 467.60 647.80 460.70 646.60 453.90 645.20 L 453.50 783.50 C 460.30 784.90 467.30 786.10 474.20 787.10 C 480.90 788.10 487.70 788.80 494.50 789.40 C 501.30 790.00 508.20 790.30 515.10 790.50 L 515.50 652.20 C 508.60 652.00 501.70 651.70 494.90 651.10 C 488.10 650.50 481.30 649.80 474.60 648.80 Z" fill="url(#SVGID_8_)" fill-opacity="0.31" fill-rule="nonzero" group-id="3,6" node-id="205" stroke="none" target-height="145.29999" target-width="62" target-x="453.5" target-y="645.2"/><path d="M 314.60 530.50 L 314.20 668.80 C 314.10 700.00 334.70 731.30 376.00 755.10 C 385.40 760.60 395.60 765.40 406.20 769.60 L 406.60 631.30 C 396.00 627.10 385.90 622.30 376.40 616.80 C 335.10 593.00 314.50 561.70 314.60 530.50 Z" fill="url(#SVGID_9_)" fill-opacity="0.31" fill-rule="nonzero" group-id="3,6" node-id="207" stroke="none" target-height="239.09998" target-width="92.5" target-x="314.1" target-y="530.5"/><path d="M 689.60 691.50 C 689.60 691.50 732.80 459.80 930.40 431.70 C 930.40 431.70 974.30 430.90 977.70 472.20 C 977.70 472.20 975.90 509.10 916.10 515.80 C 916.00 515.80 757.00 533.50 689.60 691.50 Z" fill="url(#SVGID_10_)" fill-rule="nonzero" node-id="211" stroke="none" target-height="260.6" target-width="288.10004" target-x="689.6" target-y="430.9"/><path d="M 325.70 606.80 C 325.70 606.80 282.50 375.10 84.90 347.00 C 84.90 347.00 41.00 346.20 37.60 387.50 C 37.60 387.50 39.40 424.40 99.20 431.10 C 99.20 431.10 258.30 448.90 325.70 606.80 Z" fill="url(#SVGID_11_)" fill-rule="nonzero" node-id="213" stroke="none" target-height="260.59998" target-width="288.1" target-x="37.6" target-y="346.2"/><path d="M 266.70 68.30 C 284.70 88.00 328.30 149.90 311.10 275.60 C 311.10 275.60 318.40 163.10 234.50 115.90 C 223.20 110.20 217.70 104.40 217.70 104.40 C 209.80 95.30 199.40 77.40 217.20 58.30 C 217.20 58.30 228.20 45.50 252.60 57.40 C 252.60 57.40 260.80 62.10 266.70 68.30 Z" fill="url(#SVGID_12_)" fill-rule="nonzero" node-id="215" stroke="none" target-height="230.1" target-width="128.9" target-x="199.4" target-y="45.5"/><path d="M 794.90 120.40 C 776.90 140.10 733.30 202.00 750.50 327.70 C 750.50 327.70 743.20 215.20 827.10 168.00 C 838.40 162.30 843.90 156.50 843.90 156.50 C 851.80 147.40 862.20 129.50 844.40 110.40 C 844.40 110.40 833.40 97.60 809.00 109.50 C 809.00 109.50 800.80 114.20 794.90 120.40 Z" fill="url(#SVGID_13_)" fill-rule="nonzero" node-id="217" stroke="none" target-height="230.1" target-width="128.90002" target-x="733.3" target-y="97.6"/></svg>