<svg height="1024" node-id="1" sillyvg="true" template-height="1024" template-width="1024" version="1.1" viewBox="0 0 1024 1024" width="1024" xmlns="http://www.w3.org/2000/svg" xmlns:xlink="http://www.w3.org/1999/xlink"><defs node-id="73"><linearGradient gradientUnits="userSpaceOnUse" id="SVGID_1_" node-id="25" spreadMethod="pad" x1="878.8895" x2="878.8895" y1="667.2319" y2="404.5208"><stop offset="0" stop-color="#ffffff" stop-opacity="0"/><stop offset="1" stop-color="#fa7242"/></linearGradient><linearGradient gradientUnits="userSpaceOnUse" id="SVGID_2_" node-id="31" spreadMethod="pad" x1="124.3419" x2="918.088" y1="836.618" y2="836.618"><stop offset="0" stop-color="#f6f6f9"/><stop offset="1" stop-color="#d7d8d5"/></linearGradient><linearGradient gradientUnits="userSpaceOnUse" id="SVGID_3_" node-id="36" spreadMethod="pad" x1="124.6479" x2="918.0884" y1="668.3154" y2="668.3154"><stop offset="0" stop-color="#d7d8d5"/><stop offset="1" stop-color="#f6f6f9"/></linearGradient><linearGradient gradientUnits="userSpaceOnUse" id="SVGID_4_" node-id="42" spreadMethod="pad" x1="216.6085" x2="832.1867" y1="717.6061" y2="717.6061"><stop offset="0" stop-color="#f6f6f9"/><stop offset="1" stop-color="#d7d8d5"/></linearGradient><linearGradient gradientUnits="userSpaceOnUse" id="SVGID_5_" node-id="47" spreadMethod="pad" x1="216.7875" x2="832.1871" y1="597.3945" y2="597.3945"><stop offset="0" stop-color="#d7d8d5"/><stop offset="1" stop-color="#f6f6f9"/></linearGradient><linearGradient gradientUnits="userSpaceOnUse" id="SVGID_6_" node-id="51" spreadMethod="pad" x1="127.4136" x2="127.4136" y1="566.544" y2="303.8329"><stop offset="0" stop-color="#ffffff" stop-opacity="0"/><stop offset="1" stop-color="#fa7242"/></linearGradient><linearGradient gradientUnits="userSpaceOnUse" id="SVGID_7_" node-id="55" spreadMethod="pad" x1="382.8171" x2="382.8171" y1="292.0229" y2="29.3117"><stop offset="0" stop-color="#ffffff" stop-opacity="0"/><stop offset="1" stop-color="#fa7242"/></linearGradient><linearGradient gradientUnits="userSpaceOnUse" id="SVGID_8_" node-id="59" spreadMethod="pad" x1="886.2569" x2="886.2569" y1="345.5217" y2="82.8105"><stop offset="0" stop-color="#ffffff" stop-opacity="0"/><stop offset="1" stop-color="#fa7242"/></linearGradient><linearGradient gradientUnits="userSpaceOnUse" id="SVGID_9_" node-id="64" spreadMethod="pad" x1="326.4166" x2="837.9095" y1="409.4418" y2="409.4418"><stop offset="0" stop-color="#fe7a45"/><stop offset="1" stop-color="#ed5838"/></linearGradient><linearGradient gradientUnits="userSpaceOnUse" id="SVGID_10_" node-id="68" spreadMethod="pad" x1="203.9995" x2="792.657" y1="322.2284" y2="322.2284"><stop offset="0" stop-color="#ed5838"/><stop offset="1" stop-color="#fe7a45"/></linearGradient></defs><path d="M 878.90 667.20 L 878.90 667.20 C 866.60 667.20 856.50 657.10 856.50 644.80 L 856.50 426.80 C 856.50 414.50 866.60 404.40 878.90 404.40 L 878.90 404.40 C 891.20 404.40 901.30 414.50 901.30 426.80 L 901.30 644.80 C 901.30 657.20 891.20 667.20 878.90 667.20 Z" fill="url(#SVGID_1_)" fill-rule="nonzero" node-id="136" stroke="none" target-height="262.80002" target-width="44.799988" target-x="856.5" target-y="404.4"/><g node-id="176"><g node-id="179"><path d="M 917.80 676.40 C 917.70 678.40 917.60 680.40 917.40 682.40 C 917.20 684.10 917.00 685.90 916.70 687.60 C 916.40 689.60 916.10 691.60 915.80 693.50 C 915.50 695.30 915.10 697.00 914.70 698.70 C 914.30 700.60 913.80 702.60 913.30 704.50 C 912.80 706.30 912.30 708.00 911.80 709.70 C 911.20 711.60 910.60 713.50 909.90 715.40 C 909.30 717.10 908.60 718.80 908.00 720.50 C 907.20 722.50 906.40 724.50 905.50 726.50 C 904.80 728.20 904.00 729.90 903.20 731.50 C 902.20 733.50 901.20 735.50 900.10 737.40 C 899.00 739.50 897.80 741.60 896.60 743.70 C 896.30 744.20 896.00 744.70 895.70 745.20 C 893.90 748.20 891.90 751.20 889.80 754.20 C 889.40 754.80 889.00 755.30 888.60 755.90 C 886.50 758.90 884.30 761.80 882.00 764.80 C 881.60 765.30 881.10 765.90 880.70 766.40 C 878.60 768.90 876.50 771.50 874.20 774.00 C 873.60 774.70 873.00 775.40 872.40 776.10 C 869.70 779.00 867.00 781.90 864.10 784.70 C 863.60 785.20 863.00 785.70 862.50 786.20 C 860.30 788.30 858.00 790.40 855.70 792.50 C 853.80 794.20 851.90 795.80 850.00 797.50 C 848.20 799.00 846.40 800.50 844.50 802.10 C 842.50 803.70 840.40 805.40 838.30 807.00 C 836.40 808.50 834.40 810.00 832.40 811.40 C 830.20 813.00 828.00 814.60 825.70 816.10 C 823.60 817.50 821.50 819.00 819.40 820.40 C 817.00 821.90 814.60 823.50 812.20 825.00 C 809.20 826.90 806.20 828.80 803.00 830.60 C 797.10 834.00 790.90 837.30 784.70 840.50 C 782.90 841.40 781.10 842.30 779.30 843.20 C 774.50 845.60 769.60 847.90 764.60 850.10 C 762.90 850.90 761.30 851.60 759.60 852.40 C 753.10 855.20 746.50 857.90 739.80 860.50 C 738.60 861.00 737.40 861.40 736.20 861.80 C 730.50 863.90 724.80 865.90 719.00 867.80 C 716.60 868.60 714.20 869.40 711.80 870.10 C 708.60 871.10 705.40 872.10 702.10 873.00 C 699.40 873.80 696.60 874.60 693.90 875.40 C 690.60 876.30 687.30 877.20 684.00 878.00 C 681.20 878.70 678.50 879.40 675.70 880.10 C 672.30 880.90 669.00 881.70 665.60 882.40 C 662.80 883.00 660.00 883.70 657.20 884.20 C 653.80 884.90 650.30 885.60 646.80 886.20 C 644.10 886.70 641.50 887.20 638.80 887.70 C 631.40 889.00 623.90 890.20 616.40 891.30 C 615.30 891.40 614.20 891.60 613.20 891.70 C 606.60 892.60 600.10 893.40 593.50 894.10 C 591.00 894.40 588.50 894.60 585.90 894.80 C 581.60 895.20 577.40 895.50 573.10 895.90 C 570.40 896.10 567.80 896.30 565.10 896.50 C 560.70 896.80 556.20 897.00 551.70 897.20 C 549.20 897.30 546.70 897.40 544.20 897.50 C 540.30 897.60 536.50 897.70 532.60 897.70 C 529.90 897.70 527.20 897.80 524.50 897.80 C 520.40 897.80 516.20 897.70 512.10 897.70 C 509.70 897.70 507.20 897.70 504.80 897.60 C 501.00 897.50 497.20 897.30 493.40 897.20 C 490.80 897.10 488.10 897.00 485.50 896.90 C 481.40 896.70 477.30 896.40 473.20 896.10 C 470.90 895.90 468.60 895.80 466.30 895.60 C 461.40 895.20 456.50 894.70 451.60 894.20 C 450.10 894.00 448.60 893.90 447.20 893.80 C 440.90 893.10 434.50 892.30 428.20 891.40 C 427.20 891.30 426.30 891.10 425.30 890.90 C 419.90 890.10 414.40 889.30 409.00 888.30 C 406.80 887.90 404.60 887.50 402.30 887.10 C 398.20 886.30 394.10 885.60 390.00 884.80 C 387.90 884.40 385.80 883.90 383.60 883.40 C 379.10 882.40 374.70 881.40 370.30 880.40 C 367.80 879.80 365.40 879.20 362.90 878.50 C 358.90 877.50 354.90 876.40 350.90 875.30 C 348.60 874.70 346.40 874.00 344.10 873.40 C 337.80 871.60 331.50 869.60 325.40 867.60 C 324.30 867.20 323.20 866.90 322.10 866.50 C 315.00 864.10 308.00 861.50 301.10 858.80 C 298.30 857.70 295.50 856.60 292.70 855.40 C 290.50 854.50 288.30 853.60 286.10 852.70 C 283.00 851.40 279.90 850.00 276.90 848.60 C 274.90 847.70 272.90 846.80 270.90 845.90 C 267.60 844.30 264.30 842.70 261.00 841.00 C 259.40 840.20 257.70 839.40 256.10 838.50 C 251.30 836.00 246.50 833.40 241.80 830.70 C 163.60 785.50 124.50 726.30 124.70 667.10 L 124.40 775.10 C 124.20 834.30 163.30 893.60 241.50 938.70 C 246.20 941.40 250.90 944.00 255.80 946.50 C 257.40 947.30 259.10 948.10 260.70 949.00 C 264.00 950.70 267.30 952.30 270.60 953.90 C 272.60 954.80 274.60 955.70 276.60 956.60 C 279.70 958.00 282.70 959.40 285.90 960.80 C 288.10 961.70 290.30 962.60 292.40 963.50 C 294.50 964.40 296.60 965.30 298.80 966.10 C 299.50 966.40 300.20 966.60 300.80 966.80 C 307.70 969.50 314.70 972.10 321.80 974.50 C 322.90 974.90 324.00 975.20 325.10 975.60 C 331.30 977.60 337.50 979.60 343.80 981.40 C 344.90 981.70 345.90 982.10 346.90 982.40 C 348.10 982.70 349.30 983.00 350.50 983.40 C 354.50 984.50 358.50 985.60 362.50 986.60 C 364.90 987.20 367.40 987.90 369.80 988.40 C 374.20 989.50 378.70 990.50 383.20 991.40 C 384.90 991.80 386.50 992.20 388.20 992.50 C 388.60 992.60 389.10 992.70 389.50 992.80 C 393.60 993.60 397.70 994.40 401.80 995.10 C 404.00 995.50 406.30 996.00 408.50 996.40 C 413.80 997.30 419.20 998.10 424.60 998.90 C 425.60 999.00 426.60 999.20 427.60 999.40 C 427.70 999.40 427.70 999.40 427.80 999.40 C 434.10 1000.30 440.40 1001.10 446.70 1001.80 C 448.20 1002.00 449.70 1002.10 451.20 1002.20 C 456.00 1002.70 460.90 1003.20 465.80 1003.60 C 465.90 1003.60 466.00 1003.60 466.20 1003.60 C 468.40 1003.80 470.60 1003.90 472.90 1004.10 C 477.00 1004.40 481.00 1004.70 485.10 1004.90 C 487.70 1005.00 490.40 1005.10 493.00 1005.20 C 496.80 1005.40 500.60 1005.50 504.40 1005.60 C 504.70 1005.60 505.00 1005.60 505.30 1005.60 C 507.40 1005.70 509.50 1005.60 511.70 1005.70 C 515.80 1005.80 520.00 1005.80 524.10 1005.80 C 526.80 1005.80 529.50 1005.70 532.20 1005.70 C 536.10 1005.60 539.90 1005.60 543.80 1005.50 C 544.50 1005.50 545.20 1005.50 546.00 1005.50 C 547.80 1005.40 549.60 1005.30 551.40 1005.20 C 555.80 1005.00 560.30 1004.80 564.70 1004.50 C 567.40 1004.30 570.10 1004.10 572.80 1003.90 C 577.10 1003.60 581.30 1003.20 585.50 1002.80 C 587.00 1002.70 588.50 1002.60 590.00 1002.40 C 591.00 1002.30 592.10 1002.10 593.10 1002.00 C 599.70 1001.30 606.30 1000.50 612.80 999.60 C 613.90 999.50 615.00 999.30 616.00 999.20 C 623.50 998.10 631.00 996.90 638.40 995.60 C 639.10 995.50 639.80 995.40 640.50 995.30 C 642.50 994.90 644.40 994.50 646.40 994.10 C 649.90 993.40 653.30 992.80 656.80 992.10 C 659.60 991.50 662.40 990.90 665.20 990.30 C 668.60 989.50 672.00 988.80 675.30 988.00 C 678.10 987.30 680.90 986.60 683.60 985.90 C 686.90 985.00 690.20 984.20 693.50 983.30 C 696.30 982.50 699.00 981.70 701.70 980.90 C 704.90 979.90 708.10 979.00 711.30 978.00 C 712.70 977.60 714.10 977.20 715.50 976.70 C 716.50 976.40 717.50 976.00 718.50 975.70 C 724.30 973.80 730.00 971.80 735.70 969.70 C 736.90 969.30 738.10 968.80 739.30 968.40 C 746.00 965.80 752.60 963.10 759.10 960.30 C 760.80 959.60 762.40 958.80 764.10 958.00 C 769.10 955.80 774.00 953.50 778.80 951.10 C 780.60 950.20 782.40 949.30 784.20 948.40 C 790.40 945.20 796.50 941.90 802.50 938.50 C 804.10 937.60 805.70 936.60 807.30 935.60 C 808.80 934.70 810.20 933.80 811.60 932.80 C 814.00 931.30 816.50 929.80 818.80 928.20 C 821.00 926.80 823.00 925.40 825.10 923.90 C 827.40 922.30 829.60 920.80 831.80 919.20 C 833.80 917.70 835.80 916.30 837.70 914.80 C 839.80 913.20 841.90 911.60 843.90 909.90 C 845.80 908.40 847.60 906.90 849.40 905.30 C 851.30 903.60 853.30 902.00 855.10 900.30 C 855.90 899.60 856.70 898.90 857.50 898.20 C 859.00 896.80 860.50 895.40 862.00 893.90 C 862.50 893.40 863.10 892.90 863.60 892.40 C 866.50 889.60 869.20 886.70 871.90 883.80 C 872.50 883.10 873.10 882.40 873.70 881.70 C 875.90 879.20 878.10 876.70 880.20 874.10 C 880.60 873.60 881.10 873.00 881.50 872.50 C 881.70 872.20 881.90 872.00 882.10 871.70 C 884.20 869.00 886.20 866.30 888.10 863.60 C 888.50 863.00 888.90 862.50 889.30 861.90 C 891.40 858.90 893.30 855.90 895.20 852.90 C 895.50 852.40 895.80 851.90 896.10 851.40 C 896.80 850.30 897.50 849.10 898.10 848.00 C 898.60 847.00 899.10 846.10 899.60 845.10 C 900.70 843.10 901.70 841.10 902.70 839.20 C 903.50 837.50 904.30 835.90 905.00 834.20 C 905.90 832.20 906.70 830.20 907.50 828.20 C 907.90 827.30 908.30 826.40 908.60 825.50 C 908.90 824.70 909.10 823.90 909.40 823.10 C 910.10 821.20 910.70 819.30 911.30 817.40 C 911.80 815.70 912.40 813.90 912.80 812.20 C 913.30 810.30 913.80 808.30 914.20 806.40 C 914.40 805.40 914.80 804.30 915.00 803.30 C 915.10 802.60 915.20 801.90 915.30 801.20 C 915.70 799.20 916.00 797.20 916.20 795.30 C 916.40 793.60 916.70 791.80 916.90 790.10 C 917.10 788.10 917.20 786.10 917.30 784.10 C 917.40 782.90 917.50 781.80 917.60 780.60 C 917.60 779.40 917.70 778.30 917.70 777.10 L 918.00 669.10 C 918.10 671.80 917.90 674.10 917.80 676.40 Z" fill="url(#SVGID_2_)" fill-rule="nonzero" group-id="1,4" node-id="142" stroke="none" target-height="338.7" target-width="793.89996" target-x="124.2" target-y="667.1"/><g node-id="181"><path d="M 801.00 505.80 C 956.40 595.50 957.30 741.00 802.90 830.80 C 648.50 920.50 397.30 920.50 241.80 830.80 C 86.40 741.10 85.50 595.60 240.00 505.80 C 394.30 416.10 645.50 416.10 801.00 505.80 Z" fill="url(#SVGID_3_)" fill-rule="nonzero" group-id="1,4,6" node-id="146" stroke="none" target-height="504.4" target-width="871.8" target-x="85.5" target-y="416.1"/></g></g></g><g node-id="177"><g node-id="180"><path d="M 831.90 603.70 C 831.80 605.20 831.70 606.80 831.60 608.30 C 831.50 609.60 831.30 611.00 831.10 612.30 C 830.90 613.80 830.70 615.40 830.40 616.90 C 830.10 618.30 829.90 619.60 829.60 621.00 C 829.30 622.50 828.90 624.00 828.50 625.50 C 828.10 626.90 827.70 628.20 827.30 629.60 C 826.80 631.10 826.40 632.60 825.80 634.00 C 825.30 635.30 824.80 636.70 824.30 638.00 C 823.70 639.60 823.00 641.10 822.30 642.70 C 821.70 644.00 821.10 645.30 820.50 646.60 C 819.70 648.10 818.90 649.70 818.10 651.20 C 817.40 652.40 816.70 653.70 816.00 654.90 C 814.90 656.70 813.80 658.50 812.60 660.30 C 811.90 661.40 811.20 662.50 810.40 663.60 C 809.00 665.60 807.60 667.60 806.10 669.50 C 805.40 670.40 804.70 671.40 804.00 672.30 C 803.70 672.70 803.30 673.10 803.00 673.60 C 801.40 675.60 799.70 677.50 798.00 679.50 C 797.50 680.00 797.10 680.60 796.60 681.10 C 794.50 683.30 792.40 685.60 790.20 687.80 C 789.80 688.20 789.40 688.60 789.00 689.00 C 787.30 690.60 785.50 692.30 783.70 693.90 C 782.30 695.20 780.80 696.50 779.30 697.80 C 777.90 699.00 776.50 700.20 775.10 701.30 C 773.50 702.60 771.90 703.80 770.30 705.10 C 768.80 706.20 767.30 707.40 765.70 708.50 C 764.00 709.70 762.30 710.90 760.50 712.20 C 758.90 713.30 757.30 714.40 755.60 715.50 C 753.80 716.70 751.90 717.90 750.00 719.00 C 747.70 720.50 745.30 721.90 742.90 723.30 C 738.30 726.00 733.60 728.50 728.70 731.00 C 727.30 731.70 725.90 732.40 724.50 733.10 C 720.80 735.00 716.90 736.70 713.10 738.50 C 711.80 739.10 710.50 739.70 709.20 740.30 C 704.20 742.50 699.10 744.60 693.80 746.60 C 692.90 746.90 692.00 747.30 691.00 747.60 C 686.60 749.20 682.10 750.80 677.60 752.30 C 675.80 752.90 673.90 753.50 672.00 754.10 C 669.50 754.90 667.00 755.60 664.50 756.40 C 662.40 757.00 660.30 757.60 658.10 758.20 C 655.60 758.90 653.00 759.60 650.40 760.20 C 648.30 760.80 646.10 761.30 644.00 761.80 C 641.40 762.40 638.80 763.00 636.10 763.60 C 633.90 764.10 631.80 764.60 629.60 765.00 C 626.90 765.60 624.20 766.10 621.60 766.60 C 619.50 767.00 617.50 767.40 615.40 767.80 C 609.60 768.80 603.80 769.80 598.00 770.60 C 597.20 770.70 596.30 770.80 595.50 770.90 C 590.40 771.60 585.30 772.20 580.20 772.70 C 578.20 772.90 576.30 773.10 574.30 773.30 C 571.00 773.60 567.70 773.90 564.40 774.10 C 562.30 774.30 560.20 774.40 558.20 774.50 C 554.80 774.70 551.30 774.90 547.90 775.00 C 546.00 775.10 544.00 775.20 542.10 775.20 C 539.10 775.30 536.10 775.30 533.10 775.40 C 531.00 775.40 528.90 775.50 526.80 775.50 C 523.60 775.50 520.40 775.50 517.20 775.40 C 515.30 775.40 513.40 775.40 511.50 775.30 C 508.60 775.20 505.60 775.10 502.70 775.00 C 500.60 774.90 498.60 774.90 496.50 774.70 C 493.30 774.50 490.20 774.30 487.10 774.10 C 485.30 774.00 483.50 773.90 481.60 773.70 C 477.80 773.40 474.00 773.00 470.20 772.60 C 469.00 772.50 467.90 772.40 466.70 772.30 C 461.80 771.70 456.90 771.10 452.00 770.40 C 451.20 770.30 450.50 770.20 449.70 770.00 C 445.50 769.40 441.30 768.70 437.10 768.00 C 435.40 767.70 433.70 767.40 432.00 767.00 C 428.80 766.40 425.60 765.80 422.40 765.20 C 420.80 764.90 419.10 764.50 417.50 764.10 C 414.00 763.40 410.60 762.60 407.10 761.80 C 405.20 761.30 403.30 760.80 401.40 760.40 C 398.30 759.60 395.20 758.80 392.10 757.90 C 390.30 757.40 388.60 756.90 386.80 756.40 C 381.90 755.00 377.10 753.50 372.30 751.90 C 371.40 751.60 370.60 751.40 369.70 751.10 C 364.20 749.20 358.80 747.20 353.40 745.20 C 351.20 744.40 349.10 743.50 346.90 742.60 C 345.20 741.90 343.50 741.20 341.80 740.50 C 339.40 739.50 337.00 738.40 334.60 737.30 C 333.00 736.60 331.50 735.90 329.90 735.20 C 327.30 734.00 324.80 732.70 322.20 731.40 C 320.90 730.80 319.60 730.10 318.40 729.50 C 314.60 727.50 310.90 725.50 307.30 723.40 C 246.60 688.40 216.30 642.40 216.50 596.50 L 216.30 659.60 C 216.20 705.50 246.50 751.50 307.10 786.50 C 310.70 788.60 314.40 790.60 318.20 792.60 C 319.40 793.20 320.70 793.90 322.00 794.50 C 324.50 795.80 327.10 797.10 329.70 798.30 C 331.20 799.00 332.80 799.70 334.30 800.40 C 336.70 801.50 339.10 802.60 341.50 803.60 C 343.20 804.30 344.90 805.00 346.60 805.70 C 348.20 806.40 349.90 807.10 351.50 807.70 C 352.00 807.90 352.60 808.10 353.10 808.30 C 358.40 810.40 363.90 812.40 369.40 814.20 C 370.30 814.50 371.10 814.80 372.00 815.00 C 376.80 816.60 381.60 818.10 386.50 819.50 C 387.30 819.70 388.10 820.00 388.90 820.30 C 389.80 820.60 390.80 820.80 391.70 821.00 C 394.80 821.90 397.90 822.70 401.00 823.50 C 402.90 824.00 404.80 824.50 406.70 824.90 C 410.10 825.70 413.60 826.50 417.10 827.20 C 418.40 827.50 419.70 827.80 421.00 828.10 C 421.30 828.20 421.70 828.20 422.10 828.30 C 425.20 828.90 428.40 829.50 431.60 830.10 C 433.30 830.40 435.10 830.80 436.80 831.10 C 441.00 831.80 445.20 832.50 449.40 833.10 C 450.10 833.20 450.80 833.30 451.50 833.40 C 451.50 833.40 451.60 833.40 451.60 833.40 C 456.50 834.10 461.40 834.70 466.30 835.30 C 467.60 835.40 468.90 835.50 470.20 835.70 C 473.80 836.10 477.50 836.50 481.20 836.80 C 481.30 836.80 481.40 836.80 481.50 836.80 C 483.30 836.90 485.00 837.00 486.80 837.20 C 489.90 837.40 493.00 837.70 496.10 837.80 C 498.20 837.90 500.20 838.00 502.30 838.10 C 505.20 838.20 508.20 838.40 511.10 838.40 C 511.30 838.40 511.60 838.40 511.80 838.40 C 513.50 838.40 515.10 838.40 516.80 838.40 C 520.00 838.40 523.20 838.50 526.40 838.50 C 528.50 838.50 530.60 838.40 532.70 838.40 C 535.70 838.40 538.70 838.30 541.70 838.20 C 542.30 838.20 542.80 838.20 543.40 838.20 C 544.80 838.20 546.20 838.00 547.60 838.00 C 551.10 837.90 554.50 837.70 557.90 837.50 C 560.00 837.40 562.10 837.20 564.10 837.10 C 567.40 836.90 570.70 836.60 574.00 836.30 C 575.20 836.20 576.30 836.10 577.50 836.00 C 578.30 835.90 579.10 835.80 579.90 835.70 C 585.00 835.20 590.10 834.60 595.20 833.90 C 596.00 833.80 596.90 833.70 597.70 833.60 C 603.50 832.80 609.30 831.80 615.10 830.80 C 615.60 830.70 616.20 830.60 616.70 830.50 C 618.20 830.20 619.80 829.90 621.30 829.60 C 624.00 829.10 626.70 828.60 629.30 828.00 C 631.50 827.50 633.70 827.10 635.80 826.60 C 638.40 826.00 641.00 825.40 643.60 824.80 C 645.80 824.30 647.90 823.70 650.10 823.20 C 652.70 822.50 655.20 821.90 657.70 821.20 C 659.80 820.60 662.00 820.00 664.10 819.40 C 666.60 818.70 669.10 817.90 671.60 817.10 C 672.70 816.80 673.80 816.50 674.90 816.10 C 675.70 815.80 676.40 815.50 677.20 815.30 C 681.70 813.80 686.10 812.30 690.50 810.60 C 691.40 810.30 692.40 809.90 693.30 809.60 C 698.50 807.60 703.60 805.50 708.60 803.30 C 709.90 802.70 711.20 802.10 712.50 801.50 C 716.40 799.80 720.20 798.00 723.90 796.10 C 725.30 795.40 726.70 794.70 728.10 794.00 C 732.90 791.50 737.70 789.00 742.30 786.30 C 743.60 785.60 744.80 784.80 746.10 784.10 C 747.30 783.40 748.30 782.70 749.50 782.00 C 751.40 780.80 753.30 779.70 755.10 778.50 C 756.80 777.40 758.40 776.30 760.00 775.20 C 761.80 774.00 763.50 772.80 765.20 771.50 C 766.80 770.40 768.30 769.20 769.80 768.10 C 771.40 766.80 773.10 765.60 774.60 764.30 C 776.00 763.10 777.40 762.00 778.80 760.80 C 780.30 759.50 781.80 758.20 783.20 756.90 C 783.80 756.40 784.40 755.80 785.00 755.30 C 786.20 754.20 787.30 753.10 788.40 752.00 C 788.80 751.60 789.20 751.20 789.60 750.80 C 791.80 748.60 794.00 746.40 796.00 744.10 C 796.50 743.60 797.00 743.00 797.40 742.50 C 799.10 740.60 800.80 738.60 802.40 736.60 C 802.70 736.20 803.10 735.70 803.50 735.30 C 803.70 735.10 803.80 734.90 804.00 734.70 C 804.60 734.00 805.00 733.20 805.60 732.50 C 807.10 730.50 808.60 728.60 809.90 726.60 C 810.70 725.50 811.30 724.40 812.10 723.30 C 813.30 721.50 814.40 719.70 815.50 717.90 C 815.80 717.40 816.10 716.90 816.40 716.40 C 816.80 715.70 817.20 714.90 817.60 714.20 C 818.40 712.70 819.20 711.10 820.00 709.60 C 820.60 708.30 821.20 707.00 821.80 705.70 C 822.50 704.10 823.10 702.60 823.80 701.00 C 824.10 700.30 824.40 699.60 824.70 698.90 C 824.90 698.30 825.10 697.60 825.30 697.00 C 825.80 695.50 826.30 694.00 826.80 692.50 C 827.20 691.10 827.60 689.80 828.00 688.40 C 828.40 686.90 828.80 685.40 829.10 683.90 C 829.30 683.10 829.50 682.30 829.70 681.50 C 829.80 681.00 829.90 680.40 830.00 679.90 C 830.30 678.40 830.50 676.80 830.70 675.30 C 830.90 674.00 831.10 672.60 831.20 671.30 C 831.40 669.80 831.40 668.20 831.50 666.70 C 831.50 665.80 831.70 664.90 831.70 664.00 C 831.70 663.10 831.70 662.20 831.70 661.30 L 831.90 598.20 C 832.20 600.10 832.00 601.90 831.90 603.70 Z" fill="url(#SVGID_4_)" fill-rule="nonzero" group-id="2,5" node-id="155" stroke="none" target-height="242" target-width="616" target-x="216.2" target-y="596.5"/><g node-id="182"><path d="M 741.30 471.40 C 861.90 541.00 862.50 653.80 742.80 723.40 C 623.00 793.00 428.20 793.00 307.60 723.40 C 187.10 653.80 186.40 541.00 306.20 471.30 C 426.00 401.80 620.80 401.80 741.30 471.40 Z" fill="url(#SVGID_5_)" fill-rule="nonzero" group-id="2,5,7" node-id="159" stroke="none" target-height="391.2" target-width="676.1" target-x="186.4" target-y="401.8"/></g></g></g><path d="M 127.40 566.50 L 127.40 566.50 C 115.10 566.50 105.00 556.40 105.00 544.10 L 105.00 326.10 C 105.00 313.80 115.10 303.70 127.40 303.70 L 127.40 303.70 C 139.70 303.70 149.80 313.80 149.80 326.10 L 149.80 544.10 C 149.80 556.50 139.70 566.50 127.40 566.50 Z" fill="url(#SVGID_6_)" fill-rule="nonzero" node-id="164" stroke="none" target-height="262.8" target-width="44.800003" target-x="105" target-y="303.7"/><path d="M 382.80 292.00 L 382.80 292.00 C 370.50 292.00 360.40 281.90 360.40 269.60 L 360.40 51.60 C 360.40 39.30 370.50 29.20 382.80 29.20 L 382.80 29.20 C 395.10 29.20 405.20 39.30 405.20 51.60 L 405.20 269.60 C 405.20 282.00 395.10 292.00 382.80 292.00 Z" fill="url(#SVGID_7_)" fill-rule="nonzero" node-id="166" stroke="none" target-height="262.8" target-width="44.80002" target-x="360.4" target-y="29.2"/><path d="M 886.30 345.50 L 886.30 345.50 C 874.00 345.50 863.90 335.40 863.90 323.10 L 863.90 105.10 C 863.90 92.80 874.00 82.70 886.30 82.70 L 886.30 82.70 C 898.60 82.70 908.70 92.80 908.70 105.10 L 908.70 323.10 C 908.60 335.50 898.60 345.50 886.30 345.50 Z" fill="url(#SVGID_8_)" fill-rule="nonzero" node-id="168" stroke="none" target-height="262.8" target-width="44.799988" target-x="863.9" target-y="82.7"/><path d="M 794.20 118.90 C 793.70 118.60 793.10 118.30 792.60 118.00 C 762.60 101.50 723.60 107.00 684.50 129.50 C 647.70 150.70 610.90 187.10 581.70 234.40 C 552.30 221.00 515.40 227.10 478.60 248.40 C 439.50 270.90 400.60 310.50 370.80 361.50 C 311.80 462.80 311.50 572.80 370.10 607.00 C 370.60 607.30 371.00 607.50 371.50 607.80 L 548.80 707.00 C 558.20 712.60 570.60 710.90 583.10 703.70 C 595.20 696.70 607.30 684.40 617.30 667.50 L 793.40 364.50 C 852.40 263.30 852.80 153.30 794.20 118.90 Z" fill="url(#SVGID_9_)" fill-rule="nonzero" group-id="3" node-id="172" stroke="none" target-height="611.1" target-width="541.3" target-x="311.5" target-y="101.5"/><path d="M 594.40 215.40 C 597.30 211.30 600.20 207.40 603.20 203.50 C 603.60 202.90 604.10 202.30 604.50 201.80 C 605.50 200.50 606.50 199.30 607.50 198.10 C 608.60 196.80 609.60 195.50 610.70 194.20 C 611.70 193.00 612.70 191.80 613.70 190.60 C 614.70 189.40 615.80 188.10 616.80 186.90 C 619.30 184.10 621.80 181.30 624.30 178.60 C 624.80 178.10 625.30 177.60 625.80 177.00 C 627.80 174.80 629.90 172.70 632.00 170.70 C 633.10 169.70 634.10 168.60 635.20 167.60 C 636.20 166.60 637.20 165.70 638.20 164.80 C 639.40 163.70 640.60 162.60 641.70 161.50 C 642.70 160.60 643.70 159.70 644.70 158.80 C 645.90 157.70 647.10 156.70 648.30 155.70 C 649.30 154.90 650.30 154.00 651.30 153.20 C 652.50 152.20 653.80 151.20 655.00 150.20 C 656.00 149.40 656.90 148.60 657.90 147.90 C 659.20 146.90 660.50 146.00 661.70 145.00 C 662.60 144.30 663.60 143.60 664.50 142.90 C 665.80 141.90 667.20 141.00 668.50 140.10 C 669.40 139.50 670.30 138.80 671.20 138.20 C 672.70 137.20 674.20 136.20 675.70 135.30 C 676.50 134.80 677.20 134.30 678.00 133.80 C 680.20 132.40 682.50 131.00 684.70 129.70 C 687.90 127.80 691.20 126.10 694.40 124.50 C 695.20 124.10 696.00 123.70 696.90 123.30 C 700.00 121.80 703.10 120.40 706.20 119.10 C 706.30 119.00 706.40 119.00 706.60 118.90 C 709.40 117.80 712.10 116.70 714.90 115.80 C 715.70 115.50 716.60 115.30 717.40 115.00 C 719.30 114.40 721.30 113.80 723.20 113.20 C 724.30 112.90 725.40 112.60 726.50 112.30 C 727.60 112.00 728.70 111.80 729.80 111.50 C 731.00 111.20 732.20 111.00 733.50 110.70 C 734.60 110.50 735.70 110.30 736.80 110.10 C 738.10 109.90 739.50 109.70 740.80 109.50 C 741.60 109.40 742.30 109.30 743.10 109.20 C 744.70 109.00 746.30 108.90 747.90 108.80 C 748.40 108.80 748.90 108.70 749.40 108.70 C 751.40 108.60 753.40 108.60 755.40 108.60 C 755.90 108.60 756.40 108.60 757.00 108.70 C 758.30 108.70 759.50 108.80 760.80 108.90 C 763.60 109.10 766.30 109.40 769.00 109.90 C 769.10 109.90 769.20 110.00 769.40 110.00 C 771.90 110.40 774.30 111.00 776.70 111.70 C 777.40 111.90 778.20 112.10 778.90 112.40 C 780.80 113.00 782.60 113.60 784.40 114.30 C 785.10 114.60 785.70 114.80 786.40 115.10 C 788.60 116.10 790.90 117.10 793.00 118.30 L 670.20 46.90 C 668.00 45.70 665.80 44.70 663.60 43.70 C 663.40 43.60 663.20 43.50 663.00 43.40 C 662.60 43.20 662.10 43.10 661.70 42.90 C 659.90 42.20 658.10 41.50 656.20 41.00 C 655.80 40.90 655.40 40.70 654.90 40.60 C 654.60 40.50 654.30 40.50 654.00 40.40 C 651.60 39.70 649.20 39.20 646.70 38.70 C 646.60 38.70 646.50 38.60 646.40 38.60 C 646.40 38.60 646.40 38.60 646.30 38.60 C 643.60 38.10 640.90 37.80 638.10 37.60 C 637.80 37.60 637.50 37.50 637.10 37.50 C 636.20 37.40 635.20 37.40 634.30 37.40 C 633.80 37.40 633.30 37.40 632.70 37.30 C 630.80 37.30 628.90 37.30 627.00 37.40 C 626.90 37.40 626.80 37.40 626.70 37.40 C 626.20 37.40 625.70 37.50 625.20 37.50 C 623.60 37.60 622.00 37.70 620.40 37.90 C 619.60 38.00 618.90 38.10 618.10 38.20 C 617.30 38.30 616.40 38.40 615.60 38.50 C 615.10 38.60 614.60 38.70 614.10 38.80 C 613.00 39.00 611.90 39.20 610.80 39.40 C 609.60 39.60 608.40 39.90 607.10 40.20 C 606.00 40.40 604.90 40.70 603.80 41.00 C 603.20 41.20 602.50 41.30 601.90 41.50 C 601.40 41.60 601.00 41.80 600.50 41.90 C 598.60 42.40 596.60 43.00 594.70 43.70 C 593.90 44.00 593.00 44.20 592.20 44.50 C 589.40 45.50 586.70 46.50 583.90 47.60 C 583.90 47.60 583.90 47.60 583.80 47.60 C 583.70 47.60 583.60 47.70 583.50 47.70 C 580.40 49.00 577.30 50.40 574.20 51.90 C 573.40 52.30 572.60 52.70 571.70 53.10 C 568.50 54.70 565.20 56.40 562.00 58.30 C 559.80 59.60 557.50 61.00 555.30 62.40 C 554.50 62.90 553.80 63.40 553.00 63.90 C 551.50 64.90 550.00 65.80 548.50 66.80 C 547.60 67.40 546.70 68.10 545.80 68.70 C 544.50 69.60 543.10 70.60 541.80 71.50 C 540.80 72.20 539.90 72.90 539.00 73.60 C 537.70 74.60 536.40 75.50 535.20 76.50 C 534.20 77.30 533.30 78.10 532.30 78.80 C 531.10 79.80 529.80 80.80 528.60 81.80 C 527.60 82.60 526.60 83.50 525.60 84.30 C 524.40 85.30 523.20 86.40 522.00 87.40 C 521.00 88.30 520.00 89.20 519.00 90.10 C 517.80 91.20 516.60 92.30 515.50 93.40 C 514.50 94.30 513.50 95.30 512.50 96.30 C 511.80 97.00 511.10 97.60 510.40 98.30 C 510.10 98.60 509.70 99.00 509.40 99.40 C 507.30 101.50 505.30 103.60 503.20 105.70 C 502.70 106.20 502.20 106.70 501.70 107.30 C 499.20 110.00 496.70 112.80 494.20 115.60 C 494.00 115.80 493.90 116.00 493.70 116.20 C 492.80 117.20 492.00 118.30 491.10 119.30 C 490.10 120.50 489.10 121.70 488.10 122.90 C 487.00 124.20 486.00 125.50 485.00 126.80 C 484.00 128.00 483.00 129.30 482.00 130.60 C 481.80 130.80 481.60 131.00 481.50 131.30 C 481.20 131.60 481.00 132.00 480.70 132.40 C 477.70 136.30 474.80 140.20 472.00 144.30 C 471.80 144.60 471.60 144.90 471.30 145.20 C 471.20 145.30 471.10 145.50 471.00 145.60 C 468.30 149.40 465.70 153.30 463.20 157.30 C 462.90 157.70 462.60 158.10 462.30 158.60 C 461.30 160.20 460.30 161.80 459.20 163.50 C 458.50 163.20 457.70 162.80 457.00 162.50 C 456.60 162.30 456.20 162.30 455.90 162.10 C 453.90 161.30 451.90 160.60 449.90 160.00 C 449.60 159.90 449.20 159.70 448.90 159.60 C 448.80 159.60 448.60 159.50 448.50 159.50 C 446.00 158.80 443.50 158.20 440.90 157.80 C 440.70 157.80 440.50 157.70 440.30 157.70 C 439.90 157.60 439.50 157.60 439.10 157.60 C 436.80 157.20 434.50 157.00 432.20 156.80 C 431.80 156.80 431.50 156.70 431.10 156.70 C 430.80 156.70 430.60 156.70 430.30 156.70 C 429.70 156.70 429.10 156.70 428.50 156.60 C 427.20 156.60 425.80 156.50 424.50 156.50 C 423.80 156.50 423.20 156.50 422.50 156.50 C 422.00 156.50 421.50 156.50 421.00 156.50 C 420.20 156.50 419.40 156.60 418.60 156.70 C 417.80 156.80 417.00 156.80 416.20 156.90 C 414.90 157.00 413.50 157.20 412.20 157.40 C 411.50 157.50 410.80 157.60 410.10 157.70 C 409.90 157.70 409.80 157.70 409.60 157.80 C 408.70 157.90 407.80 158.10 407.00 158.30 C 405.80 158.50 404.60 158.70 403.40 159.00 C 402.30 159.20 401.30 159.50 400.20 159.70 C 399.00 160.00 397.80 160.20 396.60 160.60 C 396.40 160.70 396.20 160.70 396.00 160.80 C 395.50 160.90 395.00 161.10 394.50 161.30 C 392.50 161.90 390.40 162.50 388.40 163.20 C 387.50 163.50 386.70 163.80 385.80 164.10 C 383.70 164.80 381.60 165.60 379.50 166.50 C 379.00 166.70 378.50 166.80 378.00 167.00 C 377.90 167.10 377.70 167.10 377.60 167.20 C 374.40 168.50 371.30 170.00 368.10 171.50 C 367.40 171.90 366.70 172.20 366.00 172.60 C 362.80 174.20 359.50 175.90 356.30 177.80 C 354.00 179.10 351.60 180.60 349.30 182.00 C 348.50 182.50 347.80 183.00 347.00 183.50 C 345.40 184.50 343.90 185.50 342.30 186.60 C 341.40 187.20 340.50 187.90 339.60 188.50 C 338.20 189.50 336.80 190.50 335.40 191.50 C 334.50 192.20 333.50 192.90 332.60 193.60 C 331.20 194.60 329.90 195.70 328.50 196.70 C 327.50 197.50 326.60 198.20 325.60 199.00 C 324.30 200.10 322.90 201.20 321.60 202.30 C 320.60 203.10 319.70 203.90 318.70 204.70 C 317.40 205.90 316.00 207.10 314.70 208.30 C 313.80 209.10 312.80 210.00 311.90 210.80 C 310.50 212.10 309.20 213.40 307.80 214.70 C 306.90 215.50 306.10 216.30 305.20 217.20 C 305.00 217.40 304.70 217.70 304.50 217.90 C 303.90 218.50 303.30 219.10 302.70 219.70 C 300.90 221.50 299.10 223.40 297.30 225.30 C 296.40 226.30 295.50 227.30 294.50 228.30 C 292.80 230.10 291.10 232.00 289.50 233.90 C 289.00 234.50 288.40 235.10 287.80 235.70 C 287.40 236.20 287.00 236.70 286.50 237.20 C 285.50 238.30 284.60 239.50 283.60 240.60 C 282.40 242.00 281.20 243.40 280.10 244.90 C 279.20 246.10 278.20 247.20 277.30 248.40 C 276.70 249.10 276.10 249.90 275.50 250.60 C 275.20 251.00 274.90 251.50 274.50 251.90 C 271.50 255.80 268.50 259.90 265.60 264.00 C 265.50 264.10 265.40 264.30 265.30 264.40 C 265.00 264.80 264.70 265.30 264.40 265.70 C 262.10 269.10 259.80 272.50 257.50 275.90 C 257.10 276.50 256.70 277.00 256.40 277.60 C 256.10 278.10 255.80 278.50 255.50 279.00 C 253.10 282.80 250.70 286.70 248.40 290.70 C 248.40 290.70 248.40 290.70 248.40 290.70 C 248.40 290.70 248.40 290.80 248.30 290.80 C 246.10 294.50 244.10 298.30 242.10 302.00 C 241.90 302.40 241.60 302.80 241.40 303.20 C 241.00 303.90 240.70 304.60 240.30 305.40 C 238.80 308.20 237.40 311.10 236.00 313.90 C 235.70 314.60 235.30 315.30 234.90 316.00 C 234.70 316.40 234.50 316.90 234.30 317.30 C 232.40 321.20 230.70 325.10 229.00 328.90 C 229.00 328.90 229.00 328.90 229.00 329.00 C 228.90 329.10 228.90 329.30 228.80 329.40 C 227.10 333.30 225.60 337.10 224.10 340.90 C 223.90 341.40 223.70 341.90 223.50 342.40 C 223.30 343.00 223.10 343.60 222.90 344.20 C 221.50 347.90 220.20 351.60 218.90 355.30 C 218.80 355.70 218.60 356.10 218.50 356.50 C 218.50 356.60 218.40 356.70 218.40 356.80 C 216.90 361.30 215.50 365.80 214.30 370.30 C 214.20 370.80 214.00 371.30 213.80 371.80 C 213.60 372.60 213.40 373.40 213.20 374.10 C 212.80 375.50 212.50 376.80 212.10 378.20 C 211.70 379.90 211.30 381.50 210.90 383.20 C 210.60 384.50 210.30 385.90 210.00 387.20 C 209.90 387.90 209.70 388.50 209.50 389.20 C 209.30 390.00 209.20 390.70 209.10 391.50 C 208.70 393.60 208.30 395.60 207.90 397.70 C 207.70 399.00 207.40 400.30 207.20 401.60 C 206.90 403.70 206.60 405.80 206.30 407.80 C 206.20 408.60 206.00 409.50 205.90 410.30 C 205.90 410.70 205.80 411.00 205.80 411.30 C 205.50 414.00 205.20 416.60 205.00 419.20 C 204.90 419.80 204.90 420.50 204.80 421.10 C 204.50 424.30 204.30 427.50 204.20 430.70 C 204.20 431.60 204.20 432.40 204.10 433.30 C 204.00 435.60 204.00 437.80 204.00 440.10 C 204.00 441.20 204.00 442.30 204.10 443.40 C 204.10 445.40 204.20 447.40 204.30 449.30 C 204.40 450.40 204.40 451.50 204.50 452.60 C 204.60 454.60 204.80 456.60 205.00 458.50 C 205.10 459.50 205.20 460.50 205.30 461.40 C 205.60 463.80 206.00 466.20 206.40 468.60 C 206.50 469.00 206.50 469.40 206.60 469.90 C 207.10 472.70 207.70 475.40 208.30 478.00 C 208.50 478.80 208.70 479.50 208.90 480.30 C 209.40 482.20 209.90 484.00 210.50 485.80 C 210.80 486.70 211.10 487.60 211.40 488.50 C 211.90 490.10 212.50 491.70 213.10 493.30 C 213.40 494.20 213.80 495.10 214.20 496.00 C 214.90 497.60 215.60 499.20 216.30 500.70 C 216.70 501.40 217.00 502.20 217.40 502.90 C 218.40 504.90 219.50 506.90 220.70 508.80 C 220.80 509.00 220.90 509.20 221.00 509.40 C 222.30 511.50 223.60 513.50 225.00 515.40 C 225.40 516.00 225.90 516.50 226.30 517.10 C 227.30 518.40 228.40 519.70 229.40 520.90 C 230.00 521.50 230.60 522.20 231.10 522.80 C 232.10 523.90 233.20 525.00 234.30 526.10 C 234.90 526.70 235.60 527.30 236.20 527.90 C 237.40 529.00 238.70 530.00 239.90 531.00 C 240.50 531.50 241.10 531.90 241.70 532.40 C 243.60 533.80 245.60 535.10 247.60 536.30 L 370.00 607.50 C 368.00 606.30 366.00 605.00 364.10 603.60 C 363.50 603.20 362.90 602.70 362.30 602.20 C 361.00 601.20 359.80 600.20 358.60 599.10 C 358.00 598.50 357.30 597.90 356.70 597.30 C 355.60 596.30 354.50 595.20 353.50 594.10 C 352.90 593.50 352.30 592.80 351.70 592.20 C 350.60 591.00 349.60 589.70 348.60 588.40 C 348.20 587.80 347.70 587.30 347.20 586.70 C 345.80 584.80 344.40 582.80 343.20 580.70 C 343.10 580.50 343.00 580.30 342.90 580.10 C 341.80 578.20 340.70 576.20 339.70 574.20 C 339.30 573.50 339.00 572.70 338.60 572.00 C 337.90 570.50 337.20 568.90 336.50 567.30 C 336.10 566.40 335.80 565.50 335.40 564.60 C 334.80 563.00 334.20 561.40 333.70 559.80 C 333.40 558.90 333.10 558.00 332.80 557.10 C 332.20 555.30 331.70 553.50 331.30 551.60 C 331.10 550.80 330.90 550.10 330.70 549.30 C 330.10 546.70 329.50 544.00 329.00 541.20 C 328.90 540.80 328.90 540.40 328.80 540.00 C 328.40 537.60 328.00 535.20 327.70 532.80 C 327.60 531.80 327.50 530.90 327.40 529.90 C 327.20 528.00 327.00 526.00 326.90 524.00 C 326.80 522.90 326.80 521.80 326.70 520.70 C 326.60 518.70 326.50 516.80 326.50 514.80 C 326.50 513.70 326.40 512.60 326.40 511.50 C 326.40 509.30 326.40 507.00 326.50 504.70 C 326.50 503.80 326.50 503.00 326.60 502.10 C 326.70 498.90 326.90 495.80 327.20 492.50 C 327.30 491.90 327.30 491.30 327.40 490.60 C 327.60 488.00 327.90 485.30 328.30 482.60 C 328.40 481.40 328.60 480.20 328.80 479.10 C 329.10 477.00 329.40 474.90 329.70 472.90 C 329.90 471.60 330.10 470.30 330.40 469.00 C 330.80 466.90 331.20 464.90 331.60 462.80 C 331.90 461.40 332.20 460.00 332.50 458.60 C 332.80 457.30 333.10 455.90 333.40 454.60 C 333.80 453.00 334.20 451.30 334.60 449.70 C 334.90 448.30 335.30 447.00 335.70 445.60 C 336.00 444.30 336.40 443.10 336.80 441.80 C 338.10 437.30 339.40 432.80 340.90 428.30 C 341.10 427.80 341.30 427.30 341.40 426.80 C 342.70 423.10 344.00 419.40 345.40 415.60 C 345.80 414.50 346.20 413.40 346.60 412.40 C 348.10 408.50 349.70 404.70 351.30 400.80 C 351.40 400.70 351.40 400.50 351.50 400.40 C 353.20 396.50 355.00 392.60 356.80 388.80 C 357.30 387.70 357.90 386.50 358.40 385.40 C 359.80 382.60 361.20 379.70 362.70 376.90 C 363.30 375.80 363.90 374.60 364.50 373.50 C 366.50 369.80 368.60 366.00 370.70 362.30 C 370.70 362.20 370.80 362.20 370.80 362.10 C 373.10 358.10 375.50 354.20 378.00 350.40 C 378.70 349.40 379.30 348.30 380.00 347.30 C 382.30 343.80 384.50 340.40 386.90 337.00 C 387.30 336.40 387.70 335.90 388.10 335.30 C 391.00 331.20 394.00 327.10 397.00 323.20 C 397.90 322.00 398.80 320.90 399.70 319.70 C 400.60 318.50 401.60 317.30 402.50 316.20 C 403.70 314.80 404.80 313.30 406.00 311.90 C 406.90 310.80 407.90 309.60 408.90 308.50 C 409.90 307.40 410.90 306.30 411.80 305.10 C 413.50 303.20 415.10 301.40 416.80 299.50 C 417.70 298.50 418.60 297.50 419.60 296.50 C 421.40 294.60 423.20 292.70 425.00 290.90 C 425.80 290.10 426.70 289.20 427.50 288.40 C 428.40 287.60 429.20 286.70 430.10 285.90 C 431.50 284.60 432.80 283.30 434.20 282.00 C 435.10 281.10 436.00 280.30 437.00 279.50 C 438.30 278.30 439.70 277.10 441.00 275.90 C 442.00 275.10 442.90 274.30 443.90 273.40 C 445.20 272.30 446.60 271.20 447.90 270.10 C 448.90 269.30 449.80 268.50 450.80 267.80 C 452.10 266.70 453.50 265.70 454.80 264.70 C 455.80 264.00 456.70 263.30 457.70 262.50 C 459.10 261.50 460.50 260.50 461.90 259.50 C 462.80 258.90 463.70 258.20 464.60 257.60 C 466.10 256.50 467.70 255.50 469.30 254.50 C 470.10 254.00 470.80 253.50 471.60 253.00 C 473.90 251.50 476.20 250.10 478.60 248.80 C 481.80 246.90 485.10 245.20 488.30 243.60 C 489.00 243.20 489.70 242.90 490.40 242.50 C 493.60 240.90 496.70 239.50 499.90 238.20 C 500.50 237.90 501.10 237.70 501.80 237.50 C 503.90 236.70 506.00 235.90 508.10 235.10 C 509.00 234.80 509.80 234.50 510.70 234.20 C 512.80 233.50 514.80 232.90 516.80 232.30 C 517.50 232.10 518.20 231.90 518.90 231.70 C 520.10 231.40 521.30 231.10 522.50 230.80 C 523.60 230.60 524.60 230.30 525.70 230.10 C 526.90 229.90 528.10 229.70 529.30 229.40 C 530.40 229.20 531.40 229.00 532.50 228.90 C 533.20 228.80 533.90 228.70 534.60 228.60 C 535.90 228.40 537.30 228.30 538.60 228.10 C 539.40 228.00 540.20 228.00 541.00 227.90 C 542.30 227.80 543.60 227.70 544.80 227.70 C 545.50 227.70 546.20 227.70 546.80 227.70 C 548.10 227.70 549.50 227.70 550.80 227.80 C 551.40 227.80 552.00 227.80 552.60 227.90 C 553.20 227.90 553.80 228.00 554.50 228.10 C 556.80 228.30 559.20 228.60 561.40 228.90 C 562.00 229.00 562.60 229.10 563.20 229.20 C 565.80 229.70 568.30 230.20 570.80 230.90 C 571.30 231.00 571.70 231.20 572.20 231.40 C 574.20 232.00 576.20 232.70 578.20 233.50 C 579.30 233.90 580.50 234.40 581.60 234.90 C 582.90 232.80 584.20 230.80 585.50 228.80 C 588.10 224.80 590.70 220.90 593.30 217.10 C 593.80 216.30 594.10 215.80 594.40 215.40 Z" fill="url(#SVGID_10_)" fill-rule="nonzero" group-id="3" node-id="174" stroke="none" target-height="570.2" target-width="589" target-x="204" target-y="37.3"/></svg>