<svg height="1024" node-id="1" sillyvg="true" template-height="1024" template-width="1024" version="1.1" viewBox="0 0 1024 1024" width="1024" xmlns="http://www.w3.org/2000/svg" xmlns:xlink="http://www.w3.org/1999/xlink"><defs node-id="286"><linearGradient gradientUnits="userSpaceOnUse" id="SVGID_1_" node-id="28" spreadMethod="pad" x1="90.5158" x2="638.6478" y1="429.4445" y2="429.4445"><stop offset="0" stop-color="#d7d8d5"/><stop offset="1" stop-color="#f6f6f9"/></linearGradient><linearGradient gradientUnits="userSpaceOnUse" id="SVGID_2_" node-id="36" spreadMethod="pad" x1="129.4002" x2="951.8643" y1="835.1649" y2="835.1649"><stop offset="0" stop-color="#d7d8d5"/><stop offset="1" stop-color="#f6f6f9"/></linearGradient><linearGradient gradientUnits="userSpaceOnUse" id="SVGID_3_" node-id="41" spreadMethod="pad" x1="129.5258" x2="951.8643" y1="719.2932" y2="719.2932"><stop offset="0" stop-color="#f1edec"/><stop offset="1" stop-color="#ececea"/></linearGradient><linearGradient gradientUnits="userSpaceOnUse" id="SVGID_4_" node-id="46" spreadMethod="pad" x1="158.7467" x2="622.6001" y1="413.4222" y2="413.4222"><stop offset="0" stop-color="#6386db"/><stop offset="1" stop-color="#8eb0ec"/></linearGradient><linearGradient gradientUnits="userSpaceOnUse" id="SVGID_5_" node-id="51" spreadMethod="pad" x1="209.7592" x2="567.469" y1="318.3222" y2="318.3222"><stop offset="0" stop-color="#fbfbfb"/><stop offset="1" stop-color="#fbfbfb"/></linearGradient><linearGradient gradientUnits="userSpaceOnUse" id="SVGID_6_" node-id="56" spreadMethod="pad" x1="221.5528" x2="579.2625" y1="412.9137" y2="412.9137"><stop offset="0" stop-color="#fbfbfb"/><stop offset="1" stop-color="#fbfbfb"/></linearGradient><linearGradient gradientUnits="userSpaceOnUse" id="SVGID_7_" node-id="61" spreadMethod="pad" x1="225.1383" x2="582.848" y1="507.502" y2="507.502"><stop offset="0" stop-color="#fbfbfb"/><stop offset="1" stop-color="#fbfbfb"/></linearGradient><linearGradient gradientUnits="userSpaceOnUse" id="SVGID_8_" node-id="66" spreadMethod="pad" x1="492.2294" x2="550.6957" y1="636.9487" y2="636.9487"><stop offset="0" stop-color="#d7d8d5"/><stop offset="1" stop-color="#e2e3da"/></linearGradient><linearGradient gradientUnits="userSpaceOnUse" id="SVGID_9_" node-id="70" spreadMethod="pad" x1="454.231" x2="512.6976" y1="659.0308" y2="659.0308"><stop offset="0" stop-color="#d7d8d5"/><stop offset="1" stop-color="#e2e3da"/></linearGradient><linearGradient gradientUnits="userSpaceOnUse" id="SVGID_10_" node-id="74" spreadMethod="pad" x1="534.0618" x2="592.5586" y1="661.1094" y2="661.1094"><stop offset="0" stop-color="#d7d8d5"/><stop offset="1" stop-color="#e2e3da"/></linearGradient><linearGradient gradientUnits="userSpaceOnUse" id="SVGID_11_" node-id="78" spreadMethod="pad" x1="496.0638" x2="554.5602" y1="683.1917" y2="683.1917"><stop offset="0" stop-color="#d7d8d5"/><stop offset="1" stop-color="#e2e3da"/></linearGradient><linearGradient gradientUnits="userSpaceOnUse" id="SVGID_12_" node-id="82" spreadMethod="pad" x1="609.9973" x2="668.4937" y1="616.9807" y2="616.9807"><stop offset="0" stop-color="#d7d8d5"/><stop offset="1" stop-color="#e2e3da"/></linearGradient><linearGradient gradientUnits="userSpaceOnUse" id="SVGID_13_" node-id="86" spreadMethod="pad" x1="458.0962" x2="516.5927" y1="705.256" y2="705.256"><stop offset="0" stop-color="#d7d8d5"/><stop offset="1" stop-color="#e2e3da"/></linearGradient><linearGradient gradientUnits="userSpaceOnUse" id="SVGID_14_" node-id="90" spreadMethod="pad" x1="572.0294" x2="630.5261" y1="639.045" y2="639.045"><stop offset="0" stop-color="#d7d8d5"/><stop offset="1" stop-color="#e2e3da"/></linearGradient><linearGradient gradientUnits="userSpaceOnUse" id="SVGID_15_" node-id="94" spreadMethod="pad" x1="416.2635" x2="474.7298" y1="681.0953" y2="681.0953"><stop offset="0" stop-color="#d7d8d5"/><stop offset="1" stop-color="#e2e3da"/></linearGradient><linearGradient gradientUnits="userSpaceOnUse" id="SVGID_16_" node-id="98" spreadMethod="pad" x1="378.2654" x2="436.7317" y1="703.1772" y2="703.1772"><stop offset="0" stop-color="#d7d8d5"/><stop offset="1" stop-color="#e2e3da"/></linearGradient><linearGradient gradientUnits="userSpaceOnUse" id="SVGID_17_" node-id="102" spreadMethod="pad" x1="340.2978" x2="398.7641" y1="725.2417" y2="725.2417"><stop offset="0" stop-color="#d7d8d5"/><stop offset="1" stop-color="#e2e3da"/></linearGradient><linearGradient gradientUnits="userSpaceOnUse" id="SVGID_18_" node-id="106" spreadMethod="pad" x1="344.1627" x2="402.6591" y1="771.4669" y2="771.4669"><stop offset="0" stop-color="#d7d8d5"/><stop offset="1" stop-color="#e2e3da"/></linearGradient><linearGradient gradientUnits="userSpaceOnUse" id="SVGID_19_" node-id="110" spreadMethod="pad" x1="302.33" x2="360.7966" y1="747.3061" y2="747.3061"><stop offset="0" stop-color="#d7d8d5"/><stop offset="1" stop-color="#e2e3da"/></linearGradient><linearGradient gradientUnits="userSpaceOnUse" id="SVGID_20_" node-id="114" spreadMethod="pad" x1="530.197" x2="588.6633" y1="614.8843" y2="614.8843"><stop offset="0" stop-color="#d7d8d5"/><stop offset="1" stop-color="#e2e3da"/></linearGradient><linearGradient gradientUnits="userSpaceOnUse" id="SVGID_21_" node-id="118" spreadMethod="pad" x1="420.0978" x2="478.5946" y1="727.3381" y2="727.3381"><stop offset="0" stop-color="#d7d8d5"/><stop offset="1" stop-color="#e2e3da"/></linearGradient><linearGradient gradientUnits="userSpaceOnUse" id="SVGID_22_" node-id="122" spreadMethod="pad" x1="382.1302" x2="440.6267" y1="749.4026" y2="749.4026"><stop offset="0" stop-color="#d7d8d5"/><stop offset="1" stop-color="#e2e3da"/></linearGradient><linearGradient gradientUnits="userSpaceOnUse" id="SVGID_23_" node-id="126" spreadMethod="pad" x1="463.7654" x2="522.2323" y1="752.0119" y2="752.0119"><stop offset="0" stop-color="#d7d8d5"/><stop offset="1" stop-color="#e2e3da"/></linearGradient><linearGradient gradientUnits="userSpaceOnUse" id="SVGID_24_" node-id="130" spreadMethod="pad" x1="425.7978" x2="484.2647" y1="774.0762" y2="774.0762"><stop offset="0" stop-color="#d7d8d5"/><stop offset="1" stop-color="#e2e3da"/></linearGradient><linearGradient gradientUnits="userSpaceOnUse" id="SVGID_25_" node-id="134" spreadMethod="pad" x1="539.7313" x2="598.1982" y1="707.8655" y2="707.8655"><stop offset="0" stop-color="#d7d8d5"/><stop offset="1" stop-color="#e2e3da"/></linearGradient><linearGradient gradientUnits="userSpaceOnUse" id="SVGID_26_" node-id="138" spreadMethod="pad" x1="501.7637" x2="560.2307" y1="729.9298" y2="729.9298"><stop offset="0" stop-color="#d7d8d5"/><stop offset="1" stop-color="#e2e3da"/></linearGradient><linearGradient gradientUnits="userSpaceOnUse" id="SVGID_27_" node-id="142" spreadMethod="pad" x1="577.6989" x2="636.1658" y1="685.801" y2="685.801"><stop offset="0" stop-color="#d7d8d5"/><stop offset="1" stop-color="#e2e3da"/></linearGradient><linearGradient gradientUnits="userSpaceOnUse" id="SVGID_28_" node-id="146" spreadMethod="pad" x1="653.6648" x2="712.1317" y1="641.6545" y2="641.6545"><stop offset="0" stop-color="#d7d8d5"/><stop offset="1" stop-color="#e2e3da"/></linearGradient><linearGradient gradientUnits="userSpaceOnUse" id="SVGID_29_" node-id="150" spreadMethod="pad" x1="615.6973" x2="674.1638" y1="663.7189" y2="663.7189"><stop offset="0" stop-color="#d7d8d5"/><stop offset="1" stop-color="#e2e3da"/></linearGradient><linearGradient gradientUnits="userSpaceOnUse" id="SVGID_30_" node-id="154" spreadMethod="pad" x1="226.3643" x2="284.8312" y1="791.4524" y2="791.4524"><stop offset="0" stop-color="#d7d8d5"/><stop offset="1" stop-color="#e2e3da"/></linearGradient><linearGradient gradientUnits="userSpaceOnUse" id="SVGID_31_" node-id="158" spreadMethod="pad" x1="306.1646" x2="364.6611" y1="793.5488" y2="793.5488"><stop offset="0" stop-color="#d7d8d5"/><stop offset="1" stop-color="#e2e3da"/></linearGradient><linearGradient gradientUnits="userSpaceOnUse" id="SVGID_32_" node-id="162" spreadMethod="pad" x1="264.3319" x2="322.7982" y1="769.3882" y2="769.3882"><stop offset="0" stop-color="#d7d8d5"/><stop offset="1" stop-color="#e2e3da"/></linearGradient><linearGradient gradientUnits="userSpaceOnUse" id="SVGID_33_" node-id="166" spreadMethod="pad" x1="620.4846" x2="678.9509" y1="710.9968" y2="710.9968"><stop offset="0" stop-color="#d7d8d5"/><stop offset="1" stop-color="#e2e3da"/></linearGradient><linearGradient gradientUnits="userSpaceOnUse" id="SVGID_34_" node-id="170" spreadMethod="pad" x1="582.4863" x2="640.9529" y1="733.0791" y2="733.0791"><stop offset="0" stop-color="#d7d8d5"/><stop offset="1" stop-color="#e2e3da"/></linearGradient><linearGradient gradientUnits="userSpaceOnUse" id="SVGID_35_" node-id="174" spreadMethod="pad" x1="544.5187" x2="602.985" y1="755.1434" y2="755.1434"><stop offset="0" stop-color="#d7d8d5"/><stop offset="1" stop-color="#e2e3da"/></linearGradient><linearGradient gradientUnits="userSpaceOnUse" id="SVGID_36_" node-id="178" spreadMethod="pad" x1="568.1646" x2="626.6309" y1="592.82" y2="592.82"><stop offset="0" stop-color="#d7d8d5"/><stop offset="1" stop-color="#e2e3da"/></linearGradient><linearGradient gradientUnits="userSpaceOnUse" id="SVGID_37_" node-id="182" spreadMethod="pad" x1="644.1304" x2="702.5967" y1="548.6734" y2="548.6734"><stop offset="0" stop-color="#d7d8d5"/><stop offset="1" stop-color="#e2e3da"/></linearGradient><linearGradient gradientUnits="userSpaceOnUse" id="SVGID_38_" node-id="186" spreadMethod="pad" x1="691.6623" x2="750.1304" y1="619.5724" y2="619.5724"><stop offset="0" stop-color="#d7d8d5"/><stop offset="1" stop-color="#e2e3da"/></linearGradient><linearGradient gradientUnits="userSpaceOnUse" id="SVGID_39_" node-id="190" spreadMethod="pad" x1="647.9947" x2="706.4918" y1="594.8989" y2="594.8989"><stop offset="0" stop-color="#d7d8d5"/><stop offset="1" stop-color="#e2e3da"/></linearGradient><linearGradient gradientUnits="userSpaceOnUse" id="SVGID_40_" node-id="194" spreadMethod="pad" x1="606.1623" x2="664.6292" y1="570.7379" y2="570.7379"><stop offset="0" stop-color="#d7d8d5"/><stop offset="1" stop-color="#e2e3da"/></linearGradient><linearGradient gradientUnits="userSpaceOnUse" id="SVGID_41_" node-id="198" spreadMethod="pad" x1="658.4522" x2="716.9185" y1="688.9325" y2="688.9325"><stop offset="0" stop-color="#d7d8d5"/><stop offset="1" stop-color="#e2e3da"/></linearGradient><linearGradient gradientUnits="userSpaceOnUse" id="SVGID_42_" node-id="202" spreadMethod="pad" x1="506.5207" x2="564.987" y1="777.2255" y2="777.2255"><stop offset="0" stop-color="#d7d8d5"/><stop offset="1" stop-color="#e2e3da"/></linearGradient><linearGradient gradientUnits="userSpaceOnUse" id="SVGID_43_" node-id="206" spreadMethod="pad" x1="468.5531" x2="527.0194" y1="799.2899" y2="799.2899"><stop offset="0" stop-color="#d7d8d5"/><stop offset="1" stop-color="#e2e3da"/></linearGradient><linearGradient gradientUnits="userSpaceOnUse" id="SVGID_44_" node-id="210" spreadMethod="pad" x1="430.5852" x2="489.0518" y1="821.3544" y2="821.3544"><stop offset="0" stop-color="#d7d8d5"/><stop offset="1" stop-color="#e2e3da"/></linearGradient><linearGradient gradientUnits="userSpaceOnUse" id="SVGID_45_" node-id="214" spreadMethod="pad" x1="387.7998" x2="446.2667" y1="796.1583" y2="796.1583"><stop offset="0" stop-color="#d7d8d5"/><stop offset="1" stop-color="#e2e3da"/></linearGradient><linearGradient gradientUnits="userSpaceOnUse" id="SVGID_46_" node-id="218" spreadMethod="pad" x1="349.8322" x2="408.2991" y1="818.2227" y2="818.2227"><stop offset="0" stop-color="#d7d8d5"/><stop offset="1" stop-color="#e2e3da"/></linearGradient><linearGradient gradientUnits="userSpaceOnUse" id="SVGID_47_" node-id="222" spreadMethod="pad" x1="696.4198" x2="754.8861" y1="666.8682" y2="666.8682"><stop offset="0" stop-color="#d7d8d5"/><stop offset="1" stop-color="#e2e3da"/></linearGradient><linearGradient gradientUnits="userSpaceOnUse" id="SVGID_48_" node-id="229" spreadMethod="pad" x1="514.4678" x2="639.4488" y1="580.3539" y2="580.3539"><stop offset="0" stop-color="#ffcb27"/><stop offset="1" stop-color="#ffa21e"/></linearGradient><linearGradient gradientUnits="userSpaceOnUse" id="SVGID_49_" node-id="234" spreadMethod="pad" x1="514.5394" x2="639.4487" y1="529.9576" y2="529.9576"><stop offset="0" stop-color="#ffcb27"/><stop offset="1" stop-color="#ffa21e"/></linearGradient><linearGradient gradientUnits="userSpaceOnUse" id="SVGID_50_" node-id="239" spreadMethod="pad" x1="514.5394" x2="709.4982" y1="418.9883" y2="418.9883"><stop offset="0" stop-color="#ffcb27"/><stop offset="1" stop-color="#ffa21e"/></linearGradient><linearGradient gradientUnits="userSpaceOnUse" id="SVGID_51_" node-id="244" spreadMethod="pad" x1="628.3057" x2="754.0033" y1="333.1565" y2="333.1565"><stop offset="0" stop-color="#ffcb27"/><stop offset="1" stop-color="#ffa21e"/></linearGradient><linearGradient gradientUnits="userSpaceOnUse" id="SVGID_52_" node-id="249" spreadMethod="pad" x1="412.1629" x2="537.8564" y1="573.65" y2="573.65"><stop offset="0" stop-color="#ffcb27"/><stop offset="1" stop-color="#ffa21e"/></linearGradient><linearGradient gradientUnits="userSpaceOnUse" id="SVGID_53_" node-id="254" spreadMethod="pad" x1="500.8839" x2="595.7319" y1="513.6101" y2="513.6101"><stop offset="0" stop-color="#ffcb27"/><stop offset="1" stop-color="#ffa21e"/></linearGradient><linearGradient gradientUnits="userSpaceOnUse" id="SVGID_54_" node-id="259" spreadMethod="pad" x1="679.8981" x2="791.4456" y1="321.86" y2="321.86"><stop offset="0" stop-color="#ffcb27"/><stop offset="1" stop-color="#ffa21e"/></linearGradient><linearGradient gradientUnits="userSpaceOnUse" id="SVGID_55_" node-id="263" spreadMethod="pad" x1="598.7244" x2="789.8232" y1="268.987" y2="268.987"><stop offset="0" stop-color="#ffcb27"/><stop offset="1" stop-color="#ffa21e"/></linearGradient><linearGradient gradientUnits="userSpaceOnUse" id="SVGID_56_" node-id="267" spreadMethod="pad" x1="394.8732" x2="754.0034" y1="562.2749" y2="562.2749"><stop offset="0" stop-color="#ffcb27"/><stop offset="1" stop-color="#ffa21e"/></linearGradient><linearGradient gradientUnits="userSpaceOnUse" id="SVGID_57_" node-id="272" spreadMethod="pad" x1="456.1788" x2="582.0764" y1="496.9811" y2="496.9811"><stop offset="0" stop-color="#ffcb27"/><stop offset="1" stop-color="#ffa21e"/></linearGradient><linearGradient gradientUnits="userSpaceOnUse" id="SVGID_58_" node-id="277" spreadMethod="pad" x1="456.3942" x2="582.168" y1="496.963" y2="496.963"><stop offset="0" stop-color="#ffcb27"/><stop offset="1" stop-color="#ffa21e"/></linearGradient><linearGradient gradientUnits="userSpaceOnUse" id="SVGID_59_" node-id="281" spreadMethod="pad" x1="313.6807" x2="537.3715" y1="607.8991" y2="607.8991"><stop offset="0" stop-color="#ffcb27"/><stop offset="1" stop-color="#ffa21e"/></linearGradient></defs><g node-id="828"><g node-id="836"><path d="M 622.70 56.40 C 623.40 56.10 624.10 55.90 624.80 55.70 C 625.20 55.60 625.70 55.40 626.10 55.30 C 626.50 55.20 626.90 55.10 627.30 55.00 C 627.80 54.90 628.30 54.80 628.80 54.80 C 629.10 54.80 629.40 54.70 629.70 54.70 C 630.30 54.70 631.00 54.60 631.60 54.70 C 631.70 54.70 631.90 54.70 632.00 54.70 C 632.70 54.70 633.50 54.80 634.20 55.00 C 634.40 55.00 634.50 55.10 634.70 55.10 C 635.20 55.20 635.80 55.40 636.30 55.60 C 636.50 55.70 636.60 55.70 636.80 55.80 C 637.50 56.10 638.10 56.40 638.70 56.70 L 600.40 34.40 C 600.30 34.40 600.30 34.30 600.20 34.30 C 599.70 34.00 599.20 33.80 598.70 33.60 C 598.60 33.60 598.50 33.50 598.40 33.50 C 598.20 33.40 598.10 33.40 597.90 33.30 C 597.60 33.20 597.40 33.10 597.10 33.00 C 596.80 32.90 596.50 32.90 596.30 32.80 C 596.10 32.80 596.00 32.70 595.80 32.70 C 595.70 32.70 595.60 32.70 595.50 32.60 C 594.90 32.50 594.30 32.40 593.70 32.40 C 593.70 32.40 593.60 32.40 593.60 32.40 C 593.50 32.40 593.30 32.40 593.20 32.40 C 592.70 32.40 592.30 32.40 591.80 32.40 C 591.60 32.40 591.50 32.40 591.30 32.40 C 591.00 32.40 590.70 32.50 590.40 32.50 C 590.10 32.50 589.90 32.50 589.60 32.60 C 589.40 32.60 589.10 32.70 588.90 32.80 C 588.50 32.90 588.10 33.00 587.70 33.10 C 587.50 33.20 587.30 33.20 587.10 33.20 C 586.90 33.30 586.70 33.40 586.40 33.40 C 585.70 33.60 585.00 33.80 584.30 34.10 C 584.10 34.20 583.80 34.20 583.60 34.30 C 583.50 34.40 583.30 34.40 583.20 34.50 C 582.00 35.00 580.80 35.60 579.50 36.30 L 119.50 302.10 C 118.00 303.00 116.40 304.00 115.00 305.20 C 114.70 305.40 114.50 305.60 114.20 305.80 C 112.80 306.90 111.40 308.10 110.10 309.40 C 110.00 309.50 109.90 309.60 109.80 309.70 C 109.60 309.90 109.40 310.10 109.20 310.40 C 108.50 311.10 107.90 311.80 107.30 312.50 C 107.10 312.70 106.90 312.90 106.70 313.20 C 106.50 313.40 106.40 313.60 106.20 313.80 C 105.80 314.30 105.40 314.70 105.10 315.20 C 104.90 315.50 104.60 315.80 104.40 316.10 C 104.20 316.40 104.00 316.60 103.80 316.90 C 103.50 317.30 103.30 317.60 103.00 318.00 C 102.80 318.30 102.60 318.50 102.40 318.80 C 102.10 319.20 101.80 319.70 101.50 320.10 C 101.30 320.40 101.10 320.70 100.90 320.90 C 100.80 321.00 100.70 321.10 100.70 321.30 C 100.20 322.10 99.70 322.90 99.20 323.80 C 99.20 323.90 99.10 323.90 99.10 324.00 C 99.00 324.20 98.90 324.30 98.80 324.50 C 98.50 325.10 98.10 325.70 97.80 326.30 C 97.70 326.60 97.50 326.90 97.40 327.10 C 97.30 327.40 97.10 327.70 97.00 328.00 C 96.90 328.30 96.70 328.50 96.60 328.80 C 96.30 329.50 96.00 330.20 95.70 330.90 C 95.60 331.00 95.60 331.10 95.50 331.30 C 95.50 331.30 95.50 331.40 95.50 331.40 C 95.10 332.30 94.80 333.10 94.40 334.00 C 94.30 334.20 94.30 334.30 94.20 334.50 C 94.10 334.80 94.00 335.10 93.90 335.50 C 93.70 335.90 93.60 336.40 93.40 336.80 C 93.30 337.10 93.20 337.50 93.10 337.80 C 93.00 338.20 92.90 338.60 92.70 339.00 C 92.60 339.20 92.50 339.50 92.50 339.70 C 92.40 340.10 92.30 340.60 92.20 341.00 C 92.10 341.50 91.90 342.00 91.80 342.50 C 91.80 342.70 91.70 342.80 91.70 343.00 C 91.60 343.40 91.60 343.70 91.50 344.10 C 91.40 344.90 91.20 345.70 91.10 346.40 C 91.10 346.60 91.00 346.80 91.00 347.00 C 91.00 347.20 91.00 347.40 91.00 347.60 C 90.80 349.30 90.70 351.00 90.70 352.70 L 91.50 629.90 L 92.00 804.50 L 130.30 826.80 L 129.80 652.20 L 129.00 375.00 C 129.00 373.30 129.10 371.60 129.30 369.90 C 129.30 369.50 129.40 369.10 129.40 368.70 C 129.50 367.90 129.70 367.20 129.80 366.40 C 129.90 365.90 130.00 365.30 130.10 364.80 C 130.20 364.30 130.30 363.80 130.50 363.30 C 130.70 362.60 130.90 361.90 131.10 361.20 C 131.20 360.80 131.30 360.40 131.50 360.00 C 131.70 359.20 132.00 358.40 132.30 357.70 C 132.40 357.40 132.50 357.10 132.60 356.70 C 133.00 355.60 133.40 354.60 133.90 353.50 C 134.00 353.40 134.00 353.30 134.10 353.20 C 134.50 352.20 135.00 351.30 135.40 350.40 C 135.50 350.10 135.70 349.80 135.80 349.50 C 136.30 348.60 136.70 347.70 137.20 346.90 C 137.30 346.70 137.40 346.60 137.50 346.40 C 138.10 345.40 138.70 344.40 139.30 343.40 C 139.50 343.10 139.70 342.80 139.90 342.50 C 140.40 341.80 140.80 341.10 141.30 340.40 C 141.60 340.00 141.80 339.70 142.10 339.30 C 142.50 338.70 143.00 338.20 143.40 337.60 C 143.80 337.10 144.20 336.70 144.50 336.20 C 144.90 335.80 145.20 335.40 145.60 335.00 C 146.20 334.30 146.90 333.60 147.60 332.90 C 147.90 332.60 148.20 332.30 148.60 331.90 C 149.90 330.60 151.30 329.40 152.70 328.30 C 152.90 328.10 153.20 327.90 153.50 327.70 C 155.00 326.60 156.50 325.50 158.00 324.60 L 617.90 58.70 C 619.10 58.00 620.40 57.40 621.60 56.90 C 622.00 56.70 622.40 56.60 622.70 56.40 Z" fill="url(#SVGID_1_)" fill-rule="nonzero" group-id="1,9" node-id="648" stroke="none" target-height="794.39996" target-width="548" target-x="90.7" target-y="32.4"/><g node-id="839"><path d="M 617.90 58.70 C 634.00 49.40 647.10 56.90 647.10 75.30 L 647.90 352.50 L 648.40 526.20 L 130.10 826.40 L 129.60 651.80 L 128.80 374.60 C 128.70 356.10 141.70 333.60 157.80 324.30 L 617.90 58.70 Z" fill="#fdfdfd" fill-rule="nonzero" group-id="1,9,12" node-id="652" stroke="none" target-height="777" target-width="519.7" target-x="128.7" target-y="49.4"/></g></g></g><g node-id="829"><g node-id="837"><path d="M 951.80 669.60 C 951.80 670.00 951.70 670.50 951.70 670.90 C 951.60 671.30 951.50 671.60 951.40 671.90 C 951.30 672.30 951.20 672.70 951.00 673.10 C 950.90 673.40 950.70 673.80 950.60 674.10 C 950.40 674.50 950.20 675.00 950.00 675.40 C 949.80 675.70 949.60 676.00 949.40 676.30 C 949.10 676.80 948.80 677.30 948.40 677.70 C 948.20 678.00 948.00 678.30 947.70 678.50 C 947.20 679.10 946.60 679.80 946.00 680.40 C 945.80 680.60 945.60 680.80 945.30 681.10 C 944.90 681.50 944.50 681.80 944.00 682.10 C 943.60 682.40 943.30 682.70 942.90 683.00 C 942.40 683.30 941.90 683.70 941.40 684.00 C 940.90 684.30 940.40 684.70 939.80 685.00 L 482.90 950.70 C 481.10 951.70 479.20 952.60 477.20 953.40 C 476.70 953.60 476.10 953.80 475.60 954.00 C 474.40 954.50 473.10 954.80 471.70 955.20 C 470.40 955.60 469.00 955.90 467.60 956.20 C 465.90 956.50 464.30 956.80 462.60 957.10 C 462.20 957.10 461.80 957.20 461.40 957.30 C 459.10 957.50 456.80 957.70 454.50 957.70 C 454.10 957.70 453.80 957.70 453.40 957.70 C 451.10 957.70 448.80 957.60 446.60 957.30 C 446.30 957.30 445.90 957.20 445.60 957.20 C 443.40 956.90 441.20 956.60 439.00 956.10 C 438.60 956.00 438.20 955.90 437.80 955.80 C 435.80 955.30 433.90 954.70 432.10 954.10 C 431.80 954.00 431.40 953.90 431.10 953.80 C 428.90 952.90 426.80 952.00 424.80 950.80 L 183.60 811.40 L 129.60 780.20 L 129.50 824.50 L 183.50 855.70 L 424.70 995.00 C 426.60 996.10 428.50 997.00 430.60 997.80 C 430.70 997.80 430.80 997.90 430.90 997.90 C 431.20 998.00 431.60 998.10 431.90 998.20 C 433.10 998.60 434.30 999.10 435.60 999.40 C 436.30 999.60 437.00 999.70 437.60 999.90 C 438.00 1000.00 438.40 1000.10 438.80 1000.20 C 439.20 1000.30 439.50 1000.40 439.90 1000.50 C 441.20 1000.80 442.60 1001.00 444.00 1001.20 C 444.50 1001.30 445.00 1001.30 445.40 1001.40 C 445.70 1001.40 446.10 1001.50 446.40 1001.50 C 446.90 1001.60 447.40 1001.60 447.90 1001.70 C 449.20 1001.80 450.60 1001.90 451.90 1001.90 C 452.30 1001.90 452.70 1001.90 453.10 1001.90 C 453.50 1001.90 453.80 1001.90 454.20 1001.90 C 454.80 1001.90 455.40 1001.90 456.10 1001.90 C 457.60 1001.80 459.10 1001.70 460.70 1001.60 C 460.90 1001.60 461.00 1001.50 461.20 1001.50 C 461.60 1001.50 462.00 1001.40 462.40 1001.30 C 463.60 1001.20 464.80 1001.00 465.90 1000.80 C 466.40 1000.70 466.90 1000.50 467.40 1000.40 C 468.80 1000.10 470.20 999.80 471.50 999.40 C 472.20 999.20 473.00 999.10 473.70 998.90 C 474.30 998.70 474.80 998.50 475.40 998.30 C 475.90 998.10 476.50 997.90 477.00 997.70 C 479.00 996.90 480.90 996.00 482.70 995.00 L 939.80 729.40 C 940.00 729.30 940.10 729.20 940.30 729.10 C 940.70 728.90 941.00 728.60 941.40 728.40 C 941.90 728.10 942.40 727.80 942.90 727.40 C 943.30 727.10 943.70 726.80 944.00 726.50 C 944.40 726.20 944.90 725.80 945.30 725.50 C 945.40 725.40 945.50 725.40 945.60 725.30 C 945.80 725.20 945.90 725.00 946.00 724.80 C 946.60 724.20 947.20 723.60 947.70 722.90 C 947.80 722.80 948.00 722.60 948.10 722.50 C 948.20 722.40 948.30 722.20 948.40 722.10 C 948.80 721.60 949.10 721.20 949.40 720.70 C 949.50 720.50 949.70 720.30 949.80 720.10 C 949.90 720.00 949.90 719.90 949.90 719.80 C 950.10 719.40 950.30 718.90 950.50 718.50 C 950.60 718.30 950.80 718.00 950.80 717.80 C 950.80 717.70 950.80 717.60 950.90 717.50 C 951.00 717.10 951.10 716.70 951.30 716.30 C 951.40 716.00 951.50 715.80 951.50 715.50 C 951.50 715.40 951.50 715.40 951.50 715.30 C 951.60 714.90 951.60 714.40 951.60 714.00 C 951.60 713.70 951.70 713.40 951.70 713.20 C 951.70 713.10 951.70 713.00 951.70 712.80 L 951.80 668.50 C 951.90 668.80 951.80 669.20 951.80 669.60 Z" fill="url(#SVGID_2_)" fill-rule="nonzero" group-id="2,10" node-id="661" stroke="none" target-height="333.40002" target-width="822.4" target-x="129.5" target-y="668.5"/><g node-id="840"><path d="M 939.70 651.40 C 955.80 660.70 955.90 675.70 939.90 685.00 L 482.90 950.70 C 466.90 960.00 440.90 960.00 424.80 950.70 L 183.60 811.40 L 129.60 780.20 L 644.50 481.00 L 698.50 512.20 L 939.70 651.40 Z" fill="url(#SVGID_3_)" fill-rule="nonzero" group-id="2,10,13" node-id="665" stroke="none" target-height="479" target-width="826.30005" target-x="129.6" target-y="481"/></g></g></g><g node-id="830"><path d="M 159.80 729.10 L 158.70 365.00 L 621.60 97.80 L 622.60 461.80 Z" fill="url(#SVGID_4_)" fill-rule="nonzero" group-id="3" node-id="672" stroke="none" target-height="631.3" target-width="463.89996" target-x="158.7" target-y="97.8"/></g><g node-id="831"><path d="M 551.90 205.30 C 560.50 200.40 567.50 204.40 567.50 214.20 L 567.50 216.10 C 567.50 225.90 560.60 238.00 552.00 242.90 L 225.40 431.40 C 216.80 436.30 209.80 432.30 209.80 422.60 L 209.80 420.70 C 209.80 410.90 216.70 398.80 225.30 393.90 L 551.90 205.30 Z" fill="url(#SVGID_5_)" fill-rule="nonzero" group-id="4" node-id="677" stroke="none" target-height="235.9" target-width="357.7" target-x="209.8" target-y="200.4"/></g><g node-id="832"><path d="M 563.70 299.90 C 572.30 295.00 579.30 299.00 579.30 308.80 L 579.30 310.60 C 579.30 320.40 572.40 332.50 563.80 337.40 L 237.10 526.00 C 228.60 530.90 221.60 526.90 221.50 517.10 L 221.50 515.30 C 221.50 505.50 228.40 493.40 237.00 488.50 L 563.70 299.90 Z" fill="url(#SVGID_6_)" fill-rule="nonzero" group-id="5" node-id="682" stroke="none" target-height="235.90002" target-width="357.8" target-x="221.5" target-y="295"/></g><g node-id="833"><path d="M 567.30 394.40 C 575.90 389.50 582.90 393.50 582.90 403.20 L 582.90 405.10 C 582.90 414.90 576.00 427.00 567.40 431.90 L 240.70 620.60 C 232.20 625.50 225.20 621.50 225.10 611.70 L 225.10 609.80 C 225.10 600.00 232.00 587.90 240.60 583.00 L 567.30 394.40 Z" fill="url(#SVGID_7_)" fill-rule="nonzero" group-id="6" node-id="687" stroke="none" target-height="236" target-width="357.80002" target-x="225.1" target-y="389.5"/></g><g node-id="834"><path d="M 550.70 636.90 L 521.40 620.00 L 492.20 636.90 L 521.60 653.90 Z" fill="url(#SVGID_8_)" fill-rule="nonzero" group-id="7" node-id="692" stroke="none" target-height="33.900024" target-width="58.5" target-x="492.2" target-y="620"/><path d="M 512.70 659.00 L 483.40 642.10 L 454.20 659.00 L 483.60 676.00 Z" fill="url(#SVGID_9_)" fill-rule="nonzero" group-id="7" node-id="694" stroke="none" target-height="33.900024" target-width="58.5" target-x="454.2" target-y="642.1"/><path d="M 534.10 661.10 L 563.40 678.10 L 592.60 661.10 L 563.20 644.20 Z" fill="url(#SVGID_10_)" fill-rule="nonzero" group-id="7" node-id="696" stroke="none" target-height="33.899963" target-width="58.5" target-x="534.1" target-y="644.2"/><path d="M 496.10 683.20 L 525.40 700.10 L 554.60 683.20 L 525.20 666.30 Z" fill="url(#SVGID_11_)" fill-rule="nonzero" group-id="7" node-id="698" stroke="none" target-height="33.799988" target-width="58.49997" target-x="496.1" target-y="666.3"/><path d="M 668.50 617.00 L 639.10 600.00 L 610.00 617.00 L 639.40 633.90 Z" fill="url(#SVGID_12_)" fill-rule="nonzero" group-id="7" node-id="700" stroke="none" target-height="33.900024" target-width="58.5" target-x="610" target-y="600"/><path d="M 458.10 705.20 L 487.50 722.20 L 516.60 705.30 L 487.20 688.30 Z" fill="url(#SVGID_13_)" fill-rule="nonzero" group-id="7" node-id="702" stroke="none" target-height="33.900024" target-width="58.49997" target-x="458.1" target-y="688.3"/><path d="M 572.00 639.00 L 601.40 656.00 L 630.50 639.10 L 601.20 622.10 Z" fill="url(#SVGID_14_)" fill-rule="nonzero" group-id="7" node-id="704" stroke="none" target-height="33.900024" target-width="58.5" target-x="572" target-y="622.1"/><path d="M 474.70 681.10 L 445.40 664.20 L 416.30 681.10 L 445.60 698.00 Z" fill="url(#SVGID_15_)" fill-rule="nonzero" group-id="7" node-id="706" stroke="none" target-height="33.799988" target-width="58.400024" target-x="416.3" target-y="664.2"/><path d="M 436.70 703.20 L 407.40 686.20 L 378.30 703.20 L 407.60 720.10 Z" fill="url(#SVGID_16_)" fill-rule="nonzero" group-id="7" node-id="708" stroke="none" target-height="33.899963" target-width="58.400024" target-x="378.3" target-y="686.2"/><path d="M 398.80 725.20 L 369.40 708.30 L 340.30 725.20 L 369.60 742.20 Z" fill="url(#SVGID_17_)" fill-rule="nonzero" group-id="7" node-id="710" stroke="none" target-height="33.900024" target-width="58.5" target-x="340.3" target-y="708.3"/><path d="M 344.20 771.50 L 373.50 788.40 L 402.70 771.50 L 373.30 754.50 Z" fill="url(#SVGID_18_)" fill-rule="nonzero" group-id="7" node-id="712" stroke="none" target-height="33.900024" target-width="58.5" target-x="344.2" target-y="754.5"/><path d="M 360.80 747.30 L 331.50 730.40 L 302.30 747.30 L 331.70 764.20 Z" fill="url(#SVGID_19_)" fill-rule="nonzero" group-id="7" node-id="714" stroke="none" target-height="33.799988" target-width="58.5" target-x="302.3" target-y="730.4"/><path d="M 588.70 614.90 L 559.30 598.00 L 530.20 614.90 L 559.50 631.80 Z" fill="url(#SVGID_20_)" fill-rule="nonzero" group-id="7" node-id="716" stroke="none" target-height="33.799988" target-width="58.5" target-x="530.2" target-y="598"/><path d="M 420.10 727.30 L 449.50 744.30 L 478.60 727.30 L 449.20 710.40 Z" fill="url(#SVGID_21_)" fill-rule="nonzero" group-id="7" node-id="718" stroke="none" target-height="33.899963" target-width="58.5" target-x="420.1" target-y="710.4"/><path d="M 440.60 749.40 L 411.30 732.50 L 382.10 749.40 L 411.50 766.30 Z" fill="url(#SVGID_22_)" fill-rule="nonzero" group-id="7" node-id="720" stroke="none" target-height="33.799988" target-width="58.5" target-x="382.1" target-y="732.5"/><path d="M 522.20 752.00 L 492.90 735.10 L 463.80 752.00 L 493.10 768.90 Z" fill="url(#SVGID_23_)" fill-rule="nonzero" group-id="7" node-id="722" stroke="none" target-height="33.80005" target-width="58.400024" target-x="463.8" target-y="735.1"/><path d="M 484.30 774.10 L 454.90 757.10 L 425.80 774.10 L 455.10 791.00 Z" fill="url(#SVGID_24_)" fill-rule="nonzero" group-id="7" node-id="724" stroke="none" target-height="33.900024" target-width="58.5" target-x="425.8" target-y="757.1"/><path d="M 598.20 707.90 L 568.90 690.90 L 539.70 707.90 L 569.10 724.80 Z" fill="url(#SVGID_25_)" fill-rule="nonzero" group-id="7" node-id="726" stroke="none" target-height="33.899963" target-width="58.5" target-x="539.7" target-y="690.9"/><path d="M 560.20 729.90 L 530.90 713.00 L 501.80 729.90 L 531.10 746.90 Z" fill="url(#SVGID_26_)" fill-rule="nonzero" group-id="7" node-id="728" stroke="none" target-height="33.900024" target-width="58.400024" target-x="501.8" target-y="713"/><path d="M 636.20 685.80 L 606.80 668.90 L 577.70 685.80 L 607.00 702.70 Z" fill="url(#SVGID_27_)" fill-rule="nonzero" group-id="7" node-id="730" stroke="none" target-height="33.799988" target-width="58.5" target-x="577.7" target-y="668.9"/><path d="M 712.10 641.70 L 682.80 624.70 L 653.70 641.70 L 683.00 658.60 Z" fill="url(#SVGID_28_)" fill-rule="nonzero" group-id="7" node-id="732" stroke="none" target-height="33.899963" target-width="58.399963" target-x="653.7" target-y="624.7"/><path d="M 674.20 663.70 L 644.80 646.80 L 615.70 663.70 L 645.00 680.70 Z" fill="url(#SVGID_29_)" fill-rule="nonzero" group-id="7" node-id="734" stroke="none" target-height="33.900024" target-width="58.5" target-x="615.7" target-y="646.8"/><path d="M 226.40 791.50 L 255.70 808.40 L 284.80 791.50 L 255.50 774.50 Z" fill="url(#SVGID_30_)" fill-rule="nonzero" group-id="7" node-id="736" stroke="none" target-height="33.900024" target-width="58.399994" target-x="226.4" target-y="774.5"/><path d="M 335.30 776.60 L 306.20 793.50 L 335.50 810.50 L 364.70 793.60 Z" fill="url(#SVGID_31_)" fill-rule="nonzero" group-id="7" node-id="738" stroke="none" target-height="33.900024" target-width="58.5" target-x="306.2" target-y="776.6"/><path d="M 293.50 752.50 L 264.30 769.40 L 293.70 786.30 L 322.80 769.40 Z" fill="url(#SVGID_32_)" fill-rule="nonzero" group-id="7" node-id="740" stroke="none" target-height="33.799988" target-width="58.5" target-x="264.3" target-y="752.5"/><path d="M 620.50 711.00 L 649.80 727.90 L 679.00 711.00 L 649.60 694.10 Z" fill="url(#SVGID_33_)" fill-rule="nonzero" group-id="7" node-id="742" stroke="none" target-height="33.80005" target-width="58.5" target-x="620.5" target-y="694.1"/><path d="M 582.50 733.10 L 611.80 750.00 L 641.00 733.10 L 611.60 716.10 Z" fill="url(#SVGID_34_)" fill-rule="nonzero" group-id="7" node-id="744" stroke="none" target-height="33.900024" target-width="58.5" target-x="582.5" target-y="716.1"/><path d="M 544.50 755.10 L 573.80 772.10 L 603.00 755.10 L 573.70 738.20 Z" fill="url(#SVGID_35_)" fill-rule="nonzero" group-id="7" node-id="746" stroke="none" target-height="33.899963" target-width="58.5" target-x="544.5" target-y="738.2"/><path d="M 626.60 592.80 L 597.30 575.90 L 568.20 592.80 L 597.50 609.80 Z" fill="url(#SVGID_36_)" fill-rule="nonzero" group-id="7" node-id="748" stroke="none" target-height="33.899963" target-width="58.399963" target-x="568.2" target-y="575.9"/><path d="M 702.60 548.70 L 673.30 531.70 L 644.10 548.70 L 673.50 565.60 Z" fill="url(#SVGID_37_)" fill-rule="nonzero" group-id="7" node-id="750" stroke="none" target-height="33.899963" target-width="58.5" target-x="644.1" target-y="531.7"/><path d="M 721.00 636.50 L 750.10 619.60 L 720.80 602.60 L 691.70 619.60 Z" fill="url(#SVGID_38_)" fill-rule="nonzero" group-id="7" node-id="752" stroke="none" target-height="33.900024" target-width="58.399963" target-x="691.7" target-y="602.6"/><path d="M 648.00 594.90 L 677.40 611.80 L 706.50 594.90 L 677.10 578.00 Z" fill="url(#SVGID_39_)" fill-rule="nonzero" group-id="7" node-id="754" stroke="none" target-height="33.799988" target-width="58.5" target-x="648" target-y="578"/><path d="M 664.60 570.70 L 635.30 553.80 L 606.20 570.70 L 635.50 587.70 Z" fill="url(#SVGID_40_)" fill-rule="nonzero" group-id="7" node-id="756" stroke="none" target-height="33.900024" target-width="58.399963" target-x="606.2" target-y="553.8"/><path d="M 658.50 688.90 L 687.80 705.90 L 716.90 688.90 L 687.60 672.00 Z" fill="url(#SVGID_41_)" fill-rule="nonzero" group-id="7" node-id="758" stroke="none" target-height="33.900024" target-width="58.400024" target-x="658.5" target-y="672"/><path d="M 506.50 777.20 L 535.80 794.20 L 565.00 777.20 L 535.70 760.30 Z" fill="url(#SVGID_42_)" fill-rule="nonzero" group-id="7" node-id="760" stroke="none" target-height="33.900024" target-width="58.5" target-x="506.5" target-y="760.3"/><path d="M 468.60 799.30 L 497.90 816.20 L 527.00 799.30 L 497.70 782.40 Z" fill="url(#SVGID_43_)" fill-rule="nonzero" group-id="7" node-id="762" stroke="none" target-height="33.799988" target-width="58.399994" target-x="468.6" target-y="782.4"/><path d="M 430.60 821.40 L 459.90 838.30 L 489.10 821.40 L 459.70 804.40 Z" fill="url(#SVGID_44_)" fill-rule="nonzero" group-id="7" node-id="764" stroke="none" target-height="33.899963" target-width="58.5" target-x="430.6" target-y="804.4"/><path d="M 416.90 779.20 L 387.80 796.20 L 417.10 813.10 L 446.30 796.20 Z" fill="url(#SVGID_45_)" fill-rule="nonzero" group-id="7" node-id="766" stroke="none" target-height="33.899963" target-width="58.5" target-x="387.8" target-y="779.2"/><path d="M 349.80 818.20 L 379.20 835.20 L 408.30 818.20 L 379.00 801.30 Z" fill="url(#SVGID_46_)" fill-rule="nonzero" group-id="7" node-id="768" stroke="none" target-height="33.900024" target-width="58.5" target-x="349.8" target-y="801.3"/><path d="M 725.60 649.90 L 696.40 666.90 L 725.70 683.80 L 754.90 666.90 Z" fill="url(#SVGID_47_)" fill-rule="nonzero" group-id="7" node-id="770" stroke="none" target-height="33.899963" target-width="58.5" target-x="696.4" target-y="649.9"/></g><g node-id="835"><g node-id="838"><g node-id="841"><path d="M 595.70 641.90 L 514.50 594.70 L 558.30 518.80 L 639.40 566.00 Z" fill="url(#SVGID_48_)" fill-rule="nonzero" group-id="8,11,14" node-id="779" stroke="none" target-height="123.10004" target-width="124.900024" target-x="514.5" target-y="518.8"/></g><g node-id="842"><path d="M 595.70 541.10 L 514.50 493.90 L 558.30 518.80 L 639.40 566.00 Z" fill="url(#SVGID_49_)" fill-rule="nonzero" group-id="8,11,15" node-id="784" stroke="none" target-height="72.100006" target-width="124.900024" target-x="514.5" target-y="493.9"/></g><g node-id="843"><path d="M 595.70 541.10 L 514.50 493.90 L 628.30 296.90 L 709.50 344.10 Z" fill="url(#SVGID_50_)" fill-rule="nonzero" group-id="8,11,16" node-id="789" stroke="none" target-height="244.19998" target-width="195" target-x="514.5" target-y="296.9"/></g><g node-id="844"><path d="M 709.50 344.10 L 628.30 296.90 L 672.80 322.20 L 754.00 369.40 Z" fill="url(#SVGID_51_)" fill-rule="nonzero" group-id="8,11,17" node-id="794" stroke="none" target-height="72.5" target-width="125.70001" target-x="628.3" target-y="296.9"/></g><g node-id="845"><path d="M 493.40 584.60 L 412.20 537.40 L 456.70 562.70 L 537.90 609.90 Z" fill="url(#SVGID_52_)" fill-rule="nonzero" group-id="8,11,18" node-id="799" stroke="none" target-height="72.5" target-width="125.70001" target-x="412.2" target-y="537.4"/></g><g node-id="846"><path d="M 582.10 533.30 L 500.90 486.10 L 514.50 493.90 L 595.70 541.10 Z" fill="url(#SVGID_53_)" fill-rule="nonzero" group-id="8,11,19" node-id="804" stroke="none" target-height="54.99997" target-width="94.80002" target-x="500.9" target-y="486.1"/></g><g node-id="847"><path d="M 786.50 257.90 C 788.80 256.60 791.10 257.20 791.10 260.50 L 791.40 377.60 C 791.40 381.10 789.10 384.50 786.70 385.90 C 785.50 386.60 784.30 386.80 783.30 386.20 L 754.00 369.40 L 709.50 344.00 L 681.20 327.90 C 678.30 326.30 680.60 319.00 684.60 316.60 L 786.50 257.90 Z" fill="url(#SVGID_54_)" fill-rule="nonzero" group-id="8,11,20" node-id="809" stroke="none" target-height="130.19998" target-width="113.10004" target-x="678.3" target-y="256.6"/></g><path d="M 708.60 210.30 C 708.60 210.30 708.60 210.30 708.60 210.30 C 708.50 210.20 708.40 210.20 708.40 210.20 C 708.30 210.20 708.20 210.10 708.20 210.10 C 708.10 210.10 708.00 210.10 707.90 210.00 C 707.80 210.00 707.70 210.00 707.60 210.00 C 707.50 210.00 707.40 210.00 707.30 210.00 C 707.20 210.00 707.20 210.00 707.10 210.00 C 707.10 210.00 707.10 210.00 707.10 210.00 C 707.10 210.00 707.00 210.00 707.00 210.00 C 706.90 210.00 706.70 210.10 706.60 210.10 C 706.40 210.10 706.20 210.20 706.00 210.30 C 705.80 210.40 705.60 210.50 705.30 210.60 L 603.40 269.40 C 602.90 269.70 602.40 270.10 601.90 270.50 C 601.90 270.50 601.90 270.50 601.90 270.50 C 601.70 270.70 601.60 270.80 601.40 271.00 C 601.30 271.10 601.10 271.30 601.00 271.50 C 600.90 271.60 600.80 271.70 600.70 271.90 C 600.70 271.90 600.70 271.90 600.70 271.90 C 600.70 271.90 600.70 271.90 600.70 271.90 C 600.60 272.00 600.50 272.20 600.40 272.30 C 600.30 272.40 600.20 272.60 600.10 272.70 C 600.00 272.80 599.90 273.00 599.90 273.10 C 599.80 273.20 599.80 273.30 599.70 273.40 C 599.70 273.40 599.70 273.40 599.70 273.40 C 599.70 273.40 599.70 273.40 599.70 273.50 C 599.60 273.60 599.60 273.80 599.50 273.90 C 599.40 274.10 599.40 274.20 599.30 274.40 C 599.20 274.60 599.20 274.70 599.10 274.90 C 599.10 275.00 599.10 275.00 599.00 275.10 C 599.00 275.10 599.00 275.20 599.00 275.20 C 599.00 275.30 598.90 275.40 598.90 275.50 C 598.80 275.70 598.80 275.90 598.80 276.10 C 598.70 276.30 598.70 276.60 598.70 276.80 C 598.70 276.80 598.70 276.80 598.70 276.80 C 598.70 276.90 598.70 276.90 598.70 277.00 C 598.70 277.40 598.70 277.80 598.70 278.20 C 598.70 278.30 598.70 278.50 598.80 278.60 C 598.90 278.90 598.90 279.20 599.10 279.40 C 599.10 279.50 599.20 279.60 599.30 279.70 C 599.50 280.00 599.70 280.30 600.10 280.50 L 681.30 327.70 C 681.00 327.50 680.70 327.20 680.50 326.90 C 680.40 326.80 680.40 326.70 680.30 326.60 C 680.20 326.30 680.10 326.10 680.00 325.80 C 680.00 325.70 679.90 325.50 679.90 325.40 C 679.90 325.00 679.90 324.60 679.90 324.20 C 679.90 324.10 679.90 324.10 679.90 324.00 C 680.00 323.50 680.10 322.90 680.30 322.40 C 680.30 322.40 680.30 322.30 680.30 322.30 C 680.50 321.70 680.70 321.20 681.00 320.60 C 681.00 320.60 681.00 320.60 681.00 320.60 C 681.30 320.00 681.60 319.50 682.00 319.00 C 682.00 319.00 682.00 319.00 682.00 319.00 C 682.40 318.50 682.80 318.00 683.20 317.60 C 683.70 317.20 684.10 316.80 684.70 316.50 L 786.60 257.70 C 787.20 257.40 787.80 257.10 788.40 257.10 C 788.40 257.10 788.40 257.10 788.40 257.10 C 789.00 257.00 789.50 257.10 789.90 257.40 L 708.60 210.30 Z" fill="url(#SVGID_55_)" fill-rule="nonzero" group-id="8,11" node-id="812" stroke="none" target-height="117.70001" target-width="191.20001" target-x="598.7" target-y="210"/><path d="M 709.50 344.10 L 595.70 541.10 L 582.10 533.30 L 537.40 507.80 L 493.40 584.60 L 394.90 755.10 L 439.40 780.50 L 537.90 609.90 L 595.20 642.60 L 595.70 641.90 L 595.70 641.90 L 596.40 642.30 L 754.00 369.40 Z" fill="url(#SVGID_56_)" fill-rule="nonzero" group-id="8,11" node-id="814" stroke="none" target-height="436.4" target-width="359.1" target-x="394.9" target-y="344.1"/><path d="M 537.40 507.80 L 456.20 460.70 L 500.90 486.10 L 582.10 533.30 Z" fill="url(#SVGID_57_)" fill-rule="nonzero" group-id="8,11,21" node-id="818" stroke="none" target-height="72.599976" target-width="125.89996" target-x="456.2" target-y="460.7"/><path d="M 537.60 508.00 L 456.40 460.80 L 501.00 486.00 L 582.20 533.20 Z" fill="url(#SVGID_58_)" fill-rule="nonzero" group-id="8,11,22" node-id="823" stroke="none" target-height="72.400024" target-width="125.80002" target-x="456.4" target-y="460.8"/><path d="M 456.20 460.70 L 412.20 537.40 L 313.70 708.00 L 394.90 755.10 L 493.40 584.60 L 537.40 507.80 Z" fill="url(#SVGID_59_)" fill-rule="nonzero" group-id="8,11" node-id="826" stroke="none" target-height="294.39996" target-width="223.70001" target-x="313.7" target-y="460.7"/></g></g></svg>