<svg height="1024" node-id="1" sillyvg="true" template-height="1024" template-width="1024" version="1.1" viewBox="0 0 1024 1024" width="1024" xmlns="http://www.w3.org/2000/svg" xmlns:xlink="http://www.w3.org/1999/xlink"><defs node-id="140"><linearGradient gradientUnits="userSpaceOnUse" id="SVGID_1_" node-id="27" spreadMethod="pad" x1="41.608" x2="987.4011" y1="837.2914" y2="837.2914"><stop offset="0" stop-color="#f6f6f9"/><stop offset="1" stop-color="#d7d8d5"/></linearGradient><linearGradient gradientUnits="userSpaceOnUse" id="SVGID_2_" node-id="32" spreadMethod="pad" x1="41.7836" x2="987.4011" y1="669.5198" y2="669.5198"><stop offset="0" stop-color="#d7d8d5"/><stop offset="1" stop-color="#f6f6f9"/></linearGradient><linearGradient gradientUnits="userSpaceOnUse" id="SVGID_3_" node-id="39" spreadMethod="pad" x1="206.3806" x2="596.2081" y1="381.9191" y2="381.9191"><stop offset="0" stop-color="#ffa21e"/><stop offset="1" stop-color="#ffcb27"/></linearGradient><linearGradient gradientUnits="userSpaceOnUse" id="SVGID_4_" node-id="44" spreadMethod="pad" x1="255.5682" x2="605.2999" y1="397.1077" y2="397.1077"><stop offset="0" stop-color="#ffa21e"/><stop offset="1" stop-color="#ffcb27"/></linearGradient><linearGradient gradientUnits="userSpaceOnUse" id="SVGID_13_" node-id="83" spreadMethod="pad" x1="608.2388" x2="744.7322" y1="595.8129" y2="595.8129"><stop offset="0" stop-color="#ed5833"/><stop offset="1" stop-color="#ff7b45"/></linearGradient><linearGradient gradientUnits="userSpaceOnUse" id="SVGID_14_" node-id="88" spreadMethod="pad" x1="608.3171" x2="744.7321" y1="540.7745" y2="540.7745"><stop offset="0" stop-color="#ed5833"/><stop offset="1" stop-color="#ff7b45"/></linearGradient><linearGradient gradientUnits="userSpaceOnUse" id="SVGID_15_" node-id="93" spreadMethod="pad" x1="608.317" x2="821.2341" y1="419.5833" y2="419.5833"><stop offset="0" stop-color="#ed5833"/><stop offset="1" stop-color="#ff7b45"/></linearGradient><linearGradient gradientUnits="userSpaceOnUse" id="SVGID_16_" node-id="98" spreadMethod="pad" x1="732.5627" x2="869.8387" y1="325.8454" y2="325.8454"><stop offset="0" stop-color="#ed5833"/><stop offset="1" stop-color="#ff7b45"/></linearGradient><linearGradient gradientUnits="userSpaceOnUse" id="SVGID_17_" node-id="103" spreadMethod="pad" x1="496.5103" x2="633.7818" y1="588.4915" y2="588.4915"><stop offset="0" stop-color="#ed5833"/><stop offset="1" stop-color="#ff7b45"/></linearGradient><linearGradient gradientUnits="userSpaceOnUse" id="SVGID_18_" node-id="108" spreadMethod="pad" x1="593.4037" x2="696.9885" y1="522.9211" y2="522.9211"><stop offset="0" stop-color="#ed5833"/><stop offset="1" stop-color="#ff7b45"/></linearGradient><linearGradient gradientUnits="userSpaceOnUse" id="SVGID_19_" node-id="113" spreadMethod="pad" x1="788.9074" x2="910.7299" y1="313.5083" y2="313.5083"><stop offset="0" stop-color="#ed5833"/><stop offset="1" stop-color="#ff7b45"/></linearGradient><linearGradient gradientUnits="userSpaceOnUse" id="SVGID_20_" node-id="117" spreadMethod="pad" x1="700.2565" x2="908.958" y1="255.765" y2="255.765"><stop offset="0" stop-color="#ed5833"/><stop offset="1" stop-color="#ff7b45"/></linearGradient><linearGradient gradientUnits="userSpaceOnUse" id="SVGID_21_" node-id="121" spreadMethod="pad" x1="477.6281" x2="869.8387" y1="576.0686" y2="576.0686"><stop offset="0" stop-color="#ed5833"/><stop offset="1" stop-color="#ff7b45"/></linearGradient><linearGradient gradientUnits="userSpaceOnUse" id="SVGID_22_" node-id="126" spreadMethod="pad" x1="544.5807" x2="682.075" y1="504.7604" y2="504.7604"><stop offset="0" stop-color="#ed5833"/><stop offset="1" stop-color="#ff7b45"/></linearGradient><linearGradient gradientUnits="userSpaceOnUse" id="SVGID_23_" node-id="131" spreadMethod="pad" x1="544.8159" x2="682.175" y1="504.7407" y2="504.7407"><stop offset="0" stop-color="#ed5833"/><stop offset="1" stop-color="#ff7b45"/></linearGradient><linearGradient gradientUnits="userSpaceOnUse" id="SVGID_24_" node-id="135" spreadMethod="pad" x1="388.9567" x2="633.2522" y1="625.8953" y2="625.8953"><stop offset="0" stop-color="#ed5833"/><stop offset="1" stop-color="#ff7b45"/></linearGradient></defs><g node-id="375"><g node-id="382"><path d="M 987.20 671.60 C 987.10 672.30 987.10 673.00 987.00 673.60 C 986.90 674.20 986.70 674.70 986.60 675.20 C 986.40 675.80 986.30 676.50 986.00 677.10 C 985.80 677.60 985.60 678.10 985.30 678.70 C 985.00 679.40 984.70 680.00 984.40 680.70 C 984.10 681.20 983.80 681.70 983.50 682.10 C 983.00 682.90 982.50 683.60 982.00 684.30 C 981.70 684.70 981.30 685.20 981.00 685.60 C 980.20 686.60 979.30 687.60 978.30 688.50 C 977.90 688.80 977.60 689.20 977.20 689.50 C 976.60 690.10 975.90 690.60 975.20 691.10 C 974.60 691.60 974.00 692.10 973.40 692.50 C 972.70 693.00 971.90 693.50 971.10 694.00 C 970.30 694.50 969.50 695.10 968.70 695.60 L 561.50 932.50 C 559.60 933.60 557.50 934.60 555.40 935.60 C 554.80 935.90 554.20 936.10 553.60 936.40 C 552.00 937.10 550.30 937.70 548.50 938.30 C 547.90 938.50 547.30 938.70 546.70 938.90 C 545.60 939.20 544.50 939.50 543.40 939.80 C 542.60 940.00 541.70 940.30 540.90 940.50 C 539.70 940.80 538.50 941.00 537.40 941.30 C 536.60 941.50 535.80 941.60 535.00 941.80 C 532.60 942.20 530.20 942.60 527.70 942.80 C 526.90 942.90 526.20 942.90 525.40 943.00 C 524.00 943.10 522.50 943.20 521.10 943.30 C 520.20 943.30 519.20 943.40 518.30 943.40 C 517.10 943.40 516.00 943.40 514.80 943.40 C 513.80 943.40 512.80 943.40 511.80 943.30 C 510.70 943.30 509.60 943.20 508.60 943.10 C 507.60 943.00 506.60 942.90 505.60 942.90 C 504.50 942.80 503.50 942.70 502.40 942.50 C 501.40 942.40 500.50 942.20 499.50 942.10 C 498.40 941.90 497.20 941.70 496.10 941.50 C 495.20 941.30 494.30 941.20 493.40 941.00 C 492.10 940.70 490.70 940.40 489.40 940.00 C 488.70 939.80 487.90 939.60 487.20 939.40 C 484.80 938.70 482.50 937.90 480.30 937.10 C 479.20 936.70 478.10 936.20 477.00 935.70 C 476.50 935.50 475.90 935.20 475.40 935.00 C 473.80 934.20 472.20 933.40 470.70 932.50 L 60.80 695.80 C 54.50 692.10 49.70 687.90 46.50 683.40 C 43.30 678.90 41.80 674.10 41.80 669.30 L 41.60 731.20 C 41.60 740.80 47.90 750.40 60.60 757.70 L 470.50 994.30 C 472.00 995.20 473.60 996.00 475.20 996.80 C 475.70 997.10 476.30 997.30 476.80 997.50 C 477.80 997.90 478.70 998.40 479.70 998.80 C 479.80 998.80 479.90 998.90 480.10 998.90 C 482.30 999.80 484.60 1000.50 487.00 1001.20 C 487.20 1001.30 487.40 1001.30 487.60 1001.40 C 488.10 1001.60 488.70 1001.70 489.20 1001.80 C 490.50 1002.10 491.80 1002.50 493.20 1002.80 C 493.60 1002.90 493.90 1003.00 494.30 1003.10 C 494.80 1003.20 495.40 1003.30 495.90 1003.40 C 497.00 1003.60 498.20 1003.80 499.30 1004.00 C 499.80 1004.10 500.20 1004.20 500.70 1004.20 C 501.20 1004.30 501.70 1004.30 502.20 1004.40 C 503.30 1004.50 504.30 1004.70 505.40 1004.80 C 505.90 1004.80 506.40 1004.90 506.90 1005.00 C 507.40 1005.00 507.90 1005.00 508.30 1005.10 C 509.40 1005.20 510.50 1005.20 511.50 1005.30 C 512.00 1005.30 512.60 1005.40 513.10 1005.40 C 513.50 1005.40 514.00 1005.40 514.40 1005.40 C 515.60 1005.40 516.70 1005.40 517.90 1005.40 C 518.50 1005.40 519.10 1005.40 519.60 1005.40 C 519.90 1005.40 520.30 1005.30 520.60 1005.30 C 522.10 1005.20 523.50 1005.10 524.90 1005.00 C 525.50 1005.00 526.10 1004.90 526.70 1004.90 C 526.90 1004.90 527.10 1004.80 527.20 1004.80 C 529.70 1004.50 532.10 1004.20 534.50 1003.80 C 534.60 1003.80 534.70 1003.80 534.90 1003.80 C 535.60 1003.70 536.30 1003.50 537.00 1003.40 C 538.20 1003.20 539.40 1002.90 540.50 1002.60 C 541.40 1002.40 542.20 1002.20 543.00 1001.90 C 544.10 1001.60 545.20 1001.30 546.30 1001.00 C 546.50 1000.90 546.80 1000.90 547.00 1000.80 C 547.40 1000.70 547.70 1000.50 548.10 1000.40 C 549.80 999.80 551.50 999.20 553.20 998.50 C 553.80 998.20 554.40 998.00 555.00 997.70 C 557.10 996.80 559.10 995.80 561.10 994.60 L 968.30 758.00 C 968.60 757.80 968.80 757.70 969.10 757.50 C 969.70 757.10 970.20 756.80 970.80 756.40 C 971.60 755.90 972.40 755.40 973.10 754.90 C 973.70 754.40 974.30 754.00 974.90 753.50 C 975.60 753.00 976.30 752.40 976.90 751.90 C 977.00 751.80 977.20 751.70 977.30 751.60 C 977.60 751.40 977.70 751.10 978.00 750.90 C 979.00 749.90 979.90 749.00 980.70 748.00 C 980.90 747.80 981.10 747.60 981.30 747.40 C 981.50 747.20 981.60 747.00 981.70 746.70 C 982.30 746.00 982.70 745.20 983.20 744.50 C 983.40 744.20 983.70 743.90 983.80 743.60 C 983.90 743.40 983.90 743.30 984.00 743.10 C 984.40 742.40 984.60 741.80 984.90 741.10 C 985.10 740.70 985.30 740.30 985.40 739.90 C 985.40 739.80 985.50 739.60 985.50 739.50 C 985.70 738.90 985.90 738.20 986.10 737.60 C 986.20 737.20 986.40 736.70 986.50 736.30 C 986.50 736.20 986.50 736.10 986.50 736.00 C 986.60 735.30 986.70 734.70 986.70 734.00 C 986.70 733.60 986.80 733.10 986.90 732.70 C 986.90 732.50 986.90 732.30 986.90 732.10 L 987.10 670.20 C 987.40 670.30 987.30 671.00 987.20 671.60 Z" fill="url(#SVGID_1_)" fill-rule="nonzero" group-id="1,8" node-id="243" stroke="none" target-height="336.10004" target-width="945.80005" target-x="41.6" target-y="669.3"/><g node-id="389"><path d="M 968.40 643.20 C 993.60 657.70 993.70 681.30 968.70 695.80 L 561.50 932.50 C 536.50 947.00 495.80 947.00 470.60 932.50 L 60.80 695.80 C 35.60 681.30 35.50 657.70 60.50 643.10 L 467.70 406.50 C 492.70 392.00 533.40 392.00 558.60 406.50 L 968.40 643.20 Z" fill="url(#SVGID_2_)" fill-rule="nonzero" group-id="1,8,15" node-id="247" stroke="none" target-height="555" target-width="958.2" target-x="35.5" target-y="392"/></g></g></g><g node-id="376"><g node-id="383"><g node-id="390"><path d="M 581.60 48.20 C 582.20 48.00 582.90 47.70 583.50 47.60 C 583.90 47.50 584.30 47.40 584.70 47.30 C 585.10 47.20 585.40 47.10 585.80 47.10 C 586.30 47.00 586.80 46.90 587.20 46.90 C 587.50 46.90 587.70 46.80 588.00 46.80 C 588.60 46.80 589.20 46.70 589.70 46.80 C 589.80 46.80 590.00 46.80 590.10 46.80 C 590.80 46.80 591.40 46.90 592.10 47.00 C 592.30 47.00 592.40 47.10 592.60 47.10 C 593.10 47.20 593.60 47.40 594.10 47.50 C 594.30 47.60 594.40 47.60 594.60 47.70 C 595.20 47.90 595.80 48.20 596.30 48.50 L 547.00 19.80 C 547.00 19.80 546.90 19.70 546.90 19.70 C 546.50 19.50 546.00 19.20 545.60 19.00 C 545.50 19.00 545.40 18.90 545.30 18.90 C 545.20 18.80 545.00 18.80 544.90 18.70 C 544.70 18.60 544.40 18.50 544.20 18.50 C 543.90 18.40 543.70 18.40 543.40 18.30 C 543.20 18.30 543.10 18.20 542.90 18.20 C 542.80 18.20 542.70 18.20 542.60 18.10 C 542.10 18.00 541.50 17.90 541.00 17.90 C 541.00 17.90 540.90 17.90 540.90 17.90 C 540.80 17.90 540.60 17.90 540.50 17.90 C 540.10 17.90 539.70 17.90 539.20 17.90 C 539.10 17.90 538.90 17.90 538.80 17.90 C 538.50 17.90 538.30 17.90 538.00 18.00 C 537.70 18.00 537.50 18.00 537.30 18.10 C 537.10 18.10 536.90 18.20 536.60 18.20 C 536.20 18.30 535.90 18.30 535.50 18.40 C 535.30 18.40 535.10 18.50 534.90 18.50 C 534.70 18.60 534.50 18.60 534.30 18.70 C 533.70 18.90 533.10 19.10 532.40 19.40 C 532.20 19.50 532.00 19.50 531.70 19.60 C 531.60 19.70 531.40 19.70 531.30 19.80 C 530.20 20.30 529.10 20.80 527.90 21.50 L 233.00 192.00 C 231.60 192.80 230.20 193.80 228.80 194.80 C 228.60 195.00 228.30 195.10 228.10 195.30 C 226.80 196.30 225.60 197.40 224.30 198.60 C 224.20 198.70 224.10 198.80 224.00 198.90 C 223.80 199.10 223.60 199.30 223.40 199.50 C 222.80 200.10 222.20 200.70 221.60 201.40 C 221.40 201.60 221.20 201.80 221.00 202.00 C 220.80 202.20 220.70 202.40 220.60 202.50 C 220.20 202.90 219.90 203.30 219.60 203.80 C 219.40 204.10 219.10 204.30 218.90 204.60 C 218.70 204.80 218.60 205.10 218.40 205.30 C 218.20 205.60 217.90 206.00 217.70 206.30 C 217.50 206.50 217.40 206.80 217.20 207.00 C 216.90 207.40 216.70 207.80 216.40 208.20 C 216.20 208.50 216.10 208.70 215.90 209.00 C 215.80 209.10 215.80 209.20 215.70 209.30 C 215.20 210.00 214.80 210.80 214.30 211.60 C 214.30 211.70 214.20 211.70 214.20 211.80 C 214.10 211.90 214.00 212.10 214.00 212.20 C 213.70 212.70 213.40 213.30 213.10 213.80 C 213.00 214.10 212.80 214.30 212.70 214.60 C 212.60 214.90 212.40 215.10 212.30 215.40 C 212.20 215.60 212.10 215.90 211.90 216.10 C 211.60 216.70 211.30 217.40 211.00 218.00 C 210.90 218.10 210.90 218.20 210.80 218.30 C 210.80 218.30 210.80 218.40 210.80 218.40 C 210.50 219.20 210.10 220.00 209.80 220.80 C 209.70 220.90 209.70 221.10 209.60 221.20 C 209.50 221.50 209.40 221.80 209.30 222.10 C 209.20 222.50 209.00 222.90 208.90 223.30 C 208.80 223.60 208.70 223.90 208.60 224.20 C 208.50 224.60 208.40 224.90 208.30 225.30 C 208.20 225.50 208.20 225.80 208.10 226.00 C 208.00 226.40 207.90 226.80 207.80 227.20 C 207.70 227.70 207.60 228.10 207.50 228.60 C 207.50 228.80 207.40 228.90 207.40 229.10 C 207.30 229.40 207.30 229.80 207.20 230.10 C 207.10 230.80 206.90 231.50 206.80 232.20 C 206.80 232.40 206.70 232.60 206.70 232.80 C 206.70 233.00 206.70 233.20 206.70 233.30 C 206.50 234.90 206.40 236.40 206.40 238.00 L 207.70 700.10 C 207.70 708.50 210.70 714.40 215.50 717.20 L 264.70 745.80 C 259.90 743.00 256.90 737.10 256.90 728.70 L 255.60 266.60 C 255.60 265.10 255.70 263.50 255.90 261.90 C 255.90 261.50 256.00 261.10 256.00 260.80 C 256.10 260.10 256.20 259.40 256.40 258.70 C 256.50 258.20 256.60 257.70 256.70 257.20 C 256.80 256.70 256.90 256.30 257.00 255.80 C 257.20 255.20 257.30 254.50 257.50 253.90 C 257.60 253.50 257.70 253.20 257.80 252.80 C 258.00 252.10 258.30 251.40 258.50 250.70 C 258.60 250.40 258.70 250.10 258.80 249.80 C 259.20 248.80 259.60 247.80 260.00 246.90 C 260.00 246.80 260.10 246.70 260.20 246.60 C 260.60 245.70 261.00 244.90 261.40 244.00 C 261.50 243.70 261.70 243.50 261.80 243.20 C 262.20 242.40 262.70 241.60 263.10 240.80 C 263.20 240.60 263.30 240.50 263.40 240.30 C 263.90 239.40 264.50 238.50 265.10 237.60 C 265.30 237.30 265.40 237.10 265.60 236.80 C 266.00 236.20 266.50 235.50 266.90 234.90 C 267.10 234.60 267.40 234.20 267.60 233.90 C 268.00 233.40 268.40 232.90 268.80 232.40 C 269.10 232.00 269.50 231.60 269.80 231.10 C 270.10 230.70 270.50 230.30 270.80 229.90 C 271.40 229.30 272.00 228.60 272.60 228.00 C 272.90 227.70 273.20 227.40 273.50 227.10 C 274.70 225.90 276.00 224.80 277.30 223.80 C 277.50 223.60 277.80 223.50 278.00 223.30 C 279.40 222.30 280.70 221.30 282.20 220.50 L 577.20 50.20 C 578.30 49.50 579.50 49.00 580.60 48.50 C 580.90 48.40 581.30 48.30 581.60 48.20 Z" fill="url(#SVGID_3_)" fill-rule="nonzero" group-id="2,9,16" node-id="258" stroke="none" target-height="727.89996" target-width="389.9" target-x="206.4" target-y="17.9"/><g node-id="404"><path d="M 577.20 50.20 C 591.90 41.70 603.90 48.50 604.00 65.50 L 605.30 527.60 C 605.30 544.50 593.40 565.10 578.70 573.70 L 283.60 744.00 C 268.90 752.50 256.90 745.70 256.80 728.70 L 255.50 266.60 C 255.50 249.70 267.40 229.10 282.10 220.50 L 577.20 50.20 Z" fill="url(#SVGID_4_)" fill-rule="nonzero" group-id="2,9,16,30" node-id="262" stroke="none" target-height="710.8" target-width="349.8" target-x="255.5" target-y="41.7"/></g></g></g></g><g node-id="377"><path d="M 555.90 149.80 C 565.10 144.50 572.60 148.70 572.60 159.30 L 572.60 162.70 C 572.60 173.30 565.20 186.10 556.00 191.50 L 308.20 334.50 C 299.00 339.80 291.50 335.60 291.50 325.00 L 291.50 321.60 C 291.50 311.00 298.90 298.20 308.10 292.80 L 555.90 149.80 Z" fill="#ffffff" fill-rule="nonzero" group-id="3" node-id="270" stroke="none" target-height="195.29999" target-width="281.09998" target-x="291.5" target-y="144.5"/><g node-id="384"><g node-id="391"><path d="M 555.90 149.80 C 565.10 144.50 572.60 148.70 572.60 159.30 L 572.60 162.70 C 572.60 173.30 565.20 186.10 556.00 191.50 L 308.20 334.50 C 299.00 339.80 291.50 335.60 291.50 325.00 L 291.50 321.60 C 291.50 311.00 298.90 298.20 308.10 292.80 L 555.90 149.80 Z" fill="#ffffff" fill-rule="nonzero" group-id="3,10,17" node-id="276" stroke="none" target-height="195.29999" target-width="281.09998" target-x="291.5" target-y="144.5"/></g></g></g><g node-id="378"><path d="M 555.90 259.50 C 565.10 254.20 572.60 258.40 572.60 269.00 L 572.60 272.40 C 572.60 283.00 565.20 295.80 556.00 301.20 L 308.20 444.20 C 299.00 449.50 291.50 445.30 291.50 434.70 L 291.50 431.30 C 291.50 420.70 298.90 407.90 308.10 402.50 L 555.90 259.50 Z" fill="#ffffff" fill-rule="nonzero" group-id="4" node-id="283" stroke="none" target-height="195.3" target-width="281.09998" target-x="291.5" target-y="254.2"/><g node-id="385"><g node-id="392"><path d="M 555.90 259.50 C 565.10 254.20 572.60 258.40 572.60 269.00 L 572.60 272.40 C 572.60 283.00 565.20 295.80 556.00 301.20 L 308.20 444.20 C 299.00 449.50 291.50 445.30 291.50 434.70 L 291.50 431.30 C 291.50 420.70 298.90 407.90 308.10 402.50 L 555.90 259.50 Z" fill="#ffffff" fill-rule="nonzero" group-id="4,11,18" node-id="289" stroke="none" target-height="195.3" target-width="281.09998" target-x="291.5" target-y="254.2"/></g></g></g><g node-id="379"><path d="M 555.90 369.10 C 565.10 363.80 572.60 368.10 572.60 378.60 L 572.60 382.00 C 572.60 392.60 565.20 405.40 556.00 410.80 L 308.20 553.90 C 299.00 559.20 291.50 554.90 291.50 544.40 L 291.50 541.00 C 291.50 530.40 298.90 517.60 308.10 512.20 L 555.90 369.10 Z" fill="#ffffff" fill-rule="nonzero" group-id="5" node-id="296" stroke="none" target-height="195.40002" target-width="281.09998" target-x="291.5" target-y="363.8"/><g node-id="386"><g node-id="393"><path d="M 555.90 369.10 C 565.10 363.80 572.60 368.10 572.60 378.60 L 572.60 382.00 C 572.60 392.60 565.20 405.40 556.00 410.80 L 308.20 553.90 C 299.00 559.20 291.50 554.90 291.50 544.40 L 291.50 541.00 C 291.50 530.40 298.90 517.60 308.10 512.20 L 555.90 369.10 Z" fill="#ffffff" fill-rule="nonzero" group-id="5,12,19" node-id="302" stroke="none" target-height="195.40002" target-width="281.09998" target-x="291.5" target-y="363.8"/></g></g></g><g node-id="380"><path d="M 555.90 478.80 C 565.10 473.50 572.60 477.70 572.60 488.30 L 572.60 491.70 C 572.60 502.30 565.20 515.10 556.00 520.50 L 308.20 663.50 C 299.00 668.80 291.50 664.60 291.50 654.00 L 291.50 650.60 C 291.50 640.00 298.90 627.20 308.10 621.80 L 555.90 478.80 Z" fill="#ffffff" fill-rule="nonzero" group-id="6" node-id="309" stroke="none" target-height="195.29999" target-width="281.09998" target-x="291.5" target-y="473.5"/><g node-id="387"><g node-id="394"><path d="M 555.90 478.80 C 565.10 473.50 572.60 477.70 572.60 488.30 L 572.60 491.70 C 572.60 502.30 565.20 515.10 556.00 520.50 L 308.20 663.50 C 299.00 668.80 291.50 664.60 291.50 654.00 L 291.50 650.60 C 291.50 640.00 298.90 627.20 308.10 621.80 L 555.90 478.80 Z" fill="#ffffff" fill-rule="nonzero" group-id="6,13,20" node-id="315" stroke="none" target-height="195.29999" target-width="281.09998" target-x="291.5" target-y="473.5"/></g></g></g><g node-id="381"><g node-id="388"><g node-id="395"><path d="M 696.90 663.00 L 608.20 611.50 L 656.10 528.60 L 744.70 580.10 Z" fill="url(#SVGID_13_)" fill-rule="nonzero" group-id="7,14,21" node-id="326" stroke="none" target-height="134.40002" target-width="136.5" target-x="608.2" target-y="528.6"/></g><g node-id="396"><path d="M 697.00 552.90 L 608.30 501.40 L 656.10 528.60 L 744.70 580.10 Z" fill="url(#SVGID_14_)" fill-rule="nonzero" group-id="7,14,22" node-id="331" stroke="none" target-height="78.69998" target-width="136.40002" target-x="608.3" target-y="501.4"/></g><g node-id="397"><path d="M 697.00 552.90 L 608.30 501.40 L 732.60 286.20 L 821.20 337.80 Z" fill="url(#SVGID_15_)" fill-rule="nonzero" group-id="7,14,23" node-id="336" stroke="none" target-height="266.7" target-width="212.90002" target-x="608.3" target-y="286.2"/></g><g node-id="398"><path d="M 821.20 337.80 L 732.60 286.20 L 781.20 313.90 L 869.80 365.50 Z" fill="url(#SVGID_16_)" fill-rule="nonzero" group-id="7,14,24" node-id="341" stroke="none" target-height="79.29999" target-width="137.20001" target-x="732.6" target-y="286.2"/></g><g node-id="399"><path d="M 585.20 600.40 L 496.50 548.90 L 545.10 576.60 L 633.80 628.10 Z" fill="url(#SVGID_17_)" fill-rule="nonzero" group-id="7,14,25" node-id="346" stroke="none" target-height="79.19995" target-width="137.29999" target-x="496.5" target-y="548.9"/></g><g node-id="400"><path d="M 682.10 544.40 L 593.40 492.90 L 608.30 501.40 L 697.00 552.90 Z" fill="url(#SVGID_18_)" fill-rule="nonzero" group-id="7,14,26" node-id="351" stroke="none" target-height="60.00003" target-width="103.599976" target-x="593.4" target-y="492.9"/></g><g node-id="401"><path d="M 905.30 243.60 C 907.80 242.20 910.30 242.90 910.30 246.50 L 910.70 374.30 C 910.70 378.20 908.20 381.90 905.60 383.40 C 904.30 384.20 903.00 384.40 901.90 383.80 L 869.80 365.50 L 821.20 337.80 L 790.30 320.20 C 787.10 318.40 789.60 310.50 794.10 307.90 L 905.30 243.60 Z" fill="url(#SVGID_19_)" fill-rule="nonzero" group-id="7,14,27" node-id="356" stroke="none" target-height="142.2" target-width="123.60004" target-x="787.1" target-y="242.2"/></g><path d="M 820.30 191.70 C 820.30 191.70 820.30 191.70 820.30 191.70 C 820.20 191.60 820.10 191.60 820.00 191.60 C 819.90 191.60 819.80 191.50 819.70 191.50 C 819.60 191.50 819.50 191.50 819.40 191.40 C 819.30 191.40 819.20 191.40 819.10 191.40 C 819.00 191.40 818.90 191.40 818.80 191.40 C 818.70 191.40 818.70 191.40 818.60 191.40 C 818.60 191.40 818.60 191.40 818.60 191.40 C 818.60 191.40 818.50 191.40 818.50 191.40 C 818.30 191.40 818.20 191.50 818.00 191.50 C 817.80 191.60 817.60 191.60 817.40 191.70 C 817.20 191.80 816.90 191.90 816.70 192.10 L 705.40 256.30 C 704.80 256.60 704.30 257.00 703.80 257.50 C 703.80 257.50 703.80 257.50 703.80 257.50 C 703.60 257.70 703.40 257.90 703.20 258.10 C 703.10 258.30 702.90 258.40 702.80 258.60 C 702.70 258.70 702.60 258.90 702.50 259.00 C 702.50 259.00 702.50 259.00 702.50 259.00 C 702.50 259.00 702.50 259.00 702.50 259.00 C 702.40 259.10 702.30 259.30 702.20 259.40 C 702.10 259.50 702.00 259.70 701.90 259.90 C 701.80 260.10 701.70 260.20 701.60 260.40 C 701.50 260.50 701.50 260.60 701.40 260.70 C 701.40 260.70 701.40 260.70 701.40 260.70 C 701.40 260.70 701.40 260.80 701.40 260.80 C 701.30 261.00 701.20 261.10 701.20 261.30 C 701.10 261.50 701.10 261.60 701.00 261.80 C 700.90 262.00 700.90 262.20 700.80 262.30 C 700.80 262.40 700.80 262.40 700.70 262.50 C 700.70 262.50 700.70 262.60 700.70 262.60 C 700.70 262.70 700.60 262.80 700.60 262.90 C 700.50 263.10 700.50 263.30 700.40 263.60 C 700.30 263.90 700.30 264.10 700.30 264.40 C 700.30 264.40 700.30 264.40 700.30 264.40 C 700.30 264.50 700.30 264.50 700.30 264.60 C 700.30 265.10 700.30 265.50 700.30 265.90 C 700.30 266.00 700.30 266.20 700.40 266.30 C 700.50 266.60 700.60 266.90 700.70 267.20 C 700.80 267.30 700.80 267.40 700.90 267.50 C 701.10 267.80 701.40 268.10 701.70 268.40 L 790.40 319.90 C 790.00 319.70 789.80 319.40 789.60 319.00 C 789.50 318.90 789.50 318.80 789.40 318.70 C 789.30 318.40 789.20 318.10 789.10 317.80 C 789.10 317.70 789.00 317.50 789.00 317.40 C 789.00 317.00 789.00 316.50 789.00 316.10 C 789.00 316.00 789.00 316.00 789.00 315.90 C 789.10 315.30 789.20 314.70 789.40 314.10 C 789.40 314.10 789.40 314.00 789.40 314.00 C 789.60 313.40 789.80 312.80 790.10 312.20 C 790.10 312.20 790.10 312.20 790.10 312.20 C 790.40 311.60 790.80 311.00 791.10 310.40 C 791.10 310.40 791.10 310.40 791.10 310.40 C 791.50 309.90 791.90 309.40 792.40 308.90 C 792.90 308.40 793.40 308.00 794.00 307.70 L 905.30 243.50 C 906.00 243.10 906.60 242.90 907.20 242.80 C 907.20 242.80 907.20 242.80 907.20 242.80 C 907.80 242.70 908.40 242.80 908.90 243.10 L 820.30 191.70 Z" fill="url(#SVGID_20_)" fill-rule="nonzero" group-id="7,14" node-id="359" stroke="none" target-height="128.5" target-width="208.60004" target-x="700.3" target-y="191.4"/><path d="M 821.20 337.80 L 697.00 552.90 L 682.10 544.40 L 633.30 516.60 L 585.20 600.40 L 477.60 786.70 L 526.20 814.40 L 633.80 628.10 L 696.50 663.80 L 696.90 663.00 L 696.90 663.00 L 697.80 663.50 L 869.80 365.50 Z" fill="url(#SVGID_21_)" fill-rule="nonzero" group-id="7,14" node-id="361" stroke="none" target-height="476.60004" target-width="392.19998" target-x="477.6" target-y="337.8"/><path d="M 633.30 516.60 L 544.60 465.10 L 593.40 492.90 L 682.10 544.40 Z" fill="url(#SVGID_22_)" fill-rule="nonzero" group-id="7,14,28" node-id="365" stroke="none" target-height="79.30002" target-width="137.5" target-x="544.6" target-y="465.1"/><path d="M 633.50 516.70 L 544.80 465.20 L 593.50 492.70 L 682.20 544.30 Z" fill="url(#SVGID_23_)" fill-rule="nonzero" group-id="7,14,29" node-id="370" stroke="none" target-height="79.099976" target-width="137.40002" target-x="544.8" target-y="465.2"/><path d="M 544.60 465.10 L 496.50 548.90 L 389.00 735.20 L 477.60 786.70 L 585.20 600.40 L 633.30 516.60 Z" fill="url(#SVGID_24_)" fill-rule="nonzero" group-id="7,14" node-id="373" stroke="none" target-height="321.6" target-width="244.29999" target-x="389" target-y="465.1"/></g></g></svg>