<svg height="1024" node-id="1" sillyvg="true" template-height="1024" template-width="1024" version="1.1" viewBox="0 0 1024 1024" width="1024" xmlns="http://www.w3.org/2000/svg" xmlns:xlink="http://www.w3.org/1999/xlink"><defs node-id="331"><linearGradient gradientUnits="userSpaceOnUse" id="SVGID_1_" node-id="27" spreadMethod="pad" x1="89.575" x2="949.8076" y1="804.0938" y2="804.0938"><stop offset="0" stop-color="#8eb0ec"/><stop offset="1" stop-color="#6386db"/></linearGradient><linearGradient gradientUnits="userSpaceOnUse" id="SVGID_2_" node-id="32" spreadMethod="pad" x1="89.9354" x2="949.8077" y1="616.1642" y2="616.1642"><stop offset="0" stop-color="#6386db"/><stop offset="1" stop-color="#8eb0ec"/></linearGradient><linearGradient gradientUnits="userSpaceOnUse" id="SVGID_3_" node-id="38" spreadMethod="pad" x1="210.1712" x2="827.4059" y1="608.051" y2="608.051"><stop offset="0" stop-color="#ffcb27"/><stop offset="1" stop-color="#ffa21e"/></linearGradient><linearGradient gradientUnits="userSpaceOnUse" id="SVGID_4_" node-id="43" spreadMethod="pad" x1="210.5012" x2="827.4062" y1="460.896" y2="460.896"><stop offset="0" stop-color="#ffcb27"/><stop offset="1" stop-color="#ffa21e"/></linearGradient><linearGradient gradientUnits="userSpaceOnUse" id="SVGID_5_" node-id="49" spreadMethod="pad" x1="89.5792" x2="949.8076" y1="460.9666" y2="460.9666"><stop offset="0" stop-color="#8eb0ec"/><stop offset="1" stop-color="#6386db"/></linearGradient><linearGradient gradientUnits="userSpaceOnUse" id="SVGID_6_" node-id="54" spreadMethod="pad" x1="89.9396" x2="949.8076" y1="273.0335" y2="273.0335"><stop offset="0" stop-color="#6386db"/><stop offset="1" stop-color="#8eb0ec"/></linearGradient><linearGradient gradientUnits="userSpaceOnUse" id="SVGID_7_" node-id="61" spreadMethod="pad" x1="522.1784" x2="529.1968" y1="228.1256" y2="228.1256"><stop offset="0" stop-color="#ffffff"/><stop offset="1" stop-color="#ebebeb"/></linearGradient><linearGradient gradientUnits="userSpaceOnUse" id="SVGID_9_" node-id="68" spreadMethod="pad" x1="529.1247" x2="531.645" y1="228.1423" y2="228.1423"><stop offset="0" stop-color="#ffffff"/><stop offset="1" stop-color="#ebebeb"/></linearGradient><linearGradient gradientUnits="userSpaceOnUse" id="SVGID_11_" node-id="75" spreadMethod="pad" x1="531.4218" x2="536.7389" y1="228.2953" y2="228.2953"><stop offset="0" stop-color="#ffffff"/><stop offset="1" stop-color="#ebebeb"/></linearGradient><linearGradient gradientUnits="userSpaceOnUse" id="SVGID_12_" node-id="79" spreadMethod="pad" x1="529.1247" x2="531.4939" y1="228.1403" y2="228.1403"><stop offset="0" stop-color="#ffffff"/><stop offset="1" stop-color="#ebebeb"/></linearGradient><linearGradient gradientUnits="userSpaceOnUse" id="SVGID_14_" node-id="86" spreadMethod="pad" x1="531.5729" x2="531.6522" y1="228.159" y2="228.159"><stop offset="0" stop-color="#ffffff"/><stop offset="1" stop-color="#ebebeb"/></linearGradient><linearGradient gradientUnits="userSpaceOnUse" id="SVGID_16_" node-id="93" spreadMethod="pad" x1="531.4218" x2="536.7389" y1="228.2953" y2="228.2953"><stop offset="0" stop-color="#ffffff"/><stop offset="1" stop-color="#ebebeb"/></linearGradient><linearGradient gradientUnits="userSpaceOnUse" id="SVGID_18_" node-id="100" spreadMethod="pad" x1="514.2245" x2="522.2504" y1="228.2981" y2="228.2981"><stop offset="0" stop-color="#ffffff"/><stop offset="1" stop-color="#ebebeb"/></linearGradient><linearGradient gradientUnits="userSpaceOnUse" id="SVGID_20_" node-id="107" spreadMethod="pad" x1="519.0629" x2="522.2504" y1="228.1526" y2="228.1526"><stop offset="0" stop-color="#ffffff"/><stop offset="1" stop-color="#ebebeb"/></linearGradient><linearGradient gradientUnits="userSpaceOnUse" id="SVGID_21_" node-id="111" spreadMethod="pad" x1="514.2245" x2="519.1349" y1="228.325" y2="228.325"><stop offset="0" stop-color="#ffffff"/><stop offset="1" stop-color="#ebebeb"/></linearGradient><linearGradient gradientUnits="userSpaceOnUse" id="SVGID_22_" node-id="116" spreadMethod="pad" x1="514.2244" x2="529.794" y1="228.4704" y2="228.4704"><stop offset="0" stop-color="#ffffff"/><stop offset="1" stop-color="#ebebeb"/></linearGradient><linearGradient gradientUnits="userSpaceOnUse" id="SVGID_23_" node-id="121" spreadMethod="pad" x1="501.9365" x2="514.2966" y1="228.4706" y2="228.4706"><stop offset="0" stop-color="#ffffff"/><stop offset="1" stop-color="#ebebeb"/></linearGradient><linearGradient gradientUnits="userSpaceOnUse" id="SVGID_25_" node-id="128" spreadMethod="pad" x1="531.5801" x2="568.0829" y1="232.9516" y2="232.9516"><stop offset="0" stop-color="#ffffff"/><stop offset="1" stop-color="#ebebeb"/></linearGradient><linearGradient gradientUnits="userSpaceOnUse" id="SVGID_27_" node-id="135" spreadMethod="pad" x1="559.3044" x2="583.6548" y1="246.5541" y2="246.5541"><stop offset="0" stop-color="#ffffff"/><stop offset="1" stop-color="#ebebeb"/></linearGradient><linearGradient gradientUnits="userSpaceOnUse" id="SVGID_28_" node-id="139" spreadMethod="pad" x1="552.6528" x2="559.3765" y1="232.4194" y2="232.4194"><stop offset="0" stop-color="#ffffff"/><stop offset="1" stop-color="#ebebeb"/></linearGradient><linearGradient gradientUnits="userSpaceOnUse" id="SVGID_29_" node-id="143" spreadMethod="pad" x1="547.0242" x2="552.7249" y1="230.6076" y2="230.6076"><stop offset="0" stop-color="#ffffff"/><stop offset="1" stop-color="#ebebeb"/></linearGradient><linearGradient gradientUnits="userSpaceOnUse" id="SVGID_30_" node-id="147" spreadMethod="pad" x1="541.791" x2="547.0963" y1="229.4629" y2="229.4629"><stop offset="0" stop-color="#ffffff"/><stop offset="1" stop-color="#ebebeb"/></linearGradient><linearGradient gradientUnits="userSpaceOnUse" id="SVGID_31_" node-id="151" spreadMethod="pad" x1="536.6668" x2="541.8631" y1="228.7218" y2="228.7218"><stop offset="0" stop-color="#ffffff"/><stop offset="1" stop-color="#ebebeb"/></linearGradient><linearGradient gradientUnits="userSpaceOnUse" id="SVGID_32_" node-id="155" spreadMethod="pad" x1="531.4218" x2="536.7389" y1="228.2953" y2="228.2953"><stop offset="0" stop-color="#ffffff"/><stop offset="1" stop-color="#ebebeb"/></linearGradient><linearGradient gradientUnits="userSpaceOnUse" id="SVGID_34_" node-id="162" spreadMethod="pad" x1="529.722" x2="567.5151" y1="232.9445" y2="232.9445"><stop offset="0" stop-color="#ffffff"/><stop offset="1" stop-color="#ebebeb"/></linearGradient><linearGradient gradientUnits="userSpaceOnUse" id="SVGID_36_" node-id="169" spreadMethod="pad" x1="559.9213" x2="567.5151" y1="235.6327" y2="235.6327"><stop offset="0" stop-color="#ffffff"/><stop offset="1" stop-color="#ebebeb"/></linearGradient><linearGradient gradientUnits="userSpaceOnUse" id="SVGID_37_" node-id="173" spreadMethod="pad" x1="553.4186" x2="559.9934" y1="232.7508" y2="232.7508"><stop offset="0" stop-color="#ffffff"/><stop offset="1" stop-color="#ebebeb"/></linearGradient><linearGradient gradientUnits="userSpaceOnUse" id="SVGID_38_" node-id="177" spreadMethod="pad" x1="547.7941" x2="553.4907" y1="230.9655" y2="230.9655"><stop offset="0" stop-color="#ffffff"/><stop offset="1" stop-color="#ebebeb"/></linearGradient><linearGradient gradientUnits="userSpaceOnUse" id="SVGID_39_" node-id="181" spreadMethod="pad" x1="542.5167" x2="547.8662" y1="229.8179" y2="229.8179"><stop offset="0" stop-color="#ffffff"/><stop offset="1" stop-color="#ebebeb"/></linearGradient><linearGradient gradientUnits="userSpaceOnUse" id="SVGID_40_" node-id="185" spreadMethod="pad" x1="537.3469" x2="542.5888" y1="229.0706" y2="229.0706"><stop offset="0" stop-color="#ffffff"/><stop offset="1" stop-color="#ebebeb"/></linearGradient><linearGradient gradientUnits="userSpaceOnUse" id="SVGID_41_" node-id="189" spreadMethod="pad" x1="532.0777" x2="537.419" y1="228.6408" y2="228.6408"><stop offset="0" stop-color="#ffffff"/><stop offset="1" stop-color="#ebebeb"/></linearGradient><linearGradient gradientUnits="userSpaceOnUse" id="SVGID_42_" node-id="193" spreadMethod="pad" x1="529.722" x2="532.1498" y1="228.485" y2="228.485"><stop offset="0" stop-color="#ffffff"/><stop offset="1" stop-color="#ebebeb"/></linearGradient><linearGradient gradientUnits="userSpaceOnUse" id="SVGID_44_" node-id="200" spreadMethod="pad" x1="568.0108" x2="583.6548" y1="248.6555" y2="248.6555"><stop offset="0" stop-color="#ffffff"/><stop offset="1" stop-color="#ebebeb"/></linearGradient><linearGradient gradientUnits="userSpaceOnUse" id="SVGID_46_" node-id="207" spreadMethod="pad" x1="559.3044" x2="583.6548" y1="246.5541" y2="246.5541"><stop offset="0" stop-color="#ffffff"/><stop offset="1" stop-color="#ebebeb"/></linearGradient><linearGradient gradientUnits="userSpaceOnUse" id="SVGID_47_" node-id="212" spreadMethod="pad" x1="583.5827" x2="583.7106" y1="261.5883" y2="261.5883"><stop offset="0" stop-color="#ffffff"/><stop offset="1" stop-color="#ebebeb"/></linearGradient><linearGradient gradientUnits="userSpaceOnUse" id="SVGID_49_" node-id="219" spreadMethod="pad" x1="530.095" x2="583.7107" y1="279.2271" y2="279.2271"><stop offset="0" stop-color="#ffffff"/><stop offset="1" stop-color="#ebebeb"/></linearGradient><linearGradient gradientUnits="userSpaceOnUse" id="SVGID_51_" node-id="226" spreadMethod="pad" x1="583.6309" x2="583.7107" y1="263.9692" y2="263.9692"><stop offset="0" stop-color="#ffffff"/><stop offset="1" stop-color="#ebebeb"/></linearGradient><linearGradient gradientUnits="userSpaceOnUse" id="SVGID_52_" node-id="230" spreadMethod="pad" x1="583.2769" x2="583.703" y1="265.7549" y2="265.7549"><stop offset="0" stop-color="#ffffff"/><stop offset="1" stop-color="#ebebeb"/></linearGradient><linearGradient gradientUnits="userSpaceOnUse" id="SVGID_53_" node-id="234" spreadMethod="pad" x1="582.4115" x2="583.349" y1="268.8085" y2="268.8085"><stop offset="0" stop-color="#ffffff"/><stop offset="1" stop-color="#ebebeb"/></linearGradient><linearGradient gradientUnits="userSpaceOnUse" id="SVGID_54_" node-id="238" spreadMethod="pad" x1="580.9818" x2="582.4836" y1="271.842" y2="271.842"><stop offset="0" stop-color="#ffffff"/><stop offset="1" stop-color="#ebebeb"/></linearGradient><linearGradient gradientUnits="userSpaceOnUse" id="SVGID_55_" node-id="242" spreadMethod="pad" x1="578.8364" x2="581.0539" y1="274.9602" y2="274.9602"><stop offset="0" stop-color="#ffffff"/><stop offset="1" stop-color="#ebebeb"/></linearGradient><linearGradient gradientUnits="userSpaceOnUse" id="SVGID_56_" node-id="246" spreadMethod="pad" x1="575.4771" x2="578.9084" y1="278.3615" y2="278.3615"><stop offset="0" stop-color="#ffffff"/><stop offset="1" stop-color="#ebebeb"/></linearGradient><linearGradient gradientUnits="userSpaceOnUse" id="SVGID_57_" node-id="250" spreadMethod="pad" x1="568.6696" x2="575.5492" y1="282.6939" y2="282.6939"><stop offset="0" stop-color="#ffffff"/><stop offset="1" stop-color="#ebebeb"/></linearGradient><linearGradient gradientUnits="userSpaceOnUse" id="SVGID_58_" node-id="254" spreadMethod="pad" x1="555.9896" x2="568.7416" y1="288.0417" y2="288.0417"><stop offset="0" stop-color="#ffffff"/><stop offset="1" stop-color="#ebebeb"/></linearGradient><linearGradient gradientUnits="userSpaceOnUse" id="SVGID_59_" node-id="258" spreadMethod="pad" x1="546.05" x2="556.0617" y1="292.0958" y2="292.0958"><stop offset="0" stop-color="#ffffff"/><stop offset="1" stop-color="#ebebeb"/></linearGradient><linearGradient gradientUnits="userSpaceOnUse" id="SVGID_60_" node-id="262" spreadMethod="pad" x1="539.2454" x2="546.1221" y1="293.8008" y2="293.8008"><stop offset="0" stop-color="#ffffff"/><stop offset="1" stop-color="#ebebeb"/></linearGradient><linearGradient gradientUnits="userSpaceOnUse" id="SVGID_61_" node-id="266" spreadMethod="pad" x1="533.2994" x2="539.3174" y1="294.4732" y2="294.4732"><stop offset="0" stop-color="#ffffff"/><stop offset="1" stop-color="#ebebeb"/></linearGradient><linearGradient gradientUnits="userSpaceOnUse" id="SVGID_62_" node-id="270" spreadMethod="pad" x1="530.095" x2="533.3714" y1="294.6986" y2="294.6986"><stop offset="0" stop-color="#ffffff"/><stop offset="1" stop-color="#ebebeb"/></linearGradient><linearGradient gradientUnits="userSpaceOnUse" id="SVGID_64_" node-id="277" spreadMethod="pad" x1="583.6386" x2="583.7108" y1="263.6691" y2="263.6691"><stop offset="0" stop-color="#ffffff"/><stop offset="1" stop-color="#ebebeb"/></linearGradient><linearGradient gradientUnits="userSpaceOnUse" id="SVGID_66_" node-id="284" spreadMethod="pad" x1="583.6386" x2="583.7108" y1="263.669" y2="263.669"><stop offset="0" stop-color="#ffffff"/><stop offset="1" stop-color="#ebebeb"/></linearGradient><linearGradient gradientUnits="userSpaceOnUse" id="SVGID_67_" node-id="289" spreadMethod="pad" x1="514.2964" x2="567.5151" y1="220.0608" y2="220.0608"><stop offset="0" stop-color="#ffffff"/><stop offset="1" stop-color="#ebebeb"/></linearGradient><linearGradient gradientUnits="userSpaceOnUse" id="SVGID_68_" node-id="294" spreadMethod="pad" x1="251.5126" x2="251.6073" y1="261.5995" y2="261.5995"><stop offset="0" stop-color="#ffffff"/><stop offset="1" stop-color="#ebebeb"/></linearGradient><linearGradient gradientUnits="userSpaceOnUse" id="SVGID_69_" node-id="299" spreadMethod="pad" x1="583.0691" x2="583.181" y1="271.7577" y2="271.7577"><stop offset="0" stop-color="#ffffff"/><stop offset="1" stop-color="#ebebeb"/></linearGradient><linearGradient gradientUnits="userSpaceOnUse" id="SVGID_70_" node-id="304" spreadMethod="pad" x1="468.8345" x2="530.1671" y1="294.726" y2="294.726"><stop offset="0" stop-color="#ffffff"/><stop offset="1" stop-color="#ebebeb"/></linearGradient><linearGradient gradientUnits="userSpaceOnUse" id="SVGID_71_" node-id="309" spreadMethod="pad" x1="468.8343" x2="469.4391" y1="342.051" y2="342.051"><stop offset="0" stop-color="#ffffff"/><stop offset="1" stop-color="#ebebeb"/></linearGradient><linearGradient gradientUnits="userSpaceOnUse" id="SVGID_72_" node-id="313" spreadMethod="pad" x1="251.5847" x2="723.6441" y1="270.9265" y2="270.9265"><stop offset="0" stop-color="#ffffff"/><stop offset="1" stop-color="#ebebeb"/></linearGradient><linearGradient gradientUnits="userSpaceOnUse" id="SVGID_73_" node-id="318" spreadMethod="pad" x1="583.1089" x2="723.6439" y1="228.0965" y2="228.0965"><stop offset="0" stop-color="#ffffff"/><stop offset="1" stop-color="#ebebeb"/></linearGradient><linearGradient gradientUnits="userSpaceOnUse" id="SVGID_74_" node-id="322" spreadMethod="pad" x1="251.5353" x2="468.9066" y1="279.169" y2="279.169"><stop offset="0" stop-color="#ffffff"/><stop offset="1" stop-color="#ebebeb"/></linearGradient><linearGradient gradientUnits="userSpaceOnUse" id="SVGID_75_" node-id="326" spreadMethod="pad" x1="469.3672" x2="583.8231" y1="404.9337" y2="404.9337"><stop offset="0" stop-color="#ffffff"/><stop offset="1" stop-color="#ebebeb"/></linearGradient><clipPath id="SVGID_10_" node-id="72"><path d="M 531.60 240.90 C 530.80 240.90 530.00 240.90 529.20 240.90 L 529.30 215.50 C 530.10 215.50 530.90 215.50 531.70 215.50 C 531.60 223.90 531.60 232.40 531.60 240.90 Z" fill="#000000" fill-rule="nonzero" node-id="688" stroke="none" target-height="25.399994" target-width="2.5" target-x="529.2" target-y="215.5"/></clipPath><clipPath id="SVGID_15_" node-id="90"><path d="M 531.60 240.90 C 531.60 232.40 531.60 224.00 531.70 215.50 C 531.70 215.50 531.70 215.50 531.70 215.50 C 531.60 223.90 531.60 232.40 531.60 240.90 C 531.60 240.90 531.60 240.90 531.60 240.90 Z" fill="#000000" fill-rule="nonzero" node-id="692" stroke="none" target-height="25.399994" target-width="0.10003662" target-x="531.6" target-y="215.5"/></clipPath><clipPath id="SVGID_19_" node-id="104"><path d="M 522.30 215.40 L 522.20 240.80 C 519.50 240.80 516.80 240.90 514.20 241.10 L 514.30 215.70 C 516.90 215.50 519.50 215.40 522.30 215.40 Z" fill="#000000" fill-rule="nonzero" node-id="696" stroke="none" target-height="25.700012" target-width="8.099976" target-x="514.2" target-y="215.4"/></clipPath><clipPath id="SVGID_26_" node-id="132"><path d="M 531.60 240.90 C 531.60 232.40 531.60 224.00 531.70 215.50 C 545.50 215.90 558.00 219.30 567.70 224.90 C 567.70 233.30 567.70 241.80 567.60 250.20 C 567.60 241.80 567.60 233.30 567.70 224.90 C 567.70 224.90 567.80 224.90 567.80 225.00 C 567.90 225.10 568.00 225.10 568.10 225.20 C 568.10 233.70 568.10 242.10 568.00 250.60 C 567.90 250.50 567.80 250.50 567.70 250.40 C 558.00 244.70 545.40 241.20 531.60 240.90 Z" fill="#000000" fill-rule="nonzero" node-id="700" stroke="none" target-height="35.100006" target-width="36.5" target-x="531.6" target-y="215.5"/></clipPath><clipPath id="SVGID_35_" node-id="166"><path d="M 529.70 241.20 C 529.70 232.70 529.80 224.30 529.80 215.80 C 544.50 215.80 557.80 219.20 567.50 224.70 L 567.40 250.10 C 557.70 244.60 544.40 241.20 529.70 241.20 Z" fill="#000000" fill-rule="nonzero" node-id="704" stroke="none" target-height="34.300003" target-width="37.799988" target-x="529.7" target-y="215.8"/></clipPath><clipPath id="SVGID_45_" node-id="204"><path d="M 568.00 250.50 C 568.00 242.00 568.00 233.60 568.10 225.10 C 577.70 230.70 583.60 238.40 583.70 246.90 L 583.60 272.30 C 583.50 263.80 577.60 256.10 568.00 250.50 Z" fill="#000000" fill-rule="nonzero" node-id="708" stroke="none" target-height="47.19998" target-width="15.700012" target-x="568" target-y="225.1"/></clipPath><clipPath id="SVGID_50_" node-id="223"><path d="M 583.70 251.00 L 583.60 276.40 C 583.60 277.90 583.40 279.40 583.00 280.90 C 579.20 295.90 557.00 307.40 530.00 307.40 L 530.10 282.00 C 557.00 282.00 579.30 270.50 583.10 255.50 C 583.50 254.00 583.70 252.50 583.70 251.00 Z" fill="#000000" fill-rule="nonzero" node-id="712" stroke="none" target-height="56.399994" target-width="53.700012" target-x="530" target-y="251"/></clipPath><clipPath id="SVGID_65_" node-id="281"><path d="M 583.60 276.40 C 583.60 276.40 583.60 276.30 583.60 276.30 L 583.70 250.90 C 583.70 250.90 583.70 251.00 583.70 251.00 C 583.70 258.60 583.70 268.80 583.60 276.40 Z" fill="#000000" fill-rule="nonzero" node-id="716" stroke="none" target-height="25.5" target-width="0.10003662" target-x="583.6" target-y="250.9"/></clipPath></defs><g node-id="970"><g node-id="974"><path d="M 949.60 618.80 C 949.50 619.70 949.50 620.50 949.30 621.40 C 949.20 622.10 949.00 622.80 948.80 623.50 C 948.60 624.30 948.40 625.20 948.10 626.00 C 947.90 626.70 947.50 627.40 947.20 628.00 C 946.80 628.90 946.40 629.70 946.00 630.60 C 945.70 631.20 945.30 631.80 944.90 632.40 C 944.30 633.40 943.70 634.30 942.90 635.30 C 942.20 636.20 941.50 637.10 940.70 638.00 C 940.50 638.20 940.30 638.40 940.10 638.60 C 939.00 639.80 937.80 640.90 936.60 642.00 C 935.80 642.70 934.90 643.40 934.00 644.10 C 933.20 644.70 932.50 645.30 931.70 645.90 C 930.80 646.60 929.70 647.20 928.70 647.90 C 927.70 648.60 926.70 649.30 925.50 649.90 L 580.00 851.10 C 577.50 852.50 574.90 853.80 572.20 855.10 C 571.40 855.50 570.60 855.80 569.80 856.10 C 567.70 857.00 565.50 857.80 563.30 858.60 C 562.50 858.90 561.70 859.20 560.90 859.40 C 559.50 859.80 558.10 860.20 556.60 860.60 C 555.50 860.90 554.40 861.20 553.30 861.50 C 551.80 861.90 550.20 862.20 548.70 862.50 C 547.70 862.70 546.60 862.90 545.60 863.10 C 542.50 863.60 539.30 864.10 536.10 864.40 C 535.10 864.50 534.10 864.60 533.10 864.60 C 531.20 864.80 529.40 864.90 527.50 865.00 C 526.30 865.10 525.10 865.10 523.90 865.10 C 522.40 865.10 520.90 865.10 519.30 865.10 C 518.00 865.10 516.80 865.00 515.50 865.00 C 514.10 864.90 512.70 864.90 511.30 864.80 C 510.00 864.70 508.70 864.60 507.50 864.50 C 506.10 864.40 504.70 864.20 503.40 864.00 C 502.20 863.80 500.90 863.70 499.70 863.50 C 498.20 863.30 496.80 863.00 495.30 862.70 C 494.10 862.50 493.00 862.30 491.80 862.00 C 490.10 861.60 488.30 861.20 486.60 860.70 C 485.60 860.40 484.70 860.20 483.70 859.90 C 480.60 859.00 477.70 858.00 474.80 856.90 C 473.40 856.30 472.00 855.70 470.60 855.10 C 469.90 854.80 469.20 854.50 468.50 854.20 C 466.40 853.20 464.40 852.10 462.40 851.00 L 114.50 650.20 C 98.10 640.70 89.90 628.30 89.90 615.90 L 89.60 743.00 C 89.60 755.40 97.80 767.80 114.20 777.30 L 462.10 978.20 C 464.10 979.30 466.10 980.40 468.20 981.40 C 468.90 981.70 469.70 982.00 470.40 982.30 C 471.60 982.80 472.80 983.40 474.10 983.90 C 474.20 984.00 474.40 984.00 474.60 984.10 C 477.50 985.20 480.50 986.20 483.50 987.10 C 483.70 987.20 484.00 987.30 484.20 987.30 C 484.90 987.50 485.60 987.60 486.30 987.80 C 488.00 988.30 489.70 988.70 491.50 989.10 C 492.00 989.20 492.40 989.30 492.90 989.40 C 493.60 989.50 494.30 989.60 495.00 989.80 C 496.50 990.10 497.90 990.30 499.40 990.60 C 500.00 990.70 500.60 990.80 501.20 990.90 C 501.80 991.00 502.50 991.00 503.10 991.10 C 504.50 991.30 505.90 991.40 507.30 991.60 C 508.00 991.70 508.60 991.80 509.30 991.80 C 509.90 991.90 510.50 991.90 511.20 991.90 C 512.60 992.00 514.00 992.10 515.40 992.10 C 516.10 992.10 516.80 992.20 517.50 992.20 C 518.10 992.20 518.60 992.20 519.20 992.20 C 520.70 992.20 522.20 992.20 523.80 992.20 C 524.60 992.20 525.30 992.20 526.10 992.20 C 526.50 992.20 527.00 992.10 527.40 992.10 C 529.30 992.00 531.20 991.90 533.00 991.70 C 533.80 991.60 534.50 991.60 535.30 991.50 C 535.50 991.50 535.80 991.40 536.00 991.40 C 539.20 991.10 542.30 990.60 545.50 990.10 C 545.70 990.10 545.80 990.10 546.00 990.00 C 546.90 989.80 547.80 989.60 548.70 989.40 C 550.20 989.10 551.80 988.80 553.30 988.40 C 554.40 988.10 555.50 987.80 556.60 987.50 C 558.00 987.10 559.50 986.70 560.90 986.30 C 561.20 986.20 561.50 986.10 561.80 986.00 C 562.30 985.80 562.80 985.60 563.30 985.40 C 565.50 984.60 567.70 983.80 569.80 982.90 C 570.60 982.60 571.40 982.20 572.20 981.90 C 574.90 980.70 577.50 979.40 580.00 977.90 L 925.70 777.00 C 926.00 776.80 926.40 776.60 926.70 776.40 C 927.50 775.90 928.10 775.40 928.80 775.00 C 929.80 774.30 930.90 773.70 931.80 773.00 C 932.60 772.40 933.40 771.80 934.10 771.20 C 935.00 770.50 935.90 769.80 936.70 769.10 C 936.90 769.00 937.10 768.80 937.20 768.70 C 938.30 767.70 939.30 766.70 940.20 765.70 C 940.40 765.50 940.60 765.30 940.80 765.10 C 941.40 764.50 941.90 763.90 942.40 763.20 C 942.60 762.90 942.80 762.60 943.00 762.40 C 943.70 761.40 944.40 760.50 945.00 759.50 C 945.30 759.10 945.60 758.70 945.80 758.30 C 945.90 758.10 946.00 757.90 946.10 757.70 C 946.60 756.80 946.90 756.00 947.30 755.10 C 947.50 754.60 947.80 754.10 948.00 753.60 C 948.10 753.40 948.10 753.30 948.10 753.10 C 948.40 752.30 948.60 751.40 948.80 750.60 C 948.90 750.00 949.20 749.50 949.30 748.90 C 949.30 748.80 949.30 748.60 949.40 748.50 C 949.60 747.60 949.60 746.80 949.70 745.90 C 949.80 745.30 949.90 744.80 949.90 744.20 C 949.90 744.00 949.90 743.70 949.90 743.50 L 950.30 616.40 C 949.80 617.20 949.70 618.00 949.60 618.80 Z" fill="url(#SVGID_1_)" fill-rule="nonzero" group-id="1,5" node-id="724" stroke="none" target-height="376.3" target-width="860.7" target-x="89.6" target-y="615.9"/><g node-id="978"><path d="M 925.30 582.10 C 957.90 600.90 958.00 631.40 925.70 650.20 L 580.00 851.10 C 547.70 869.90 495.00 869.90 462.40 851.10 L 114.50 650.20 C 81.90 631.40 81.70 600.90 114.10 582.10 L 459.80 381.20 C 492.20 362.40 544.80 362.40 577.40 381.20 L 925.30 582.10 Z" fill="url(#SVGID_2_)" fill-rule="nonzero" group-id="1,5,9" node-id="728" stroke="none" target-height="507.50003" target-width="876.3" target-x="81.7" target-y="362.4"/></g></g></g><g node-id="971"><g node-id="975"><path d="M 827.40 461.70 C 827.40 463.40 827.30 465.00 827.20 466.70 C 827.10 468.10 827.00 469.50 826.90 471.00 C 826.80 472.20 826.60 473.50 826.40 474.70 C 826.20 476.10 826.00 477.50 825.70 478.90 C 825.50 480.10 825.20 481.40 824.90 482.60 C 824.60 484.00 824.30 485.40 823.90 486.70 C 823.60 487.90 823.20 489.20 822.80 490.40 C 822.40 491.80 821.90 493.10 821.40 494.50 C 821.00 495.70 820.50 496.90 820.00 498.10 C 819.40 499.50 818.80 501.00 818.20 502.40 C 817.70 503.60 817.10 504.80 816.50 506.00 C 815.80 507.40 815.10 508.80 814.30 510.20 C 813.70 511.30 813.10 512.50 812.40 513.60 C 811.40 515.30 810.40 516.90 809.30 518.60 C 808.60 519.60 808.00 520.60 807.30 521.60 C 806.00 523.40 804.70 525.30 803.30 527.10 C 802.70 527.90 802.10 528.80 801.40 529.70 C 801.10 530.10 800.70 530.50 800.40 530.90 C 798.90 532.70 797.40 534.50 795.80 536.30 C 795.40 536.80 794.90 537.30 794.50 537.80 C 792.60 539.90 790.70 541.90 788.60 543.90 C 788.20 544.30 787.80 544.60 787.50 545.00 C 785.90 546.50 784.30 548.00 782.70 549.50 C 781.40 550.70 780.00 551.90 778.60 553.10 C 777.30 554.20 776.00 555.30 774.70 556.30 C 773.30 557.50 771.80 558.60 770.30 559.80 C 768.90 560.90 767.50 561.90 766.10 563.00 C 764.50 564.10 762.90 565.20 761.30 566.40 C 759.80 567.40 758.30 568.40 756.80 569.50 C 755.10 570.60 753.40 571.70 751.70 572.70 C 749.50 574.00 747.40 575.40 745.10 576.70 L 719.30 591.70 C 715.10 594.20 710.70 596.50 706.30 598.80 C 705.00 599.40 703.70 600.10 702.50 600.70 C 699.10 602.40 695.60 604.00 692.00 605.60 C 690.80 606.10 689.60 606.70 688.40 607.20 C 683.80 609.20 679.10 611.10 674.30 612.90 C 673.40 613.20 672.60 613.50 671.70 613.80 C 667.70 615.30 663.60 616.70 659.50 618.10 C 657.80 618.70 656.10 619.20 654.40 619.80 C 652.10 620.50 649.80 621.20 647.50 621.90 C 645.60 622.50 643.60 623.00 641.60 623.60 C 639.30 624.20 636.90 624.90 634.60 625.50 C 632.60 626.00 630.70 626.50 628.70 627.00 C 626.30 627.60 623.90 628.10 621.50 628.70 C 619.50 629.10 617.50 629.60 615.50 630.00 C 613.00 630.50 610.60 631.00 608.10 631.50 C 606.20 631.90 604.30 632.20 602.40 632.60 C 597.10 633.50 591.80 634.40 586.40 635.10 C 585.60 635.20 584.80 635.30 584.10 635.40 C 579.40 636.00 574.80 636.60 570.10 637.10 C 568.30 637.30 566.50 637.50 564.70 637.60 C 561.70 637.90 558.60 638.10 555.60 638.40 C 553.70 638.50 551.80 638.70 549.90 638.80 C 546.70 639.00 543.60 639.10 540.40 639.30 C 538.60 639.40 536.80 639.50 535.10 639.50 C 532.30 639.60 529.60 639.60 526.80 639.70 C 524.90 639.70 523.00 639.80 521.00 639.80 C 518.00 639.80 515.10 639.80 512.10 639.70 C 510.40 639.70 508.60 639.70 506.90 639.60 C 504.20 639.50 501.50 639.40 498.80 639.30 C 496.90 639.20 495.00 639.20 493.20 639.10 C 490.30 638.90 487.30 638.70 484.40 638.50 C 482.80 638.40 481.10 638.30 479.50 638.20 C 475.90 637.90 472.30 637.50 468.70 637.20 C 467.80 637.10 466.80 637.00 465.90 636.90 C 461.40 636.40 456.90 635.80 452.40 635.20 C 451.60 635.10 450.90 635.00 450.10 634.80 C 446.30 634.20 442.50 633.70 438.80 633.00 C 437.20 632.70 435.60 632.40 434.00 632.10 C 431.10 631.60 428.20 631.00 425.30 630.40 C 423.80 630.10 422.30 629.70 420.80 629.40 C 417.60 628.70 414.40 628.00 411.30 627.30 C 409.50 626.90 407.80 626.40 406.10 626.00 C 403.20 625.30 400.40 624.50 397.50 623.70 C 395.90 623.30 394.30 622.80 392.70 622.30 C 388.20 621.00 383.70 619.60 379.30 618.10 C 378.50 617.80 377.70 617.60 376.90 617.30 C 371.80 615.60 366.90 613.80 362.00 611.80 C 360.00 611.00 358.00 610.20 356.10 609.40 C 354.50 608.80 353.00 608.10 351.40 607.50 C 349.20 606.50 347.00 605.60 344.80 604.60 C 343.40 603.90 341.90 603.30 340.50 602.60 C 338.10 601.50 335.80 600.30 333.50 599.10 C 332.30 598.50 331.10 597.90 330.00 597.30 C 326.60 595.50 323.20 593.60 319.80 591.70 L 293.80 576.70 C 238.10 544.50 210.30 502.30 210.40 460.10 L 210.10 576.60 C 210.00 618.80 237.80 661.00 293.50 693.20 L 319.50 708.20 C 322.80 710.10 326.20 712.00 329.70 713.80 C 330.80 714.40 332.00 715.00 333.20 715.50 C 335.50 716.70 337.90 717.90 340.30 719.00 C 341.70 719.70 343.10 720.30 344.60 720.90 C 346.80 721.90 349.00 722.90 351.20 723.90 C 352.70 724.60 354.30 725.20 355.90 725.80 C 357.40 726.40 358.90 727.10 360.40 727.70 C 360.90 727.90 361.40 728.00 361.80 728.20 C 366.70 730.10 371.70 731.90 376.70 733.70 C 377.50 734.00 378.30 734.20 379.10 734.50 C 383.50 736.00 387.90 737.30 392.40 738.60 C 393.10 738.80 393.90 739.10 394.60 739.30 C 395.50 739.50 396.30 739.80 397.20 740.00 C 400.00 740.80 402.90 741.50 405.80 742.30 C 407.50 742.70 409.30 743.20 411.00 743.60 C 414.20 744.40 417.30 745.10 420.50 745.70 C 421.70 746.00 422.90 746.30 424.00 746.50 C 424.30 746.60 424.70 746.60 425.00 746.70 C 427.90 747.30 430.80 747.80 433.70 748.40 C 435.30 748.70 436.90 749.00 438.50 749.30 C 442.30 749.90 446.00 750.50 449.80 751.10 C 450.50 751.20 451.30 751.30 452.00 751.40 C 452.00 751.40 452.10 751.40 452.10 751.40 C 456.60 752.00 461.10 752.60 465.60 753.10 C 466.70 753.20 467.70 753.30 468.80 753.40 C 472.30 753.80 475.70 754.10 479.20 754.40 C 479.30 754.40 479.40 754.40 479.50 754.40 C 481.10 754.50 482.70 754.60 484.30 754.70 C 487.20 754.90 490.10 755.10 493.00 755.30 C 494.90 755.40 496.80 755.50 498.70 755.50 C 501.40 755.60 504.10 755.70 506.70 755.80 C 506.90 755.80 507.10 755.80 507.40 755.80 C 508.90 755.80 510.50 755.80 512.00 755.80 C 514.90 755.80 517.90 755.90 520.80 755.90 C 522.70 755.90 524.60 755.80 526.60 755.80 C 529.40 755.80 532.10 755.70 534.90 755.60 C 535.40 755.60 535.90 755.60 536.40 755.60 C 537.70 755.60 539.00 755.50 540.20 755.40 C 543.40 755.30 546.60 755.10 549.70 754.90 C 551.60 754.80 553.50 754.60 555.40 754.50 C 558.40 754.30 561.50 754.00 564.50 753.70 C 565.60 753.60 566.60 753.50 567.70 753.40 C 568.40 753.30 569.20 753.20 569.90 753.10 C 574.60 752.60 579.30 752.10 583.90 751.40 C 584.70 751.30 585.50 751.20 586.20 751.10 C 591.60 750.30 596.90 749.50 602.20 748.60 C 602.70 748.50 603.20 748.50 603.70 748.40 C 605.10 748.10 606.50 747.80 607.90 747.60 C 610.40 747.10 612.80 746.70 615.30 746.10 C 617.30 745.70 619.30 745.20 621.30 744.80 C 623.70 744.30 626.10 743.70 628.50 743.10 C 630.50 742.60 632.50 742.10 634.40 741.60 C 636.80 741.00 639.10 740.40 641.50 739.70 C 643.50 739.20 645.40 738.60 647.30 738.00 C 649.60 737.30 651.90 736.60 654.20 735.90 C 655.20 735.60 656.20 735.30 657.20 735.00 C 657.90 734.80 658.60 734.50 659.30 734.30 C 663.40 732.90 667.50 731.50 671.60 730.00 C 672.40 729.70 673.30 729.40 674.20 729.10 C 679.00 727.30 683.70 725.40 688.30 723.40 C 689.50 722.90 690.70 722.30 691.90 721.80 C 695.50 720.20 698.90 718.60 702.40 716.90 C 703.70 716.30 705.00 715.60 706.20 715.00 C 710.60 712.70 715.00 710.40 719.20 708.00 L 745.00 693.00 C 746.20 692.30 747.30 691.60 748.40 691.00 C 749.50 690.40 750.50 689.70 751.50 689.00 C 753.20 687.90 755.00 686.80 756.60 685.70 C 758.10 684.70 759.60 683.70 761.10 682.70 C 762.70 681.60 764.30 680.50 765.90 679.30 C 767.30 678.30 768.70 677.20 770.10 676.20 C 771.60 675.10 773.10 673.90 774.50 672.70 C 775.80 671.60 777.10 670.60 778.40 669.50 C 779.80 668.30 781.20 667.10 782.50 665.90 C 783.00 665.40 783.60 664.90 784.20 664.40 C 785.30 663.40 786.30 662.40 787.40 661.40 C 787.80 661.00 788.20 660.70 788.50 660.30 C 790.60 658.30 792.50 656.20 794.40 654.20 C 794.80 653.70 795.30 653.20 795.70 652.70 C 797.30 650.90 798.80 649.10 800.30 647.30 C 800.60 646.90 801.00 646.50 801.30 646.10 C 801.40 645.90 801.60 645.70 801.70 645.60 C 802.20 644.90 802.70 644.20 803.20 643.60 C 804.60 641.80 805.90 640.00 807.20 638.10 C 807.90 637.10 808.50 636.10 809.20 635.10 C 810.30 633.40 811.30 631.80 812.30 630.10 C 812.60 629.60 812.90 629.20 813.10 628.70 C 813.50 628.00 813.80 627.30 814.20 626.60 C 815.00 625.20 815.70 623.80 816.40 622.40 C 817.00 621.20 817.50 620.00 818.10 618.80 C 818.70 617.40 819.30 616.00 819.90 614.50 C 820.20 613.90 820.50 613.20 820.70 612.60 C 820.90 612.00 821.10 611.40 821.30 610.90 C 821.80 609.50 822.20 608.20 822.70 606.80 C 823.10 605.60 823.50 604.30 823.80 603.10 C 824.20 601.70 824.50 600.40 824.80 599.00 C 825.00 598.30 825.20 597.50 825.30 596.80 C 825.40 596.30 825.40 595.80 825.50 595.30 C 825.80 593.90 826.00 592.50 826.20 591.10 C 826.40 589.90 826.50 588.60 826.70 587.40 C 826.80 586.00 826.90 584.60 827.00 583.10 C 827.00 582.30 827.20 581.40 827.20 580.60 C 827.20 579.80 827.20 578.90 827.20 578.10 L 827.20 578.10 L 827.40 461.70 Z" fill="url(#SVGID_3_)" fill-rule="nonzero" group-id="2,6" node-id="737" stroke="none" target-height="295.80002" target-width="617.4" target-x="210" target-y="460.1"/><g node-id="979"><path d="M 744.00 345.20 C 854.70 409.10 855.30 512.70 745.30 576.70 L 719.50 591.70 C 609.50 655.60 430.60 655.60 319.90 591.70 L 293.90 576.70 C 183.20 512.80 182.60 409.10 292.60 345.20 L 318.40 330.20 C 428.40 266.30 607.30 266.30 718.00 330.20 L 744.00 345.20 Z" fill="url(#SVGID_4_)" fill-rule="nonzero" group-id="2,6,10" node-id="741" stroke="none" target-height="389.3" target-width="672.69995" target-x="182.6" target-y="266.3"/></g></g></g><g node-id="972"><g node-id="976"><path d="M 949.60 275.70 C 949.50 276.60 949.50 277.40 949.30 278.30 C 949.20 279.00 949.00 279.70 948.80 280.40 C 948.60 281.20 948.40 282.10 948.10 282.90 C 947.90 283.60 947.50 284.30 947.20 284.90 C 946.80 285.80 946.40 286.60 946.00 287.50 C 945.70 288.10 945.30 288.70 944.90 289.30 C 944.30 290.30 943.70 291.20 942.90 292.20 C 942.20 293.10 941.50 294.00 940.70 294.90 C 940.50 295.10 940.30 295.30 940.10 295.50 C 939.00 296.70 937.80 297.80 936.60 298.90 C 935.80 299.60 934.90 300.30 934.10 301.00 C 933.30 301.60 932.60 302.20 931.80 302.80 C 930.90 303.50 929.80 304.10 928.80 304.80 C 927.80 305.50 926.80 306.20 925.60 306.80 L 580.00 508.00 C 577.50 509.40 574.90 510.70 572.20 512.00 C 571.40 512.40 570.60 512.70 569.80 513.00 C 567.70 513.90 565.50 514.70 563.30 515.50 C 562.50 515.80 561.70 516.10 560.90 516.30 C 559.50 516.70 558.10 517.10 556.60 517.50 C 555.50 517.80 554.40 518.10 553.30 518.40 C 551.80 518.80 550.30 519.10 548.70 519.40 C 547.60 519.60 546.60 519.90 545.50 520.00 C 542.40 520.50 539.20 521.00 536.00 521.30 C 535.00 521.40 534.00 521.50 533.00 521.50 C 531.10 521.70 529.30 521.80 527.40 521.90 C 526.20 522.00 525.00 522.00 523.80 522.00 C 522.30 522.00 520.80 522.00 519.30 522.00 C 518.00 522.00 516.80 521.90 515.50 521.90 C 514.10 521.80 512.70 521.80 511.30 521.70 C 510.00 521.60 508.70 521.50 507.50 521.40 C 506.10 521.30 504.70 521.10 503.40 520.90 C 502.20 520.70 500.90 520.60 499.70 520.40 C 498.20 520.20 496.80 519.90 495.30 519.60 C 494.10 519.40 493.00 519.20 491.80 518.90 C 490.10 518.50 488.40 518.10 486.70 517.60 C 485.70 517.30 484.80 517.10 483.80 516.80 C 480.80 515.90 477.80 514.90 474.90 513.80 C 473.50 513.20 472.10 512.60 470.70 512.00 C 470.00 511.70 469.30 511.40 468.60 511.10 C 466.50 510.10 464.50 509.00 462.50 507.90 L 114.50 307.10 C 98.10 297.60 89.90 285.20 89.90 272.80 L 89.50 399.90 C 89.50 412.30 97.70 424.70 114.10 434.20 L 462.00 635.10 C 464.00 636.20 466.00 637.30 468.10 638.30 C 468.80 638.60 469.50 638.90 470.20 639.20 C 471.40 639.80 472.70 640.30 474.00 640.80 C 474.10 640.90 474.30 640.90 474.50 641.00 C 477.40 642.10 480.40 643.10 483.40 644.00 C 483.60 644.10 483.90 644.20 484.10 644.20 C 484.80 644.40 485.50 644.50 486.20 644.70 C 487.90 645.20 489.60 645.60 491.40 646.00 C 491.90 646.10 492.30 646.20 492.80 646.30 C 493.50 646.40 494.20 646.50 494.90 646.70 C 496.40 647.00 497.80 647.20 499.30 647.50 C 499.90 647.60 500.50 647.70 501.10 647.80 C 501.70 647.90 502.40 647.90 503.10 648.00 C 504.50 648.20 505.90 648.30 507.30 648.50 C 508.00 648.60 508.60 648.70 509.30 648.70 C 509.90 648.80 510.50 648.80 511.20 648.80 C 512.60 648.90 514.00 649.00 515.40 649.00 C 516.10 649.00 516.80 649.10 517.50 649.10 C 518.10 649.10 518.60 649.10 519.20 649.10 C 520.70 649.10 522.20 649.10 523.70 649.10 C 524.50 649.10 525.20 649.10 526.00 649.10 C 526.50 649.10 526.90 649.00 527.30 649.00 C 529.20 648.90 531.00 648.80 532.90 648.60 C 533.70 648.50 534.40 648.50 535.20 648.40 C 535.40 648.40 535.70 648.30 535.90 648.30 C 539.10 648.00 542.20 647.50 545.40 647.00 C 545.60 647.00 545.70 647.00 545.90 646.90 C 546.80 646.70 547.70 646.50 548.60 646.30 C 550.10 646.00 551.70 645.70 553.20 645.30 C 554.30 645.00 555.40 644.70 556.50 644.40 C 557.90 644.00 559.40 643.60 560.80 643.20 C 561.10 643.10 561.40 643.00 561.70 642.90 C 562.20 642.70 562.70 642.50 563.20 642.30 C 565.40 641.50 567.60 640.70 569.70 639.80 C 570.50 639.50 571.30 639.10 572.10 638.80 C 574.80 637.60 577.50 636.30 579.90 634.80 L 925.50 433.90 C 925.80 433.70 926.20 433.50 926.50 433.30 C 927.30 432.80 927.90 432.30 928.60 431.90 C 929.60 431.20 930.70 430.60 931.60 429.90 C 932.40 429.30 933.20 428.70 933.90 428.10 C 934.80 427.40 935.70 426.70 936.50 426.00 C 936.70 425.90 936.90 425.70 937.00 425.60 C 938.10 424.60 939.10 423.60 940.00 422.60 C 940.20 422.40 940.40 422.20 940.60 421.90 C 941.20 421.30 941.70 420.70 942.20 420.00 C 942.40 419.70 942.60 419.40 942.80 419.20 C 943.50 418.20 944.20 417.30 944.80 416.30 C 945.10 415.90 945.40 415.50 945.60 415.10 C 945.70 414.90 945.80 414.70 945.90 414.50 C 946.40 413.60 946.70 412.80 947.10 411.90 C 947.30 411.40 947.60 410.90 947.80 410.40 C 947.90 410.20 947.90 410.10 947.90 409.90 C 948.20 409.10 948.40 408.20 948.60 407.40 C 948.70 406.80 949.00 406.30 949.10 405.70 C 949.10 405.60 949.10 405.40 949.20 405.30 C 949.40 404.40 949.40 403.60 949.50 402.70 C 949.60 402.10 949.70 401.60 949.70 401.00 C 949.70 400.80 949.70 400.50 949.70 400.30 L 950.10 273.20 C 949.80 274.10 949.70 274.90 949.60 275.70 Z" fill="url(#SVGID_5_)" fill-rule="nonzero" group-id="3,7" node-id="750" stroke="none" target-height="376.3" target-width="860.6" target-x="89.5" target-y="272.8"/><g node-id="980"><path d="M 925.30 239.00 C 957.90 257.80 958.00 288.30 925.70 307.10 L 580.00 508.00 C 547.60 526.80 495.00 526.80 462.40 508.00 L 114.50 307.10 C 81.90 288.30 81.70 257.80 114.10 239.00 L 459.70 38.10 C 492.10 19.30 544.70 19.30 577.30 38.10 L 925.30 239.00 Z" fill="url(#SVGID_6_)" fill-rule="nonzero" group-id="3,7,11" node-id="754" stroke="none" target-height="507.5" target-width="876.3" target-x="81.7" target-y="19.3"/></g></g></g><g node-id="973"><g node-id="977"><g node-id="981"><path d="M 529.20 215.40 L 529.10 240.80 L 522.20 240.80 L 522.30 215.40 Z" fill="url(#SVGID_7_)" fill-rule="nonzero" group-id="4,8,12" node-id="765" stroke="none" target-height="25.40001" target-width="7" target-x="522.2" target-y="215.4"/></g><g node-id="982"><g node-id="999"><path d="M 531.60 240.90 C 530.80 240.90 530.00 240.90 529.20 240.90 L 529.30 215.50 C 530.10 215.50 530.90 215.50 531.70 215.50 C 531.60 223.90 531.60 232.40 531.60 240.90 Z" fill="url(#SVGID_9_)" fill-rule="nonzero" group-id="4,8,13,30" node-id="772" stroke="none" target-height="25.399994" target-width="2.5" target-x="529.2" target-y="215.5"/></g><g clip-path="url(#SVGID_10_)" group-id="4,8,13,31" node-id="775"><path d="M 536.70 215.70 L 536.60 241.10 C 534.90 241.00 533.10 240.90 531.40 240.80 L 531.50 215.40 C 533.30 215.50 535.00 215.60 536.70 215.70" fill="url(#SVGID_11_)" fill-rule="nonzero" group-id="4,8,13,31" node-id="777" stroke="none" target-height="25.700012" target-width="5.299988" target-x="531.4" target-y="215.4"/><path d="M 531.50 215.40 L 531.40 240.80 C 530.60 240.80 529.90 240.80 529.10 240.80 L 529.20 215.40 C 530.00 215.40 530.70 215.40 531.50 215.40" fill="url(#SVGID_12_)" fill-rule="nonzero" group-id="4,8,13,31" node-id="779" stroke="none" target-height="25.40001" target-width="2.4000244" target-x="529.1" target-y="215.4"/></g></g><g node-id="983"><g node-id="1001"><path d="M 531.60 240.90 C 531.60 232.40 531.60 224.00 531.70 215.50 C 531.70 215.50 531.70 215.50 531.70 215.50 C 531.60 223.90 531.60 232.40 531.60 240.90 C 531.60 240.90 531.60 240.90 531.60 240.90 Z" fill="url(#SVGID_14_)" fill-rule="nonzero" group-id="4,8,14,32" node-id="787" stroke="none" target-height="25.399994" target-width="0.10003662" target-x="531.6" target-y="215.5"/></g><g clip-path="url(#SVGID_15_)" group-id="4,8,14,33" node-id="790"><path d="M 536.70 215.70 L 536.60 241.10 C 534.90 241.00 533.10 240.90 531.40 240.80 L 531.50 215.40 C 533.30 215.50 535.00 215.60 536.70 215.70" fill="url(#SVGID_16_)" fill-rule="nonzero" group-id="4,8,14,33" node-id="792" stroke="none" target-height="25.700012" target-width="5.299988" target-x="531.4" target-y="215.4"/></g></g><g node-id="984"><g node-id="1003"><path d="M 522.30 215.40 L 522.20 240.80 C 519.50 240.80 516.80 240.90 514.20 241.10 L 514.30 215.70 C 516.90 215.50 519.50 215.40 522.30 215.40 Z" fill="url(#SVGID_18_)" fill-rule="nonzero" group-id="4,8,15,34" node-id="800" stroke="none" target-height="25.700012" target-width="8.099976" target-x="514.2" target-y="215.4"/></g><g clip-path="url(#SVGID_19_)" group-id="4,8,15,35" node-id="803"><path d="M 522.30 215.40 L 522.20 240.80 C 521.20 240.80 520.10 240.80 519.10 240.90 L 519.20 215.50 C 520.20 215.40 521.20 215.40 522.30 215.40" fill="url(#SVGID_20_)" fill-rule="nonzero" group-id="4,8,15,35" node-id="805" stroke="none" target-height="25.5" target-width="3.2000122" target-x="519.1" target-y="215.4"/><path d="M 519.10 215.50 L 519.00 240.90 C 517.40 241.00 515.80 241.10 514.20 241.20 L 514.30 215.80 C 515.90 215.60 517.50 215.50 519.10 215.50" fill="url(#SVGID_21_)" fill-rule="nonzero" group-id="4,8,15,35" node-id="807" stroke="none" target-height="25.699997" target-width="4.8999634" target-x="514.2" target-y="215.5"/></g></g><g node-id="985"><path d="M 529.80 215.80 L 529.70 241.20 L 514.20 241.20 L 514.30 215.80 Z" fill="url(#SVGID_22_)" fill-rule="nonzero" group-id="4,8,16" node-id="813" stroke="none" target-height="25.399994" target-width="15.599976" target-x="514.2" target-y="215.8"/></g><g node-id="986"><path d="M 514.30 215.80 L 514.20 241.20 L 501.90 241.20 L 502.00 215.80 Z" fill="url(#SVGID_23_)" fill-rule="nonzero" group-id="4,8,17" node-id="818" stroke="none" target-height="25.399994" target-width="12.399994" target-x="501.9" target-y="215.8"/></g><g node-id="987"><g node-id="1005"><path d="M 531.60 240.90 C 531.60 232.40 531.60 224.00 531.70 215.50 C 545.50 215.90 558.00 219.30 567.70 224.90 C 567.70 233.30 567.70 241.80 567.60 250.20 C 567.60 241.80 567.60 233.30 567.70 224.90 C 567.70 224.90 567.80 224.90 567.80 225.00 C 567.90 225.10 568.00 225.10 568.10 225.20 C 568.10 233.70 568.10 242.10 568.00 250.60 C 567.90 250.50 567.80 250.50 567.70 250.40 C 558.00 244.70 545.40 241.20 531.60 240.90 Z" fill="url(#SVGID_25_)" fill-rule="nonzero" group-id="4,8,18,36" node-id="825" stroke="none" target-height="35.100006" target-width="36.5" target-x="531.6" target-y="215.5"/></g><g clip-path="url(#SVGID_26_)" group-id="4,8,18,37" node-id="828"><path d="M 583.70 246.90 L 583.60 272.30 C 583.60 263.70 577.50 255.90 567.70 250.30 C 565.10 248.80 562.30 247.40 559.30 246.30 L 559.40 220.90 C 562.40 222.10 565.20 223.40 567.80 224.90 C 577.60 230.50 583.60 238.30 583.70 246.90" fill="url(#SVGID_27_)" fill-rule="nonzero" group-id="4,8,18,37" node-id="830" stroke="none" target-height="51.399994" target-width="24.400024" target-x="559.3" target-y="220.9"/><path d="M 559.40 220.80 L 559.30 246.20 C 557.20 245.40 554.90 244.60 552.60 244.00 L 552.70 218.60 C 555.00 219.20 557.20 220.00 559.40 220.80" fill="url(#SVGID_28_)" fill-rule="nonzero" group-id="4,8,18,37" node-id="832" stroke="none" target-height="27.59999" target-width="6.800049" target-x="552.6" target-y="218.6"/><path d="M 552.70 218.60 L 552.60 244.00 C 550.80 243.50 548.90 243.00 547.00 242.60 L 547.10 217.20 C 549.00 217.60 550.90 218.10 552.70 218.60" fill="url(#SVGID_29_)" fill-rule="nonzero" group-id="4,8,18,37" node-id="834" stroke="none" target-height="26.800003" target-width="5.700012" target-x="547" target-y="217.2"/><path d="M 547.10 217.20 L 547.00 242.60 C 545.30 242.20 543.50 241.90 541.80 241.70 L 541.90 216.30 C 543.60 216.50 545.40 216.90 547.10 217.20" fill="url(#SVGID_30_)" fill-rule="nonzero" group-id="4,8,18,37" node-id="836" stroke="none" target-height="26.300003" target-width="5.299988" target-x="541.8" target-y="216.3"/><path d="M 541.90 216.30 L 541.80 241.70 C 540.10 241.50 538.40 241.30 536.70 241.10 L 536.80 215.70 C 538.50 215.90 540.20 216.10 541.90 216.30" fill="url(#SVGID_31_)" fill-rule="nonzero" group-id="4,8,18,37" node-id="838" stroke="none" target-height="26" target-width="5.200012" target-x="536.7" target-y="215.7"/><path d="M 536.70 215.70 L 536.60 241.10 C 534.90 241.00 533.10 240.90 531.40 240.80 L 531.50 215.40 C 533.30 215.50 535.00 215.60 536.70 215.70" fill="url(#SVGID_32_)" fill-rule="nonzero" group-id="4,8,18,37" node-id="840" stroke="none" target-height="25.700012" target-width="5.299988" target-x="531.4" target-y="215.4"/></g></g><g node-id="988"><g node-id="1007"><path d="M 529.70 241.20 C 529.70 232.70 529.80 224.30 529.80 215.80 C 544.50 215.80 557.80 219.20 567.50 224.70 L 567.40 250.10 C 557.70 244.60 544.40 241.20 529.70 241.20 Z" fill="url(#SVGID_34_)" fill-rule="nonzero" group-id="4,8,19,38" node-id="848" stroke="none" target-height="34.300003" target-width="37.799988" target-x="529.7" target-y="215.8"/></g><g clip-path="url(#SVGID_35_)" group-id="4,8,19,39" node-id="851"><path d="M 567.50 224.70 L 567.40 250.10 C 565.10 248.80 562.60 247.60 559.90 246.50 L 560.00 221.10 C 562.70 222.20 565.20 223.40 567.50 224.70" fill="url(#SVGID_36_)" fill-rule="nonzero" group-id="4,8,19,39" node-id="853" stroke="none" target-height="29" target-width="7.5999756" target-x="559.9" target-y="221.1"/><path d="M 560.00 221.10 L 559.90 246.50 C 557.80 245.70 555.70 245.00 553.40 244.30 L 553.50 218.90 C 555.80 219.60 557.90 220.30 560.00 221.10" fill="url(#SVGID_37_)" fill-rule="nonzero" group-id="4,8,19,39" node-id="855" stroke="none" target-height="27.600006" target-width="6.5999756" target-x="553.4" target-y="218.9"/><path d="M 553.50 218.90 L 553.40 244.30 C 551.60 243.80 549.70 243.30 547.80 242.90 L 547.90 217.50 C 549.80 218.00 551.70 218.40 553.50 218.90" fill="url(#SVGID_38_)" fill-rule="nonzero" group-id="4,8,19,39" node-id="857" stroke="none" target-height="26.800003" target-width="5.700012" target-x="547.8" target-y="217.5"/><path d="M 547.90 217.60 L 547.80 243.00 C 546.10 242.60 544.30 242.30 542.50 242.10 L 542.60 216.70 C 544.40 216.90 546.10 217.20 547.90 217.60" fill="url(#SVGID_39_)" fill-rule="nonzero" group-id="4,8,19,39" node-id="859" stroke="none" target-height="26.300003" target-width="5.4000244" target-x="542.5" target-y="216.7"/><path d="M 542.60 216.60 L 542.50 242.00 C 540.80 241.80 539.10 241.60 537.30 241.40 L 537.40 216.00 C 539.20 216.20 540.90 216.40 542.60 216.60" fill="url(#SVGID_40_)" fill-rule="nonzero" group-id="4,8,19,39" node-id="861" stroke="none" target-height="26" target-width="5.299988" target-x="537.3" target-y="216"/><path d="M 537.40 216.10 L 537.30 241.50 C 535.60 241.40 533.80 241.30 532.00 241.20 L 532.10 215.80 C 533.90 215.80 535.70 215.90 537.40 216.10" fill="url(#SVGID_41_)" fill-rule="nonzero" group-id="4,8,19,39" node-id="863" stroke="none" target-height="25.699997" target-width="5.4000244" target-x="532" target-y="215.8"/><path d="M 532.10 215.80 L 532.00 241.20 C 531.20 241.20 530.40 241.20 529.60 241.20 L 529.70 215.80 C 530.60 215.80 531.40 215.80 532.10 215.80" fill="url(#SVGID_42_)" fill-rule="nonzero" group-id="4,8,19,39" node-id="865" stroke="none" target-height="25.399994" target-width="2.5" target-x="529.6" target-y="215.8"/></g></g><g node-id="989"><g node-id="1009"><path d="M 568.00 250.50 C 568.00 242.00 568.00 233.60 568.10 225.10 C 577.70 230.70 583.60 238.40 583.70 246.90 L 583.60 272.30 C 583.50 263.80 577.60 256.10 568.00 250.50 Z" fill="url(#SVGID_44_)" fill-rule="nonzero" group-id="4,8,20,40" node-id="873" stroke="none" target-height="47.19998" target-width="15.700012" target-x="568" target-y="225.1"/></g><g clip-path="url(#SVGID_45_)" group-id="4,8,20,41" node-id="876"><path d="M 583.70 246.90 L 583.60 272.30 C 583.60 263.70 577.50 255.90 567.70 250.30 C 565.10 248.80 562.30 247.40 559.30 246.30 L 559.40 220.90 C 562.40 222.10 565.20 223.40 567.80 224.90 C 577.60 230.50 583.60 238.30 583.70 246.90" fill="url(#SVGID_46_)" fill-rule="nonzero" group-id="4,8,20,41" node-id="878" stroke="none" target-height="51.399994" target-width="24.400024" target-x="559.3" target-y="220.9"/></g></g><g node-id="990"><path d="M 583.70 250.90 L 583.60 276.30 L 583.60 272.30 L 583.70 246.90 Z" fill="url(#SVGID_47_)" fill-rule="nonzero" group-id="4,8,21" node-id="884" stroke="none" target-height="29.399994" target-width="0.10003662" target-x="583.6" target-y="246.9"/></g><g node-id="991"><g node-id="1011"><path d="M 583.70 251.00 L 583.60 276.40 C 583.60 277.90 583.40 279.40 583.00 280.90 C 579.20 295.90 557.00 307.40 530.00 307.40 L 530.10 282.00 C 557.00 282.00 579.30 270.50 583.10 255.50 C 583.50 254.00 583.70 252.50 583.70 251.00 Z" fill="url(#SVGID_49_)" fill-rule="nonzero" group-id="4,8,22,42" node-id="891" stroke="none" target-height="56.399994" target-width="53.700012" target-x="530" target-y="251"/></g><g clip-path="url(#SVGID_50_)" group-id="4,8,22,43" node-id="894"><path d="M 583.70 251.00 L 583.60 276.40 C 583.60 276.60 583.60 276.70 583.60 276.90 L 583.70 251.50 C 583.70 251.30 583.70 251.20 583.70 251.00" fill="url(#SVGID_51_)" fill-rule="nonzero" group-id="4,8,22,43" node-id="896" stroke="none" target-height="25.899994" target-width="0.10003662" target-x="583.6" target-y="251"/><path d="M 583.70 251.50 L 583.60 276.90 C 583.60 277.90 583.40 279.00 583.20 280.00 L 583.30 254.60 C 583.60 253.60 583.70 252.50 583.70 251.50" fill="url(#SVGID_52_)" fill-rule="nonzero" group-id="4,8,22,43" node-id="898" stroke="none" target-height="28.5" target-width="0.5" target-x="583.2" target-y="251.5"/><path d="M 583.30 254.60 L 583.20 280.00 C 583.10 280.30 583.10 280.60 583.00 280.90 C 582.80 281.60 582.60 282.30 582.30 283.00 L 582.40 257.60 C 582.70 256.90 582.90 256.20 583.10 255.50 C 583.20 255.20 583.30 254.90 583.30 254.60" fill="url(#SVGID_53_)" fill-rule="nonzero" group-id="4,8,22,43" node-id="900" stroke="none" target-height="28.399994" target-width="1" target-x="582.3" target-y="254.6"/><path d="M 582.50 257.60 L 582.40 283.00 C 582.00 284.00 581.50 285.10 581.00 286.00 L 581.10 260.60 C 581.60 259.70 582.10 258.60 582.50 257.60" fill="url(#SVGID_54_)" fill-rule="nonzero" group-id="4,8,22,43" node-id="902" stroke="none" target-height="28.399994" target-width="1.5" target-x="581" target-y="257.6"/><path d="M 581.10 260.70 L 581.00 286.10 C 580.40 287.20 579.70 288.30 578.90 289.30 L 579.00 263.90 C 579.70 262.80 580.40 261.70 581.10 260.70" fill="url(#SVGID_55_)" fill-rule="nonzero" group-id="4,8,22,43" node-id="904" stroke="none" target-height="28.599976" target-width="2.1999512" target-x="578.9" target-y="260.7"/><path d="M 578.90 263.80 L 578.80 289.20 C 577.80 290.50 576.70 291.70 575.40 292.80 L 575.50 267.40 C 576.80 266.30 577.90 265.10 578.90 263.80" fill="url(#SVGID_56_)" fill-rule="nonzero" group-id="4,8,22,43" node-id="906" stroke="none" target-height="29" target-width="3.5" target-x="575.4" target-y="263.8"/><path d="M 575.50 267.50 L 575.40 292.90 C 573.40 294.70 571.10 296.40 568.60 297.90 L 568.70 272.50 C 571.30 271.00 573.60 269.30 575.50 267.50" fill="url(#SVGID_57_)" fill-rule="nonzero" group-id="4,8,22,43" node-id="908" stroke="none" target-height="30.399994" target-width="6.9000244" target-x="568.6" target-y="267.5"/><path d="M 568.70 272.50 L 568.60 297.90 C 564.90 300.10 560.60 302.00 555.90 303.50 L 556.00 278.10 C 560.80 276.60 565.00 274.70 568.70 272.50" fill="url(#SVGID_58_)" fill-rule="nonzero" group-id="4,8,22,43" node-id="910" stroke="none" target-height="31" target-width="12.799988" target-x="555.9" target-y="272.5"/><path d="M 556.10 278.20 L 556.00 303.60 C 552.90 304.60 549.50 305.40 546.10 306.10 L 546.20 280.70 C 549.60 280.00 552.90 279.20 556.10 278.20" fill="url(#SVGID_59_)" fill-rule="nonzero" group-id="4,8,22,43" node-id="912" stroke="none" target-height="27.899994" target-width="10" target-x="546.1" target-y="278.2"/><path d="M 546.10 280.60 L 546.00 306.00 C 543.80 306.40 541.50 306.70 539.20 306.90 L 539.30 281.50 C 541.60 281.30 543.90 281.00 546.10 280.60" fill="url(#SVGID_60_)" fill-rule="nonzero" group-id="4,8,22,43" node-id="914" stroke="none" target-height="26.299988" target-width="6.8999634" target-x="539.2" target-y="280.6"/><path d="M 539.30 281.60 L 539.20 307.00 C 537.30 307.20 535.30 307.30 533.30 307.40 L 533.40 282.00 C 535.40 281.90 537.40 281.80 539.30 281.60" fill="url(#SVGID_61_)" fill-rule="nonzero" group-id="4,8,22,43" node-id="916" stroke="none" target-height="25.799988" target-width="6" target-x="533.3" target-y="281.6"/><path d="M 533.40 282.00 L 533.30 307.40 C 532.20 307.40 531.20 307.50 530.10 307.50 L 530.20 282.10 C 531.20 282.00 532.30 282.00 533.40 282.00" fill="url(#SVGID_62_)" fill-rule="nonzero" group-id="4,8,22,43" node-id="918" stroke="none" target-height="25.5" target-width="3.3000488" target-x="530.1" target-y="282"/></g></g><g node-id="992"><g node-id="1013"><path d="M 583.60 276.40 C 583.60 276.40 583.60 276.30 583.60 276.30 L 583.70 250.90 C 583.70 250.90 583.70 251.00 583.70 251.00 C 583.70 258.60 583.70 268.80 583.60 276.40 Z" fill="url(#SVGID_64_)" fill-rule="nonzero" group-id="4,8,23,44" node-id="926" stroke="none" target-height="25.5" target-width="0.10003662" target-x="583.6" target-y="250.9"/></g><g clip-path="url(#SVGID_65_)" group-id="4,8,23,45" node-id="929"><path d="M 583.70 251.00 L 583.60 276.40 C 583.60 276.40 583.60 276.30 583.60 276.30 L 583.70 250.90 C 583.70 250.90 583.70 251.00 583.70 251.00" fill="url(#SVGID_66_)" fill-rule="nonzero" group-id="4,8,23,45" node-id="931" stroke="none" target-height="25.5" target-width="0.10003662" target-x="583.6" target-y="250.9"/></g></g><g node-id="993"><path d="M 529.20 215.40 C 544.00 215.40 557.50 218.90 567.20 224.50 C 567.30 224.60 567.40 224.60 567.50 224.70 C 557.80 219.20 544.50 215.80 529.80 215.80 L 514.30 215.80 C 516.90 215.60 519.60 215.50 522.30 215.50 L 529.20 215.40 Z" fill="url(#SVGID_67_)" fill-rule="nonzero" group-id="4,8,24" node-id="937" stroke="none" target-height="9.300003" target-width="53.200012" target-x="514.3" target-y="215.4"/></g><g node-id="994"><path d="M 251.60 250.90 L 251.50 276.30 L 251.50 272.30 L 251.60 246.90 Z" fill="url(#SVGID_68_)" fill-rule="nonzero" group-id="4,8,25" node-id="942" stroke="none" target-height="29.399994" target-width="0.1000061" target-x="251.5" target-y="246.9"/></g><g node-id="995"><path d="M 583.20 262.60 L 583.10 288.00 L 583.10 280.90 L 583.10 255.50 Z" fill="url(#SVGID_69_)" fill-rule="nonzero" group-id="4,8,26" node-id="947" stroke="none" target-height="32.5" target-width="0.10003662" target-x="583.1" target-y="255.5"/></g><g node-id="996"><path d="M 530.20 282.00 L 530.10 307.40 L 468.80 307.40 L 468.90 282.00 Z" fill="url(#SVGID_70_)" fill-rule="nonzero" group-id="4,8,27" node-id="952" stroke="none" target-height="25.399994" target-width="61.400024" target-x="468.8" target-y="282"/></g><g node-id="997"><path d="M 469.40 376.70 L 469.40 402.10 L 468.80 307.40 L 468.90 282.00 Z" fill="url(#SVGID_71_)" fill-rule="nonzero" group-id="4,8,28" node-id="957" stroke="none" target-height="120.100006" target-width="0.6000061" target-x="468.8" target-y="282"/></g><path d="M 707.80 146.00 L 702.90 143.20 C 681.80 131.00 647.80 131.00 626.90 143.20 L 502.00 215.80 L 305.10 215.80 C 275.50 215.80 251.50 229.70 251.60 246.90 L 251.60 250.90 C 251.70 259.50 257.70 267.30 267.50 272.90 C 277.30 278.50 290.70 282.00 305.50 282.00 L 468.90 282.00 L 469.40 376.70 C 469.40 385.30 475.50 393.10 485.30 398.70 C 495.10 404.30 508.50 407.80 523.30 407.80 L 530.20 407.80 C 559.90 407.80 583.80 393.90 583.70 376.70 L 583.10 262.60 L 708.00 190.00 C 728.90 177.90 728.80 158.20 707.80 146.00 Z M 583.70 246.90 C 583.70 238.30 577.60 230.60 567.70 224.80 C 567.80 224.80 567.80 224.90 567.90 224.90 C 577.60 230.50 583.60 238.30 583.70 246.90 Z M 583.10 255.50 L 583.10 262.50 L 583.10 255.50 C 583.10 255.50 583.10 255.50 583.10 255.50 Z M 522.30 215.40 L 529.20 215.40 C 543.40 215.40 556.30 218.60 566.40 224.10 C 556.80 218.90 543.90 215.70 529.80 215.70 L 514.30 215.70 C 516.90 215.50 519.50 215.40 522.30 215.40 Z" fill="url(#SVGID_72_)" fill-rule="nonzero" group-id="4,8" node-id="960" stroke="none" target-height="276.8" target-width="477.40002" target-x="251.5" target-y="131"/><path d="M 723.60 168.20 C 723.60 168.70 723.50 169.30 723.50 169.80 C 723.40 170.40 723.40 170.90 723.30 171.50 C 723.20 172.00 723.10 172.40 723.00 172.90 C 722.90 173.40 722.70 174.00 722.50 174.50 C 722.30 174.90 722.10 175.40 721.90 175.80 C 721.70 176.40 721.40 176.90 721.10 177.50 C 720.90 177.90 720.60 178.30 720.40 178.70 C 720.00 179.30 719.60 180.00 719.10 180.60 C 718.80 181.00 718.50 181.30 718.20 181.70 C 717.50 182.50 716.80 183.30 715.90 184.10 C 715.60 184.40 715.30 184.70 715.00 185.00 C 714.50 185.50 713.90 185.90 713.40 186.30 C 712.90 186.70 712.40 187.10 711.90 187.50 C 711.30 187.90 710.60 188.40 710.00 188.80 C 709.30 189.20 708.70 189.70 708.00 190.10 L 583.10 262.70 L 583.00 288.10 L 708.00 215.40 C 708.20 215.30 708.40 215.10 708.70 215.00 C 709.20 214.70 709.60 214.40 710.10 214.10 C 710.80 213.70 711.40 213.30 712.00 212.80 C 712.50 212.40 713.00 212.00 713.50 211.60 C 714.10 211.10 714.60 210.70 715.20 210.20 C 715.30 210.10 715.40 210.00 715.50 209.90 C 715.70 209.70 715.90 209.50 716.10 209.30 C 716.90 208.50 717.70 207.70 718.40 206.90 C 718.60 206.70 718.80 206.50 718.90 206.40 C 719.00 206.20 719.10 206.00 719.30 205.90 C 719.80 205.30 720.20 204.70 720.60 204.00 C 720.80 203.70 721.00 203.50 721.10 203.20 C 721.20 203.10 721.20 202.90 721.30 202.80 C 721.60 202.20 721.80 201.70 722.10 201.10 C 722.20 200.80 722.40 200.50 722.60 200.10 C 722.60 200.00 722.70 199.90 722.70 199.80 C 722.90 199.30 723.00 198.70 723.20 198.20 C 723.30 197.80 723.40 197.50 723.50 197.10 C 723.50 197.00 723.50 196.90 723.50 196.80 C 723.60 196.20 723.60 195.70 723.70 195.10 C 723.70 194.70 723.80 194.40 723.80 194.00 C 723.80 193.80 723.80 193.70 723.80 193.50 L 723.80 193.50 L 723.60 168.20 Z" fill="url(#SVGID_73_)" fill-rule="nonzero" group-id="4,8,29" node-id="964" stroke="none" target-height="119.90001" target-width="140.79999" target-x="583" target-y="168.2"/><path d="M 301.50 281.90 C 300.60 281.90 299.80 281.80 299.00 281.80 C 298.10 281.70 297.20 281.60 296.30 281.60 C 295.50 281.50 294.60 281.40 293.80 281.30 C 293.00 281.20 292.10 281.10 291.30 280.90 C 290.40 280.80 289.50 280.60 288.60 280.40 C 287.90 280.30 287.10 280.10 286.40 279.90 C 285.30 279.70 284.20 279.40 283.10 279.10 C 282.50 278.90 281.90 278.80 281.20 278.60 C 279.20 278.00 277.30 277.40 275.40 276.70 C 274.50 276.30 273.60 276.00 272.80 275.60 C 272.30 275.40 271.80 275.20 271.30 275.00 C 270.00 274.40 268.70 273.70 267.50 273.00 C 257.70 267.40 251.70 259.60 251.60 251.00 L 251.50 276.40 C 251.60 285.00 257.60 292.80 267.40 298.40 C 268.60 299.10 269.90 299.80 271.20 300.40 C 271.60 300.60 272.10 300.80 272.50 301.00 C 273.40 301.40 274.30 301.80 275.20 302.20 C 275.20 302.20 275.20 302.20 275.30 302.20 C 277.10 302.90 279.10 303.60 281.10 304.10 C 281.30 304.20 281.50 304.30 281.80 304.30 C 282.20 304.40 282.60 304.50 283.00 304.60 C 284.10 304.90 285.20 305.20 286.30 305.40 C 286.70 305.50 287.10 305.60 287.50 305.70 C 287.80 305.80 288.20 305.80 288.50 305.90 C 289.40 306.10 290.30 306.20 291.30 306.40 C 291.80 306.50 292.30 306.60 292.80 306.70 C 293.10 306.70 293.50 306.80 293.80 306.80 C 294.60 306.90 295.50 307.00 296.30 307.10 C 296.80 307.20 297.40 307.20 297.90 307.30 C 298.30 307.30 298.60 307.30 299.00 307.40 C 299.80 307.50 300.70 307.50 301.60 307.50 C 302.10 307.50 302.70 307.60 303.20 307.60 C 304.00 307.60 304.80 307.60 305.60 307.60 L 469.00 307.60 L 469.10 282.20 L 305.70 282.20 C 304.20 282.00 302.80 282.00 301.50 281.90 Z" fill="url(#SVGID_74_)" fill-rule="nonzero" group-id="4,8,29" node-id="966" stroke="none" target-height="56.600006" target-width="217.6" target-x="251.5" target-y="251"/><path d="M 583.50 380.10 C 583.40 380.70 583.20 381.20 583.10 381.70 C 583.00 382.20 582.90 382.60 582.70 383.10 C 582.50 383.60 582.30 384.10 582.10 384.50 C 581.90 385.00 581.60 385.60 581.40 386.10 C 581.20 386.50 580.90 386.80 580.70 387.20 C 580.30 387.90 579.90 388.50 579.40 389.20 C 579.10 389.50 578.90 389.90 578.60 390.20 C 577.90 391.00 577.20 391.80 576.40 392.60 C 576.10 392.90 575.70 393.20 575.40 393.60 C 574.80 394.10 574.20 394.60 573.60 395.10 C 573.10 395.50 572.70 395.80 572.20 396.20 C 571.50 396.70 570.80 397.10 570.10 397.60 C 569.60 397.90 569.20 398.20 568.70 398.50 C 567.10 399.50 565.40 400.30 563.60 401.20 C 563.20 401.40 562.80 401.60 562.30 401.80 C 560.60 402.50 558.90 403.20 557.10 403.80 C 556.80 403.90 556.50 404.00 556.20 404.10 C 555.20 404.40 554.10 404.70 553.00 405.00 C 552.50 405.10 551.90 405.30 551.40 405.50 C 549.80 405.90 548.20 406.20 546.60 406.50 C 546.50 406.50 546.40 406.50 546.40 406.60 C 544.40 407.00 542.30 407.20 540.20 407.50 C 539.50 407.60 538.70 407.60 538.00 407.70 C 536.90 407.80 535.80 407.90 534.70 407.90 C 533.30 408.00 531.90 408.00 530.50 408.00 L 523.60 408.00 C 522.30 408.00 520.90 407.90 519.60 407.90 C 518.70 407.90 517.90 407.80 517.00 407.80 C 516.10 407.70 515.20 407.60 514.30 407.60 C 513.50 407.50 512.60 407.40 511.80 407.30 C 511.00 407.20 510.10 407.10 509.30 406.90 C 508.40 406.80 507.40 406.60 506.50 406.40 C 505.80 406.30 505.00 406.10 504.30 405.90 C 503.20 405.70 502.10 405.40 501.00 405.10 C 500.40 404.90 499.80 404.80 499.10 404.60 C 497.10 404.00 495.20 403.40 493.30 402.70 C 492.40 402.30 491.50 401.90 490.70 401.60 C 490.20 401.40 489.70 401.20 489.20 401.00 C 487.90 400.40 486.60 399.70 485.40 399.00 C 475.60 393.40 469.60 385.60 469.50 377.00 L 469.40 402.40 C 469.40 411.00 475.50 418.80 485.30 424.40 C 486.50 425.10 487.80 425.80 489.10 426.40 C 489.50 426.60 490.00 426.80 490.50 427.00 C 491.40 427.40 492.20 427.80 493.20 428.20 C 493.20 428.20 493.20 428.20 493.30 428.20 C 495.10 428.90 497.10 429.60 499.10 430.10 C 499.30 430.20 499.50 430.30 499.80 430.30 C 500.20 430.40 500.60 430.50 501.00 430.60 C 502.10 430.90 503.20 431.20 504.30 431.40 C 504.70 431.50 505.10 431.60 505.50 431.70 C 505.80 431.80 506.20 431.80 506.50 431.90 C 507.40 432.10 508.30 432.20 509.30 432.40 C 509.80 432.50 510.30 432.60 510.80 432.70 C 511.10 432.70 511.50 432.80 511.80 432.80 C 512.60 432.90 513.50 433.00 514.30 433.10 C 514.90 433.20 515.40 433.20 516.00 433.30 C 516.40 433.30 516.70 433.30 517.10 433.40 C 517.90 433.50 518.80 433.50 519.70 433.50 C 520.30 433.50 520.80 433.60 521.40 433.60 C 522.20 433.60 522.90 433.60 523.70 433.60 L 530.60 433.60 C 531.70 433.60 532.70 433.60 533.80 433.50 C 534.20 433.50 534.50 433.40 534.90 433.40 C 536.00 433.30 537.10 433.30 538.20 433.20 C 538.70 433.20 539.20 433.10 539.80 433.10 C 540.00 433.10 540.30 433.00 540.50 433.00 C 542.60 432.80 544.70 432.50 546.70 432.10 L 546.70 432.10 C 546.80 432.10 546.90 432.10 547.00 432.00 C 548.60 431.70 550.20 431.40 551.80 431.00 C 552.40 430.90 552.90 430.70 553.40 430.50 C 554.50 430.20 555.60 429.90 556.60 429.60 C 556.70 429.60 556.80 429.60 556.90 429.50 C 557.10 429.40 557.30 429.30 557.50 429.30 C 559.30 428.70 561.10 428.00 562.70 427.30 C 563.10 427.10 563.50 426.90 564.00 426.80 C 565.80 426.00 567.50 425.10 569.10 424.10 C 569.20 424.10 569.30 424.00 569.40 424.00 C 569.80 423.80 570.10 423.50 570.50 423.20 C 571.20 422.70 571.90 422.30 572.60 421.80 C 573.10 421.50 573.50 421.10 574.00 420.70 C 574.60 420.20 575.20 419.70 575.80 419.20 C 575.90 419.10 576.10 418.90 576.30 418.80 C 576.50 418.60 576.60 418.40 576.80 418.20 C 577.60 417.40 578.40 416.60 579.00 415.80 C 579.20 415.60 579.40 415.40 579.50 415.20 C 579.60 415.10 579.70 414.90 579.80 414.80 C 580.30 414.20 580.70 413.50 581.10 412.80 C 581.30 412.50 581.50 412.20 581.70 412.00 C 581.70 411.90 581.80 411.80 581.80 411.70 C 582.10 411.20 582.30 410.60 582.50 410.10 C 582.70 409.70 582.90 409.30 583.10 408.90 C 583.10 408.80 583.10 408.70 583.20 408.70 C 583.40 408.20 583.50 407.80 583.60 407.30 C 583.70 406.80 583.90 406.40 584.00 405.90 C 584.00 405.80 584.00 405.70 584.00 405.60 C 584.10 405.10 584.10 404.60 584.20 404.20 C 584.20 403.70 584.30 403.30 584.40 402.80 C 584.40 402.60 584.40 402.40 584.40 402.20 L 584.50 376.80 C 584.50 377.50 584.40 378.10 584.30 378.80 C 583.60 379.10 583.60 379.60 583.50 380.10 Z" fill="url(#SVGID_75_)" fill-rule="nonzero" group-id="4,8,29" node-id="968" stroke="none" target-height="56.80002" target-width="115.100006" target-x="469.4" target-y="376.8"/></g></g></svg>