
<svg height="1024" node-id="1" sillyvg="true" template-height="1024" template-width="1024" version="1.1" viewBox="0 0 1024 1024" width="1024" xmlns="http://www.w3.org/2000/svg" xmlns:xlink="http://www.w3.org/1999/xlink"><defs node-id="133"><linearGradient gradientUnits="userSpaceOnUse" id="SVGID_1_" node-id="28" spreadMethod="pad" x1="-812.4634" x2="-1733.3314" y1="838.5042" y2="838.5042"><stop offset="0" stop-color="#ffa21e"/><stop offset="1" stop-color="#ffcb27"/></linearGradient><linearGradient gradientUnits="userSpaceOnUse" id="SVGID_2_" node-id="33" spreadMethod="pad" x1="-812.6321" x2="-1733.3315" y1="675.4966" y2="675.4966"><stop offset="0" stop-color="#ffcb27"/><stop offset="1" stop-color="#ffa21e"/></linearGradient><linearGradient gradientUnits="userSpaceOnUse" id="SVGID_3_" node-id="38" spreadMethod="pad" x1="265.1816" x2="302.0656" y1="858.4615" y2="858.4615"><stop offset="0" stop-color="#565656"/><stop offset="1" stop-color="#494949"/></linearGradient><linearGradient gradientUnits="userSpaceOnUse" id="SVGID_4_" node-id="43" spreadMethod="pad" x1="265.1816" x2="302.0656" y1="928.1878" y2="928.1878"><stop offset="0" stop-color="#565656"/><stop offset="1" stop-color="#494949"/></linearGradient><linearGradient gradientUnits="userSpaceOnUse" id="SVGID_5_" node-id="49" spreadMethod="pad" x1="419.0729" x2="834.5991" y1="514.6616" y2="514.6616"><stop offset="0" stop-color="#6386db"/><stop offset="1" stop-color="#8eb0ec"/></linearGradient><linearGradient gradientUnits="userSpaceOnUse" id="SVGID_6_" node-id="54" spreadMethod="pad" x1="171.4528" x2="420.4185" y1="563.5276" y2="563.5276"><stop offset="0" stop-color="#6386db"/><stop offset="1" stop-color="#8eb0ec"/></linearGradient><linearGradient gradientUnits="userSpaceOnUse" id="SVGID_7_" node-id="59" spreadMethod="pad" x1="172.7984" x2="834.5991" y1="205.8648" y2="205.8648"><stop offset="0" stop-color="#6386db"/><stop offset="1" stop-color="#8eb0ec"/></linearGradient><linearGradient gradientUnits="userSpaceOnUse" id="SVGID_8_" node-id="65" spreadMethod="pad" x1="432.8846" x2="717.883" y1="237.3231" y2="237.3231"><stop offset="0" stop-color="#d7d8d5"/><stop offset="1" stop-color="#f6f6f9"/></linearGradient><linearGradient gradientUnits="userSpaceOnUse" id="SVGID_9_" node-id="70" spreadMethod="pad" x1="288.1683" x2="432.9808" y1="278.3307" y2="278.3307"><stop offset="0" stop-color="#d7d8d5"/><stop offset="1" stop-color="#f6f6f9"/></linearGradient><linearGradient gradientUnits="userSpaceOnUse" id="SVGID_10_" node-id="75" spreadMethod="pad" x1="288.2646" x2="717.883" y1="178.5764" y2="178.5764"><stop offset="0" stop-color="#fbfbfb"/><stop offset="1" stop-color="#fbfbfb"/></linearGradient><linearGradient gradientUnits="userSpaceOnUse" id="SVGID_11_" node-id="80" spreadMethod="pad" x1="459.2046" x2="809.3671" y1="364.6659" y2="364.6659"><stop offset="0" stop-color="#feffff"/><stop offset="1" stop-color="#ebf7f9"/></linearGradient><linearGradient gradientUnits="userSpaceOnUse" id="SVGID_12_" node-id="85" spreadMethod="pad" x1="457.2301" x2="807.4209" y1="445.8011" y2="445.8011"><stop offset="0" stop-color="#feffff"/><stop offset="1" stop-color="#ebf7f9"/></linearGradient><linearGradient gradientUnits="userSpaceOnUse" id="SVGID_13_" node-id="90" spreadMethod="pad" x1="457.23" x2="807.421" y1="524.4505" y2="524.4505"><stop offset="0" stop-color="#feffff"/><stop offset="1" stop-color="#ebf7f9"/></linearGradient><linearGradient gradientUnits="userSpaceOnUse" id="SVGID_14_" node-id="95" spreadMethod="pad" x1="457.23" x2="807.421" y1="603.0389" y2="603.0389"><stop offset="0" stop-color="#feffff"/><stop offset="1" stop-color="#ebf7f9"/></linearGradient><linearGradient gradientUnits="userSpaceOnUse" id="SVGID_15_" node-id="100" spreadMethod="pad" x1="460.1806" x2="810.3721" y1="676.3312" y2="676.3312"><stop offset="0" stop-color="#feffff"/><stop offset="1" stop-color="#ebf7f9"/></linearGradient><linearGradient gradientUnits="userSpaceOnUse" id="SVGID_16_" node-id="105" spreadMethod="pad" x1="184.587" x2="382.6602" y1="850.0576" y2="850.0576"><stop offset="0" stop-color="#00ab7e"/><stop offset="1" stop-color="#00c692"/></linearGradient><linearGradient gradientUnits="userSpaceOnUse" id="SVGID_17_" node-id="109" spreadMethod="pad" x1="184.587" x2="382.6602" y1="714.9654" y2="714.9654"><stop offset="0" stop-color="#00ab7e"/><stop offset="1" stop-color="#00c692"/></linearGradient><linearGradient gradientUnits="userSpaceOnUse" id="SVGID_18_" node-id="114" spreadMethod="pad" x1="177.9531" x2="201.2777" y1="892.994" y2="892.994"><stop offset="0" stop-color="#565656"/><stop offset="1" stop-color="#494949"/></linearGradient><linearGradient gradientUnits="userSpaceOnUse" id="SVGID_19_" node-id="119" spreadMethod="pad" x1="177.9531" x2="201.2777" y1="937.0872" y2="937.0872"><stop offset="0" stop-color="#565656"/><stop offset="1" stop-color="#494949"/></linearGradient><linearGradient gradientUnits="userSpaceOnUse" id="SVGID_20_" node-id="124" spreadMethod="pad" x1="126.987" x2="252.2438" y1="887.6796" y2="887.6796"><stop offset="0" stop-color="#00ab7e"/><stop offset="1" stop-color="#00c692"/></linearGradient><linearGradient gradientUnits="userSpaceOnUse" id="SVGID_21_" node-id="128" spreadMethod="pad" x1="126.987" x2="252.2438" y1="802.2504" y2="802.2504"><stop offset="0" stop-color="#00ab7e"/><stop offset="1" stop-color="#00c692"/></linearGradient></defs><g node-id="370"><g node-id="382"><path d="M 58.70 677.10 C 58.70 677.60 58.80 678.10 58.90 678.60 C 59.00 679.00 59.10 679.40 59.20 679.80 C 59.30 680.30 59.40 680.80 59.60 681.20 C 59.70 681.60 59.90 682.00 60.10 682.40 C 60.30 682.90 60.50 683.40 60.80 683.90 C 61.00 684.30 61.20 684.60 61.40 685.00 C 61.70 685.60 62.10 686.10 62.50 686.70 C 62.70 687.00 63.00 687.30 63.30 687.70 C 63.90 688.40 64.60 689.20 65.30 689.90 C 65.60 690.20 65.80 690.40 66.10 690.70 C 66.60 691.10 67.10 691.50 67.60 691.90 C 68.00 692.30 68.50 692.60 68.90 693.00 C 69.40 693.40 70.00 693.80 70.60 694.20 C 71.20 694.60 71.80 695.00 72.40 695.40 L 483.50 934.00 C 484.90 934.80 486.50 935.60 488.00 936.30 C 488.40 936.50 488.90 936.70 489.40 936.90 C 490.60 937.40 491.90 937.90 493.20 938.30 C 493.70 938.50 494.10 938.60 494.60 938.80 C 495.40 939.10 496.20 939.30 497.10 939.50 C 497.70 939.70 498.40 939.90 499.00 940.00 C 499.90 940.20 500.80 940.40 501.70 940.60 C 502.30 940.70 502.90 940.90 503.50 941.00 C 505.30 941.30 507.10 941.60 509.00 941.80 C 509.60 941.90 510.10 941.90 510.70 941.90 C 511.80 942.00 512.90 942.10 514.00 942.10 C 514.70 942.10 515.40 942.10 516.10 942.20 C 517.00 942.20 517.90 942.20 518.70 942.20 C 519.40 942.20 520.20 942.20 520.90 942.10 C 521.70 942.10 522.50 942.00 523.30 942.00 C 524.00 941.90 524.80 941.90 525.50 941.80 C 526.30 941.70 527.10 941.60 527.90 941.50 C 528.60 941.40 529.30 941.30 530.00 941.20 C 530.90 941.10 531.70 940.90 532.60 940.80 C 533.30 940.70 533.90 940.50 534.60 940.40 C 535.60 940.20 536.60 939.90 537.60 939.70 C 538.10 939.60 538.70 939.40 539.20 939.30 C 541.00 938.80 542.70 938.20 544.40 937.60 C 544.60 937.50 544.80 937.40 545.10 937.30 C 547.40 936.40 549.60 935.30 551.60 934.20 L 965.20 695.40 C 974.70 689.90 979.40 682.70 979.40 675.50 L 979.60 735.00 C 979.60 742.20 974.90 749.40 965.40 754.90 L 551.70 993.50 C 549.70 994.70 547.50 995.70 545.20 996.60 C 545.10 996.70 544.90 996.70 544.80 996.80 C 544.70 996.80 544.60 996.90 544.50 996.90 C 542.80 997.60 541.10 998.10 539.30 998.60 C 539.20 998.60 539.00 998.70 538.90 998.70 C 538.50 998.80 538.10 998.90 537.70 999.00 C 536.70 999.30 535.70 999.50 534.70 999.70 C 534.40 999.80 534.20 999.80 533.90 999.90 C 533.50 1000.00 533.10 1000.00 532.70 1000.10 C 531.90 1000.30 531.00 1000.40 530.10 1000.50 C 529.80 1000.60 529.40 1000.60 529.10 1000.70 C 528.70 1000.80 528.40 1000.80 528.00 1000.80 C 527.20 1000.90 526.40 1001.00 525.60 1001.10 C 525.20 1001.10 524.80 1001.20 524.40 1001.20 C 524.00 1001.20 523.70 1001.20 523.30 1001.30 C 522.50 1001.40 521.70 1001.40 520.90 1001.40 C 520.50 1001.40 520.10 1001.50 519.70 1001.50 C 519.40 1001.50 519.10 1001.50 518.70 1001.50 C 517.80 1001.50 516.90 1001.50 516.10 1001.50 C 515.70 1001.50 515.20 1001.50 514.80 1001.50 C 514.50 1001.50 514.30 1001.50 514.00 1001.40 C 512.90 1001.40 511.80 1001.30 510.70 1001.20 C 510.30 1001.20 509.80 1001.20 509.40 1001.10 C 509.30 1001.10 509.10 1001.10 509.00 1001.00 C 507.20 1000.80 505.30 1000.60 503.50 1000.20 C 503.40 1000.20 503.30 1000.20 503.20 1000.20 C 502.70 1000.10 502.20 1000.00 501.70 999.90 C 500.80 999.70 499.90 999.50 499.00 999.30 C 498.40 999.10 497.70 999.00 497.10 998.80 C 496.30 998.60 495.40 998.40 494.60 998.10 C 494.40 998.00 494.20 998.00 494.10 997.90 C 493.80 997.80 493.50 997.70 493.20 997.60 C 491.90 997.20 490.70 996.70 489.40 996.20 C 488.90 996.00 488.50 995.80 488.00 995.60 C 486.40 994.90 484.90 994.10 483.50 993.30 L 72.70 754.70 C 72.50 754.60 72.30 754.50 72.10 754.40 C 71.70 754.10 71.30 753.80 70.90 753.60 C 70.30 753.20 69.70 752.80 69.20 752.50 C 68.70 752.20 68.30 751.80 67.90 751.40 C 67.40 751.00 66.90 750.60 66.40 750.20 C 66.30 750.10 66.20 750.00 66.10 750.00 C 65.90 749.80 65.80 749.60 65.60 749.50 C 64.90 748.80 64.20 748.10 63.60 747.30 C 63.50 747.10 63.30 747.00 63.20 746.80 C 63.10 746.60 63.00 746.50 62.90 746.30 C 62.50 745.70 62.10 745.20 61.80 744.60 C 61.70 744.40 61.50 744.10 61.30 743.90 C 61.20 743.80 61.20 743.70 61.10 743.50 C 60.80 743.00 60.60 742.50 60.40 742.00 C 60.30 741.70 60.10 741.40 60.00 741.10 C 60.00 741.00 59.90 740.90 59.90 740.80 C 59.70 740.30 59.60 739.80 59.50 739.40 C 59.40 739.10 59.30 738.80 59.20 738.40 C 59.20 738.30 59.20 738.20 59.20 738.10 C 59.10 737.60 59.10 737.10 59.00 736.60 C 59.00 736.30 58.90 735.90 58.90 735.60 C 58.90 735.50 58.90 735.30 58.90 735.20 L 58.70 675.70 C 58.60 676.10 58.70 676.60 58.70 677.10 Z" fill="url(#SVGID_1_)" fill-rule="nonzero" group-id="1,13" node-id="267" stroke="none" target-height="326" target-width="921" target-x="58.6" target-y="675.5"/><g node-id="391"><path d="M 72.80 655.80 C 54.00 666.70 53.80 684.30 72.50 695.20 L 483.50 934.00 C 502.20 944.90 532.70 944.90 551.50 934.00 L 965.10 695.20 C 984.00 684.30 984.10 666.70 965.40 655.80 L 554.40 417.00 C 535.70 406.10 505.30 406.10 486.40 417.00 L 72.80 655.80 Z" fill="url(#SVGID_2_)" fill-rule="nonzero" group-id="1,13,22" node-id="271" stroke="none" target-height="538.80005" target-width="930.3" target-x="53.8" target-y="406.1"/></g></g></g><g node-id="371"><path d="M 265.20 788.90 L 302.10 788.90 L 302.10 928.00 L 265.20 928.00 Z" fill="url(#SVGID_3_)" fill-rule="nonzero" group-id="2" node-id="278" stroke="none" target-height="139.09998" target-width="36.899994" target-x="265.2" target-y="788.9"/><g node-id="383"><path d="M 296.60 920.60 C 303.80 924.80 303.90 931.50 296.70 935.70 C 289.50 939.90 277.80 939.90 270.60 935.70 C 263.40 931.50 263.30 924.80 270.50 920.60 C 277.70 916.40 289.40 916.50 296.60 920.60 Z" fill="url(#SVGID_4_)" fill-rule="nonzero" group-id="2,14" node-id="282" stroke="none" target-height="23.5" target-width="40.600006" target-x="263.3" target-y="916.4"/></g></g><g node-id="372"><g node-id="384"><path d="M 834.60 157.00 L 833.30 631.60 L 419.10 872.30 L 420.40 397.70 Z" fill="url(#SVGID_5_)" fill-rule="nonzero" group-id="3,15" node-id="290" stroke="none" target-height="715.3" target-width="415.49997" target-x="419.1" target-y="157"/></g><g node-id="385"><path d="M 420.40 397.70 L 419.10 872.30 L 171.50 729.40 L 172.80 254.70 Z" fill="url(#SVGID_6_)" fill-rule="nonzero" group-id="3,16" node-id="295" stroke="none" target-height="617.6" target-width="248.9" target-x="171.5" target-y="254.7"/></g><path d="M 834.60 157.00 L 420.40 397.70 L 172.80 254.70 L 587.00 14.00 Z" fill="url(#SVGID_7_)" fill-rule="nonzero" group-id="3,17" node-id="300" stroke="none" target-height="383.7" target-width="661.8" target-x="172.8" target-y="14"/></g><g node-id="373"><g node-id="387"><path d="M 717.90 137.60 L 717.80 171.50 L 432.90 337.10 L 433.00 303.10 Z" fill="url(#SVGID_8_)" fill-rule="nonzero" group-id="4,18" node-id="308" stroke="none" target-height="199.5" target-width="285.00003" target-x="432.9" target-y="137.6"/></g><g node-id="388"><path d="M 433.00 303.10 L 432.90 337.10 L 288.20 253.50 L 288.30 219.60 Z" fill="url(#SVGID_9_)" fill-rule="nonzero" group-id="4,19" node-id="313" stroke="none" target-height="117.5" target-width="144.79999" target-x="288.2" target-y="219.6"/></g><path d="M 288.30 219.60 L 573.20 54.00 L 717.90 137.60 L 433.00 303.10 Z" fill="url(#SVGID_10_)" fill-rule="nonzero" group-id="4,20" node-id="318" stroke="none" target-height="249.1" target-width="429.60004" target-x="288.3" target-y="54"/></g><g node-id="374"><path d="M 459.30 485.40 L 459.20 446.10 L 809.30 244.00 L 809.40 283.30 Z" fill="url(#SVGID_11_)" fill-rule="nonzero" group-id="5" node-id="324" stroke="none" target-height="241.4" target-width="350.2" target-x="459.2" target-y="244"/></g><g node-id="375"><path d="M 457.30 566.50 L 457.20 527.20 L 807.30 325.10 L 807.40 364.40 Z" fill="url(#SVGID_12_)" fill-rule="nonzero" group-id="6" node-id="329" stroke="none" target-height="241.4" target-width="350.2" target-x="457.2" target-y="325.1"/></g><g node-id="376"><path d="M 457.30 645.20 L 457.20 605.90 L 807.30 403.70 L 807.40 443.00 Z" fill="url(#SVGID_13_)" fill-rule="nonzero" group-id="7" node-id="334" stroke="none" target-height="241.5" target-width="350.2" target-x="457.2" target-y="403.7"/></g><g node-id="377"><path d="M 457.30 723.80 L 457.20 684.40 L 807.30 482.30 L 807.40 521.60 Z" fill="url(#SVGID_14_)" fill-rule="nonzero" group-id="8" node-id="339" stroke="none" target-height="241.5" target-width="350.2" target-x="457.2" target-y="482.3"/></g><g node-id="378"><path d="M 460.30 797.00 L 460.20 757.70 L 810.30 555.60 L 810.40 594.90 Z" fill="url(#SVGID_15_)" fill-rule="nonzero" group-id="9" node-id="344" stroke="none" target-height="241.40002" target-width="350.2" target-x="460.2" target-y="555.6"/></g><g node-id="379"><path d="M 213.80 864.20 C 252.60 890.80 315.30 890.80 353.90 864.20 C 373.20 850.90 382.80 833.50 382.70 816.00 L 184.60 816.00 C 184.70 833.40 194.40 850.90 213.80 864.20 Z" fill="url(#SVGID_16_)" fill-rule="nonzero" group-id="10" node-id="349" stroke="none" target-height="74.79999" target-width="198.19998" target-x="184.6" target-y="816"/><path d="M 283.60 613.90 L 184.60 816.00 L 382.70 816.00 L 382.70 816.00 Z" fill="url(#SVGID_17_)" fill-rule="nonzero" group-id="10" node-id="351" stroke="none" target-height="202.09998" target-width="198.1" target-x="184.6" target-y="613.9"/></g><g node-id="380"><path d="M 178.00 849.00 L 201.30 849.00 L 201.30 937.00 L 178.00 937.00 Z" fill="url(#SVGID_18_)" fill-rule="nonzero" group-id="11" node-id="356" stroke="none" target-height="88" target-width="23.300003" target-x="178" target-y="849"/><g node-id="390"><path d="M 197.80 932.30 C 202.40 934.90 202.40 939.20 197.90 941.90 C 193.40 944.50 186.00 944.50 181.40 941.90 C 176.80 939.30 176.80 935.00 181.30 932.30 C 185.90 929.70 193.30 929.70 197.80 932.30 Z" fill="url(#SVGID_19_)" fill-rule="nonzero" group-id="11,21" node-id="360" stroke="none" target-height="14.799988" target-width="25.59999" target-x="176.8" target-y="929.7"/></g></g><g node-id="381"><path d="M 145.50 896.60 C 170.00 913.40 209.70 913.40 234.10 896.60 C 246.30 888.20 252.40 877.20 252.30 866.10 L 127.00 866.10 C 127.00 877.20 133.20 888.20 145.50 896.60 Z" fill="url(#SVGID_20_)" fill-rule="nonzero" group-id="12" node-id="366" stroke="none" target-height="47.30005" target-width="125.399994" target-x="127" target-y="866.1"/><path d="M 189.60 738.40 L 127.00 866.10 L 252.20 866.10 L 252.20 866.10 Z" fill="url(#SVGID_21_)" fill-rule="nonzero" group-id="12" node-id="368" stroke="none" target-height="127.69995" target-width="125.2" target-x="127" target-y="738.4"/></g></svg>