<svg height="1024" node-id="1" sillyvg="true" template-height="1024" template-width="1024" version="1.1" viewBox="0 0 1024 1024" width="1024" xmlns="http://www.w3.org/2000/svg" xmlns:xlink="http://www.w3.org/1999/xlink"><defs node-id="99"><linearGradient gradientUnits="userSpaceOnUse" id="SVGID_1_" node-id="28" spreadMethod="pad" x1="75.5402" x2="883.5712" y1="829.4053" y2="829.4053"><stop offset="0" stop-color="#ffa21e"/><stop offset="1" stop-color="#ffcb27"/></linearGradient><linearGradient gradientUnits="userSpaceOnUse" id="SVGID_2_" node-id="33" spreadMethod="pad" x1="75.8518" x2="883.5718" y1="658.0735" y2="658.0735"><stop offset="0" stop-color="#ffcb27"/><stop offset="1" stop-color="#ffa21e"/></linearGradient><linearGradient gradientUnits="userSpaceOnUse" id="SVGID_3_" node-id="39" spreadMethod="pad" x1="166.2257" x2="792.8859" y1="708.2578" y2="708.2578"><stop offset="0" stop-color="#c6cad0"/><stop offset="1" stop-color="#c0c9cf"/></linearGradient><linearGradient gradientUnits="userSpaceOnUse" id="SVGID_4_" node-id="44" spreadMethod="pad" x1="166.4077" x2="792.8863" y1="585.8729" y2="585.8729"><stop offset="0" stop-color="#fbfbfb"/><stop offset="1" stop-color="#fbfbfb"/></linearGradient><linearGradient gradientUnits="userSpaceOnUse" id="SVGID_5_" node-id="49" spreadMethod="pad" x1="309.7055" x2="708.4855" y1="499.5593" y2="499.5593"><stop offset="0" stop-color="#6386db"/><stop offset="1" stop-color="#8eb0ec"/></linearGradient><linearGradient gradientUnits="userSpaceOnUse" id="SVGID_6_" node-id="56" spreadMethod="pad" x1="359.0342" x2="595.3361" y1="534.9055" y2="534.9055"><stop offset="0" stop-color="#6386db"/><stop offset="1" stop-color="#8eb0ec"/></linearGradient><linearGradient gradientUnits="userSpaceOnUse" id="SVGID_7_" node-id="60" spreadMethod="pad" x1="327.633" x2="864.8585" y1="387.1802" y2="387.1802"><stop offset="0" stop-color="#6386db"/><stop offset="1" stop-color="#8eb0ec"/></linearGradient><linearGradient gradientUnits="userSpaceOnUse" id="SVGID_8_" node-id="67" spreadMethod="pad" x1="444.2697" x2="881.2992" y1="258.9522" y2="258.9522"><stop offset="0" stop-color="#6386db"/><stop offset="1" stop-color="#8eb0ec"/></linearGradient><linearGradient gradientUnits="userSpaceOnUse" id="SVGID_9_" node-id="74" spreadMethod="pad" x1="496.8912" x2="838.1627" y1="254.2099" y2="254.2099"><stop offset="0" stop-color="#6386db"/><stop offset="1" stop-color="#8eb0ec"/></linearGradient><linearGradient gradientUnits="userSpaceOnUse" id="SVGID_10_" node-id="78" spreadMethod="pad" x1="367.1325" x2="757.9658" y1="421.2965" y2="421.2965"><stop offset="0" stop-color="#ffcb27"/><stop offset="1" stop-color="#ffa21e"/></linearGradient><linearGradient gradientUnits="userSpaceOnUse" id="SVGID_11_" node-id="82" spreadMethod="pad" x1="713.7726" x2="990.8964" y1="567.9423" y2="567.9423"><stop offset="0" stop-color="#ffcb27"/><stop offset="1" stop-color="#ffa21e"/></linearGradient><linearGradient gradientUnits="userSpaceOnUse" id="SVGID_12_" node-id="86" spreadMethod="pad" x1="20.0229" x2="297.1467" y1="318.3851" y2="318.3851"><stop offset="0" stop-color="#ffcb27"/><stop offset="1" stop-color="#ffa21e"/></linearGradient><linearGradient gradientTransform="matrix(0.9993 -0.03781059 0.03781059 0.9993 -35.8774 6.6859)" gradientUnits="userSpaceOnUse" id="SVGID_13_" node-id="90" spreadMethod="pad" x1="310.8442" x2="414.3995" y1="135.862" y2="135.862"><stop offset="0" stop-color="#ffcb27"/><stop offset="1" stop-color="#ffa21e"/></linearGradient><linearGradient gradientTransform="matrix(0.9073 0.4204 -0.4204 0.9073 435.9609 -22.5567)" gradientUnits="userSpaceOnUse" id="SVGID_14_" node-id="94" spreadMethod="pad" x1="488.3004" x2="591.8557" y1="2.0015" y2="2.0015"><stop offset="0" stop-color="#ffcb27"/><stop offset="1" stop-color="#ffa21e"/></linearGradient></defs><g node-id="265"><g node-id="268"><g node-id="273"><path d="M 883.30 666.40 C 883.20 668.40 883.10 670.50 882.90 672.50 C 882.70 674.30 882.50 676.00 882.20 677.80 C 881.90 679.80 881.60 681.80 881.20 683.80 C 880.90 685.60 880.50 687.40 880.10 689.10 C 879.70 691.10 879.20 693.00 878.70 695.00 C 878.20 696.80 877.70 698.60 877.10 700.30 C 876.50 702.30 875.90 704.20 875.20 706.10 C 874.60 707.80 873.90 709.60 873.20 711.30 C 872.40 713.30 871.50 715.40 870.60 717.40 C 869.80 719.10 869.00 720.80 868.20 722.50 C 867.20 724.50 866.20 726.50 865.10 728.60 C 863.90 730.70 862.80 732.90 861.50 735.00 C 861.20 735.50 860.90 736.00 860.60 736.50 C 858.70 739.60 856.70 742.60 854.60 745.70 C 854.20 746.30 853.80 746.80 853.40 747.40 C 851.30 750.40 849.00 753.40 846.60 756.40 C 846.20 757.00 845.70 757.50 845.20 758.10 C 843.10 760.70 840.90 763.30 838.60 765.80 C 838.00 766.50 837.40 767.20 836.70 767.90 C 834.00 770.90 831.20 773.80 828.30 776.70 C 827.80 777.20 827.20 777.70 826.70 778.30 C 824.50 780.50 822.10 782.60 819.80 784.70 C 817.90 786.40 816.00 788.10 814.00 789.80 C 812.20 791.40 810.30 792.90 808.40 794.40 C 806.30 796.10 804.20 797.70 802.10 799.30 C 800.10 800.80 798.10 802.30 796.10 803.80 C 793.90 805.40 791.60 807.00 789.30 808.60 C 787.20 810.10 785.10 811.50 782.90 813.00 C 780.50 814.60 778.00 816.10 775.60 817.60 C 772.50 819.50 769.50 821.40 766.30 823.30 C 760.30 826.80 754.00 830.10 747.70 833.40 C 745.90 834.30 744.00 835.20 742.20 836.10 C 737.30 838.50 732.30 840.90 727.20 843.20 C 725.50 844.00 723.80 844.80 722.10 845.50 C 715.50 848.40 708.80 851.10 702.00 853.70 C 700.80 854.20 699.60 854.60 698.30 855.00 C 692.50 857.10 686.70 859.20 680.80 861.10 C 678.40 861.90 675.90 862.70 673.50 863.50 C 670.20 864.50 667.00 865.50 663.70 866.50 C 660.90 867.30 658.10 868.10 655.30 868.90 C 652.00 869.80 648.60 870.70 645.20 871.60 C 642.40 872.30 639.60 873.00 636.70 873.70 C 633.30 874.50 629.80 875.30 626.40 876.10 C 623.60 876.70 620.70 877.40 617.90 878.00 C 614.40 878.70 610.90 879.40 607.30 880.10 C 604.60 880.60 601.90 881.10 599.20 881.60 C 591.60 882.90 584.00 884.20 576.40 885.20 C 575.30 885.40 574.20 885.50 573.10 885.60 C 566.40 886.50 559.70 887.30 553.00 888.00 C 550.40 888.30 547.90 888.50 545.30 888.80 C 541.00 889.20 536.70 889.60 532.30 889.90 C 529.60 890.10 526.80 890.30 524.10 890.50 C 519.60 890.80 515.10 891.00 510.50 891.20 C 507.90 891.30 505.40 891.40 502.80 891.50 C 498.90 891.60 494.90 891.70 491.00 891.70 C 488.30 891.70 485.50 891.80 482.80 891.80 C 478.60 891.80 474.40 891.70 470.20 891.70 C 467.70 891.70 465.20 891.70 462.70 891.60 C 458.80 891.50 455.00 891.30 451.20 891.10 C 448.50 891.00 445.80 890.90 443.10 890.80 C 439.00 890.60 434.80 890.30 430.70 890.00 C 428.30 889.80 425.90 889.70 423.50 889.50 C 418.50 889.10 413.60 888.60 408.70 888.10 C 407.20 887.90 405.60 887.80 404.10 887.60 C 397.60 886.90 391.20 886.10 384.80 885.20 C 383.80 885.10 382.70 884.90 381.70 884.70 C 376.20 883.90 370.70 883.00 365.30 882.10 C 363.00 881.70 360.80 881.20 358.50 880.80 C 354.30 880.00 350.10 879.30 346.00 878.40 C 343.80 878.00 341.70 877.50 339.50 877.00 C 334.90 876.00 330.40 875.00 325.90 873.90 C 323.40 873.30 320.90 872.70 318.40 872.00 C 314.30 871.00 310.20 869.90 306.10 868.80 C 303.80 868.20 301.50 867.50 299.20 866.80 C 292.80 864.90 286.40 863.00 280.10 860.90 C 279.00 860.50 277.80 860.20 276.70 859.80 C 269.50 857.30 262.40 854.70 255.40 852.00 C 252.50 850.90 249.70 849.70 246.90 848.60 C 244.70 847.70 242.40 846.80 240.20 845.80 C 237.00 844.40 233.90 843.00 230.80 841.60 C 228.80 840.70 226.70 839.80 224.70 838.80 C 221.30 837.20 218.00 835.50 214.60 833.80 C 212.90 833.00 211.30 832.20 209.60 831.30 C 204.70 828.70 199.80 826.10 195.00 823.30 C 115.40 777.30 75.60 717.00 75.80 656.70 L 75.50 766.60 C 75.30 826.90 115.10 887.20 194.70 933.20 C 199.50 935.90 204.30 938.60 209.30 941.20 C 210.90 942.10 212.60 942.90 214.30 943.70 C 217.60 945.40 221.00 947.10 224.40 948.70 C 226.40 949.70 228.50 950.60 230.50 951.50 C 233.60 952.90 236.70 954.30 239.90 955.70 C 242.10 956.70 244.40 957.60 246.60 958.50 C 248.70 959.40 250.90 960.30 253.00 961.20 C 253.70 961.50 254.40 961.70 255.10 962.00 C 262.10 964.70 269.20 967.40 276.50 969.80 C 277.60 970.20 278.80 970.50 279.90 970.90 C 286.20 973.00 292.60 975.00 299.00 976.80 C 300.10 977.10 301.10 977.50 302.20 977.80 C 303.40 978.10 304.70 978.40 305.90 978.80 C 310.00 979.90 314.10 981.00 318.20 982.00 C 320.70 982.60 323.20 983.30 325.70 983.90 C 330.20 985.00 334.80 986.00 339.30 987.00 C 341.00 987.40 342.70 987.80 344.40 988.10 C 344.90 988.20 345.30 988.30 345.80 988.40 C 350.00 989.30 354.10 990.00 358.30 990.80 C 360.60 991.20 362.80 991.70 365.10 992.10 C 370.60 993.00 376.10 993.90 381.70 994.70 C 382.60 994.80 383.60 995.00 384.50 995.10 C 384.50 995.10 384.60 995.10 384.60 995.10 C 391.00 996.00 397.40 996.80 403.90 997.50 C 405.30 997.70 406.70 997.80 408.10 997.90 C 413.20 998.40 418.30 999.00 423.40 999.40 C 423.50 999.40 423.60 999.40 423.80 999.40 C 426.00 999.60 428.20 999.70 430.40 999.90 C 434.60 1000.20 438.80 1000.50 443.00 1000.80 C 445.70 1000.90 448.40 1001.00 451.00 1001.10 C 454.90 1001.30 458.70 1001.50 462.60 1001.60 C 462.90 1001.60 463.20 1001.60 463.50 1001.60 C 465.70 1001.70 467.80 1001.60 470.00 1001.70 C 474.20 1001.80 478.40 1001.80 482.60 1001.80 C 485.40 1001.80 488.10 1001.70 490.90 1001.70 C 494.80 1001.60 498.80 1001.60 502.70 1001.50 C 503.40 1001.50 504.20 1001.50 504.90 1001.50 C 506.70 1001.40 508.50 1001.30 510.40 1001.20 C 514.90 1001.00 519.50 1000.80 524.00 1000.50 C 526.70 1000.30 529.40 1000.10 532.20 999.90 C 536.50 999.60 540.90 999.20 545.20 998.80 C 546.70 998.70 548.20 998.60 549.70 998.40 C 550.80 998.30 551.80 998.10 552.90 998.00 C 559.60 997.30 566.30 996.50 573.00 995.60 C 574.10 995.50 575.20 995.30 576.30 995.20 C 584.00 994.10 591.60 992.90 599.10 991.60 C 599.80 991.50 600.50 991.40 601.20 991.30 C 603.20 990.90 605.20 990.50 607.20 990.10 C 610.70 989.40 614.20 988.80 617.70 988.00 C 620.60 987.40 623.40 986.80 626.30 986.10 C 629.70 985.30 633.20 984.50 636.60 983.70 C 639.40 983.00 642.30 982.30 645.10 981.60 C 648.50 980.70 651.80 979.80 655.20 978.90 C 658.00 978.10 660.80 977.30 663.60 976.50 C 666.90 975.50 670.20 974.50 673.40 973.50 C 674.80 973.10 676.30 972.70 677.70 972.20 C 678.70 971.90 679.70 971.50 680.70 971.10 C 686.60 969.10 692.40 967.10 698.20 965.00 C 699.40 964.50 700.70 964.10 701.90 963.70 C 708.70 961.10 715.40 958.40 722.00 955.50 C 723.70 954.80 725.40 954.00 727.10 953.20 C 732.20 950.90 737.20 948.60 742.10 946.10 C 743.90 945.20 745.80 944.30 747.60 943.40 C 753.90 940.20 760.20 936.80 766.20 933.30 C 767.90 932.30 769.50 931.40 771.10 930.40 C 772.60 929.50 774.00 928.50 775.50 927.60 C 778.00 926.10 780.40 924.50 782.80 922.90 C 785.00 921.50 787.10 920.00 789.20 918.50 C 791.50 916.90 793.80 915.30 796.00 913.70 C 798.00 912.20 800.00 910.70 802.00 909.20 C 804.10 907.60 806.30 905.90 808.30 904.30 C 810.20 902.80 812.00 901.20 813.90 899.70 C 815.90 898.00 817.80 896.30 819.70 894.60 C 820.50 893.90 821.30 893.20 822.10 892.50 C 823.70 891.10 825.10 889.60 826.60 888.20 C 827.10 887.70 827.70 887.20 828.20 886.60 C 831.10 883.70 833.90 880.80 836.60 877.80 C 837.20 877.10 837.80 876.40 838.50 875.70 C 840.80 873.10 843.00 870.60 845.10 868.00 C 845.60 867.40 846.00 866.90 846.50 866.30 C 846.70 866.00 846.90 865.80 847.10 865.50 C 849.20 862.80 851.30 860.00 853.20 857.20 C 853.60 856.60 854.00 856.10 854.40 855.50 C 856.50 852.50 858.50 849.40 860.40 846.30 C 860.70 845.80 861.00 845.30 861.30 844.80 C 862.00 843.60 862.70 842.50 863.40 841.30 C 863.90 840.30 864.40 839.30 864.90 838.40 C 866.00 836.40 867.00 834.40 868.00 832.30 C 868.80 830.60 869.60 828.90 870.40 827.20 C 871.30 825.20 872.20 823.10 873.00 821.10 C 873.40 820.20 873.80 819.30 874.10 818.40 C 874.40 817.60 874.60 816.80 874.90 815.90 C 875.60 814.00 876.20 812.00 876.80 810.00 C 877.40 808.20 877.90 806.50 878.40 804.70 C 878.90 802.70 879.40 800.80 879.80 798.80 C 880.00 797.70 880.40 796.70 880.60 795.60 C 880.70 794.90 880.80 794.20 880.90 793.40 C 881.30 791.40 881.60 789.40 881.90 787.40 C 882.10 785.60 882.40 783.90 882.60 782.10 C 882.80 780.10 882.90 778.00 883.00 776.00 C 883.10 774.80 883.20 773.60 883.30 772.40 C 883.30 771.20 883.40 770.00 883.40 768.90 L 883.70 659.00 C 883.60 661.60 883.40 664.00 883.30 666.40 Z" fill="url(#SVGID_1_)" fill-rule="nonzero" group-id="1,4,9" node-id="192" stroke="none" target-height="345.09998" target-width="808.4" target-x="75.3" target-y="656.7"/><g node-id="278"><path d="M 764.30 492.70 C 922.50 584.10 923.40 732.20 766.20 823.50 C 609.00 914.90 353.30 914.90 195.00 823.50 C 36.90 732.10 36.00 584.00 193.20 492.60 C 350.40 401.30 606.10 401.30 764.30 492.70 Z" fill="url(#SVGID_2_)" fill-rule="nonzero" group-id="1,4,9,14" node-id="196" stroke="none" target-height="513.60004" target-width="887.4" target-x="36" target-y="401.3"/></g></g></g></g><g node-id="266"><g node-id="269"><path d="M 792.90 586.80 C 792.90 588.60 792.80 590.50 792.70 592.30 C 792.60 593.90 792.50 595.50 792.40 597.00 C 792.30 598.40 792.10 599.70 791.90 601.10 C 791.70 602.70 791.50 604.20 791.20 605.80 C 790.90 607.20 790.60 608.60 790.30 609.90 C 790.00 611.40 789.60 613.00 789.20 614.50 C 788.80 615.90 788.40 617.30 788.00 618.60 C 787.50 620.10 787.00 621.60 786.50 623.10 C 786.00 624.50 785.50 625.80 785.00 627.10 C 784.40 628.70 783.70 630.30 783.00 631.80 C 782.40 633.10 781.80 634.50 781.10 635.80 C 780.30 637.40 779.50 638.90 778.70 640.50 C 778.00 641.80 777.30 643.00 776.60 644.30 C 775.50 646.20 774.40 648.00 773.20 649.80 C 772.50 650.90 771.80 652.00 771.00 653.20 C 769.60 655.20 768.10 657.30 766.60 659.30 C 765.90 660.20 765.20 661.20 764.50 662.10 C 764.20 662.50 763.80 663.00 763.40 663.40 C 761.80 665.40 760.10 667.40 758.30 669.40 C 757.80 669.90 757.30 670.50 756.80 671.00 C 754.70 673.30 752.50 675.60 750.30 677.80 C 749.90 678.20 749.50 678.60 749.10 679.00 C 747.40 680.70 745.50 682.30 743.70 684.00 C 742.20 685.30 740.70 686.60 739.20 687.90 C 737.80 689.10 736.40 690.30 734.90 691.50 C 733.30 692.80 731.70 694.10 730.00 695.30 C 728.50 696.50 726.90 697.60 725.30 698.80 C 723.60 700.10 721.80 701.30 720.00 702.50 C 718.40 703.60 716.70 704.80 715.00 705.90 C 713.10 707.10 711.20 708.30 709.30 709.50 C 706.90 711.00 704.50 712.50 702.00 713.90 C 697.30 716.60 692.50 719.20 687.60 721.70 C 686.20 722.40 684.80 723.10 683.30 723.80 C 679.50 725.70 675.60 727.50 671.70 729.30 C 670.40 729.90 669.10 730.50 667.70 731.10 C 662.60 733.30 657.40 735.50 652.10 737.50 C 651.20 737.90 650.20 738.20 649.30 738.50 C 644.80 740.20 640.30 741.80 635.70 743.30 C 633.80 743.90 631.90 744.50 630.00 745.10 C 627.50 745.90 624.90 746.70 622.40 747.40 C 620.30 748.00 618.10 748.70 615.90 749.30 C 613.30 750.00 610.70 750.70 608.10 751.40 C 605.90 752.00 603.70 752.50 601.50 753.10 C 598.90 753.70 596.20 754.30 593.50 754.90 C 591.30 755.40 589.10 755.90 586.90 756.40 C 584.20 757.00 581.50 757.50 578.70 758.00 C 576.60 758.40 574.50 758.80 572.40 759.20 C 566.50 760.20 560.60 761.20 554.70 762.00 C 553.90 762.10 553.00 762.20 552.20 762.30 C 547.00 763.00 541.80 763.60 536.60 764.20 C 534.60 764.40 532.60 764.60 530.60 764.80 C 527.20 765.10 523.90 765.40 520.50 765.60 C 518.40 765.80 516.30 765.90 514.20 766.00 C 510.70 766.20 507.20 766.40 503.70 766.50 C 501.70 766.60 499.70 766.70 497.80 766.70 C 494.80 766.80 491.70 766.80 488.60 766.90 C 486.50 766.90 484.30 767.00 482.20 767.00 C 478.90 767.00 475.70 767.00 472.40 766.90 C 470.50 766.90 468.50 766.90 466.60 766.80 C 463.60 766.70 460.60 766.60 457.60 766.40 C 455.50 766.30 453.40 766.30 451.30 766.10 C 448.10 765.90 444.80 765.70 441.60 765.40 C 439.80 765.30 437.90 765.20 436.10 765.00 C 432.10 764.70 428.00 764.30 424.00 763.80 C 423.00 763.70 422.00 763.60 421.00 763.50 C 416.00 762.90 411.00 762.30 406.00 761.60 C 405.20 761.50 404.40 761.30 403.60 761.20 C 399.40 760.60 395.10 759.90 390.90 759.20 C 389.10 758.90 387.40 758.50 385.60 758.20 C 382.40 757.60 379.10 757.00 375.90 756.40 C 374.20 756.10 372.50 755.70 370.90 755.30 C 367.40 754.50 363.90 753.80 360.40 752.90 C 358.40 752.40 356.50 751.90 354.60 751.40 C 351.40 750.60 348.20 749.80 345.10 748.90 C 343.30 748.40 341.50 747.90 339.80 747.40 C 334.80 745.90 329.90 744.40 325.00 742.80 C 324.10 742.50 323.30 742.30 322.40 742.00 C 316.80 740.10 311.30 738.10 305.80 736.00 C 303.60 735.10 301.40 734.20 299.20 733.30 C 297.50 732.60 295.70 731.90 294.00 731.10 C 291.50 730.00 289.10 728.90 286.70 727.80 C 285.10 727.10 283.50 726.40 281.90 725.60 C 279.30 724.30 276.70 723.00 274.10 721.70 C 272.80 721.00 271.50 720.40 270.20 719.80 C 266.40 717.80 262.60 715.70 258.90 713.60 C 197.10 677.90 166.30 631.10 166.40 584.40 L 166.20 648.60 C 166.10 695.30 196.90 742.10 258.70 777.80 C 262.40 779.90 266.20 782.00 270.00 784.00 C 271.30 784.70 272.60 785.30 273.90 786.00 C 276.50 787.30 279.00 788.60 281.70 789.80 C 283.30 790.50 284.90 791.30 286.50 792.00 C 288.90 793.10 291.30 794.20 293.80 795.20 C 295.50 795.90 297.30 796.60 299.00 797.40 C 300.70 798.10 302.30 798.80 304.00 799.50 C 304.50 799.70 305.10 799.90 305.60 800.10 C 311.00 802.20 316.60 804.30 322.20 806.20 C 323.10 806.50 323.90 806.70 324.80 807.00 C 329.70 808.60 334.60 810.20 339.60 811.60 C 340.40 811.80 341.20 812.10 342.10 812.40 C 343.10 812.70 344.00 812.90 345.00 813.20 C 348.20 814.10 351.30 814.90 354.50 815.70 C 356.40 816.20 358.40 816.70 360.30 817.20 C 363.80 818.00 367.30 818.80 370.80 819.60 C 372.10 819.90 373.40 820.20 374.70 820.50 C 375.10 820.60 375.40 820.60 375.80 820.70 C 379.00 821.40 382.20 821.90 385.50 822.50 C 387.30 822.80 389.00 823.20 390.80 823.50 C 395.00 824.20 399.20 824.90 403.50 825.50 C 404.30 825.60 405.00 825.80 405.80 825.90 C 405.80 825.90 405.90 825.90 405.90 825.90 C 410.90 826.60 415.90 827.20 420.90 827.80 C 422.00 827.90 423.10 828.00 424.20 828.10 C 428.10 828.50 432.00 828.90 436.00 829.20 C 436.10 829.20 436.20 829.20 436.30 829.20 C 438.00 829.30 439.70 829.40 441.40 829.50 C 444.70 829.70 447.90 830.00 451.20 830.20 C 453.30 830.30 455.30 830.40 457.40 830.50 C 460.40 830.60 463.40 830.80 466.40 830.90 C 466.60 830.90 466.90 830.90 467.10 830.90 C 468.80 830.90 470.50 830.90 472.10 831.00 C 475.40 831.10 478.60 831.10 481.90 831.10 C 484.00 831.10 486.10 831.00 488.30 831.00 C 491.40 831.00 494.40 830.90 497.50 830.80 C 498.10 830.80 498.60 830.80 499.20 830.80 C 500.60 830.80 502.00 830.60 503.40 830.60 C 506.90 830.50 510.40 830.30 514.00 830.10 C 516.10 830.00 518.20 829.80 520.30 829.70 C 523.70 829.50 527.00 829.20 530.40 828.90 C 531.60 828.80 532.80 828.70 533.90 828.60 C 534.70 828.50 535.50 828.40 536.30 828.30 C 541.50 827.80 546.70 827.10 551.90 826.40 C 552.70 826.30 553.60 826.20 554.40 826.10 C 560.30 825.30 566.30 824.30 572.10 823.30 C 572.70 823.20 573.20 823.10 573.80 823.00 C 575.40 822.70 576.90 822.40 578.40 822.10 C 581.10 821.60 583.90 821.10 586.60 820.50 C 588.80 820.00 591.00 819.50 593.20 819.10 C 595.90 818.50 598.50 817.90 601.20 817.30 C 603.40 816.80 605.60 816.20 607.80 815.60 C 610.40 814.90 613.00 814.20 615.60 813.50 C 617.80 812.90 620.00 812.30 622.10 811.60 C 624.60 810.80 627.20 810.10 629.70 809.30 C 630.80 809.00 631.90 808.60 633.10 808.30 C 633.90 808.00 634.70 807.70 635.40 807.50 C 640.00 806.00 644.50 804.40 649.00 802.70 C 649.90 802.40 650.90 802.00 651.80 801.70 C 657.10 799.70 662.30 797.60 667.40 795.30 C 668.70 794.70 670.00 794.10 671.40 793.50 C 675.30 791.70 679.20 789.90 683.00 788.00 C 684.40 787.30 685.80 786.60 687.30 785.90 C 692.20 783.40 697.00 780.80 701.70 778.10 C 703.00 777.40 704.30 776.60 705.50 775.80 C 706.70 775.10 707.80 774.30 708.90 773.60 C 710.80 772.40 712.70 771.20 714.60 770.00 C 716.30 768.90 718.00 767.70 719.60 766.60 C 721.40 765.40 723.20 764.10 724.90 762.90 C 726.50 761.70 728.00 760.60 729.60 759.40 C 731.30 758.10 732.90 756.90 734.50 755.60 C 736.00 754.40 737.40 753.20 738.80 752.00 C 740.30 750.70 741.80 749.40 743.30 748.10 C 743.90 747.60 744.60 747.00 745.20 746.50 C 746.40 745.40 747.60 744.30 748.70 743.10 C 749.10 742.70 749.50 742.30 750.00 741.90 C 752.30 739.70 754.40 737.40 756.50 735.10 C 757.00 734.60 757.50 734.00 758.00 733.50 C 759.80 731.50 761.50 729.50 763.10 727.50 C 763.50 727.10 763.80 726.60 764.20 726.20 C 764.40 726.00 764.50 725.80 764.70 725.60 C 765.30 724.90 765.80 724.10 766.30 723.40 C 767.80 721.40 769.30 719.40 770.70 717.30 C 771.50 716.20 772.20 715.10 772.90 713.90 C 774.10 712.10 775.30 710.20 776.30 708.30 C 776.60 707.80 776.90 707.30 777.20 706.80 C 777.60 706.00 778.00 705.30 778.40 704.50 C 779.20 702.90 780.10 701.40 780.80 699.80 C 781.40 698.50 782.10 697.20 782.60 695.80 C 783.30 694.20 784.00 692.60 784.60 691.10 C 784.90 690.40 785.20 689.70 785.50 689.00 C 785.70 688.40 785.90 687.70 786.10 687.10 C 786.60 685.60 787.10 684.10 787.60 682.60 C 788.00 681.20 788.40 679.80 788.80 678.50 C 789.20 677.00 789.60 675.50 789.90 673.90 C 790.10 673.10 790.30 672.30 790.50 671.40 C 790.60 670.80 790.70 670.30 790.80 669.70 C 791.10 668.10 791.30 666.60 791.50 665.00 C 791.70 663.60 791.90 662.30 792.00 660.90 C 792.20 659.30 792.30 657.80 792.30 656.20 C 792.40 655.30 792.50 654.40 792.50 653.40 C 792.50 652.50 792.50 651.60 792.50 650.60 L 792.50 650.60 L 792.90 586.80 Z" fill="url(#SVGID_3_)" fill-rule="nonzero" group-id="2,5" node-id="206" stroke="none" target-height="246.69995" target-width="626.80005" target-x="166.1" target-y="584.4"/><g node-id="274"><path d="M 700.40 457.60 C 823.10 528.40 823.80 643.30 701.80 714.20 C 579.90 785.00 381.50 785.10 258.80 714.20 C 136.10 643.30 135.40 528.50 257.40 457.60 C 379.40 386.70 577.70 386.70 700.40 457.60 Z" fill="url(#SVGID_4_)" fill-rule="nonzero" group-id="2,5,10" node-id="210" stroke="none" target-height="398.39996" target-width="688.4" target-x="135.4" target-y="386.7"/></g></g></g><g node-id="267"><path d="M 408.30 303.00 C 407.20 305.80 404.10 356.40 417.50 383.50 C 418.70 385.80 419.90 388.20 421.10 390.50 C 421.50 391.30 422.00 392.10 422.50 392.80 C 423.40 394.30 424.20 395.90 425.10 397.40 C 425.70 398.30 426.30 399.20 426.80 400.10 C 427.70 401.50 428.50 402.80 429.40 404.20 C 430.00 405.20 430.70 406.10 431.40 407.10 C 432.30 408.40 433.10 409.70 434.10 410.90 C 434.80 411.90 435.60 412.90 436.30 413.90 C 437.20 415.10 438.10 416.40 439.10 417.60 C 439.90 418.60 440.70 419.60 441.50 420.60 C 442.40 421.80 443.40 423.00 444.40 424.20 C 445.20 425.20 446.10 426.20 446.90 427.20 C 447.90 428.40 448.90 429.50 449.90 430.70 C 450.80 431.70 451.70 432.70 452.60 433.60 C 453.60 434.70 454.70 435.90 455.70 437.00 C 456.20 437.60 456.80 438.10 457.30 438.70 C 460.10 441.60 462.90 444.40 465.80 447.20 C 466.10 447.50 466.30 447.70 466.60 448.00 C 469.70 450.90 472.80 453.70 476.00 456.50 C 476.70 457.10 477.30 457.70 478.00 458.30 C 480.90 460.70 483.80 463.20 486.70 465.50 C 487.00 465.70 487.20 465.90 487.50 466.10 C 490.30 468.30 493.10 470.40 495.90 472.50 C 496.70 473.10 497.50 473.70 498.30 474.20 C 501.30 476.40 504.40 478.50 507.50 480.60 C 507.50 480.60 507.60 480.70 507.60 480.70 C 510.70 482.80 513.90 484.80 517.20 486.80 C 518.00 487.30 518.80 487.80 519.60 488.30 C 523.10 490.40 526.70 492.50 530.30 494.50 C 530.60 494.60 530.80 494.80 531.10 494.90 C 534.50 496.80 538.00 498.60 541.50 500.30 C 542.40 500.70 543.20 501.20 544.10 501.60 C 545.70 502.40 547.30 503.10 548.90 503.90 C 550.00 504.40 551.10 504.90 552.20 505.40 C 553.90 506.20 555.70 506.90 557.40 507.60 C 558.40 508.00 559.40 508.50 560.40 508.90 C 562.50 509.80 564.60 510.60 566.70 511.40 C 567.40 511.70 568.00 511.90 568.70 512.20 C 571.50 513.20 574.20 514.20 577.00 515.10 C 579.50 515.90 581.90 516.70 584.40 517.50 C 585.10 517.70 585.70 517.90 586.40 518.10 C 588.20 518.60 590.00 519.10 591.80 519.60 C 592.70 519.80 593.60 520.10 594.50 520.30 C 596.10 520.70 597.60 521.10 599.20 521.50 C 600.20 521.70 601.20 521.90 602.10 522.20 C 603.60 522.50 605.10 522.80 606.60 523.10 C 607.60 523.30 608.60 523.50 609.60 523.70 C 611.10 524.00 612.70 524.20 614.20 524.50 C 615.10 524.60 616.10 524.80 617.00 524.90 C 618.60 525.10 620.30 525.30 621.90 525.50 C 622.70 525.60 623.50 525.70 624.30 525.80 C 626.70 526.00 629.10 526.30 631.50 526.40 C 633.70 526.50 635.90 526.60 638.00 526.70 C 638.70 526.70 639.40 526.70 640.10 526.70 C 641.50 526.70 642.90 526.70 644.30 526.70 C 644.90 526.70 645.40 526.70 645.90 526.60 C 647.70 526.50 649.40 526.50 651.10 526.40 C 651.90 526.40 652.60 526.30 653.30 526.20 C 654.80 526.10 656.30 525.90 657.80 525.80 C 658.50 525.70 659.20 525.60 659.90 525.50 C 661.60 525.30 663.20 525.00 664.80 524.70 C 665.20 524.60 665.70 524.60 666.10 524.50 C 668.10 524.10 670.10 523.70 672.00 523.20 C 672.30 523.10 672.60 523.00 672.90 523.00 C 675.80 522.20 678.70 521.40 681.40 520.40 C 681.40 520.40 681.50 520.40 681.50 520.40 C 684.20 519.40 686.80 518.30 689.30 517.10 C 689.50 517.00 689.70 516.90 689.90 516.80 C 692.00 515.70 694.10 514.60 696.10 513.40 C 696.50 513.20 696.80 513.00 697.20 512.70 C 699.10 511.50 700.90 510.20 702.70 508.90 C 703.00 508.70 703.30 508.40 703.60 508.10 C 705.30 506.70 707.00 505.30 708.50 503.80 L 529.80 679.80 L 529.80 679.80 L 529.80 679.80 C 529.80 679.80 529.80 679.80 529.80 679.80 C 528.60 681.00 527.30 682.10 525.90 683.20 C 525.70 683.30 525.60 683.40 525.40 683.50 C 524.90 683.90 524.30 684.30 523.70 684.70 C 522.60 685.50 521.50 686.20 520.40 686.90 C 519.70 687.30 519.00 687.70 518.30 688.10 C 517.70 688.40 517.00 688.80 516.40 689.20 C 515.90 689.40 515.40 689.60 514.90 689.80 C 514.00 690.20 513.10 690.60 512.10 691.00 C 510.90 691.50 509.70 691.90 508.50 692.30 C 507.50 692.60 506.50 692.90 505.50 693.20 C 505.00 693.40 504.50 693.50 503.90 693.70 C 502.70 694.00 501.40 694.30 500.10 694.50 C 499.90 694.50 499.70 694.60 499.50 694.60 C 497.30 695.00 495.00 695.40 492.60 695.60 C 492.10 695.70 491.50 695.70 491.00 695.80 C 488.70 696.00 486.40 696.20 483.90 696.20 C 483.80 696.20 483.70 696.20 483.50 696.20 C 483.30 696.20 483.10 696.20 482.90 696.20 C 480.10 696.20 477.30 696.20 474.30 696.00 C 471.40 695.80 468.40 695.50 465.50 695.10 C 465.10 695.00 464.60 695.00 464.20 694.90 C 461.40 694.50 458.50 694.00 455.70 693.40 C 455.20 693.30 454.60 693.20 454.10 693.10 C 451.20 692.50 448.40 691.80 445.50 691.00 C 445.10 690.90 444.70 690.80 444.30 690.70 C 441.40 689.90 438.50 689.00 435.50 688.00 C 435.40 688.00 435.30 687.90 435.20 687.90 C 435.20 687.90 435.10 687.90 435.10 687.90 C 433.10 687.20 431.10 686.50 429.10 685.80 C 428.60 685.60 428.10 685.40 427.60 685.20 C 426.10 684.60 424.60 684.00 423.10 683.40 C 422.40 683.10 421.60 682.80 420.90 682.50 C 419.70 682.00 418.40 681.40 417.20 680.90 C 416.40 680.50 415.60 680.20 414.80 679.80 C 413.60 679.30 412.50 678.70 411.30 678.20 C 411.00 678.10 410.70 677.90 410.40 677.80 C 410.10 677.60 409.80 677.50 409.40 677.30 C 406.90 676.00 404.40 674.80 401.90 673.40 C 401.70 673.30 401.50 673.20 401.30 673.10 C 398.70 671.70 396.10 670.20 393.60 668.60 C 393.30 668.40 393.00 668.30 392.70 668.10 C 392.40 667.90 392.10 667.70 391.80 667.60 C 389.50 666.20 387.20 664.70 384.90 663.20 C 384.90 663.20 384.80 663.20 384.80 663.10 C 382.60 661.60 380.30 660.00 378.20 658.50 C 377.90 658.30 377.60 658.10 377.40 657.90 C 377.10 657.70 376.80 657.50 376.50 657.20 C 374.40 655.70 372.40 654.20 370.40 652.60 C 370.20 652.50 370.00 652.30 369.90 652.20 C 367.80 650.50 365.70 648.80 363.60 647.00 C 363.40 646.80 363.10 646.60 362.90 646.40 C 362.60 646.20 362.40 646.00 362.20 645.70 C 359.90 643.70 357.60 641.60 355.40 639.50 C 355.20 639.30 355.00 639.10 354.80 638.90 C 352.70 636.90 350.70 634.80 348.70 632.80 C 348.50 632.60 348.20 632.30 348.00 632.10 C 347.80 631.90 347.70 631.80 347.50 631.60 C 346.70 630.80 346.00 630.00 345.30 629.20 C 344.70 628.50 344.00 627.80 343.40 627.10 C 342.70 626.30 342.00 625.40 341.30 624.60 C 340.70 623.90 340.10 623.20 339.50 622.50 C 338.80 621.70 338.10 620.80 337.40 619.90 C 336.80 619.20 336.20 618.50 335.70 617.70 C 335.00 616.80 334.40 615.90 333.70 615.00 C 333.20 614.30 332.60 613.60 332.10 612.90 C 331.40 612.00 330.80 611.00 330.20 610.10 C 329.70 609.40 329.20 608.70 328.80 608.00 C 328.10 607.00 327.50 606.00 326.90 605.00 C 326.50 604.30 326.10 603.70 325.70 603.00 C 325.00 601.90 324.40 600.80 323.80 599.60 C 323.50 599.10 323.20 598.50 322.90 598.00 C 322.00 596.30 321.10 594.60 320.30 593.00 C 319.20 590.80 318.30 588.70 317.30 586.50 C 317.00 585.90 316.70 585.20 316.50 584.60 C 316.30 584.20 316.20 583.80 316.00 583.40 C 315.60 582.40 315.20 581.50 314.90 580.50 C 314.90 580.50 314.90 580.40 314.90 580.40 C 314.10 578.10 313.40 575.80 312.80 573.50 C 312.60 572.60 312.40 571.80 312.10 570.90 C 311.60 568.80 311.20 566.80 310.90 564.80 C 310.90 564.70 310.90 564.70 310.90 564.60 C 310.50 562.20 310.30 559.80 310.20 557.40 C 310.20 556.60 310.20 555.90 310.20 555.20 C 310.20 554.80 310.20 554.30 310.20 553.90 C 310.20 553.50 310.20 553.10 310.20 552.70 C 310.30 550.80 310.40 548.90 310.60 547.10 C 310.60 546.90 310.70 546.60 310.70 546.40 C 310.80 545.50 311.00 544.70 311.10 543.80 C 311.10 543.70 311.10 543.60 311.20 543.50 C 311.60 541.50 312.10 539.50 312.80 537.50 C 312.90 537.20 313.10 536.80 313.20 536.50 C 313.40 535.80 313.70 535.20 313.90 534.50 C 313.90 534.40 313.80 534.20 313.80 534.10 L 408.30 303.00 Z" fill="url(#SVGID_5_)" fill-rule="nonzero" group-id="3" node-id="217" stroke="none" target-height="393.2" target-width="398.3" target-x="310.2" target-y="303"/><g node-id="270"><g node-id="275"><g node-id="279"><path d="M 585.10 541.60 C 611.70 595.40 584.90 636.00 525.40 632.30 C 465.80 628.60 396.00 582.10 369.40 528.30 C 342.80 474.50 369.60 433.90 429.10 437.60 C 488.60 441.20 558.50 487.80 585.10 541.60 Z" fill="url(#SVGID_6_)" fill-rule="nonzero" group-id="3,6,11,15" node-id="225" stroke="none" target-height="202.1" target-width="268.90002" target-x="342.8" target-y="433.9"/></g></g></g><path d="M 460.40 122.30 C 458.90 126.00 454.70 194.30 472.80 230.80 C 474.40 234.00 476.00 237.10 477.70 240.20 C 478.30 241.30 478.90 242.30 479.50 243.40 C 480.70 245.50 481.80 247.50 483.10 249.60 C 483.80 250.80 484.70 252.10 485.40 253.30 C 486.60 255.10 487.70 257.00 488.90 258.80 C 489.80 260.10 490.70 261.40 491.60 262.70 C 492.80 264.40 493.90 266.20 495.20 267.90 C 496.20 269.20 497.20 270.60 498.10 271.90 C 499.30 273.60 500.50 275.20 501.80 276.90 C 502.80 278.30 503.90 279.60 505.00 280.90 C 506.30 282.50 507.50 284.10 508.80 285.70 C 509.90 287.00 511.10 288.40 512.20 289.70 C 513.50 291.30 514.90 292.80 516.20 294.40 C 517.40 295.70 518.60 297.00 519.80 298.40 C 521.20 299.90 522.60 301.40 524.00 302.90 C 524.70 303.70 525.40 304.40 526.20 305.10 C 529.90 309.00 533.70 312.80 537.70 316.60 C 538.10 317.00 538.40 317.30 538.80 317.70 C 542.90 321.60 547.20 325.40 551.50 329.20 C 552.40 330.00 553.30 330.80 554.20 331.60 C 558.10 334.90 562.00 338.10 565.90 341.30 C 566.20 341.60 566.60 341.80 566.90 342.10 C 570.60 345.00 574.40 347.90 578.20 350.70 C 579.30 351.50 580.30 352.30 581.40 353.10 C 585.50 356.00 589.60 358.90 593.80 361.70 C 593.90 361.70 593.90 361.80 594.00 361.80 C 598.20 364.60 602.50 367.30 606.90 370.00 C 608.00 370.70 609.10 371.30 610.10 372.00 C 614.90 374.90 619.60 377.70 624.50 380.30 C 624.90 380.50 625.20 380.70 625.60 380.90 C 630.20 383.40 634.90 385.80 639.60 388.20 C 640.70 388.80 641.90 389.40 643.00 389.90 C 645.20 391.00 647.30 392.00 649.50 393.00 C 651.00 393.70 652.50 394.40 654.00 395.10 C 656.30 396.10 658.70 397.10 661.00 398.10 C 662.40 398.70 663.70 399.30 665.10 399.90 C 667.90 401.10 670.70 402.20 673.60 403.20 C 674.50 403.50 675.40 403.90 676.30 404.30 C 680.00 405.70 683.80 407.00 687.50 408.30 C 690.80 409.40 694.20 410.50 697.50 411.50 C 698.40 411.80 699.30 412.00 700.20 412.30 C 702.60 413.00 705.10 413.70 707.50 414.40 C 708.70 414.70 710.00 415.00 711.20 415.30 C 713.30 415.80 715.40 416.40 717.50 416.90 C 718.80 417.20 720.10 417.50 721.50 417.80 C 723.50 418.20 725.60 418.70 727.60 419.10 C 728.90 419.40 730.30 419.60 731.60 419.80 C 733.70 420.20 735.70 420.50 737.80 420.80 C 739.10 421.00 740.30 421.20 741.60 421.40 C 743.80 421.70 746.00 422.00 748.20 422.20 C 749.30 422.30 750.30 422.50 751.40 422.60 C 754.70 422.90 757.90 423.20 761.20 423.40 C 764.20 423.60 767.10 423.70 770.00 423.80 C 771.00 423.80 771.90 423.80 772.80 423.80 C 774.70 423.80 776.60 423.80 778.50 423.80 C 779.30 423.80 780.00 423.70 780.70 423.70 C 783.10 423.60 785.40 423.50 787.70 423.40 C 788.70 423.30 789.70 423.20 790.70 423.20 C 792.70 423.00 794.70 422.80 796.70 422.60 C 797.70 422.50 798.60 422.40 799.60 422.20 C 801.80 421.90 804.00 421.50 806.20 421.20 C 806.80 421.10 807.40 421.00 808.00 420.90 C 810.70 420.40 813.40 419.80 815.90 419.10 C 816.30 419.00 816.70 418.90 817.10 418.80 C 821.00 417.80 824.90 416.60 828.50 415.30 C 828.50 415.30 828.60 415.30 828.60 415.20 C 832.30 413.90 835.70 412.40 839.10 410.80 C 839.40 410.70 839.60 410.60 839.90 410.40 C 842.80 409.00 845.50 407.40 848.20 405.80 C 848.70 405.50 849.20 405.20 849.70 404.90 C 852.30 403.30 854.70 401.60 857.00 399.80 C 857.40 399.50 857.80 399.10 858.30 398.80 C 860.60 396.90 862.80 395.00 864.90 393.00 L 624.10 629.80 L 624.10 629.80 C 624.10 629.80 624.10 629.80 624.10 629.80 C 624.10 629.80 624.10 629.80 624.10 629.80 C 622.50 631.40 620.70 633.00 618.90 634.40 C 618.70 634.60 618.50 634.70 618.30 634.90 C 617.60 635.50 616.80 636.00 616.00 636.50 C 614.50 637.50 613.10 638.50 611.50 639.50 C 610.60 640.00 609.60 640.60 608.70 641.10 C 607.80 641.60 607.00 642.10 606.10 642.50 C 605.50 642.80 604.70 643.10 604.10 643.40 C 602.90 644.00 601.60 644.50 600.40 645.00 C 598.80 645.60 597.20 646.20 595.60 646.70 C 594.30 647.10 592.90 647.60 591.50 648.00 C 590.80 648.20 590.10 648.50 589.40 648.70 C 587.70 649.10 586.00 649.50 584.30 649.80 C 584.00 649.90 583.70 649.90 583.50 650.00 C 580.50 650.60 577.40 651.00 574.20 651.40 C 573.50 651.50 572.80 651.60 572.00 651.60 C 568.90 651.90 565.70 652.10 562.50 652.20 C 562.30 652.20 562.20 652.20 562.00 652.20 C 561.70 652.20 561.40 652.20 561.20 652.20 C 557.50 652.20 553.60 652.20 549.70 651.90 C 545.80 651.70 541.80 651.20 537.80 650.70 C 537.20 650.60 536.60 650.60 536.00 650.50 C 532.20 650.00 528.40 649.30 524.50 648.50 C 523.80 648.40 523.00 648.20 522.30 648.00 C 518.40 647.20 514.60 646.30 510.70 645.20 C 510.10 645.10 509.60 644.90 509.00 644.70 C 505.10 643.60 501.10 642.40 497.20 641.10 C 497.10 641.10 496.90 641.00 496.80 641.00 C 496.70 641.00 496.70 641.00 496.60 640.90 C 493.90 640.00 491.20 639.00 488.50 638.00 C 487.80 637.80 487.20 637.50 486.50 637.20 C 484.50 636.40 482.40 635.60 480.40 634.80 C 479.40 634.40 478.40 634.00 477.40 633.50 C 475.70 632.80 474.00 632.10 472.40 631.30 C 471.30 630.80 470.20 630.30 469.10 629.80 C 467.50 629.10 466.00 628.30 464.40 627.60 C 464.00 627.40 463.60 627.20 463.20 627.00 C 462.80 626.80 462.30 626.50 461.90 626.30 C 458.50 624.60 455.20 622.90 451.80 621.10 C 451.50 621.00 451.30 620.80 451.00 620.70 C 447.50 618.80 444.10 616.80 440.60 614.70 C 440.20 614.50 439.80 614.20 439.40 614.00 C 439.00 613.80 438.60 613.50 438.20 613.30 C 435.10 611.40 432.00 609.40 428.90 607.40 C 428.90 607.40 428.80 607.30 428.80 607.30 C 425.80 605.30 422.80 603.20 419.80 601.10 C 419.40 600.80 419.00 600.60 418.70 600.30 C 418.30 600.00 417.90 599.70 417.50 599.40 C 414.70 597.40 412.00 595.30 409.30 593.20 C 409.10 593.00 408.80 592.80 408.60 592.60 C 405.70 590.30 402.90 588.00 400.10 585.60 C 399.80 585.30 399.40 585.10 399.10 584.80 C 398.80 584.50 398.40 584.20 398.10 583.90 C 395.00 581.20 391.90 578.40 388.90 575.60 C 388.60 575.30 388.40 575.10 388.10 574.80 C 385.30 572.10 382.50 569.30 379.80 566.50 C 379.50 566.20 379.20 565.90 378.90 565.60 C 378.70 565.40 378.50 565.10 378.30 564.90 C 377.30 563.80 376.30 562.70 375.30 561.60 C 374.40 560.70 373.60 559.70 372.70 558.70 C 371.70 557.60 370.80 556.50 369.80 555.30 C 369.00 554.30 368.10 553.40 367.30 552.40 C 366.40 551.30 365.40 550.10 364.50 549.00 C 363.70 548.00 362.90 547.10 362.20 546.10 C 361.30 544.90 360.40 543.70 359.50 542.50 C 358.80 541.50 358.10 540.60 357.40 539.60 C 356.50 538.30 355.70 537.10 354.80 535.80 C 354.20 534.90 353.50 534.00 352.90 533.00 C 352.00 531.70 351.20 530.30 350.40 529.00 C 349.80 528.10 349.30 527.20 348.70 526.40 C 347.80 524.90 346.90 523.40 346.10 521.90 C 345.70 521.20 345.30 520.50 344.90 519.70 C 343.70 517.40 342.50 515.20 341.40 512.90 C 339.90 510.00 338.60 507.00 337.40 504.20 C 337.00 503.40 336.70 502.50 336.30 501.70 C 336.10 501.20 335.90 500.60 335.70 500.10 C 335.20 498.80 334.70 497.50 334.20 496.20 C 334.20 496.20 334.20 496.10 334.20 496.10 C 333.10 493.00 332.20 489.90 331.30 486.80 C 331.00 485.60 330.70 484.50 330.40 483.30 C 329.70 480.50 329.20 477.70 328.70 475.00 C 328.70 474.90 328.70 474.80 328.70 474.70 C 328.20 471.40 327.90 468.20 327.70 465.00 C 327.70 464.00 327.70 463.00 327.60 462.00 C 327.60 461.40 327.60 460.80 327.60 460.20 C 327.60 459.60 327.60 459.10 327.70 458.50 C 327.80 455.90 327.90 453.40 328.30 450.90 C 328.30 450.60 328.40 450.30 328.40 450.00 C 328.60 448.80 328.70 447.70 329.00 446.50 C 329.00 446.40 329.10 446.20 329.10 446.10 C 329.60 443.30 330.30 440.70 331.20 438.10 C 331.40 437.60 331.50 437.20 331.70 436.70 C 332.00 435.80 332.30 434.90 332.70 434.10 C 332.70 433.90 332.60 433.80 332.60 433.60 L 460.40 122.30 Z" fill="url(#SVGID_7_)" fill-rule="nonzero" group-id="3" node-id="230" stroke="none" target-height="529.9" target-width="537.30005" target-x="327.6" target-y="122.3"/><path d="M 862.30 271.30 C 911.50 370.70 862.00 445.90 751.80 439.10 C 641.60 432.30 512.40 346.20 463.30 246.70 C 414.20 147.20 463.60 72.10 573.80 78.90 C 683.90 85.70 813.10 171.80 862.30 271.30 Z" fill="url(#SVGID_8_)" fill-rule="nonzero" group-id="3,7,12,16" node-id="238" stroke="none" target-height="373.8" target-width="497.3" target-x="414.2" target-y="72.1"/><path d="M 823.30 263.80 C 861.70 341.50 823.10 400.10 737.00 394.80 C 651.00 389.50 550.10 322.20 511.70 244.60 C 473.30 167.00 511.90 108.30 598.00 113.60 C 684.00 118.90 784.90 186.20 823.30 263.80 Z" fill="url(#SVGID_9_)" fill-rule="nonzero" group-id="3,8,13,17" node-id="249" stroke="none" target-height="291.8" target-width="388.40002" target-x="473.3" target-y="108.3"/></g><path d="M 367.10 350.40 C 367.70 370.50 370.60 395.70 379.10 412.90 C 380.50 415.70 381.90 418.40 383.40 421.10 C 383.90 422.00 384.50 422.90 385.00 423.90 C 386.00 425.70 387.00 427.50 388.10 429.30 C 388.80 430.40 389.50 431.50 390.10 432.50 C 391.10 434.10 392.10 435.70 393.20 437.30 C 394.00 438.40 394.80 439.60 395.50 440.70 C 396.50 442.20 397.60 443.70 398.60 445.20 C 399.40 446.40 400.30 447.50 401.20 448.70 C 402.30 450.20 403.30 451.60 404.50 453.10 C 405.40 454.30 406.40 455.50 407.30 456.60 C 408.40 458.00 409.50 459.40 410.70 460.80 C 411.70 462.00 412.70 463.10 413.70 464.30 C 414.90 465.70 416.00 467.00 417.20 468.40 C 418.20 469.60 419.30 470.70 420.30 471.90 C 421.50 473.20 422.70 474.60 424.00 475.90 C 424.60 476.60 425.30 477.20 425.90 477.90 C 429.20 481.30 432.50 484.70 435.90 487.90 C 436.20 488.20 436.50 488.50 436.90 488.80 C 440.50 492.20 444.20 495.60 448.00 498.90 C 448.80 499.60 449.60 500.30 450.40 501.00 C 453.80 503.90 457.20 506.70 460.70 509.50 C 461.00 509.70 461.30 510.00 461.60 510.20 C 464.90 512.80 468.20 515.30 471.50 517.70 C 472.40 518.40 473.40 519.10 474.30 519.80 C 477.90 522.40 481.50 524.90 485.20 527.40 C 485.20 527.40 485.30 527.50 485.30 527.50 C 489.00 530.00 492.80 532.40 496.60 534.70 C 497.50 535.30 498.50 535.90 499.40 536.40 C 503.60 538.90 507.70 541.40 512.00 543.70 C 512.30 543.90 512.60 544.00 512.90 544.20 C 516.90 546.40 521.00 548.50 525.10 550.60 C 526.10 551.10 527.10 551.60 528.10 552.10 C 530.00 553.00 531.90 553.90 533.80 554.80 C 535.10 555.40 536.40 556.00 537.70 556.60 C 539.70 557.50 541.80 558.40 543.80 559.30 C 545.00 559.80 546.20 560.30 547.40 560.80 C 549.90 561.80 552.30 562.80 554.80 563.70 C 555.60 564.00 556.40 564.30 557.20 564.60 C 560.50 565.80 563.70 567.00 567.00 568.10 C 569.90 569.10 572.80 570.00 575.70 570.90 C 576.50 571.10 577.30 571.40 578.10 571.60 C 580.20 572.20 582.40 572.80 584.50 573.40 C 585.60 573.70 586.60 573.90 587.70 574.20 C 589.60 574.70 591.40 575.10 593.30 575.60 C 594.50 575.90 595.60 576.10 596.80 576.40 C 598.60 576.80 600.40 577.20 602.10 577.50 C 603.30 577.70 604.40 577.90 605.60 578.20 C 607.40 578.50 609.20 578.80 611.00 579.10 C 612.10 579.30 613.20 579.50 614.30 579.60 C 616.20 579.90 618.20 580.10 620.10 580.30 C 621.00 580.40 622.00 580.50 622.90 580.60 C 625.80 580.90 628.60 581.10 631.40 581.30 C 634.00 581.50 636.60 581.60 639.10 581.60 C 639.90 581.60 640.80 581.60 641.60 581.60 C 643.30 581.60 645.00 581.60 646.60 581.60 C 647.30 581.60 647.90 581.50 648.50 581.50 C 650.60 581.40 652.60 581.30 654.60 581.20 C 655.50 581.10 656.40 581.10 657.20 581.00 C 659.00 580.90 660.70 580.70 662.50 580.50 C 663.30 580.40 664.20 580.30 665.00 580.20 C 667.00 579.90 668.90 579.60 670.80 579.30 C 671.30 579.20 671.90 579.10 672.40 579.00 C 673.70 578.80 674.80 578.50 676.10 578.20 L 757.80 497.80 C 756.00 499.60 754.00 501.30 752.00 502.90 C 751.60 503.20 751.30 503.50 750.90 503.80 C 748.90 505.40 746.70 506.90 744.50 508.30 C 744.10 508.60 743.60 508.80 743.20 509.10 C 740.90 510.50 738.50 511.90 735.90 513.10 C 735.70 513.20 735.40 513.30 735.20 513.40 C 732.30 514.80 729.20 516.10 726.00 517.30 C 726.00 517.30 725.90 517.30 725.90 517.30 C 722.70 518.50 719.40 519.50 715.90 520.40 C 715.60 520.50 715.20 520.60 714.90 520.70 C 712.60 521.30 710.30 521.80 707.90 522.20 C 707.40 522.30 706.80 522.40 706.30 522.50 C 704.40 522.80 702.50 523.10 700.50 523.40 C 699.70 523.50 698.80 523.60 698.00 523.70 C 696.30 523.90 694.50 524.10 692.70 524.20 C 691.80 524.30 690.90 524.30 690.10 524.40 C 688.10 524.50 686.00 524.60 684.00 524.70 C 683.30 524.70 682.70 524.80 682.10 524.80 C 680.50 524.80 678.80 524.80 677.10 524.80 C 676.30 524.80 675.50 524.80 674.60 524.80 C 672.10 524.70 669.50 524.60 666.90 524.50 C 664.10 524.30 661.20 524.10 658.40 523.80 C 657.50 523.70 656.50 523.60 655.60 523.50 C 653.70 523.30 651.70 523.00 649.80 522.80 C 648.70 522.60 647.60 522.50 646.50 522.30 C 644.70 522.00 642.90 521.70 641.10 521.40 C 639.90 521.20 638.80 521.00 637.60 520.70 C 635.80 520.40 634.00 520.00 632.30 519.60 C 631.10 519.30 630.00 519.10 628.80 518.80 C 626.90 518.40 625.10 517.90 623.20 517.40 C 622.10 517.10 621.10 516.90 620.00 516.60 C 617.90 516.00 615.70 515.40 613.60 514.80 C 612.80 514.60 612.00 514.40 611.20 514.10 C 608.30 513.20 605.40 512.30 602.50 511.30 C 599.20 510.20 596.00 509.00 592.70 507.80 C 591.90 507.50 591.10 507.20 590.30 506.90 C 587.80 506.00 585.40 505.00 582.90 504.00 C 581.70 503.50 580.50 503.00 579.30 502.50 C 577.30 501.60 575.20 500.80 573.20 499.80 C 571.90 499.20 570.60 498.60 569.30 498.00 C 567.40 497.10 565.50 496.20 563.60 495.30 C 562.60 494.80 561.60 494.30 560.60 493.80 C 556.50 491.80 552.40 489.60 548.40 487.40 C 548.10 487.20 547.80 487.10 547.50 486.90 C 543.30 484.60 539.10 482.10 534.90 479.60 C 533.90 479.00 533.00 478.50 532.10 477.90 C 528.30 475.60 524.50 473.20 520.80 470.70 C 520.80 470.70 520.70 470.60 520.70 470.60 C 517.00 468.20 513.40 465.60 509.80 463.00 C 508.90 462.30 507.90 461.60 507.00 460.90 C 503.70 458.40 500.30 455.90 497.10 453.40 C 496.80 453.20 496.50 452.90 496.20 452.70 C 492.70 449.90 489.30 447.10 485.90 444.20 C 485.10 443.50 484.30 442.80 483.50 442.10 C 479.70 438.80 476.00 435.50 472.40 432.00 C 472.10 431.70 471.80 431.40 471.40 431.10 C 468.00 427.80 464.60 424.50 461.40 421.10 C 460.80 420.40 460.10 419.80 459.50 419.10 C 458.30 417.80 457.10 416.40 455.80 415.10 C 454.80 413.90 453.70 412.80 452.70 411.60 C 451.50 410.20 450.30 408.90 449.20 407.50 C 448.20 406.30 447.20 405.20 446.20 404.00 C 445.10 402.60 443.90 401.20 442.80 399.80 C 441.90 398.60 440.90 397.50 440.00 396.30 C 438.90 394.90 437.80 393.40 436.70 391.90 C 435.80 390.70 435.00 389.60 434.10 388.40 C 433.00 386.90 432.00 385.40 431.00 383.90 C 430.20 382.80 429.40 381.60 428.70 380.50 C 427.60 378.90 426.70 377.30 425.60 375.70 C 424.90 374.60 424.20 373.50 423.60 372.50 C 422.50 370.70 421.50 368.90 420.50 367.10 C 420.00 366.20 419.40 365.30 418.90 364.30 C 417.40 361.60 416.00 358.80 414.60 356.10 C 398.80 324.10 402.40 264.40 403.70 261.10 L 367.10 350.40 Z" fill="url(#SVGID_10_)" fill-rule="nonzero" node-id="255" stroke="none" target-height="320.49997" target-width="390.69998" target-x="367.1" target-y="261.1"/><path d="M 713.80 692.90 C 713.80 692.90 755.40 470.00 945.40 442.90 C 945.40 442.90 987.70 442.10 990.90 481.90 C 990.90 481.90 989.20 517.40 931.60 523.80 C 931.60 523.90 778.60 540.90 713.80 692.90 Z" fill="url(#SVGID_11_)" fill-rule="nonzero" node-id="257" stroke="none" target-height="250.80002" target-width="277.10004" target-x="713.8" target-y="442.1"/><path d="M 297.10 443.40 C 297.10 443.40 255.50 220.50 65.50 193.40 C 65.50 193.40 23.20 192.60 20.00 232.40 C 20.00 232.40 21.70 267.90 79.30 274.30 C 79.30 274.30 232.30 291.40 297.10 443.40 Z" fill="url(#SVGID_12_)" fill-rule="nonzero" node-id="259" stroke="none" target-height="250.79999" target-width="277.1" target-x="20" target-y="192.6"/><path d="M 333.40 36.60 C 351.50 54.90 395.60 112.80 383.60 234.30 C 383.60 234.30 386.50 125.90 304.20 83.60 C 293.10 78.60 287.60 73.20 287.60 73.20 C 279.70 64.80 269.00 47.90 285.50 28.90 C 285.50 28.90 295.60 16.20 319.50 26.70 C 319.40 26.60 327.50 30.80 333.40 36.60 Z" fill="url(#SVGID_13_)" fill-rule="nonzero" node-id="261" stroke="none" target-height="218.1" target-width="126.600006" target-x="269" target-y="16.2"/><path d="M 959.00 120.60 C 935.30 130.50 872.20 166.90 836.40 283.60 C 836.40 283.60 875.50 182.40 967.80 175.20 C 980.00 174.80 987.10 172.00 987.10 172.00 C 997.70 167.30 1014.00 155.90 1006.20 131.90 C 1006.20 131.90 1001.80 116.20 975.70 116.80 C 975.80 116.80 966.80 117.50 959.00 120.60 Z" fill="url(#SVGID_14_)" fill-rule="nonzero" node-id="263" stroke="none" target-height="167.40001" target-width="177.59998" target-x="836.4" target-y="116.2"/></svg>