<svg height="1024" node-id="1" sillyvg="true" template-height="1024" template-width="1024" version="1.1" viewBox="0 0 1024 1024" width="1024" xmlns="http://www.w3.org/2000/svg" xmlns:xlink="http://www.w3.org/1999/xlink"><defs node-id="99"><linearGradient gradientUnits="userSpaceOnUse" id="SVGID_1_" node-id="27" spreadMethod="pad" x1="37.444" x2="983.2216" y1="830.6942" y2="830.6942"><stop offset="0" stop-color="#6386db"/><stop offset="1" stop-color="#8eb0ec"/></linearGradient><linearGradient gradientUnits="userSpaceOnUse" id="SVGID_2_" node-id="32" spreadMethod="pad" x1="37.6194" x2="983.2217" y1="662.9142" y2="662.9142"><stop offset="0" stop-color="#8eb0ec"/><stop offset="1" stop-color="#6386db"/></linearGradient><linearGradient gradientUnits="userSpaceOnUse" id="SVGID_3_" node-id="36" spreadMethod="pad" x1="860.2264" x2="860.2264" y1="657.004" y2="254.7478"><stop offset="0" stop-color="#7590ff" stop-opacity="0"/><stop offset="1" stop-color="#67b4fa"/></linearGradient><linearGradient gradientUnits="userSpaceOnUse" id="SVGID_4_" node-id="40" spreadMethod="pad" x1="350.1303" x2="350.1303" y1="428.6029" y2="26.3467"><stop offset="0" stop-color="#7590ff" stop-opacity="0"/><stop offset="1" stop-color="#67b4fa"/></linearGradient><linearGradient gradientUnits="userSpaceOnUse" id="SVGID_5_" node-id="44" spreadMethod="pad" x1="740.4986" x2="740.4986" y1="434.5638" y2="32.3076"><stop offset="0" stop-color="#7590ff" stop-opacity="0"/><stop offset="1" stop-color="#67b4fa"/></linearGradient><linearGradient gradientUnits="userSpaceOnUse" id="SVGID_6_" node-id="48" spreadMethod="pad" x1="204.465" x2="204.465" y1="616.8586" y2="315.2607"><stop offset="0" stop-color="#7590ff" stop-opacity="0"/><stop offset="1" stop-color="#18e7df"/></linearGradient><linearGradient gradientUnits="userSpaceOnUse" id="SVGID_7_" node-id="57" spreadMethod="pad" x1="651.7975" x2="789.4912" y1="532.3446" y2="532.3446"><stop offset="0" stop-color="#6386db"/><stop offset="1" stop-color="#8eb0ec"/></linearGradient><linearGradient gradientUnits="userSpaceOnUse" id="SVGID_8_" node-id="61" spreadMethod="pad" x1="401.3489" x2="746.8831" y1="506.9278" y2="506.9278"><stop offset="0" stop-color="#6386db"/><stop offset="1" stop-color="#8eb0ec"/></linearGradient><linearGradient gradientUnits="userSpaceOnUse" id="SVGID_9_" node-id="65" spreadMethod="pad" x1="339.9676" x2="477.6612" y1="545.046" y2="545.046"><stop offset="0" stop-color="#6386db"/><stop offset="1" stop-color="#8eb0ec"/></linearGradient><linearGradient gradientTransform="matrix(0.9992 -0.03942076 0.03942076 0.9992 -33.7349 25.5186)" gradientUnits="userSpaceOnUse" id="SVGID_10_" node-id="69" spreadMethod="pad" x1="501.751" x2="678.1599" y1="504.5211" y2="504.5211"><stop offset="0" stop-color="#d7d8d5"/><stop offset="1" stop-color="#ededee"/></linearGradient><linearGradient gradientUnits="userSpaceOnUse" id="SVGID_11_" node-id="73" spreadMethod="pad" x1="425.4252" x2="706.6303" y1="368.4967" y2="368.4967"><stop offset="0" stop-color="#000296"/><stop offset="1" stop-color="#0200e3"/></linearGradient><linearGradient gradientUnits="userSpaceOnUse" id="SVGID_12_" node-id="78" spreadMethod="pad" x1="379.7567" x2="740.8433" y1="228.617" y2="228.617"><stop offset="0" stop-color="#6386db"/><stop offset="1" stop-color="#8eb0ec"/></linearGradient><linearGradient gradientUnits="userSpaceOnUse" id="SVGID_13_" node-id="82" spreadMethod="pad" x1="450.3262" x2="640.4254" y1="90.3005" y2="90.3005"><stop offset="0" stop-color="#d7d8d5"/><stop offset="1" stop-color="#ededee"/></linearGradient><linearGradient gradientUnits="userSpaceOnUse" id="SVGID_14_" node-id="86" spreadMethod="pad" x1="455.212" x2="741.2345" y1="238.8889" y2="238.8889"><stop offset="0" stop-color="#d7d8d5"/><stop offset="1" stop-color="#ededee"/></linearGradient><linearGradient gradientUnits="userSpaceOnUse" id="SVGID_15_" node-id="92" spreadMethod="pad" x1="349.0591" x2="385.1107" y1="255.4158" y2="255.4158"><stop offset="0" stop-color="#d7d8d5"/><stop offset="1" stop-color="#e2e3da"/></linearGradient></defs><g node-id="269"><g node-id="276"><path d="M 983.10 665.00 C 983.00 665.70 983.00 666.40 982.90 667.00 C 982.80 667.50 982.60 668.10 982.50 668.60 C 982.30 669.20 982.20 669.90 981.90 670.50 C 981.70 671.00 981.50 671.50 981.20 672.10 C 980.90 672.80 980.60 673.40 980.30 674.10 C 980.00 674.60 979.70 675.10 979.40 675.50 C 978.90 676.30 978.40 677.00 977.90 677.70 C 977.60 678.10 977.20 678.60 976.90 679.00 C 976.10 680.00 975.20 681.00 974.20 681.90 C 973.80 682.20 973.50 682.60 973.10 682.90 C 972.50 683.50 971.80 684.00 971.10 684.50 C 970.50 685.00 969.90 685.50 969.30 685.90 C 968.60 686.40 967.80 686.90 967.00 687.40 C 966.20 687.90 965.40 688.50 964.60 689.00 L 557.30 925.90 C 555.40 927.00 553.30 928.00 551.20 929.00 C 550.60 929.30 550.00 929.50 549.40 929.80 C 547.80 930.50 546.10 931.10 544.30 931.70 C 543.70 931.90 543.10 932.10 542.50 932.30 C 541.40 932.60 540.30 932.90 539.20 933.20 C 538.40 933.40 537.50 933.70 536.70 933.90 C 535.50 934.20 534.30 934.40 533.20 934.70 C 532.40 934.90 531.60 935.00 530.80 935.20 C 528.40 935.60 526.00 936.00 523.50 936.20 C 522.70 936.30 522.00 936.30 521.20 936.40 C 519.80 936.50 518.30 936.60 516.90 936.70 C 516.00 936.70 515.10 936.80 514.10 936.80 C 512.90 936.80 511.70 936.80 510.60 936.80 C 509.60 936.80 508.60 936.80 507.70 936.70 C 506.60 936.70 505.50 936.60 504.40 936.50 C 503.40 936.40 502.40 936.30 501.40 936.30 C 500.30 936.20 499.30 936.10 498.20 935.90 C 497.20 935.80 496.30 935.60 495.30 935.50 C 494.20 935.30 493.00 935.10 491.90 934.90 C 491.00 934.70 490.10 934.60 489.20 934.40 C 487.90 934.10 486.50 933.80 485.20 933.40 C 484.50 933.20 483.70 933.00 483.00 932.80 C 480.60 932.10 478.30 931.30 476.10 930.50 C 475.00 930.10 473.90 929.60 472.90 929.10 C 472.30 928.90 471.80 928.60 471.20 928.40 C 469.60 927.60 468.00 926.80 466.50 925.90 L 56.60 689.20 C 43.90 681.90 37.60 672.30 37.60 662.70 L 37.40 724.60 C 37.40 734.20 43.70 743.80 56.40 751.10 L 466.30 987.70 C 467.80 988.60 469.40 989.40 471.00 990.20 C 471.50 990.50 472.10 990.70 472.60 990.90 C 473.60 991.30 474.50 991.80 475.50 992.20 C 475.60 992.20 475.70 992.30 475.90 992.30 C 478.10 993.20 480.40 993.90 482.80 994.60 C 483.00 994.70 483.20 994.70 483.40 994.80 C 483.90 995.00 484.50 995.10 485.00 995.20 C 486.30 995.50 487.60 995.90 489.00 996.20 C 489.40 996.30 489.70 996.40 490.10 996.50 C 490.60 996.60 491.20 996.70 491.70 996.80 C 492.80 997.00 494.00 997.20 495.10 997.40 C 495.60 997.50 496.00 997.60 496.50 997.60 C 497.00 997.70 497.50 997.70 498.00 997.80 C 499.10 997.90 500.10 998.10 501.20 998.20 C 501.70 998.20 502.20 998.30 502.70 998.40 C 503.20 998.40 503.70 998.40 504.10 998.50 C 505.20 998.60 506.30 998.60 507.30 998.70 C 507.80 998.70 508.40 998.80 508.90 998.80 C 509.30 998.80 509.80 998.80 510.20 998.80 C 511.40 998.80 512.50 998.80 513.70 998.80 C 514.30 998.80 514.90 998.80 515.50 998.80 C 515.80 998.80 516.20 998.70 516.50 998.70 C 518.00 998.60 519.40 998.50 520.80 998.40 C 521.40 998.40 522.00 998.30 522.50 998.30 C 522.70 998.30 522.90 998.20 523.00 998.20 C 525.50 997.90 527.90 997.60 530.30 997.20 C 530.40 997.20 530.50 997.20 530.70 997.20 C 531.40 997.10 532.10 996.90 532.80 996.80 C 534.00 996.60 535.20 996.30 536.40 996.00 C 537.30 995.80 538.10 995.60 538.90 995.30 C 540.00 995.00 541.10 994.70 542.20 994.40 C 542.40 994.30 542.70 994.30 542.90 994.20 C 543.30 994.10 543.60 993.90 544.00 993.80 C 545.70 993.20 547.40 992.60 549.10 991.90 C 549.70 991.60 550.30 991.40 550.90 991.10 C 553.00 990.20 555.00 989.20 557.00 988.00 L 964.20 751.40 C 964.50 751.20 964.70 751.10 965.00 750.90 C 965.60 750.50 966.10 750.20 966.70 749.80 C 967.50 749.30 968.30 748.80 969.00 748.30 C 969.60 747.80 970.20 747.40 970.80 746.90 C 971.50 746.40 972.20 745.80 972.80 745.30 C 972.90 745.20 973.10 745.10 973.20 745.00 C 973.50 744.80 973.60 744.50 973.90 744.30 C 974.90 743.30 975.80 742.40 976.60 741.40 C 976.80 741.20 977.00 741.00 977.20 740.80 C 977.40 740.60 977.50 740.40 977.60 740.10 C 978.20 739.40 978.60 738.60 979.10 737.90 C 979.30 737.60 979.60 737.30 979.70 737.00 C 979.80 736.80 979.80 736.70 979.90 736.50 C 980.30 735.80 980.50 735.20 980.80 734.50 C 981.00 734.10 981.20 733.70 981.30 733.30 C 981.30 733.20 981.40 733.00 981.40 732.90 C 981.60 732.30 981.80 731.60 981.90 731.00 C 982.00 730.60 982.20 730.10 982.30 729.70 C 982.30 729.60 982.30 729.50 982.30 729.40 C 982.40 728.70 982.50 728.10 982.50 727.40 C 982.50 727.00 982.60 726.50 982.70 726.10 C 982.70 725.90 982.70 725.70 982.70 725.50 L 982.90 663.60 C 983.20 663.70 983.10 664.30 983.10 665.00 Z" fill="url(#SVGID_1_)" fill-rule="nonzero" group-id="1,8" node-id="196" stroke="none" target-height="336.09998" target-width="945.8" target-x="37.4" target-y="662.7"/><g node-id="281"><path d="M 964.30 636.60 C 989.50 651.10 989.60 674.70 964.60 689.20 L 557.30 925.90 C 532.30 940.40 491.60 940.40 466.40 925.90 L 56.60 689.20 C 31.40 674.70 31.30 651.10 56.30 636.60 L 463.50 400.00 C 488.50 385.50 529.20 385.50 554.40 400.00 L 964.30 636.60 Z" fill="url(#SVGID_2_)" fill-rule="nonzero" group-id="1,8,13" node-id="200" stroke="none" target-height="554.9" target-width="958.3" target-x="31.3" target-y="385.5"/></g></g></g><g node-id="270"><path d="M 860.20 657.00 L 860.20 657.00 C 849.80 657.00 841.30 648.50 841.30 638.10 L 841.30 273.60 C 841.30 263.20 849.80 254.70 860.20 254.70 L 860.20 254.70 C 870.60 254.70 879.10 263.20 879.10 273.60 L 879.10 638.10 C 879.10 648.50 870.60 657.00 860.20 657.00 Z" fill="url(#SVGID_3_)" fill-opacity="0.51" fill-rule="nonzero" group-id="2" node-id="207" stroke="none" target-height="402.3" target-width="37.799988" target-x="841.3" target-y="254.7"/></g><g node-id="271"><path d="M 350.10 428.60 L 350.10 428.60 C 339.70 428.60 331.20 420.10 331.20 409.70 L 331.20 45.20 C 331.20 34.80 339.70 26.30 350.10 26.30 L 350.10 26.30 C 360.50 26.30 369.00 34.80 369.00 45.20 L 369.00 409.70 C 369.00 420.10 360.50 428.60 350.10 428.60 Z" fill="url(#SVGID_4_)" fill-opacity="0.57" fill-rule="nonzero" group-id="3" node-id="212" stroke="none" target-height="402.30002" target-width="37.799988" target-x="331.2" target-y="26.3"/></g><g node-id="272"><path d="M 740.50 434.60 L 740.50 434.60 C 730.10 434.60 721.60 426.10 721.60 415.70 L 721.60 51.20 C 721.60 40.80 730.10 32.30 740.50 32.30 L 740.50 32.30 C 750.90 32.30 759.40 40.80 759.40 51.20 L 759.40 415.70 C 759.40 426.10 750.90 434.60 740.50 434.60 Z" fill="url(#SVGID_5_)" fill-opacity="0.67" fill-rule="nonzero" group-id="4" node-id="217" stroke="none" target-height="402.30002" target-width="37.80005" target-x="721.6" target-y="32.3"/></g><g node-id="273"><path d="M 204.50 616.90 L 204.50 616.90 C 194.10 616.90 185.60 608.40 185.60 598.00 L 185.60 334.10 C 185.60 323.70 194.10 315.20 204.50 315.20 L 204.50 315.20 C 214.90 315.20 223.40 323.70 223.40 334.10 L 223.40 598.00 C 223.30 608.40 214.80 616.90 204.50 616.90 Z" fill="url(#SVGID_6_)" fill-opacity="0.54" fill-rule="nonzero" group-id="5" node-id="222" stroke="none" target-height="301.7" target-width="37.799988" target-x="185.6" target-y="315.2"/></g><g node-id="274"><g node-id="277"><path d="M 619.30 617.50 C 670.00 646.80 670.20 694.20 619.90 723.50 C 569.60 752.80 487.70 752.80 437.00 723.50 C 386.30 694.20 386.00 646.80 436.40 617.50 C 486.70 588.20 568.60 588.20 619.30 617.50 Z" fill="#ffffff" fill-opacity="0.46" fill-rule="nonzero" group-id="6,9" node-id="229" stroke="none" target-height="164.59998" target-width="284.2" target-x="386" target-y="588.2"/></g><g node-id="278"><path d="M 591.10 629.10 C 626.10 649.30 626.30 682.10 591.50 702.30 C 556.70 722.50 500.20 722.50 465.20 702.30 C 430.20 682.10 430.00 649.30 464.80 629.10 C 499.50 608.90 556.10 608.90 591.10 629.10 Z" fill="#ffffff" fill-opacity="0.46" fill-rule="nonzero" group-id="6,10" node-id="234" stroke="none" target-height="113.599976" target-width="196.29999" target-x="430" target-y="608.9"/></g><path d="M 742.20 657.70 C 742.20 657.70 740.30 477.70 694.60 399.50 C 694.60 399.50 669.80 367.10 633.60 387.10 C 633.60 387.10 586.00 416.60 612.60 497.60 C 612.60 497.60 646.90 592.90 696.40 667.20 C 696.40 667.20 711.30 691.00 728.80 682.10 C 728.90 682.10 742.90 680.20 742.20 657.70 Z" fill="url(#SVGID_7_)" fill-rule="nonzero" group-id="6" node-id="237" stroke="none" target-height="323.9" target-width="156.90002" target-x="586" target-y="367.1"/><path d="M 692.90 389.20 C 651.00 317.80 531.00 312.10 531.00 312.10 L 526.80 312.10 L 522.60 312.10 C 522.60 312.10 402.60 317.80 360.70 389.30 C 360.70 389.30 335.90 435.00 381.70 516.90 L 451.20 653.10 C 451.20 653.10 470.70 700.60 526.80 701.80 C 582.90 700.50 602.40 653.10 602.40 653.10 L 672.00 516.90 C 717.70 434.90 692.90 389.20 692.90 389.20 Z" fill="url(#SVGID_8_)" fill-rule="nonzero" group-id="6" node-id="239" stroke="none" target-height="389.69998" target-width="381.80002" target-x="335.9" target-y="312.1"/><path d="M 292.70 670.40 C 292.70 670.40 294.60 490.40 340.30 412.20 C 340.30 412.20 365.10 379.80 401.30 399.80 C 401.30 399.80 448.90 429.30 422.30 510.30 C 422.30 510.30 388.00 605.60 338.50 679.90 C 338.50 679.90 323.60 703.70 306.10 694.80 C 306.10 694.80 292.00 692.90 292.70 670.40 Z" fill="url(#SVGID_9_)" fill-rule="nonzero" group-id="6" node-id="241" stroke="none" target-height="323.90002" target-width="156.9" target-x="292" target-y="379.8"/><path d="M 632.20 546.00 C 620.00 553.30 603.60 561.20 587.50 563.00 C 587.50 563.00 522.30 565.20 502.40 550.30 C 502.40 550.30 488.90 521.90 486.70 489.60 C 486.70 489.60 486.10 480.10 496.50 475.30 C 496.50 475.30 574.00 434.10 651.80 453.40 C 651.80 453.40 663.50 455.70 662.50 474.80 C 662.50 474.80 645.80 536.70 632.20 546.00 Z" fill="url(#SVGID_10_)" fill-rule="nonzero" group-id="6" node-id="243" stroke="none" target-height="131.1" target-width="177.4" target-x="486.1" target-y="434.1"/><path d="M 531.00 312.00 L 526.80 312.00 L 522.60 312.00 C 522.60 312.00 428.80 316.50 378.10 367.00 C 411.20 402.60 459.30 425.00 513.00 425.00 C 573.20 425.00 626.50 396.70 659.30 353.30 C 607.20 315.70 531.00 312.00 531.00 312.00 Z" fill="url(#SVGID_11_)" fill-opacity="0.12" fill-rule="nonzero" group-id="6,11" node-id="247" stroke="none" target-height="113" target-width="281.19998" target-x="378.1" target-y="312"/></g><g node-id="275"><path d="M 513.00 55.70 C 612.70 55.70 693.50 133.10 693.50 228.60 C 693.50 324.10 612.70 401.50 513.00 401.50 C 413.30 401.50 332.50 324.10 332.50 228.60 C 332.50 133.10 413.30 55.70 513.00 55.70" fill="url(#SVGID_12_)" fill-rule="nonzero" group-id="7" node-id="253" stroke="none" target-height="345.8" target-width="361" target-x="332.5" target-y="55.7"/><path d="M 521.50 55.90 C 519.10 55.80 516.70 55.70 514.30 55.70 C 513.70 55.70 513.20 55.70 512.60 55.70 C 471.30 55.80 433.30 69.20 403.00 91.60 C 410.00 94.60 417.60 96.40 417.60 96.40 C 417.60 96.40 456.20 81.80 482.40 108.60 C 482.40 108.60 489.70 116.00 491.00 118.30 C 491.00 118.30 494.20 124.00 505.80 124.80 C 505.80 124.80 567.20 125.10 590.30 108.60 C 590.30 108.60 597.50 105.20 588.80 91.80 C 588.80 91.80 570.60 68.40 559.60 61.50 C 547.80 58.50 535.60 56.60 523.00 55.90 C 522.60 56.00 522.10 55.90 521.50 55.90 Z" fill="url(#SVGID_13_)" fill-rule="nonzero" group-id="7" node-id="255" stroke="none" target-height="69.399994" target-width="194.5" target-x="403" target-y="55.7"/><path d="M 467.50 204.10 C 467.50 204.10 406.50 204.10 408.00 257.70 C 408.00 257.70 403.30 325.40 509.40 324.00 C 509.40 324.00 613.00 324.90 688.50 272.80 C 692.10 259.20 694.00 244.90 694.00 230.20 C 694.00 202.70 687.30 176.80 675.40 153.70 C 649.60 180.10 590.70 217.20 467.50 204.10 Z" fill="url(#SVGID_14_)" fill-rule="nonzero" group-id="7" node-id="257" stroke="none" target-height="171.7" target-width="290.7" target-x="403.3" target-y="153.7"/><g node-id="280"><g node-id="282"><path d="M 385.10 259.50 C 385.10 259.20 385.10 259.00 385.10 258.70 C 385.10 258.40 385.10 258.20 385.10 257.90 C 385.10 257.60 385.10 257.40 385.10 257.10 C 385.10 256.40 385.00 255.80 384.90 255.10 C 384.90 255.00 384.90 254.90 384.90 254.90 C 384.90 254.90 384.90 254.90 384.90 254.80 C 384.80 254.00 384.70 253.30 384.60 252.50 C 384.60 252.30 384.50 252.10 384.50 251.90 C 384.50 251.70 384.40 251.40 384.40 251.20 C 384.40 250.90 384.30 250.60 384.30 250.30 C 384.20 249.70 384.10 249.10 384.00 248.50 C 384.00 248.40 384.00 248.30 383.90 248.20 C 383.90 248.20 383.90 248.10 383.90 248.10 C 383.80 247.40 383.60 246.70 383.50 246.00 C 383.50 245.80 383.40 245.60 383.40 245.40 C 383.40 245.20 383.30 245.00 383.20 244.70 C 383.10 244.50 383.10 244.20 383.00 244.00 C 382.80 243.40 382.70 242.70 382.50 242.10 C 382.50 242.10 382.50 242.00 382.50 242.00 C 382.50 241.90 382.50 241.90 382.40 241.80 C 382.30 241.30 382.10 240.80 382.00 240.30 C 381.90 239.90 381.70 239.50 381.60 239.10 C 381.60 239.00 381.50 238.90 381.50 238.80 C 381.50 238.70 381.50 238.70 381.40 238.60 C 381.20 238.10 381.10 237.60 380.90 237.10 C 380.80 236.70 380.60 236.40 380.50 236.10 C 380.50 236.00 380.50 236.00 380.40 235.90 C 380.40 235.90 380.40 235.80 380.30 235.80 C 380.10 235.40 380.00 235.00 379.80 234.60 C 379.60 234.20 379.50 233.80 379.30 233.40 C 379.30 233.40 379.30 233.30 379.20 233.30 C 379.20 233.30 379.20 233.20 379.10 233.20 C 379.00 232.90 378.80 232.60 378.70 232.40 C 378.50 232.00 378.30 231.70 378.20 231.30 C 378.10 231.20 378.00 231.00 378.00 230.90 C 378.00 230.80 377.90 230.70 377.90 230.60 C 377.80 230.50 377.70 230.30 377.70 230.10 C 377.40 229.50 377.10 228.90 376.70 228.40 C 376.70 228.40 376.70 228.40 376.70 228.30 C 376.70 228.20 376.60 228.20 376.60 228.10 C 376.30 227.70 376.10 227.30 375.80 226.90 C 375.70 226.70 375.50 226.50 375.40 226.40 C 375.30 226.20 375.20 226.10 375.10 225.90 C 375.00 225.80 374.90 225.60 374.80 225.50 C 374.60 225.20 374.40 225.00 374.20 224.70 C 374.00 224.50 373.90 224.30 373.70 224.10 C 373.60 223.90 373.40 223.80 373.30 223.60 C 373.20 223.40 373.00 223.30 372.90 223.10 C 372.80 222.90 372.60 222.80 372.50 222.60 C 372.40 222.50 372.40 222.50 372.30 222.40 C 372.30 222.40 372.30 222.40 372.20 222.30 C 372.10 222.20 372.10 222.20 372.00 222.10 C 371.90 222.00 371.70 221.80 371.60 221.70 C 371.50 221.60 371.30 221.40 371.20 221.30 C 371.10 221.20 370.90 221.10 370.80 220.90 C 370.80 220.90 370.80 220.90 370.70 220.90 C 370.70 220.90 370.70 220.90 370.70 220.90 C 370.60 220.80 370.50 220.70 370.40 220.60 C 370.30 220.50 370.10 220.40 370.00 220.30 C 369.90 220.20 369.70 220.10 369.60 220.00 C 369.50 219.90 369.30 219.80 369.20 219.80 C 369.20 219.80 369.10 219.80 369.10 219.70 C 369.00 219.60 368.90 219.60 368.80 219.50 C 368.70 219.40 368.50 219.40 368.40 219.30 C 368.30 219.20 368.10 219.20 368.00 219.10 C 367.90 219.00 367.70 219.00 367.60 218.90 C 367.50 218.80 367.30 218.80 367.20 218.80 C 367.10 218.80 367.00 218.70 366.90 218.70 C 366.90 218.70 366.90 218.70 366.90 218.70 C 366.90 218.70 366.90 218.70 366.80 218.70 C 366.70 218.70 366.50 218.60 366.40 218.60 C 366.20 218.60 366.10 218.50 365.90 218.50 C 365.80 218.50 365.60 218.40 365.50 218.40 C 365.30 218.40 365.20 218.40 365.00 218.40 C 364.90 218.40 364.80 218.40 364.80 218.40 C 364.80 218.40 364.70 218.40 364.70 218.40 C 364.60 218.40 364.50 218.40 364.40 218.40 C 364.20 218.40 364.00 218.40 363.80 218.40 C 363.50 218.40 363.30 218.50 363.00 218.50 C 362.90 218.50 362.80 218.50 362.80 218.60 C 362.70 218.60 362.60 218.60 362.60 218.70 C 362.40 218.70 362.30 218.80 362.10 218.80 C 361.70 219.00 361.30 219.10 360.90 219.40 L 349.00 226.30 C 349.60 226.00 350.10 225.80 350.70 225.60 C 350.80 225.60 350.90 225.60 350.90 225.50 C 351.50 225.40 352.10 225.30 352.70 225.30 C 352.70 225.30 352.80 225.30 352.80 225.30 C 353.50 225.30 354.10 225.40 354.80 225.70 C 354.80 225.70 354.80 225.70 354.80 225.70 C 355.50 225.90 356.20 226.20 357.00 226.70 C 357.50 227.00 358.10 227.40 358.60 227.80 C 358.60 227.80 358.60 227.80 358.60 227.80 C 359.10 228.20 359.60 228.70 360.10 229.20 C 360.10 229.20 360.10 229.20 360.20 229.30 C 361.20 230.30 362.10 231.40 363.00 232.70 C 363.10 232.90 363.20 233.00 363.30 233.20 C 363.70 233.80 364.10 234.40 364.40 235.00 C 364.40 235.10 364.50 235.10 364.50 235.20 C 364.90 235.90 365.30 236.70 365.70 237.40 C 365.70 237.50 365.80 237.60 365.80 237.70 C 366.20 238.50 366.60 239.30 366.90 240.10 C 366.90 240.10 366.90 240.20 367.00 240.20 C 367.40 241.10 367.70 241.90 368.10 242.80 C 368.10 242.90 368.10 242.90 368.20 243.00 C 368.50 243.90 368.90 244.80 369.20 245.70 C 369.20 245.80 369.30 245.90 369.30 246.00 C 369.60 246.90 369.90 247.80 370.10 248.70 C 370.10 248.80 370.10 248.80 370.20 248.90 C 370.50 249.80 370.70 250.70 370.90 251.60 C 371.00 251.80 371.00 252.00 371.00 252.20 C 371.20 253.10 371.40 254.10 371.60 255.10 C 371.60 255.20 371.60 255.30 371.60 255.40 C 371.80 256.30 371.90 257.20 372.00 258.10 C 372.00 258.30 372.10 258.60 372.10 258.80 C 372.20 259.80 372.40 260.80 372.40 261.70 C 372.40 261.80 372.40 261.90 372.40 262.00 C 372.50 262.90 372.50 263.80 372.60 264.70 C 372.60 265.00 372.60 265.20 372.60 265.50 C 372.60 266.50 372.70 267.50 372.70 268.50 C 372.70 269.90 372.60 271.20 372.50 272.50 C 372.50 272.60 372.50 272.80 372.50 272.90 C 372.40 274.10 372.30 275.30 372.10 276.40 C 372.10 276.60 372.00 276.80 372.00 277.00 C 371.80 278.10 371.60 279.10 371.40 280.10 C 371.40 280.30 371.30 280.50 371.30 280.70 C 371.10 281.60 370.80 282.40 370.50 283.20 C 370.50 283.30 370.40 283.50 370.40 283.60 C 370.10 284.50 369.70 285.30 369.40 286.00 C 369.30 286.30 369.10 286.50 369.00 286.80 C 368.70 287.30 368.50 287.70 368.20 288.10 C 367.80 288.60 367.50 289.10 367.10 289.50 C 366.90 289.70 366.70 290.00 366.50 290.10 C 365.90 290.70 365.30 291.20 364.60 291.60 L 376.50 284.70 C 377.20 284.30 377.80 283.80 378.40 283.20 C 378.60 283.00 378.80 282.80 379.00 282.50 C 379.40 282.10 379.80 281.60 380.10 281.10 C 380.20 281.00 380.30 280.90 380.30 280.80 C 380.50 280.50 380.70 280.10 380.90 279.70 C 381.00 279.40 381.20 279.20 381.30 278.90 C 381.30 278.80 381.40 278.70 381.40 278.70 C 381.70 278.10 382.00 277.40 382.20 276.70 C 382.20 276.60 382.20 276.60 382.30 276.50 C 382.40 276.40 382.40 276.20 382.40 276.10 C 382.60 275.60 382.70 275.20 382.90 274.70 C 383.00 274.30 383.10 273.90 383.20 273.60 C 383.20 273.40 383.30 273.20 383.30 273.00 C 383.30 272.90 383.40 272.70 383.40 272.60 C 383.60 271.90 383.70 271.20 383.80 270.50 C 383.80 270.30 383.90 270.10 383.90 269.90 C 383.90 269.70 384.00 269.50 384.00 269.30 C 384.00 269.00 384.10 268.70 384.10 268.30 C 384.20 267.60 384.30 266.80 384.30 266.10 C 384.30 266.00 384.30 265.90 384.30 265.80 C 384.30 265.70 384.30 265.50 384.30 265.40 C 384.30 264.90 384.40 264.40 384.40 263.80 C 384.40 263.00 384.50 262.30 384.50 261.50 C 384.50 261.50 384.50 261.40 384.50 261.40 C 385.10 261.00 385.10 260.30 385.10 259.50 Z" fill="url(#SVGID_15_)" fill-rule="nonzero" group-id="7,12,14" node-id="263" stroke="none" target-height="73.20001" target-width="36.100006" target-x="349" target-y="218.4"/><g node-id="283"><path d="M 356.50 227.00 C 365.50 232.00 373.00 250.50 373.30 268.40 C 373.60 286.30 366.50 296.80 357.50 291.80 C 348.50 286.80 341.00 268.30 340.70 250.40 C 340.50 232.50 347.50 222.00 356.50 227.00 Z" fill="#ffffff" fill-rule="nonzero" group-id="7,12,14,15" node-id="267" stroke="none" target-height="74.79999" target-width="33.100006" target-x="340.5" target-y="222"/></g></g></g></g></svg>