<svg height="1024" node-id="1" sillyvg="true" template-height="1024" template-width="1024" version="1.1" viewBox="0 0 1024 1024" width="1024" xmlns="http://www.w3.org/2000/svg" xmlns:xlink="http://www.w3.org/1999/xlink"><defs node-id="56"><linearGradient gradientUnits="userSpaceOnUse" id="SVGID_1_" node-id="27" spreadMethod="pad" x1="126.9679" x2="881.5714" y1="851.3776" y2="851.3776"><stop offset="0" stop-color="#d7d8d5"/><stop offset="1" stop-color="#f6f6f9"/></linearGradient><linearGradient gradientUnits="userSpaceOnUse" id="SVGID_2_" node-id="32" spreadMethod="pad" x1="127.2589" x2="881.5719" y1="691.3743" y2="691.3743"><stop offset="0" stop-color="#f6f6f9"/><stop offset="1" stop-color="#d7d8d5"/></linearGradient><linearGradient gradientUnits="userSpaceOnUse" id="SVGID_3_" node-id="38" spreadMethod="pad" x1="211.6572" x2="796.8823" y1="738.2404" y2="738.2404"><stop offset="0" stop-color="#d7d8d5"/><stop offset="1" stop-color="#f6f6f9"/></linearGradient><linearGradient gradientUnits="userSpaceOnUse" id="SVGID_4_" node-id="43" spreadMethod="pad" x1="211.8273" x2="796.8826" y1="623.9476" y2="623.9476"><stop offset="0" stop-color="#f6f6f9"/><stop offset="1" stop-color="#d7d8d5"/></linearGradient><linearGradient gradientUnits="userSpaceOnUse" id="SVGID_5_" node-id="47" spreadMethod="pad" x1="244.2506" x2="816.114" y1="376.31" y2="376.31"><stop offset="0" stop-color="#fe7a45"/><stop offset="1" stop-color="#ed5838"/></linearGradient><linearGradient gradientUnits="userSpaceOnUse" id="SVGID_6_" node-id="51" spreadMethod="pad" x1="393.6713" x2="652.5729" y1="455.6688" y2="455.6688"><stop offset="0" stop-color="#e97d08"/><stop offset="1" stop-color="#ffb438"/></linearGradient></defs><g node-id="125"><g node-id="127"><path d="M 881.30 699.10 C 881.20 701.00 881.10 702.90 880.90 704.80 C 880.70 706.50 880.50 708.10 880.30 709.80 C 880.00 711.70 879.80 713.60 879.40 715.40 C 879.10 717.10 878.70 718.70 878.40 720.40 C 878.00 722.20 877.60 724.10 877.10 725.90 C 876.70 727.60 876.20 729.20 875.60 730.90 C 875.00 732.70 874.40 734.50 873.80 736.40 C 873.20 738.00 872.60 739.60 872.00 741.30 C 871.20 743.20 870.40 745.10 869.60 747.00 C 868.90 748.60 868.20 750.20 867.40 751.80 C 866.50 753.70 865.50 755.60 864.50 757.50 C 863.40 759.50 862.30 761.50 861.20 763.50 C 860.90 764.00 860.70 764.40 860.40 764.90 C 858.70 767.80 856.80 770.60 854.80 773.50 C 854.40 774.00 854.10 774.60 853.70 775.10 C 851.70 777.90 849.60 780.70 847.40 783.50 C 847.00 784.00 846.50 784.50 846.10 785.10 C 844.10 787.50 842.10 789.90 840.00 792.30 C 839.40 793.00 838.80 793.60 838.20 794.30 C 835.70 797.10 833.10 799.80 830.30 802.50 C 829.80 803.00 829.30 803.50 828.80 804.00 C 826.70 806.00 824.50 808.00 822.30 810.00 C 820.50 811.60 818.70 813.20 816.90 814.70 C 815.20 816.20 813.50 817.60 811.70 819.00 C 809.80 820.60 807.80 822.10 805.80 823.60 C 804.00 825.00 802.10 826.40 800.20 827.80 C 798.10 829.30 796.00 830.80 793.80 832.30 C 791.80 833.70 789.80 835.00 787.80 836.40 C 785.60 837.90 783.30 839.30 781.00 840.70 C 778.10 842.50 775.30 844.30 772.30 846.00 C 766.70 849.30 760.80 852.40 754.90 855.40 C 753.20 856.30 751.50 857.10 749.80 858.00 C 745.20 860.30 740.60 862.50 735.80 864.60 C 734.20 865.30 732.60 866.10 731.00 866.80 C 724.80 869.50 718.60 872.00 712.20 874.50 C 711.10 874.90 709.90 875.30 708.80 875.70 C 703.40 877.70 698.00 879.60 692.40 881.40 C 690.10 882.20 687.90 882.90 685.60 883.60 C 682.60 884.60 679.50 885.50 676.40 886.40 C 673.80 887.20 671.20 887.90 668.60 888.60 C 665.50 889.50 662.30 890.30 659.20 891.10 C 656.60 891.80 653.90 892.50 651.30 893.10 C 648.10 893.90 644.90 894.60 641.70 895.30 C 639.00 895.90 636.40 896.50 633.70 897.00 C 630.40 897.70 627.10 898.30 623.80 898.90 C 621.30 899.40 618.70 899.90 616.20 900.30 C 609.10 901.50 602.00 902.70 594.90 903.70 C 593.90 903.80 592.90 904.00 591.80 904.10 C 585.60 904.90 579.30 905.70 573.00 906.30 C 570.60 906.50 568.20 906.80 565.80 907.00 C 561.80 907.40 557.70 907.70 553.70 908.00 C 551.20 908.20 548.60 908.40 546.00 908.50 C 541.80 908.80 537.60 909.00 533.30 909.10 C 530.90 909.20 528.50 909.30 526.10 909.40 C 522.40 909.50 518.80 909.60 515.10 909.60 C 512.50 909.60 510.00 909.70 507.40 909.70 C 503.50 909.70 499.60 909.60 495.60 909.60 C 493.30 909.60 490.90 909.60 488.60 909.50 C 485.00 909.40 481.40 909.20 477.80 909.10 C 475.30 909.00 472.80 908.90 470.20 908.80 C 466.30 908.60 462.50 908.30 458.60 908.00 C 456.40 907.80 454.10 907.70 451.90 907.50 C 447.30 907.10 442.70 906.60 438.00 906.20 C 436.60 906.00 435.10 905.90 433.70 905.80 C 427.70 905.10 421.70 904.40 415.70 903.50 C 414.70 903.40 413.80 903.20 412.80 903.00 C 407.70 902.20 402.50 901.50 397.50 900.60 C 395.40 900.20 393.30 899.80 391.20 899.40 C 387.30 898.70 383.40 898.00 379.50 897.20 C 377.50 896.80 375.50 896.30 373.50 895.90 C 369.20 895.00 365.00 894.00 360.80 893.00 C 358.50 892.40 356.20 891.80 353.80 891.20 C 350.00 890.20 346.10 889.20 342.30 888.20 C 340.10 887.60 338.00 887.00 335.90 886.40 C 329.90 884.70 323.90 882.80 318.10 880.90 C 317.10 880.60 316.00 880.20 315.00 879.90 C 308.20 877.60 301.60 875.20 295.10 872.60 C 292.40 871.60 289.80 870.50 287.10 869.40 C 285.00 868.50 282.90 867.70 280.90 866.80 C 277.90 865.50 275.00 864.20 272.10 862.90 C 270.20 862.00 268.30 861.20 266.40 860.30 C 263.20 858.80 260.10 857.20 257.00 855.60 C 255.50 854.80 253.90 854.10 252.30 853.30 C 247.70 850.90 243.20 848.40 238.70 845.80 C 164.30 802.90 127.20 746.50 127.40 690.20 L 127.00 792.90 C 126.80 849.20 164.00 905.50 238.30 948.50 C 242.70 951.10 247.30 953.50 251.90 956.00 C 253.40 956.80 255.00 957.60 256.60 958.30 C 259.70 959.90 262.80 961.50 266.00 963.00 C 267.90 963.90 269.80 964.70 271.70 965.60 C 274.60 966.90 277.50 968.30 280.50 969.50 C 282.60 970.40 284.70 971.20 286.80 972.10 C 288.80 972.90 290.80 973.80 292.80 974.60 C 293.40 974.80 294.10 975.10 294.70 975.30 C 301.30 977.90 307.90 980.30 314.60 982.60 C 315.60 983.00 316.70 983.30 317.70 983.60 C 323.60 985.50 329.50 987.40 335.50 989.10 C 336.50 989.40 337.50 989.70 338.50 990.00 C 339.60 990.30 340.80 990.60 342.00 990.90 C 345.80 992.00 349.60 993.00 353.50 993.90 C 355.80 994.50 358.10 995.10 360.50 995.70 C 364.70 996.70 369.00 997.70 373.20 998.60 C 374.80 998.90 376.30 999.30 377.90 999.70 C 378.30 999.80 378.80 999.90 379.20 999.90 C 383.10 1000.70 387.00 1001.40 390.90 1002.10 C 393.00 1002.50 395.10 1002.90 397.20 1003.30 C 402.30 1004.20 407.50 1005.00 412.70 1005.70 C 413.60 1005.80 414.40 1006.00 415.30 1006.10 C 415.30 1006.10 415.40 1006.10 415.40 1006.10 C 421.40 1006.90 427.40 1007.70 433.40 1008.40 C 434.70 1008.50 436.00 1008.60 437.30 1008.80 C 442.00 1009.30 446.80 1009.80 451.50 1010.20 C 451.60 1010.20 451.70 1010.20 451.80 1010.20 C 453.90 1010.40 455.90 1010.50 458.00 1010.60 C 461.90 1010.90 465.80 1011.20 469.70 1011.40 C 472.20 1011.50 474.70 1011.60 477.20 1011.70 C 480.80 1011.90 484.40 1012.00 488.00 1012.10 C 488.30 1012.10 488.60 1012.10 488.90 1012.10 C 490.90 1012.20 492.90 1012.10 495.00 1012.20 C 498.90 1012.30 502.90 1012.30 506.80 1012.30 C 509.40 1012.30 511.90 1012.20 514.50 1012.20 C 518.20 1012.10 521.80 1012.10 525.50 1012.00 C 526.20 1012.00 526.90 1012.00 527.50 1012.00 C 529.20 1011.90 530.90 1011.80 532.60 1011.70 C 536.80 1011.50 541.10 1011.30 545.30 1011.10 C 547.80 1010.90 550.40 1010.80 552.90 1010.60 C 557.00 1010.30 561.00 1010.00 565.10 1009.60 C 566.50 1009.50 567.90 1009.40 569.30 1009.20 C 570.30 1009.10 571.30 1009.00 572.20 1008.80 C 578.50 1008.10 584.70 1007.40 591.00 1006.60 C 592.00 1006.50 593.00 1006.40 594.10 1006.20 C 601.30 1005.20 608.40 1004.00 615.40 1002.80 C 616.10 1002.70 616.70 1002.60 617.40 1002.50 C 619.30 1002.20 621.10 1001.80 623.00 1001.40 C 626.30 1000.80 629.60 1000.10 632.80 999.50 C 635.50 998.90 638.10 998.30 640.80 997.70 C 644.00 997.00 647.20 996.30 650.40 995.50 C 653.10 994.90 655.70 994.20 658.30 993.50 C 661.40 992.70 664.60 991.90 667.70 991.00 C 670.30 990.30 672.90 989.50 675.50 988.80 C 678.60 987.90 681.60 987.00 684.70 986.00 C 686.00 985.60 687.40 985.20 688.70 984.80 C 689.70 984.50 690.60 984.10 691.50 983.80 C 697.00 982.00 702.50 980.10 707.90 978.10 C 709.00 977.70 710.20 977.30 711.30 976.90 C 717.70 974.50 723.90 971.90 730.10 969.20 C 731.70 968.50 733.30 967.80 734.90 967.10 C 739.60 965.00 744.30 962.80 748.90 960.50 C 750.60 959.70 752.30 958.80 754.00 957.90 C 759.90 954.90 765.70 951.80 771.40 948.50 C 773.00 947.60 774.50 946.70 776.00 945.80 C 777.40 944.90 778.70 944.10 780.10 943.20 C 782.40 941.80 784.70 940.30 787.00 938.90 C 789.00 937.60 791.00 936.20 793.00 934.80 C 795.20 933.30 797.30 931.80 799.40 930.30 C 801.30 928.90 803.20 927.50 805.00 926.10 C 807.00 924.60 809.00 923.00 810.90 921.50 C 812.70 920.10 814.40 918.60 816.10 917.20 C 817.90 915.60 819.80 914.00 821.50 912.50 C 822.20 911.80 823.00 911.20 823.70 910.50 C 825.20 909.20 826.50 907.80 827.90 906.40 C 828.40 905.90 828.90 905.40 829.40 904.90 C 832.10 902.20 834.80 899.50 837.30 896.70 C 837.90 896.10 838.50 895.40 839.00 894.70 C 841.10 892.30 843.20 889.90 845.10 887.50 C 845.50 887.00 846.00 886.50 846.40 885.90 C 846.60 885.70 846.80 885.40 847.00 885.20 C 849.00 882.60 850.90 880.10 852.70 877.50 C 853.10 877.00 853.50 876.40 853.80 875.90 C 855.80 873.10 857.60 870.20 859.40 867.30 C 859.70 866.80 859.90 866.40 860.20 865.90 C 860.80 864.80 861.50 863.70 862.10 862.60 C 862.60 861.70 863.00 860.80 863.50 859.90 C 864.50 858.00 865.50 856.10 866.40 854.20 C 867.20 852.60 867.90 851.00 868.60 849.40 C 869.50 847.50 870.30 845.60 871.00 843.70 C 871.30 842.80 871.80 842.00 872.10 841.20 C 872.40 840.40 872.60 839.70 872.90 838.90 C 873.50 837.10 874.10 835.30 874.70 833.40 C 875.20 831.70 875.70 830.10 876.20 828.40 C 876.70 826.60 877.10 824.70 877.50 822.90 C 877.70 821.90 878.00 820.90 878.20 819.90 C 878.30 819.20 878.40 818.60 878.50 817.90 C 878.80 816.00 879.10 814.10 879.40 812.30 C 879.60 810.60 879.90 809.00 880.00 807.30 C 880.20 805.40 880.30 803.50 880.40 801.60 C 880.50 800.50 880.60 799.40 880.60 798.30 C 880.60 797.20 880.60 796.10 880.70 795.00 L 881.00 692.30 C 881.60 694.70 881.40 696.90 881.30 699.10 Z" fill="url(#SVGID_1_)" fill-rule="nonzero" group-id="1,3" node-id="99" stroke="none" target-height="322.09998" target-width="754.8" target-x="126.8" target-y="690.2"/><g node-id="129"><path d="M 770.20 536.90 C 918.00 622.20 918.80 760.50 772.00 845.80 C 625.20 931.10 386.40 931.10 238.60 845.80 C 90.80 760.50 90.00 622.20 236.90 536.80 C 383.60 451.60 622.50 451.60 770.20 536.90 Z" fill="url(#SVGID_2_)" fill-rule="nonzero" group-id="1,3,5" node-id="103" stroke="none" target-height="479.49997" target-width="828.8" target-x="90" target-y="451.6"/></g></g></g><g node-id="126"><g node-id="128"><path d="M 796.90 624.80 C 796.90 626.50 796.80 628.20 796.70 630.00 C 796.60 631.50 796.50 632.90 796.40 634.40 C 796.30 635.70 796.10 637.00 795.90 638.20 C 795.70 639.70 795.50 641.10 795.20 642.60 C 795.00 643.90 794.70 645.20 794.40 646.50 C 794.10 647.90 793.70 649.40 793.40 650.80 C 793.10 652.10 792.70 653.40 792.30 654.70 C 791.90 656.10 791.40 657.50 790.90 658.90 C 790.50 660.20 790.00 661.40 789.50 662.70 C 788.90 664.20 788.30 665.70 787.60 667.10 C 787.00 668.30 786.50 669.60 785.90 670.80 C 785.20 672.30 784.40 673.70 783.60 675.20 C 783.00 676.40 782.30 677.60 781.60 678.80 C 780.60 680.50 779.50 682.30 778.40 684.00 C 777.70 685.00 777.10 686.10 776.40 687.10 C 775.10 689.00 773.70 690.90 772.30 692.80 C 771.60 693.70 771.00 694.60 770.30 695.40 C 770.00 695.80 769.60 696.20 769.30 696.60 C 767.80 698.50 766.20 700.30 764.50 702.20 C 764.00 702.70 763.60 703.20 763.10 703.70 C 761.10 705.80 759.10 708.00 757.00 710.10 C 756.60 710.50 756.20 710.80 755.80 711.20 C 754.20 712.80 752.50 714.30 750.80 715.90 C 749.40 717.10 748.00 718.40 746.60 719.60 C 745.30 720.70 743.90 721.90 742.60 723.00 C 741.10 724.20 739.60 725.40 738.00 726.60 C 736.60 727.70 735.10 728.80 733.70 729.90 C 732.10 731.10 730.40 732.20 728.80 733.40 C 727.30 734.50 725.70 735.50 724.10 736.60 C 722.40 737.70 720.60 738.80 718.80 740.00 C 716.60 741.40 714.40 742.80 712.00 744.10 C 707.60 746.60 703.10 749.10 698.50 751.40 C 697.20 752.10 695.90 752.70 694.50 753.40 C 690.90 755.20 687.30 756.90 683.60 758.50 C 682.40 759.10 681.10 759.60 679.90 760.20 C 675.10 762.30 670.30 764.30 665.30 766.20 C 664.40 766.50 663.50 766.80 662.70 767.20 C 658.50 768.80 654.30 770.20 650.00 771.70 C 648.20 772.30 646.50 772.90 644.70 773.40 C 642.30 774.10 640.00 774.90 637.60 775.60 C 635.60 776.20 633.60 776.80 631.60 777.30 C 629.20 778.00 626.80 778.60 624.30 779.20 C 622.30 779.70 620.20 780.20 618.20 780.70 C 615.70 781.30 613.20 781.90 610.70 782.40 C 608.60 782.90 606.60 783.30 604.50 783.80 C 602.00 784.30 599.40 784.80 596.90 785.30 C 594.90 785.70 593.00 786.10 591.00 786.40 C 585.50 787.40 580.00 788.30 574.50 789.00 C 573.70 789.10 572.90 789.20 572.10 789.30 C 567.30 790.00 562.40 790.50 557.50 791.00 C 555.60 791.20 553.80 791.40 551.90 791.50 C 548.80 791.80 545.60 792.10 542.50 792.30 C 540.50 792.40 538.60 792.60 536.60 792.70 C 533.30 792.90 530.00 793.10 526.70 793.20 C 524.90 793.30 523.00 793.40 521.20 793.40 C 518.40 793.50 515.50 793.50 512.70 793.60 C 510.70 793.60 508.70 793.70 506.70 793.70 C 503.70 793.70 500.60 793.70 497.60 793.60 C 495.80 793.60 494.00 793.60 492.20 793.50 C 489.40 793.40 486.60 793.30 483.80 793.20 C 481.80 793.10 479.90 793.10 477.90 793.00 C 474.90 792.80 471.90 792.60 468.90 792.40 C 467.20 792.30 465.50 792.20 463.80 792.00 C 460.00 791.70 456.30 791.30 452.50 790.90 C 451.60 790.80 450.60 790.70 449.70 790.60 C 445.00 790.10 440.40 789.50 435.70 788.80 C 434.90 788.70 434.20 788.60 433.40 788.40 C 429.40 787.80 425.50 787.20 421.50 786.50 C 419.80 786.20 418.20 785.90 416.60 785.60 C 413.60 785.00 410.60 784.50 407.60 783.90 C 406.00 783.60 404.50 783.20 402.90 782.90 C 399.60 782.20 396.30 781.50 393.10 780.70 C 391.30 780.30 389.50 779.80 387.70 779.30 C 384.70 778.50 381.80 777.80 378.80 777.00 C 377.10 776.50 375.50 776.10 373.80 775.60 C 369.10 774.20 364.50 772.80 360.00 771.30 C 359.20 771.00 358.40 770.80 357.60 770.50 C 352.40 768.70 347.20 766.80 342.10 764.90 C 340.00 764.10 338.00 763.30 335.90 762.40 C 334.30 761.70 332.70 761.10 331.10 760.40 C 328.80 759.40 326.60 758.40 324.30 757.40 C 322.80 756.70 321.30 756.10 319.80 755.40 C 317.30 754.20 314.90 753.00 312.50 751.80 C 311.30 751.20 310.10 750.60 308.90 750.00 C 305.30 748.10 301.80 746.20 298.40 744.20 C 240.70 710.90 211.90 667.20 212.00 623.60 L 211.80 683.60 C 211.70 727.20 240.50 770.90 298.20 804.20 C 301.60 806.20 305.20 808.10 308.70 810.00 C 309.90 810.60 311.10 811.20 312.40 811.80 C 314.80 813.00 317.20 814.20 319.60 815.40 C 321.10 816.10 322.60 816.80 324.10 817.40 C 326.30 818.40 328.60 819.50 330.90 820.40 C 332.50 821.10 334.10 821.70 335.80 822.40 C 337.40 823.00 338.90 823.70 340.50 824.30 C 341.00 824.50 341.50 824.70 342.00 824.80 C 347.10 826.80 352.20 828.70 357.50 830.50 C 358.30 830.80 359.10 831.00 359.90 831.30 C 364.50 832.80 369.10 834.20 373.80 835.60 C 374.60 835.80 375.30 836.10 376.10 836.30 C 377.00 836.60 377.90 836.80 378.80 837.00 C 381.70 837.80 384.70 838.60 387.70 839.40 C 389.50 839.90 391.30 840.30 393.10 840.80 C 396.40 841.60 399.60 842.30 402.90 843.00 C 404.10 843.30 405.30 843.60 406.60 843.80 C 406.90 843.90 407.30 843.90 407.60 844.00 C 410.60 844.60 413.60 845.20 416.60 845.70 C 418.30 846.00 419.90 846.30 421.50 846.60 C 425.40 847.30 429.40 847.90 433.40 848.50 C 434.10 848.60 434.80 848.70 435.60 848.80 C 435.60 848.80 435.70 848.80 435.70 848.80 C 440.30 849.50 445.00 850.00 449.70 850.60 C 450.70 850.70 451.80 850.80 452.80 850.90 C 456.50 851.30 460.10 851.70 463.80 852.00 C 463.90 852.00 464.00 852.00 464.10 852.00 C 465.70 852.10 467.30 852.20 468.90 852.30 C 471.90 852.50 475.00 852.80 478.00 852.90 C 479.90 853.00 481.80 853.10 483.80 853.10 C 486.60 853.20 489.40 853.40 492.20 853.40 C 492.40 853.40 492.70 853.40 492.90 853.40 C 494.50 853.40 496.00 853.40 497.60 853.40 C 500.70 853.40 503.70 853.50 506.80 853.50 C 508.80 853.50 510.80 853.40 512.70 853.40 C 515.60 853.40 518.40 853.30 521.30 853.20 C 521.80 853.20 522.40 853.20 522.90 853.20 C 524.20 853.20 525.50 853.10 526.90 853.00 C 530.20 852.90 533.50 852.70 536.80 852.50 C 538.80 852.40 540.70 852.20 542.70 852.10 C 545.90 851.90 549.00 851.60 552.10 851.30 C 553.20 851.20 554.30 851.10 555.40 851.00 C 556.20 850.90 556.90 850.80 557.70 850.70 C 562.60 850.20 567.50 849.60 572.30 849.00 C 573.10 848.90 573.90 848.80 574.60 848.70 C 580.20 847.90 585.70 847.00 591.20 846.10 C 591.70 846.00 592.20 845.90 592.80 845.90 C 594.30 845.60 595.70 845.30 597.10 845.00 C 599.70 844.50 602.20 844.00 604.80 843.50 C 606.90 843.10 608.90 842.60 611.00 842.10 C 613.50 841.50 616.00 841.00 618.50 840.40 C 620.60 839.90 622.60 839.40 624.70 838.90 C 627.10 838.30 629.60 837.60 632.00 837.00 C 634.00 836.40 636.10 835.90 638.10 835.30 C 640.50 834.60 642.80 833.90 645.20 833.10 C 646.20 832.80 647.30 832.50 648.30 832.10 C 649.00 831.90 649.80 831.60 650.50 831.30 C 654.80 829.90 659.00 828.40 663.20 826.80 C 664.10 826.50 665.00 826.20 665.80 825.80 C 670.70 823.90 675.60 821.90 680.40 819.90 C 681.60 819.40 682.90 818.80 684.10 818.20 C 687.80 816.60 691.40 814.80 695.00 813.10 C 696.30 812.40 697.70 811.80 699.00 811.10 C 703.60 808.80 708.10 806.30 712.50 803.80 C 713.70 803.10 714.90 802.40 716.10 801.70 C 717.20 801.00 718.20 800.30 719.30 799.70 C 721.10 798.60 722.90 797.50 724.60 796.40 C 726.20 795.40 727.70 794.30 729.30 793.20 C 731.00 792.10 732.60 790.90 734.20 789.70 C 735.70 788.60 737.10 787.50 738.60 786.40 C 740.10 785.20 741.70 784.00 743.20 782.80 C 744.60 781.70 745.90 780.60 747.20 779.40 C 748.60 778.20 750.00 777.00 751.40 775.70 C 752.00 775.20 752.60 774.70 753.10 774.20 C 754.20 773.20 755.30 772.10 756.40 771.10 C 756.80 770.70 757.20 770.40 757.60 770.00 C 759.70 767.90 761.80 765.80 763.70 763.60 C 764.20 763.10 764.60 762.60 765.10 762.10 C 766.70 760.20 768.30 758.40 769.90 756.50 C 770.20 756.10 770.60 755.70 770.90 755.30 C 771.00 755.10 771.20 754.90 771.40 754.70 C 771.90 754.00 772.40 753.30 772.90 752.60 C 774.30 750.70 775.70 748.80 777.00 746.90 C 777.70 745.90 778.40 744.80 779.00 743.80 C 780.10 742.10 781.20 740.40 782.20 738.60 C 782.50 738.10 782.80 737.70 783.10 737.20 C 783.50 736.50 783.80 735.80 784.20 735.10 C 785.00 733.60 785.70 732.20 786.50 730.70 C 787.10 729.50 787.70 728.20 788.20 727.00 C 788.90 725.50 789.50 724.00 790.10 722.60 C 790.40 721.90 790.70 721.30 790.90 720.60 C 791.10 720.00 791.30 719.40 791.50 718.80 C 792.00 717.40 792.50 716.00 792.90 714.60 C 793.30 713.30 793.70 712.00 794.00 710.70 C 794.40 709.30 794.70 707.90 795.00 706.40 C 795.20 705.60 795.40 704.90 795.60 704.10 C 795.70 703.60 795.70 703.10 795.80 702.50 C 796.10 701.00 796.30 699.60 796.50 698.10 C 796.70 696.80 796.90 695.50 797.00 694.30 C 797.10 692.80 797.20 691.40 797.30 689.90 C 797.30 689.00 797.50 688.20 797.50 687.30 C 797.50 686.40 797.50 685.60 797.50 684.70 L 797.50 684.70 L 796.90 624.80 Z" fill="url(#SVGID_3_)" fill-rule="nonzero" group-id="2,4" node-id="112" stroke="none" target-height="229.90002" target-width="585.8" target-x="211.7" target-y="623.6"/><g node-id="130"><path d="M 710.50 504.10 C 825.10 570.30 825.70 677.60 711.80 743.70 C 597.90 809.90 412.70 809.90 298.10 743.70 C 183.50 677.50 182.90 570.20 296.80 504.10 C 410.70 438.00 595.90 438.00 710.50 504.10 Z" fill="url(#SVGID_4_)" fill-rule="nonzero" group-id="2,4,6" node-id="116" stroke="none" target-height="371.90002" target-width="642.80005" target-x="182.9" target-y="438"/></g></g></g><path d="M 749.90 545.10 C 734.60 526.90 768.60 501.40 768.60 501.40 C 768.60 501.40 902.90 355.80 719.80 212.80 C 719.80 212.80 747.20 292.10 702.60 298.70 C 658.00 305.30 682.60 248.20 682.60 248.20 C 682.60 248.20 698.40 28.40 513.30 13.70 C 513.30 13.70 594.80 126.80 496.00 185.00 C 496.00 185.00 495.40 118.60 446.00 97.90 L 446.10 98.30 C 446.10 98.30 446.10 98.30 446.10 98.40 C 447.80 106.90 456.80 170.20 371.30 215.80 C 371.30 215.80 189.90 346.30 260.40 576.70 C 260.40 576.70 313.70 799.70 632.80 722.90 C 632.80 722.90 768.20 680.90 797.90 530.20 C 798.00 530.10 765.10 563.30 749.90 545.10 Z" fill="url(#SVGID_5_)" fill-rule="nonzero" node-id="121" stroke="none" target-height="786" target-width="713" target-x="189.9" target-y="13.7"/><path d="M 622.60 532.10 C 615.70 523.90 631.10 512.30 631.10 512.30 C 631.10 512.30 691.90 446.40 609.00 381.60 C 609.00 381.60 621.40 417.50 601.20 420.50 C 581.00 423.50 592.10 397.60 592.10 397.60 C 592.10 397.60 599.30 298.10 515.50 291.40 C 515.50 291.40 552.40 342.60 507.70 368.90 C 507.70 368.90 507.40 338.80 485.10 329.50 L 485.10 329.70 C 485.10 329.70 485.10 329.70 485.10 329.70 C 485.90 333.60 490.00 362.20 451.20 382.80 C 451.20 382.80 369.10 441.90 401.00 546.20 C 401.00 546.20 425.10 647.20 569.60 612.40 C 569.60 612.40 630.90 593.40 644.40 525.20 C 644.40 525.30 629.50 540.30 622.60 532.10 Z" fill="url(#SVGID_6_)" fill-rule="nonzero" node-id="123" stroke="none" target-height="355.80002" target-width="322.80002" target-x="369.1" target-y="291.4"/></svg>