<svg height="1024" node-id="1" sillyvg="true" template-height="1024" template-width="1024" version="1.1" viewBox="0 0 1024 1024" width="1024" xmlns="http://www.w3.org/2000/svg" xmlns:xlink="http://www.w3.org/1999/xlink"><defs node-id="102"><linearGradient gradientUnits="userSpaceOnUse" id="SVGID_1_" node-id="28" spreadMethod="pad" x1="76.3419" x2="960" y1="850.7357" y2="850.7357"><stop offset="0" stop-color="#c6cad0"/><stop offset="1" stop-color="#c0c9cf"/></linearGradient><linearGradient gradientUnits="userSpaceOnUse" id="SVGID_2_" node-id="33" spreadMethod="pad" x1="76.5059" x2="960" y1="693.9765" y2="693.9765"><stop offset="0" stop-color="#fbfbfb"/><stop offset="1" stop-color="#fbfbfb"/></linearGradient><linearGradient gradientUnits="userSpaceOnUse" id="SVGID_3_" node-id="40" spreadMethod="pad" x1="228.7613" x2="591.9868" y1="384.9538" y2="384.9538"><stop offset="0" stop-color="#d7d8d5"/><stop offset="1" stop-color="#f6f6f9"/></linearGradient><linearGradient gradientUnits="userSpaceOnUse" id="SVGID_4_" node-id="45" spreadMethod="pad" x1="299.3589" x2="604.4203" y1="406.7495" y2="406.7495"><stop offset="0" stop-color="#d7d8d5"/><stop offset="1" stop-color="#f6f6f9"/></linearGradient><linearGradient gradientUnits="userSpaceOnUse" id="SVGID_5_" node-id="51" spreadMethod="pad" x1="340.3718" x2="570.0151" y1="349.9152" y2="349.9152"><stop offset="0" stop-color="#7365e0"/><stop offset="1" stop-color="#9180f2"/></linearGradient><linearGradient gradientUnits="userSpaceOnUse" id="SVGID_6_" node-id="56" spreadMethod="pad" x1="447.5125" x2="521.0795" y1="582.9734" y2="582.9734"><stop offset="0" stop-color="#d7d8d5"/><stop offset="1" stop-color="#f6f6f9"/></linearGradient><linearGradient gradientUnits="userSpaceOnUse" id="SVGID_7_" node-id="61" spreadMethod="pad" x1="459.6629" x2="531.4876" y1="587.7427" y2="587.7427"><stop offset="0" stop-color="#d7d8d5"/><stop offset="1" stop-color="#f6f6f9"/></linearGradient><linearGradient gradientUnits="userSpaceOnUse" id="SVGID_8_" node-id="77" spreadMethod="pad" x1="369.6563" x2="397.3272" y1="421.5584" y2="421.5584"><stop offset="0" stop-color="#f9fae6"/><stop offset="1" stop-color="#fbfdf0"/></linearGradient><linearGradient gradientUnits="userSpaceOnUse" id="SVGID_9_" node-id="82" spreadMethod="pad" x1="526.059" x2="553.7299" y1="331.2593" y2="331.2593"><stop offset="0" stop-color="#f9fae6"/><stop offset="1" stop-color="#fbfdf0"/></linearGradient><linearGradient gradientUnits="userSpaceOnUse" id="SVGID_10_" node-id="87" spreadMethod="pad" x1="408.6938" x2="436.4146" y1="385.5214" y2="385.5214"><stop offset="0" stop-color="#f9fae6"/><stop offset="1" stop-color="#fbfdf0"/></linearGradient><linearGradient gradientUnits="userSpaceOnUse" id="SVGID_11_" node-id="92" spreadMethod="pad" x1="486.8987" x2="514.6195" y1="341.6136" y2="341.6136"><stop offset="0" stop-color="#f9fae6"/><stop offset="1" stop-color="#fbfdf0"/></linearGradient><linearGradient gradientUnits="userSpaceOnUse" id="SVGID_12_" node-id="97" spreadMethod="pad" x1="447.7017" x2="475.5285" y1="348.9089" y2="348.9089"><stop offset="0" stop-color="#f9fae6"/><stop offset="1" stop-color="#fbfdf0"/></linearGradient></defs><g node-id="272"><g node-id="276"><path d="M 959.90 695.90 C 959.80 696.50 959.80 697.20 959.70 697.80 C 959.60 698.30 959.40 698.80 959.30 699.30 C 959.10 699.90 959.00 700.50 958.80 701.10 C 958.60 701.60 958.40 702.10 958.20 702.60 C 957.90 703.20 957.70 703.90 957.30 704.50 C 957.10 704.90 956.80 705.40 956.50 705.80 C 956.10 706.50 955.60 707.20 955.10 707.90 C 954.60 708.60 954.10 709.20 953.50 709.90 C 953.40 710.10 953.20 710.20 953.10 710.40 C 952.30 711.20 951.50 712.10 950.60 712.90 C 950.00 713.40 949.40 713.90 948.80 714.40 C 948.20 714.80 947.70 715.30 947.10 715.70 C 946.40 716.20 945.70 716.70 944.90 717.10 C 944.10 717.60 943.40 718.10 942.60 718.60 L 562.10 939.70 C 560.30 940.70 558.40 941.70 556.40 942.60 C 555.80 942.90 555.30 943.10 554.70 943.30 C 553.20 943.90 551.60 944.50 550.00 945.10 C 549.40 945.30 548.90 945.50 548.30 945.70 C 547.30 946.00 546.30 946.30 545.20 946.60 C 544.40 946.80 543.60 947.00 542.80 947.20 C 541.70 947.50 540.60 947.70 539.50 947.90 C 538.70 948.10 538.00 948.20 537.20 948.40 C 535.00 948.80 532.70 949.10 530.40 949.40 C 529.70 949.50 529.00 949.50 528.30 949.60 C 527.00 949.70 525.60 949.80 524.20 949.90 C 523.30 949.90 522.50 950.00 521.60 950.00 C 520.50 950.00 519.40 950.00 518.30 950.00 C 517.40 950.00 516.50 950.00 515.50 949.90 C 514.50 949.90 513.50 949.80 512.50 949.70 C 511.60 949.60 510.60 949.60 509.70 949.50 C 508.70 949.40 507.70 949.30 506.70 949.20 C 505.80 949.10 504.90 949.00 504.00 948.80 C 502.90 948.60 501.90 948.40 500.80 948.20 C 500.00 948.00 499.10 947.90 498.30 947.70 C 497.00 947.40 495.80 947.10 494.60 946.80 C 493.90 946.60 493.20 946.40 492.60 946.20 C 490.40 945.60 488.20 944.80 486.10 944.00 C 485.10 943.60 484.10 943.20 483.10 942.70 C 482.60 942.50 482.00 942.30 481.50 942.00 C 480.00 941.30 478.50 940.50 477.10 939.70 L 94.20 718.60 C 88.30 715.20 83.80 711.20 80.90 707.00 C 79.40 704.90 78.30 702.70 77.60 700.50 C 77.20 699.40 77.00 698.30 76.80 697.20 C 76.60 696.10 76.50 695.00 76.50 693.80 L 76.30 751.60 C 76.30 760.60 82.20 769.50 94.00 776.40 L 477.00 997.50 C 478.40 998.30 479.90 999.10 481.40 999.80 C 481.90 1000.00 482.40 1000.20 483.00 1000.50 C 483.90 1000.90 484.80 1001.30 485.70 1001.70 C 485.80 1001.70 485.90 1001.80 486.00 1001.80 C 488.10 1002.60 490.20 1003.30 492.50 1004.00 C 492.70 1004.10 492.80 1004.10 493.00 1004.20 C 493.50 1004.30 494.00 1004.40 494.50 1004.60 C 495.70 1004.90 497.00 1005.20 498.20 1005.50 C 498.50 1005.60 498.90 1005.70 499.20 1005.70 C 499.70 1005.80 500.20 1005.90 500.70 1006.00 C 501.80 1006.20 502.80 1006.40 503.90 1006.60 C 504.30 1006.70 504.70 1006.80 505.20 1006.80 C 505.70 1006.90 506.10 1006.90 506.60 1007.00 C 507.60 1007.10 508.60 1007.20 509.60 1007.30 C 510.10 1007.30 510.50 1007.40 511.00 1007.50 C 511.40 1007.50 511.90 1007.50 512.30 1007.60 C 513.30 1007.70 514.30 1007.70 515.30 1007.80 C 515.80 1007.80 516.30 1007.90 516.80 1007.90 C 517.20 1007.90 517.60 1007.90 518.00 1007.90 C 519.10 1007.90 520.20 1007.90 521.30 1007.90 C 521.80 1007.90 522.40 1007.90 522.90 1007.90 C 523.20 1007.90 523.50 1007.80 523.90 1007.80 C 525.30 1007.70 526.60 1007.60 528.00 1007.50 C 528.50 1007.50 529.10 1007.40 529.60 1007.40 C 529.80 1007.40 529.90 1007.30 530.10 1007.30 C 532.40 1007.10 534.70 1006.70 536.90 1006.30 C 537.00 1006.30 537.10 1006.30 537.20 1006.30 C 537.90 1006.20 538.50 1006.00 539.10 1005.90 C 540.20 1005.70 541.30 1005.50 542.40 1005.20 C 543.20 1005.00 544.00 1004.80 544.80 1004.60 C 545.80 1004.30 546.90 1004.00 547.90 1003.70 C 548.10 1003.60 548.30 1003.60 548.60 1003.50 C 549.00 1003.40 549.30 1003.20 549.70 1003.10 C 551.30 1002.60 552.90 1002.00 554.40 1001.30 C 555.00 1001.10 555.60 1000.80 556.10 1000.60 C 558.10 999.70 560.00 998.80 561.80 997.70 L 942.20 776.60 C 942.40 776.50 942.70 776.30 942.90 776.20 C 943.50 775.90 943.90 775.50 944.50 775.20 C 945.20 774.70 946.00 774.30 946.60 773.80 C 947.20 773.40 947.70 772.90 948.30 772.50 C 948.90 772.00 949.60 771.50 950.10 771.00 C 950.20 770.90 950.40 770.80 950.50 770.70 C 951.30 770.00 952.00 769.30 952.70 768.50 C 952.80 768.30 953.00 768.20 953.10 768.00 C 953.50 767.50 953.90 767.10 954.30 766.60 C 954.50 766.40 954.60 766.20 954.70 766.00 C 955.20 765.30 955.70 764.60 956.10 763.90 C 956.30 763.60 956.50 763.30 956.70 763.00 C 956.80 762.80 956.80 762.70 956.90 762.50 C 957.20 761.90 957.50 761.30 957.80 760.60 C 958.00 760.20 958.20 759.90 958.30 759.50 C 958.30 759.40 958.40 759.30 958.40 759.10 C 958.60 758.50 958.80 757.90 958.90 757.30 C 959.00 756.90 959.20 756.50 959.20 756.10 C 959.20 756.00 959.20 755.90 959.20 755.80 C 959.30 755.20 959.40 754.50 959.40 753.90 C 959.40 753.50 959.50 753.10 959.50 752.70 C 959.50 752.50 959.50 752.30 959.50 752.20 L 959.70 694.40 C 960.00 694.70 959.90 695.30 959.90 695.90 Z" fill="url(#SVGID_1_)" fill-rule="nonzero" group-id="1,5" node-id="182" stroke="none" target-height="314.10004" target-width="883.7" target-x="76.3" target-y="693.8"/><g node-id="285"><path d="M 942.30 669.40 C 965.80 683.00 966.00 705.00 942.60 718.60 L 562.10 939.70 C 538.70 953.30 500.70 953.30 477.10 939.70 L 94.20 718.60 C 70.70 705.00 70.60 683.00 94.00 669.40 L 474.40 448.30 C 497.80 434.70 535.80 434.70 559.40 448.30 L 942.30 669.40 Z" fill="url(#SVGID_2_)" fill-rule="nonzero" group-id="1,5,14" node-id="186" stroke="none" target-height="518.6" target-width="895.4" target-x="70.6" target-y="434.7"/></g></g></g><g node-id="273"><g node-id="277"><g node-id="286"><path d="M 569.20 66.40 C 569.80 66.10 570.50 65.90 571.10 65.60 C 572.00 65.20 572.90 64.90 573.80 64.70 C 574.40 64.50 574.90 64.40 575.50 64.20 C 576.00 64.10 576.50 64.00 577.10 63.90 C 577.80 63.80 578.50 63.70 579.10 63.60 C 579.50 63.60 579.90 63.50 580.20 63.50 C 581.00 63.40 581.80 63.40 582.60 63.50 C 582.80 63.50 583.00 63.50 583.20 63.50 C 584.20 63.60 585.10 63.70 586.00 63.90 C 586.20 63.90 586.40 64.00 586.70 64.10 C 587.40 64.30 588.10 64.50 588.80 64.70 C 589.00 64.80 589.20 64.80 589.40 64.90 C 590.30 65.20 591.10 65.60 591.90 66.10 L 521.30 25.10 C 521.20 25.10 521.20 25.00 521.10 25.00 C 520.50 24.70 519.80 24.30 519.20 24.10 C 519.10 24.00 518.90 24.00 518.80 24.00 C 518.60 23.90 518.40 23.80 518.20 23.80 C 517.90 23.70 517.50 23.50 517.20 23.50 C 516.80 23.40 516.50 23.30 516.10 23.20 C 515.90 23.10 515.70 23.10 515.40 23.00 C 515.30 23.00 515.20 22.90 515.00 22.90 C 514.20 22.80 513.50 22.70 512.70 22.60 C 512.70 22.60 512.60 22.60 512.50 22.60 C 512.30 22.60 512.10 22.60 511.90 22.60 C 511.30 22.60 510.70 22.60 510.10 22.60 C 509.90 22.60 509.70 22.60 509.50 22.70 C 509.10 22.70 508.70 22.80 508.30 22.80 C 507.90 22.80 507.60 22.90 507.20 22.90 C 506.90 22.90 506.60 23.00 506.20 23.10 C 505.70 23.20 505.20 23.30 504.60 23.40 C 504.30 23.50 504.00 23.50 503.80 23.60 C 503.50 23.70 503.20 23.80 502.90 23.90 C 502.00 24.20 501.10 24.50 500.20 24.80 C 499.90 24.90 499.60 25.00 499.30 25.10 C 499.00 25.20 498.70 25.40 498.40 25.50 C 498.10 25.60 497.80 25.80 497.50 25.90 C 496.30 26.40 495.20 27.00 494.00 27.70 L 266.80 158.80 C 265.60 159.50 264.40 160.30 263.20 161.10 C 262.80 161.40 262.40 161.70 262.00 161.90 C 261.20 162.50 260.40 163.10 259.60 163.70 C 259.20 164.10 258.70 164.40 258.30 164.80 C 257.60 165.40 256.90 166.00 256.10 166.70 C 255.70 167.10 255.20 167.50 254.80 167.90 C 254.50 168.20 254.30 168.40 254.00 168.70 C 253.70 169.00 253.50 169.30 253.20 169.60 C 252.30 170.50 251.50 171.40 250.70 172.30 C 250.40 172.60 250.10 172.90 249.90 173.20 C 249.70 173.50 249.50 173.70 249.30 174.00 C 248.80 174.60 248.30 175.20 247.80 175.80 C 247.50 176.20 247.10 176.60 246.80 177.00 C 246.50 177.30 246.30 177.70 246.10 178.00 C 245.70 178.50 245.40 178.90 245.00 179.40 C 244.80 179.70 244.50 180.10 244.30 180.40 C 243.90 181.00 243.50 181.60 243.10 182.10 C 242.90 182.50 242.60 182.80 242.40 183.20 C 242.30 183.40 242.20 183.50 242.10 183.70 C 241.40 184.80 240.80 185.80 240.10 186.90 C 240.10 187.00 240.00 187.00 240.00 187.10 C 239.90 187.30 239.80 187.50 239.60 187.80 C 239.20 188.60 238.70 189.30 238.30 190.10 C 238.10 190.50 237.90 190.80 237.70 191.20 C 237.50 191.60 237.30 192.00 237.10 192.30 C 236.90 192.60 236.80 193.00 236.60 193.30 C 236.20 194.20 235.80 195.10 235.30 196.00 C 235.20 196.20 235.20 196.30 235.10 196.50 C 235.10 196.50 235.10 196.60 235.00 196.60 C 234.50 197.70 234.00 198.90 233.60 200.00 C 233.50 200.20 233.40 200.40 233.40 200.60 C 233.20 201.00 233.10 201.40 232.90 201.90 C 232.70 202.50 232.50 203.00 232.30 203.60 C 232.10 204.10 232.00 204.50 231.90 205.00 C 231.70 205.50 231.60 206.00 231.40 206.60 C 231.30 206.90 231.20 207.20 231.10 207.60 C 230.90 208.20 230.80 208.80 230.70 209.40 C 230.50 210.00 230.40 210.70 230.20 211.30 C 230.10 211.50 230.10 211.80 230.00 212.00 C 229.90 212.50 229.80 212.90 229.80 213.40 C 229.60 214.40 229.40 215.40 229.30 216.40 C 229.30 216.70 229.20 217.00 229.20 217.20 C 229.10 217.80 229.10 218.50 229.00 219.10 C 229.00 219.50 228.90 220.00 228.90 220.40 C 228.80 221.80 228.70 223.20 228.70 224.60 L 230.00 681.90 C 230.00 693.90 234.30 702.40 241.10 706.40 L 311.70 747.40 C 304.80 743.40 300.60 734.90 300.60 722.90 L 299.30 265.60 C 299.30 264.20 299.40 262.80 299.50 261.40 C 299.50 261.00 299.60 260.50 299.60 260.00 C 299.70 259.10 299.80 258.20 299.90 257.30 C 300.00 256.30 300.20 255.30 300.40 254.20 C 300.50 253.50 300.70 252.80 300.80 252.10 C 300.90 251.40 301.10 250.80 301.30 250.10 C 301.50 249.20 301.80 248.30 302.00 247.40 C 302.20 246.90 302.30 246.30 302.50 245.80 C 302.80 244.80 303.20 243.80 303.50 242.80 C 303.70 242.40 303.80 242.00 304.00 241.50 C 304.50 240.10 305.10 238.70 305.70 237.30 C 305.80 237.10 305.80 237.00 305.90 236.80 C 306.50 235.60 307.00 234.30 307.60 233.10 C 307.80 232.70 308.00 232.30 308.20 232.00 C 308.80 230.80 309.40 229.70 310.10 228.60 C 310.20 228.40 310.30 228.10 310.50 227.90 C 311.30 226.60 312.10 225.30 312.90 224.00 C 313.10 223.60 313.40 223.30 313.60 222.90 C 314.20 222.00 314.80 221.10 315.50 220.20 C 315.80 219.70 316.20 219.20 316.60 218.80 C 317.20 218.10 317.70 217.30 318.30 216.60 C 318.80 216.00 319.30 215.40 319.80 214.80 C 320.30 214.20 320.80 213.70 321.20 213.20 C 322.00 212.30 322.90 211.40 323.70 210.50 C 324.20 210.00 324.80 209.40 325.30 208.90 C 325.70 208.50 326.20 208.10 326.60 207.70 C 327.30 207.10 328.00 206.40 328.80 205.80 C 329.20 205.40 329.70 205.10 330.10 204.70 C 330.90 204.10 331.70 203.50 332.50 202.90 C 332.90 202.60 333.30 202.30 333.70 202.10 C 334.90 201.30 336.10 200.50 337.30 199.80 L 564.80 68.60 C 566.00 67.90 567.20 67.30 568.30 66.80 C 568.60 66.60 568.90 66.50 569.20 66.40 Z" fill="url(#SVGID_3_)" fill-rule="nonzero" group-id="2,6,15" node-id="197" stroke="none" target-height="724.80005" target-width="363.2" target-x="228.7" target-y="22.6"/><g node-id="289"><path d="M 564.80 68.60 C 585.90 56.40 603.00 66.20 603.10 90.40 L 604.40 547.70 C 604.50 571.90 587.40 601.50 566.30 613.60 L 339.00 744.90 C 317.90 757.10 300.80 747.30 300.70 723.10 L 299.40 265.80 C 299.30 241.50 316.40 212.10 337.50 199.90 L 564.80 68.60 Z" fill="url(#SVGID_4_)" fill-rule="nonzero" group-id="2,6,15,18" node-id="201" stroke="none" target-height="700.69995" target-width="305.2" target-x="299.3" target-y="56.4"/></g></g></g><g node-id="278"><g node-id="287"><path d="M 543.10 130.50 C 557.50 122.20 569.20 128.90 569.20 145.40 L 570.00 422.30 C 570.00 438.80 558.40 459.00 544.00 467.30 L 367.20 569.30 C 352.80 577.60 341.10 570.90 341.00 554.40 L 340.20 277.50 C 340.20 261.00 351.80 240.80 366.20 232.50 L 543.10 130.50 Z" fill="url(#SVGID_5_)" fill-rule="nonzero" group-id="2,7,16" node-id="210" stroke="none" target-height="455.39996" target-width="229.79999" target-x="340.2" target-y="122.2"/></g></g><g node-id="279"><path d="M 459.70 606.50 C 459.70 606.00 459.70 605.50 459.80 605.00 C 459.80 604.90 459.80 604.80 459.80 604.70 C 459.80 604.20 459.90 603.70 459.90 603.30 C 459.90 603.20 459.90 603.20 459.90 603.10 C 460.00 602.60 460.00 602.10 460.10 601.50 C 460.10 601.40 460.10 601.20 460.20 601.10 C 460.20 600.90 460.30 600.60 460.30 600.40 C 460.30 600.20 460.30 600.10 460.40 599.90 C 460.40 599.70 460.50 599.40 460.50 599.20 C 460.50 599.00 460.60 598.90 460.60 598.70 C 460.60 598.50 460.70 598.20 460.70 598.00 C 460.70 597.90 460.80 597.70 460.80 597.60 C 460.90 597.30 460.90 597.00 461.00 596.70 C 461.00 596.60 461.00 596.50 461.10 596.40 C 461.20 595.80 461.40 595.10 461.50 594.50 C 461.50 594.40 461.50 594.30 461.60 594.30 C 461.80 593.70 461.90 593.10 462.10 592.50 C 462.10 592.40 462.20 592.30 462.20 592.20 C 462.30 591.70 462.50 591.10 462.70 590.60 C 462.70 590.50 462.80 590.40 462.80 590.30 C 463.00 589.80 463.10 589.30 463.30 588.80 C 463.30 588.70 463.30 588.70 463.40 588.60 C 463.60 588.10 463.70 587.60 463.90 587.10 C 463.90 587.00 464.00 586.90 464.00 586.70 C 464.20 586.30 464.30 585.80 464.50 585.40 C 464.50 585.30 464.50 585.30 464.60 585.20 C 464.80 584.70 465.00 584.30 465.20 583.80 C 465.20 583.70 465.30 583.60 465.40 583.40 C 465.60 583.00 465.70 582.60 465.90 582.20 C 465.90 582.10 466.00 582.00 466.00 581.90 C 466.20 581.40 466.40 581.00 466.60 580.50 C 466.60 580.40 466.70 580.30 466.70 580.20 C 466.90 579.80 467.00 579.50 467.20 579.10 C 467.30 579.00 467.30 578.90 467.40 578.70 C 467.60 578.20 467.80 577.80 468.10 577.30 C 468.10 577.30 468.20 577.20 468.20 577.20 C 468.40 576.80 468.60 576.40 468.80 576.00 C 468.90 575.90 468.90 575.70 469.00 575.60 C 469.20 575.20 469.40 574.80 469.60 574.40 C 469.60 574.30 469.70 574.30 469.70 574.20 C 469.90 573.80 470.20 573.30 470.50 572.90 C 470.60 572.80 470.60 572.70 470.70 572.60 C 470.90 572.20 471.10 571.80 471.40 571.50 C 471.50 571.40 471.50 571.30 471.60 571.20 C 471.90 570.80 472.10 570.30 472.40 569.90 C 472.50 569.80 472.50 569.70 472.60 569.60 C 472.90 569.20 473.10 568.80 473.40 568.40 C 473.50 568.30 473.50 568.20 473.60 568.20 C 473.90 567.70 474.20 567.30 474.50 566.90 C 474.60 566.80 474.60 566.70 474.70 566.60 C 475.00 566.10 475.40 565.60 475.80 565.10 C 475.80 565.10 475.80 565.10 475.80 565.10 C 476.20 564.60 476.50 564.10 476.90 563.70 C 477.00 563.60 477.00 563.50 477.10 563.50 C 477.50 563.00 477.90 562.40 478.40 561.90 C 478.50 561.80 478.50 561.70 478.60 561.70 C 479.00 561.20 479.50 560.70 479.90 560.20 C 480.00 560.10 480.10 560.00 480.20 559.90 C 480.40 559.70 480.60 559.40 480.80 559.20 C 480.90 559.10 481.00 559.00 481.10 558.90 C 481.40 558.60 481.60 558.30 481.90 558.00 C 481.90 558.00 482.00 557.90 482.00 557.90 C 482.30 557.60 482.60 557.30 482.90 557.00 C 483.00 556.90 483.10 556.80 483.20 556.70 C 483.40 556.50 483.60 556.30 483.90 556.00 C 484.00 555.90 484.10 555.80 484.20 555.70 C 484.60 555.30 485.00 554.90 485.50 554.50 C 485.50 554.50 485.60 554.40 485.60 554.40 C 486.00 554.00 486.40 553.70 486.80 553.30 C 486.90 553.20 486.90 553.20 487.00 553.10 C 487.40 552.70 487.90 552.40 488.30 552.00 C 488.40 551.90 488.50 551.90 488.60 551.80 C 489.00 551.40 489.50 551.10 489.90 550.80 C 490.00 550.80 490.00 550.70 490.10 550.70 C 490.50 550.40 491.00 550.00 491.40 549.70 C 491.40 549.70 491.50 549.60 491.50 549.60 C 492.00 549.30 492.40 549.00 492.90 548.70 C 493.00 548.60 493.10 548.60 493.20 548.50 C 493.60 548.20 494.10 547.90 494.50 547.60 C 494.60 547.50 494.70 547.50 494.70 547.50 C 495.20 547.20 495.60 546.90 496.10 546.60 C 496.50 546.40 496.90 546.20 497.20 546.00 C 497.30 545.90 497.40 545.90 497.50 545.80 C 497.80 545.60 498.10 545.50 498.40 545.40 C 498.50 545.40 498.60 545.30 498.70 545.30 C 499.10 545.10 499.40 544.90 499.80 544.80 C 499.90 544.80 499.90 544.70 500.00 544.70 C 500.30 544.60 500.60 544.40 500.90 544.30 C 501.00 544.30 501.10 544.20 501.30 544.20 C 501.50 544.10 501.70 544.00 501.90 543.90 C 502.00 543.90 502.10 543.80 502.30 543.80 C 502.50 543.70 502.80 543.60 503.00 543.50 C 503.10 543.50 503.20 543.40 503.30 543.40 C 503.60 543.30 504.00 543.20 504.30 543.10 C 504.40 543.10 504.40 543.10 504.50 543.00 C 504.80 542.90 505.00 542.80 505.30 542.80 C 505.50 542.80 505.60 542.70 505.80 542.70 C 505.90 542.70 506.00 542.60 506.10 542.60 C 506.30 542.60 506.40 542.50 506.60 542.50 C 506.70 542.50 506.80 542.50 506.90 542.40 C 507.10 542.40 507.30 542.30 507.50 542.30 C 507.60 542.30 507.70 542.30 507.70 542.30 C 508.00 542.30 508.20 542.20 508.50 542.20 C 508.90 542.10 509.30 542.10 509.70 542.00 C 509.80 542.00 509.90 542.00 509.90 542.00 C 510.30 542.00 510.70 541.90 511.00 541.90 C 511.10 541.90 511.10 541.90 511.20 541.90 C 511.50 541.90 511.80 541.90 512.10 541.90 C 512.20 541.90 512.20 541.90 512.30 541.90 C 512.60 541.90 513.00 541.90 513.30 541.90 C 513.40 541.90 513.50 541.90 513.50 541.90 C 513.80 541.90 514.00 541.90 514.30 542.00 C 514.40 542.00 514.40 542.00 514.50 542.00 C 514.80 542.00 515.10 542.10 515.40 542.10 C 515.50 542.10 515.50 542.10 515.60 542.10 C 515.80 542.10 516.10 542.20 516.30 542.20 C 516.40 542.20 516.50 542.20 516.50 542.30 C 516.80 542.40 517.10 542.40 517.40 542.50 C 517.40 542.50 517.40 542.50 517.50 542.50 C 517.80 542.60 518.00 542.70 518.30 542.80 C 518.40 542.80 518.50 542.90 518.50 542.90 C 518.70 543.00 519.00 543.10 519.20 543.20 C 519.30 543.20 519.30 543.20 519.40 543.30 C 519.70 543.40 519.90 543.50 520.20 543.70 C 520.30 543.70 520.30 543.80 520.40 543.80 C 520.60 543.90 520.80 544.00 521.00 544.10 C 521.10 544.20 521.20 544.20 521.30 544.30 L 509.10 537.20 C 509.00 537.20 509.00 537.10 508.90 537.10 C 508.90 537.10 508.80 537.10 508.80 537.00 C 508.60 536.90 508.40 536.80 508.20 536.70 C 508.10 536.70 508.10 536.60 508.00 536.60 C 507.70 536.50 507.50 536.30 507.20 536.20 C 507.20 536.20 507.20 536.20 507.20 536.20 C 507.20 536.20 507.10 536.20 507.10 536.20 C 506.90 536.10 506.60 536.00 506.40 535.90 C 506.30 535.90 506.20 535.80 506.20 535.80 C 505.90 535.70 505.70 535.60 505.40 535.50 C 505.40 535.50 505.40 535.50 505.30 535.50 C 505.30 535.50 505.30 535.50 505.30 535.50 C 505.00 535.40 504.70 535.30 504.40 535.30 C 504.30 535.30 504.20 535.30 504.20 535.20 C 504.00 535.10 503.70 535.10 503.50 535.10 C 503.50 535.10 503.40 535.10 503.40 535.10 C 503.40 535.10 503.40 535.10 503.30 535.10 C 503.00 535.00 502.70 535.00 502.40 535.00 C 502.30 535.00 502.30 535.00 502.20 535.00 C 501.90 535.00 501.70 534.90 501.40 534.90 C 501.30 534.90 501.30 534.90 501.20 534.90 C 501.20 534.90 501.10 534.90 501.10 534.90 C 500.80 534.90 500.40 534.90 500.10 534.90 C 500.00 534.90 500.00 534.90 499.90 534.90 C 499.60 534.90 499.30 534.90 499.00 534.90 C 499.00 534.90 498.90 534.90 498.90 534.90 C 498.90 534.90 498.80 534.90 498.80 534.90 C 498.40 534.90 498.00 534.90 497.70 535.00 C 497.60 535.00 497.50 535.00 497.50 535.00 C 497.10 535.00 496.70 535.10 496.30 535.20 C 496.30 535.20 496.30 535.20 496.30 535.20 C 496.00 535.20 495.80 535.30 495.50 535.30 C 495.40 535.30 495.30 535.30 495.20 535.40 C 495.00 535.40 494.80 535.50 494.60 535.50 C 494.50 535.50 494.40 535.50 494.30 535.60 C 494.10 535.60 494.00 535.70 493.80 535.70 C 493.70 535.70 493.60 535.80 493.50 535.80 C 493.40 535.80 493.30 535.90 493.10 535.90 C 493.10 535.90 493.00 535.90 493.00 535.90 C 492.70 536.00 492.50 536.00 492.20 536.10 C 492.10 536.10 492.10 536.10 492.00 536.20 C 491.70 536.30 491.40 536.40 491.00 536.50 C 490.90 536.50 490.80 536.60 490.70 536.60 C 490.50 536.70 490.20 536.80 490.00 536.90 C 489.90 536.90 489.80 537.00 489.60 537.00 C 489.40 537.10 489.20 537.20 489.00 537.30 C 488.90 537.30 488.90 537.40 488.80 537.40 C 488.70 537.40 488.70 537.40 488.60 537.50 C 488.30 537.60 488.00 537.80 487.70 537.90 C 487.60 537.90 487.60 538.00 487.50 538.00 C 487.10 538.20 486.80 538.30 486.40 538.50 C 486.30 538.50 486.20 538.60 486.10 538.60 C 485.80 538.70 485.50 538.90 485.20 539.00 C 485.10 539.10 485.00 539.10 484.90 539.20 C 484.50 539.40 484.10 539.60 483.80 539.80 C 483.30 540.10 482.80 540.40 482.40 540.70 C 482.30 540.70 482.20 540.80 482.20 540.80 C 481.70 541.10 481.30 541.40 480.90 541.70 C 480.80 541.80 480.70 541.80 480.60 541.90 C 480.10 542.20 479.70 542.50 479.20 542.80 C 479.20 542.80 479.10 542.90 479.10 542.90 C 478.70 543.20 478.20 543.50 477.80 543.90 C 477.70 543.90 477.70 544.00 477.60 544.00 C 477.20 544.30 476.70 544.70 476.30 545.00 C 476.20 545.10 476.10 545.10 476.00 545.20 C 475.60 545.60 475.10 545.90 474.70 546.30 C 474.60 546.40 474.60 546.40 474.50 546.50 C 474.10 546.90 473.70 547.20 473.30 547.60 C 473.30 547.60 473.20 547.70 473.20 547.70 C 472.80 548.10 472.40 548.50 471.90 548.90 C 471.90 548.90 471.80 549.00 471.80 549.00 C 471.80 549.00 471.70 549.10 471.70 549.10 C 471.50 549.30 471.30 549.50 471.00 549.80 C 470.90 549.90 470.80 550.00 470.70 550.10 C 470.40 550.40 470.10 550.70 469.80 551.00 C 469.80 551.00 469.80 551.10 469.70 551.10 C 469.40 551.40 469.10 551.70 468.90 552.00 C 468.80 552.10 468.70 552.20 468.60 552.30 C 468.40 552.50 468.20 552.80 468.00 553.00 C 468.00 553.10 467.90 553.10 467.80 553.20 C 467.80 553.20 467.70 553.30 467.70 553.30 C 467.30 553.80 466.80 554.30 466.40 554.80 C 466.30 554.90 466.30 555.00 466.20 555.00 C 465.80 555.50 465.40 556.00 464.90 556.60 C 464.90 556.60 464.90 556.70 464.80 556.70 C 464.80 556.80 464.70 556.80 464.70 556.90 C 464.30 557.40 464.00 557.80 463.60 558.30 C 463.60 558.30 463.60 558.30 463.60 558.30 C 463.20 558.80 462.90 559.30 462.50 559.80 C 462.50 559.90 462.40 559.90 462.40 560.00 C 462.40 560.00 462.30 560.10 462.30 560.10 C 462.00 560.50 461.70 561.00 461.40 561.40 C 461.30 561.50 461.30 561.60 461.20 561.60 C 460.90 562.00 460.70 562.40 460.40 562.80 C 460.40 562.90 460.30 562.90 460.30 563.00 C 460.30 563.00 460.30 563.10 460.20 563.10 C 459.90 563.50 459.60 564.00 459.40 564.40 C 459.30 564.50 459.30 564.60 459.20 564.70 C 459.00 565.10 458.70 565.40 458.50 565.80 C 458.50 565.90 458.40 565.90 458.40 566.00 C 458.40 566.00 458.40 566.10 458.30 566.10 C 458.00 566.50 457.80 567.00 457.50 567.40 C 457.50 567.50 457.40 567.50 457.40 567.60 C 457.20 568.00 457.00 568.40 456.80 568.80 C 456.80 568.90 456.70 568.90 456.70 569.00 C 456.70 569.10 456.60 569.10 456.60 569.20 C 456.40 569.60 456.20 570.00 456.00 570.40 C 456.00 570.40 456.00 570.50 455.90 570.50 C 455.70 571.00 455.40 571.40 455.20 571.90 C 455.20 571.90 455.20 572.00 455.10 572.00 C 455.10 572.10 455.00 572.10 455.00 572.20 C 454.80 572.60 454.60 572.90 454.50 573.30 C 454.50 573.40 454.40 573.50 454.40 573.60 C 454.20 574.10 454.00 574.50 453.80 575.00 C 453.80 575.00 453.80 575.10 453.80 575.10 C 453.80 575.20 453.70 575.20 453.70 575.30 C 453.50 575.70 453.40 576.10 453.20 576.50 C 453.20 576.60 453.10 576.70 453.10 576.90 C 452.90 577.40 452.70 577.80 452.50 578.30 C 452.50 578.30 452.50 578.30 452.50 578.30 C 452.50 578.30 452.50 578.40 452.40 578.40 C 452.20 578.80 452.10 579.30 451.90 579.70 C 451.90 579.80 451.80 579.90 451.80 580.10 C 451.60 580.60 451.40 581.10 451.30 581.60 C 451.30 581.60 451.30 581.60 451.30 581.70 C 451.30 581.70 451.30 581.80 451.30 581.80 C 451.10 582.30 451.00 582.80 450.80 583.30 C 450.80 583.40 450.70 583.50 450.70 583.60 C 450.50 584.10 450.40 584.70 450.20 585.20 C 450.20 585.20 450.20 585.30 450.20 585.30 C 450.20 585.40 450.20 585.40 450.20 585.50 C 450.00 586.10 449.90 586.70 449.70 587.30 C 449.70 587.40 449.70 587.50 449.60 587.50 C 449.40 588.10 449.30 588.80 449.20 589.40 C 449.20 589.40 449.20 589.40 449.20 589.40 C 449.20 589.50 449.20 589.60 449.10 589.70 C 449.00 590.00 449.00 590.30 448.90 590.60 C 448.90 590.70 448.80 590.90 448.80 591.00 C 448.80 591.20 448.70 591.50 448.70 591.70 C 448.70 591.90 448.60 592.00 448.60 592.20 C 448.60 592.40 448.50 592.70 448.50 592.90 C 448.50 593.10 448.40 593.20 448.40 593.40 C 448.40 593.60 448.30 593.90 448.30 594.10 C 448.30 594.20 448.30 594.30 448.30 594.40 C 448.30 594.50 448.30 594.50 448.30 594.60 C 448.20 595.10 448.20 595.60 448.10 596.20 C 448.10 596.30 448.10 596.30 448.10 596.40 C 448.10 596.90 448.00 597.40 448.00 597.80 C 448.00 597.90 448.00 598.00 448.00 598.10 C 448.00 598.60 447.90 599.10 447.90 599.60 C 447.90 599.70 447.90 599.80 447.90 599.90 C 447.90 600.40 447.90 600.90 447.90 601.40 C 447.90 612.70 451.90 620.70 458.30 624.40 L 470.50 631.50 C 464.10 627.70 460.10 619.80 460.10 608.50 C 460.10 608.00 460.10 607.50 460.10 607.00 C 459.70 606.70 459.70 606.60 459.70 606.50 Z" fill="url(#SVGID_6_)" fill-rule="nonzero" group-id="2,8" node-id="216" stroke="none" target-height="96.599976" target-width="73.399994" target-x="447.9" target-y="534.9"/><g node-id="288"><path d="M 495.60 546.50 C 515.40 535.10 531.50 544.30 531.50 567.10 C 531.50 589.90 515.40 617.50 495.60 628.90 C 475.80 640.30 459.70 631.10 459.70 608.30 C 459.70 585.60 475.70 557.90 495.60 546.50 Z" fill="url(#SVGID_7_)" fill-rule="nonzero" group-id="2,8,17" node-id="220" stroke="none" target-height="105.20001" target-width="71.79999" target-x="459.7" target-y="535.1"/></g></g></g><g node-id="274"><path d="M 621.40 788.00 C 621.40 788.00 614.50 803.10 601.90 800.90 C 601.90 800.90 579.50 800.90 581.80 812.90 C 581.80 812.90 579.60 821.10 613.30 823.00 C 613.30 823.00 624.00 821.30 625.00 824.80 C 625.00 824.80 642.90 828.00 644.50 820.80 C 644.50 820.80 646.10 798.40 640.70 785.50 L 621.40 788.00 Z" fill="#f7aeb0" fill-rule="nonzero" group-id="3" node-id="227" stroke="none" target-height="42.5" target-width="66.599976" target-x="579.5" target-y="785.5"/><path d="M 662.60 754.70 C 662.60 754.70 648.20 754.00 649.10 763.10 C 649.10 763.10 646.90 778.30 662.60 782.00 C 662.60 782.00 669.20 782.00 671.70 788.30 C 671.70 788.30 678.00 797.70 685.90 795.90 C 685.90 795.90 694.40 794.00 692.50 785.50 C 692.50 785.50 690.60 766.00 684.90 758.40 L 662.60 754.70 Z" fill="#f7aeb0" fill-rule="nonzero" group-id="3" node-id="229" stroke="none" target-height="43.700012" target-width="47.5" target-x="646.9" target-y="754"/><path d="M 611.00 586.20 C 611.00 586.20 610.70 757.90 616.40 787.40 C 616.40 787.40 618.90 795.60 629.90 795.90 C 629.90 795.90 643.50 795.90 646.60 789.60 C 646.60 789.60 650.70 599.80 648.50 588.10 C 648.40 588.10 611.00 583.30 611.00 586.20 Z" fill="#242100" fill-rule="nonzero" group-id="3" node-id="231" stroke="none" target-height="212.60004" target-width="40" target-x="610.7" target-y="583.3"/><path d="M 683.40 768.60 C 686.70 767.60 688.70 766.60 688.70 766.60 C 688.40 763.50 676.90 664.00 676.90 664.00 C 678.30 630.00 673.00 575.20 673.00 575.20 L 633.00 588.40 L 634.60 606.70 C 638.20 634.20 652.90 725.40 658.20 757.90 C 658.20 757.90 659.50 774.10 683.40 768.60 Z" fill="#242100" fill-rule="nonzero" group-id="3" node-id="233" stroke="none" target-height="198.89996" target-width="55.700012" target-x="633" target-y="575.2"/><path d="M 687.60 554.70 C 687.60 554.70 684.40 577.20 678.30 586.20 C 678.30 586.20 668.60 579.60 668.30 577.60 C 668.00 575.60 666.30 564.90 666.30 564.90 C 666.30 564.90 676.10 549.30 676.40 548.50 C 676.40 548.40 687.40 552.70 687.60 554.70 Z" fill="#f7aeb0" fill-rule="nonzero" group-id="3" node-id="235" stroke="none" target-height="37.799988" target-width="21.299988" target-x="666.3" target-y="548.4"/><path d="M 623.40 427.20 C 623.40 427.20 609.10 457.10 619.60 467.70 C 619.60 467.70 627.20 470.40 627.30 473.10 C 627.30 473.10 630.90 483.20 627.30 487.90 C 627.30 487.90 641.80 494.80 652.00 480.30 C 652.00 480.30 648.50 473.90 649.60 458.40 C 649.60 458.40 657.30 435.60 649.00 432.10 C 649.10 432.10 631.90 423.60 623.40 427.20 Z" fill="#f7aeb0" fill-rule="nonzero" group-id="3" node-id="237" stroke="none" target-height="71.19998" target-width="48.200012" target-x="609.1" target-y="423.6"/><path d="M 631.10 415.90 C 631.10 415.90 618.60 414.40 619.80 424.50 C 619.80 424.50 619.10 431.30 631.10 435.10 C 631.10 435.10 632.00 436.80 631.10 439.40 C 631.10 439.40 623.80 448.10 630.20 456.90 C 630.20 456.90 633.00 458.30 634.90 454.80 C 634.90 454.80 638.70 453.20 640.10 457.20 C 640.10 457.20 641.50 459.50 636.60 461.60 C 636.60 461.60 633.70 465.60 640.30 469.90 C 640.30 469.90 644.80 473.00 650.70 469.90 C 650.70 469.90 651.40 468.50 652.60 465.90 C 652.60 465.90 654.70 463.10 658.00 460.90 C 658.00 460.90 669.10 456.20 667.00 439.90 C 666.90 439.90 662.20 413.50 631.10 415.90 Z" fill="#536fff" fill-rule="nonzero" group-id="3" node-id="239" stroke="none" target-height="59.5" target-width="50.5" target-x="618.6" target-y="413.5"/><path d="M 628.70 484.80 C 628.70 484.80 628.10 485.10 627.10 485.70 C 622.90 488.30 611.60 496.00 606.30 505.50 C 606.30 505.50 595.00 509.20 589.80 556.90 C 589.80 556.90 587.50 560.60 582.20 556.90 C 582.20 556.90 569.80 551.10 561.20 547.30 C 561.20 547.30 557.60 546.50 555.20 550.50 C 555.20 550.50 552.30 553.40 554.70 560.70 C 554.70 560.70 572.80 581.40 586.00 586.50 C 586.00 586.50 597.00 591.70 601.10 585.40 L 608.90 569.70 C 608.90 569.70 609.20 578.10 607.90 586.10 C 607.90 586.10 608.40 594.30 617.90 595.30 C 617.90 595.30 651.40 603.50 674.30 583.00 C 674.30 583.00 677.00 577.40 674.30 572.70 C 674.30 572.70 670.00 524.60 673.50 511.30 C 673.50 511.30 676.50 509.10 681.50 518.40 C 681.50 518.40 676.80 544.40 674.90 549.90 C 674.90 549.90 673.30 550.20 674.70 551.50 C 674.70 551.50 682.60 549.80 687.60 559.50 C 687.60 559.50 688.20 560.00 688.70 556.80 C 688.70 556.80 704.60 519.60 705.90 508.00 C 705.90 508.00 705.40 502.30 697.30 494.50 C 697.30 494.50 678.10 467.10 650.50 476.00" fill="#536fff" fill-rule="nonzero" group-id="3" node-id="241" stroke="none" target-height="136.4" target-width="153.60004" target-x="552.3" target-y="467.1"/><path d="M 555.40 560.00 C 555.40 560.00 554.80 559.40 553.80 558.40 C 551.00 555.60 545.30 549.80 543.20 548.10 C 543.20 548.10 541.20 547.30 538.40 547.20 C 538.40 547.20 519.90 540.90 520.40 534.60 C 520.40 534.60 522.70 533.50 527.30 533.70 C 527.30 533.70 543.80 535.40 544.70 535.70 C 544.70 535.70 548.00 536.40 548.00 533.70 C 548.00 533.70 546.60 526.00 550.70 524.50 C 550.70 524.50 552.90 523.70 553.80 526.70 C 553.80 526.70 553.90 538.40 556.60 541.30 C 556.60 541.30 562.30 549.30 562.90 550.40 C 562.80 550.30 559.70 562.00 555.40 560.00 Z" fill="#f7aeb0" fill-rule="nonzero" group-id="3" node-id="243" stroke="none" target-height="38.299988" target-width="43" target-x="519.9" target-y="523.7"/></g><g node-id="275"><g node-id="280"><path d="M 397.00 363.20 L 397.30 464.10 L 369.90 479.90 L 369.70 379.00 Z" fill="url(#SVGID_8_)" fill-rule="nonzero" group-id="4,9" node-id="250" stroke="none" target-height="116.69998" target-width="27.599976" target-x="369.7" target-y="363.2"/></g><g node-id="281"><path d="M 553.40 272.90 L 553.70 373.80 L 526.30 389.60 L 526.10 288.70 Z" fill="url(#SVGID_9_)" fill-rule="nonzero" group-id="4,10" node-id="255" stroke="none" target-height="116.70001" target-width="27.600037" target-x="526.1" target-y="272.9"/></g><g node-id="282"><path d="M 436.10 313.70 L 436.40 441.50 L 409.10 457.30 L 408.70 329.50 Z" fill="url(#SVGID_10_)" fill-rule="nonzero" group-id="4,11" node-id="260" stroke="none" target-height="143.59998" target-width="27.699982" target-x="408.7" target-y="313.7"/></g><g node-id="283"><path d="M 514.30 269.80 L 514.60 397.60 L 487.30 413.40 L 486.90 285.60 Z" fill="url(#SVGID_11_)" fill-rule="nonzero" group-id="4,12" node-id="265" stroke="none" target-height="143.6" target-width="27.699982" target-x="486.9" target-y="269.8"/></g><path d="M 475.10 263.10 L 475.50 418.90 L 448.10 434.70 L 447.70 278.90 Z" fill="url(#SVGID_12_)" fill-rule="nonzero" group-id="4,13" node-id="270" stroke="none" target-height="171.6" target-width="27.799988" target-x="447.7" target-y="263.1"/></g></svg>