<svg height="1024" node-id="1" sillyvg="true" template-height="1024" template-width="1024" version="1.1" viewBox="0 0 1024 1024" width="1024" xmlns="http://www.w3.org/2000/svg" xmlns:xlink="http://www.w3.org/1999/xlink"><defs node-id="120"><linearGradient gradientUnits="userSpaceOnUse" id="SVGID_1_" node-id="27" spreadMethod="pad" x1="52.3153" x2="982.9999" y1="831.1275" y2="831.1275"><stop offset="0" stop-color="#f6f6f9"/><stop offset="1" stop-color="#d7d8d5"/></linearGradient><linearGradient gradientUnits="userSpaceOnUse" id="SVGID_2_" node-id="32" spreadMethod="pad" x1="52.4951" x2="983" y1="664.7766" y2="664.7766"><stop offset="0" stop-color="#d7d8d5"/><stop offset="1" stop-color="#f6f6f9"/></linearGradient><linearGradient gradientUnits="userSpaceOnUse" id="SVGID_3_" node-id="38" spreadMethod="pad" x1="236.0909" x2="629.1754" y1="391.8125" y2="391.8125"><stop offset="0" stop-color="#6386db"/><stop offset="1" stop-color="#8eb0ec"/></linearGradient><linearGradient gradientUnits="userSpaceOnUse" id="SVGID_4_" node-id="43" spreadMethod="pad" x1="285.6895" x2="638.3431" y1="407.128" y2="407.128"><stop offset="0" stop-color="#6386db"/><stop offset="1" stop-color="#8eb0ec"/></linearGradient><linearGradient gradientUnits="userSpaceOnUse" id="SVGID_13_" node-id="81" spreadMethod="pad" x1="403.9864" x2="773.4354" y1="543.028" y2="543.028"><stop offset="0" stop-color="#c8e0f0"/><stop offset="1" stop-color="#ddeff6"/></linearGradient><linearGradient gradientUnits="userSpaceOnUse" id="SVGID_14_" node-id="86" spreadMethod="pad" x1="467.7981" x2="825.6218" y1="567.5897" y2="567.5897"><stop offset="0" stop-color="#ddeff6"/><stop offset="1" stop-color="#c8e0f0"/></linearGradient><linearGradient gradientUnits="userSpaceOnUse" id="SVGID_15_" node-id="93" spreadMethod="pad" x1="605.8856" x2="685.0898" y1="659.3132" y2="659.3132"><stop offset="0" stop-color="#c6cad0"/><stop offset="1" stop-color="#c0c9cf"/></linearGradient><linearGradient gradientUnits="userSpaceOnUse" id="SVGID_16_" node-id="98" spreadMethod="pad" x1="605.8856" x2="731.6981" y1="582.3698" y2="582.3698"><stop offset="0" stop-color="#c6cad0"/><stop offset="1" stop-color="#c0c9cf"/></linearGradient><linearGradient gradientUnits="userSpaceOnUse" id="SVGID_17_" node-id="103" spreadMethod="pad" x1="637.7916" x2="731.6981" y1="641.4756" y2="641.4756"><stop offset="0" stop-color="#ed5833"/><stop offset="1" stop-color="#ff7b45"/></linearGradient><linearGradient gradientUnits="userSpaceOnUse" id="SVGID_18_" node-id="110" spreadMethod="pad" x1="606.1575" x2="684.643" y1="532.4114" y2="532.4114"><stop offset="0" stop-color="#c6cad0"/><stop offset="1" stop-color="#c0c9cf"/></linearGradient><linearGradient gradientUnits="userSpaceOnUse" id="SVGID_19_" node-id="115" spreadMethod="pad" x1="638.0635" x2="731.9411" y1="541.6823" y2="541.6823"><stop offset="0" stop-color="#fbfbfb"/><stop offset="1" stop-color="#fbfbfb"/></linearGradient></defs><g node-id="314"><g node-id="323"><path d="M 982.80 666.90 C 982.70 667.60 982.70 668.30 982.60 669.00 C 982.50 669.60 982.30 670.10 982.20 670.70 C 982.00 671.40 981.90 672.00 981.60 672.70 C 981.40 673.20 981.20 673.80 980.90 674.30 C 980.60 675.00 980.30 675.70 979.90 676.40 C 979.60 676.90 979.30 677.40 979.00 677.90 C 978.50 678.70 978.00 679.40 977.50 680.20 C 977.00 680.90 976.40 681.70 975.80 682.40 C 975.60 682.60 975.50 682.70 975.40 682.90 C 974.60 683.80 973.60 684.70 972.60 685.60 C 972.00 686.20 971.30 686.70 970.60 687.30 C 970.00 687.80 969.40 688.30 968.80 688.80 C 968.10 689.30 967.20 689.90 966.40 690.40 C 965.60 690.90 964.80 691.50 963.90 692.00 L 565.80 923.10 C 563.80 924.20 561.70 925.30 559.60 926.20 C 559.00 926.50 558.40 926.70 557.70 927.00 C 556.00 927.70 554.30 928.40 552.50 929.00 C 551.90 929.20 551.20 929.40 550.60 929.70 C 549.50 930.10 548.30 930.40 547.20 930.70 C 546.30 930.90 545.50 931.20 544.60 931.40 C 543.40 931.70 542.20 931.90 540.90 932.20 C 540.10 932.40 539.30 932.60 538.40 932.70 C 535.90 933.10 533.40 933.50 530.90 933.70 C 530.10 933.80 529.30 933.80 528.60 933.90 C 527.10 934.00 525.60 934.10 524.10 934.20 C 523.20 934.20 522.20 934.30 521.20 934.30 C 520.00 934.30 518.80 934.30 517.60 934.30 C 516.60 934.30 515.60 934.30 514.60 934.20 C 513.50 934.20 512.40 934.10 511.30 934.00 C 510.30 933.90 509.30 933.80 508.30 933.70 C 507.20 933.60 506.10 933.50 505.00 933.30 C 504.00 933.20 503.00 933.00 502.10 932.90 C 500.90 932.70 499.80 932.50 498.60 932.30 C 497.70 932.10 496.80 931.90 495.90 931.70 C 494.50 931.40 493.20 931.10 491.80 930.70 C 491.00 930.50 490.30 930.30 489.50 930.10 C 487.10 929.40 484.70 928.60 482.40 927.70 C 481.30 927.30 480.20 926.80 479.10 926.30 C 478.50 926.00 478.00 925.80 477.40 925.60 C 475.70 924.80 474.10 924.00 472.60 923.10 L 71.90 691.70 C 58.90 684.20 52.40 674.40 52.50 664.50 L 52.30 728.00 C 52.30 737.80 58.80 747.70 71.70 755.20 L 472.40 986.60 C 474.00 987.50 475.60 988.30 477.20 989.10 C 477.80 989.40 478.30 989.60 478.90 989.80 C 479.90 990.20 480.90 990.70 481.90 991.10 C 482.00 991.10 482.10 991.20 482.30 991.20 C 484.60 992.10 486.90 992.90 489.40 993.60 C 489.60 993.70 489.80 993.70 490.00 993.80 C 490.60 994.00 491.10 994.10 491.70 994.20 C 493.00 994.60 494.40 994.90 495.80 995.20 C 496.20 995.30 496.50 995.40 496.90 995.50 C 497.40 995.60 498.00 995.70 498.50 995.80 C 499.70 996.00 500.80 996.20 502.00 996.40 C 502.50 996.50 502.90 996.60 503.40 996.60 C 503.90 996.70 504.40 996.70 504.90 996.80 C 506.00 996.90 507.10 997.10 508.20 997.20 C 508.70 997.30 509.20 997.30 509.80 997.40 C 510.30 997.40 510.80 997.40 511.30 997.50 C 512.40 997.60 513.50 997.60 514.60 997.70 C 515.20 997.70 515.70 997.80 516.30 997.80 C 516.70 997.80 517.20 997.80 517.60 997.80 C 518.80 997.80 520.00 997.80 521.20 997.80 C 521.80 997.80 522.40 997.80 523.00 997.80 C 523.40 997.80 523.70 997.70 524.10 997.70 C 525.60 997.60 527.10 997.50 528.60 997.40 C 529.20 997.40 529.80 997.30 530.40 997.30 C 530.60 997.30 530.80 997.20 530.90 997.20 C 533.40 996.90 535.90 996.60 538.40 996.20 C 538.50 996.20 538.60 996.20 538.80 996.10 C 539.50 996.00 540.20 995.80 540.90 995.60 C 542.10 995.40 543.30 995.10 544.50 994.80 C 545.40 994.60 546.20 994.30 547.10 994.10 C 548.20 993.80 549.40 993.50 550.50 993.10 C 550.70 993.00 551.00 993.00 551.20 992.90 C 551.60 992.80 552.00 992.60 552.40 992.50 C 554.20 991.90 555.90 991.20 557.60 990.50 C 558.20 990.20 558.90 990.00 559.50 989.70 C 561.60 988.70 563.70 987.70 565.70 986.60 L 963.80 755.20 C 964.10 755.00 964.30 754.90 964.60 754.70 C 965.20 754.30 965.70 753.90 966.30 753.60 C 967.10 753.10 967.90 752.60 968.70 752.00 C 969.40 751.50 969.90 751.00 970.50 750.50 C 971.20 749.90 971.90 749.40 972.50 748.80 C 972.60 748.70 972.80 748.60 972.90 748.50 C 973.70 747.70 974.50 746.90 975.30 746.10 C 975.50 745.90 975.60 745.80 975.70 745.60 C 976.10 745.10 976.60 744.60 977.00 744.10 C 977.20 743.90 977.30 743.60 977.50 743.40 C 978.10 742.60 978.60 741.90 979.00 741.10 C 979.20 740.80 979.50 740.50 979.60 740.10 C 979.70 739.90 979.70 739.80 979.80 739.60 C 980.20 738.90 980.50 738.20 980.80 737.50 C 981.00 737.10 981.20 736.70 981.40 736.30 C 981.50 736.20 981.50 736.00 981.50 735.90 C 981.70 735.20 981.90 734.60 982.10 733.90 C 982.20 733.50 982.40 733.00 982.50 732.60 C 982.50 732.50 982.50 732.40 982.50 732.20 C 982.60 731.50 982.70 730.80 982.70 730.10 C 982.70 729.70 982.80 729.20 982.90 728.80 C 982.90 728.60 982.90 728.40 982.90 728.20 L 983.00 665.00 C 983.00 665.60 982.90 666.20 982.80 666.90 Z" fill="url(#SVGID_1_)" fill-rule="nonzero" group-id="1,10" node-id="193" stroke="none" target-height="333.3" target-width="930.7" target-x="52.3" target-y="664.5"/><g node-id="332"><path d="M 963.60 637.80 C 989.40 652.70 989.50 676.80 963.90 691.70 L 565.80 923.10 C 540.20 938.00 498.50 938.00 472.70 923.10 L 71.90 691.70 C 46.10 676.80 46.00 652.70 71.60 637.80 L 469.70 406.40 C 495.30 391.50 537.00 391.50 562.80 406.40 L 963.60 637.80 Z" fill="url(#SVGID_2_)" fill-rule="nonzero" group-id="1,10,19" node-id="197" stroke="none" target-height="546.5" target-width="943.5" target-x="46" target-y="391.5"/></g></g></g><g node-id="315"><g node-id="324"><path d="M 614.50 55.30 C 615.10 55.10 615.80 54.80 616.40 54.60 C 616.80 54.50 617.20 54.40 617.60 54.30 C 618.00 54.20 618.30 54.10 618.70 54.10 C 619.20 54.00 619.70 53.90 620.10 53.90 C 620.40 53.90 620.60 53.80 620.90 53.80 C 621.50 53.80 622.10 53.70 622.60 53.80 C 622.70 53.80 622.90 53.80 623.00 53.80 C 623.70 53.80 624.30 53.90 625.00 54.00 C 625.20 54.00 625.30 54.10 625.50 54.10 C 626.00 54.20 626.50 54.40 627.00 54.50 C 627.20 54.60 627.30 54.60 627.50 54.70 C 628.10 54.90 628.70 55.20 629.30 55.50 L 579.70 26.70 C 579.70 26.70 579.60 26.60 579.60 26.60 C 579.20 26.40 578.70 26.10 578.20 25.90 C 578.10 25.90 578.00 25.80 577.90 25.80 C 577.80 25.70 577.60 25.70 577.40 25.60 C 577.20 25.50 576.90 25.40 576.70 25.40 C 576.40 25.30 576.20 25.30 575.90 25.20 C 575.70 25.20 575.60 25.10 575.40 25.10 C 575.30 25.10 575.20 25.10 575.10 25.00 C 574.60 24.90 574.00 24.80 573.50 24.80 C 573.50 24.80 573.40 24.80 573.40 24.80 C 573.30 24.80 573.10 24.80 573.00 24.80 C 572.60 24.80 572.20 24.80 571.70 24.80 C 571.60 24.80 571.40 24.80 571.30 24.80 C 571.00 24.80 570.80 24.90 570.50 24.90 C 570.20 24.90 570.00 24.90 569.70 25.00 C 569.50 25.00 569.20 25.10 569.00 25.10 C 568.60 25.20 568.30 25.20 567.90 25.30 C 567.70 25.30 567.50 25.40 567.30 25.40 C 567.10 25.50 566.90 25.50 566.70 25.60 C 566.10 25.80 565.40 26.00 564.80 26.30 C 564.60 26.40 564.40 26.40 564.10 26.50 C 564.00 26.60 563.80 26.60 563.70 26.70 C 562.60 27.20 561.50 27.70 560.30 28.40 L 262.90 200.30 C 261.50 201.10 260.10 202.10 258.70 203.10 C 258.50 203.30 258.20 203.40 258.00 203.60 C 256.70 204.60 255.40 205.70 254.20 206.90 C 254.10 207.00 254.00 207.10 253.90 207.20 C 253.70 207.40 253.50 207.60 253.30 207.80 C 252.70 208.40 252.10 209.10 251.50 209.70 C 251.30 209.90 251.10 210.10 250.90 210.30 C 250.70 210.50 250.60 210.70 250.40 210.90 C 250.00 211.30 249.70 211.70 249.40 212.20 C 249.20 212.50 248.90 212.70 248.70 213.00 C 248.50 213.20 248.40 213.50 248.20 213.70 C 247.90 214.00 247.70 214.40 247.40 214.70 C 247.20 214.90 247.10 215.20 246.90 215.40 C 246.60 215.80 246.40 216.20 246.10 216.60 C 245.90 216.90 245.80 217.10 245.60 217.40 C 245.50 217.50 245.50 217.60 245.40 217.70 C 244.90 218.40 244.50 219.20 244.00 220.00 C 244.00 220.10 243.90 220.10 243.90 220.20 C 243.80 220.40 243.70 220.50 243.60 220.70 C 243.30 221.20 243.00 221.80 242.70 222.40 C 242.60 222.70 242.40 222.90 242.30 223.20 C 242.20 223.50 242.00 223.70 241.90 224.00 C 241.80 224.20 241.70 224.50 241.50 224.70 C 241.20 225.30 240.90 226.00 240.60 226.60 C 240.60 226.70 240.50 226.80 240.40 226.90 C 240.40 226.90 240.40 227.00 240.40 227.00 C 240.10 227.80 239.70 228.60 239.40 229.40 C 239.30 229.50 239.30 229.70 239.20 229.80 C 239.10 230.10 239.00 230.40 238.90 230.70 C 238.80 231.10 238.60 231.50 238.50 231.90 C 238.40 232.20 238.30 232.50 238.20 232.80 C 238.10 233.20 238.00 233.50 237.90 233.90 C 237.80 234.10 237.80 234.40 237.70 234.60 C 237.60 235.00 237.50 235.40 237.40 235.80 C 237.30 236.30 237.20 236.70 237.10 237.20 C 237.10 237.40 237.00 237.50 237.00 237.70 C 236.90 238.00 236.90 238.40 236.80 238.70 C 236.70 239.40 236.50 240.10 236.40 240.80 C 236.40 241.00 236.30 241.20 236.30 241.40 C 236.30 241.60 236.30 241.80 236.30 241.90 C 236.10 243.50 236.00 245.10 236.00 246.60 L 237.30 712.50 C 237.30 721.00 240.30 726.90 245.10 729.80 L 294.70 758.60 C 289.90 755.80 286.90 749.80 286.90 741.30 L 285.60 275.40 C 285.60 273.90 285.70 272.30 285.90 270.70 C 285.90 270.30 286.00 269.90 286.00 269.60 C 286.10 268.90 286.20 268.20 286.40 267.40 C 286.50 266.90 286.60 266.40 286.70 265.90 C 286.80 265.40 286.90 265.00 287.00 264.50 C 287.20 263.90 287.30 263.20 287.50 262.60 C 287.60 262.20 287.70 261.90 287.80 261.50 C 288.00 260.80 288.30 260.10 288.50 259.40 C 288.60 259.10 288.70 258.80 288.80 258.50 C 289.20 257.50 289.60 256.50 290.00 255.60 C 290.00 255.50 290.10 255.40 290.20 255.30 C 290.60 254.40 291.00 253.60 291.40 252.70 C 291.50 252.40 291.70 252.20 291.80 251.90 C 292.20 251.10 292.70 250.30 293.10 249.50 C 293.20 249.30 293.30 249.20 293.40 249.00 C 293.90 248.10 294.50 247.10 295.10 246.20 C 295.30 245.90 295.40 245.70 295.60 245.40 C 296.00 244.80 296.50 244.10 296.90 243.50 C 297.10 243.20 297.40 242.80 297.70 242.50 C 298.10 242.00 298.50 241.50 298.90 241.00 C 299.20 240.60 299.60 240.10 299.90 239.70 C 300.20 239.30 300.60 238.90 300.90 238.50 C 301.50 237.80 302.10 237.20 302.70 236.60 C 303.00 236.30 303.30 236.00 303.60 235.70 C 304.80 234.50 306.10 233.40 307.40 232.40 C 307.60 232.20 307.90 232.10 308.10 231.90 C 309.50 230.90 310.90 229.90 312.30 229.10 L 610.00 57.40 C 611.10 56.70 612.30 56.20 613.40 55.70 C 613.80 55.50 614.10 55.40 614.50 55.30 Z" fill="url(#SVGID_3_)" fill-rule="nonzero" group-id="2,11" node-id="206" stroke="none" target-height="733.8" target-width="393.3" target-x="236" target-y="24.8"/><g node-id="333"><path d="M 610.00 57.40 C 624.90 48.80 636.90 55.70 637.00 72.80 L 638.30 538.70 C 638.30 555.80 626.30 576.60 611.50 585.10 L 314.00 756.90 C 299.10 765.50 287.10 758.60 287.00 741.50 L 285.70 275.60 C 285.70 258.50 297.70 237.70 312.50 229.20 L 610.00 57.40 Z" fill="url(#SVGID_4_)" fill-rule="nonzero" group-id="2,11,20" node-id="210" stroke="none" target-height="716.7" target-width="352.59998" target-x="285.7" target-y="48.8"/></g></g></g><g node-id="316"><path d="M 589.30 361.60 C 598.60 356.20 606.10 360.50 606.10 371.20 L 606.10 374.60 C 606.10 385.30 598.70 398.20 589.40 403.60 L 339.60 547.80 C 330.30 553.20 322.80 548.90 322.80 538.20 L 322.80 534.80 C 322.80 524.10 330.20 511.20 339.50 505.80 L 589.30 361.60 Z" fill="#ffffff" fill-rule="nonzero" group-id="3" node-id="217" stroke="none" target-height="197" target-width="283.3" target-x="322.8" target-y="356.2"/><g node-id="325"><g node-id="334"><path d="M 589.30 361.60 C 598.60 356.20 606.10 360.50 606.10 371.20 L 606.10 374.60 C 606.10 385.30 598.70 398.20 589.40 403.60 L 339.60 547.80 C 330.30 553.20 322.80 548.90 322.80 538.20 L 322.80 534.80 C 322.80 524.10 330.20 511.20 339.50 505.80 L 589.30 361.60 Z" fill="#ffffff" fill-rule="nonzero" group-id="3,12,21" node-id="223" stroke="none" target-height="197" target-width="283.3" target-x="322.8" target-y="356.2"/></g></g></g><g node-id="317"><path d="M 589.30 265.60 C 598.60 260.20 606.10 264.50 606.10 275.20 L 606.10 278.60 C 606.10 289.30 598.70 302.20 589.40 307.60 L 339.60 451.80 C 330.30 457.20 322.80 452.90 322.80 442.20 L 322.80 438.80 C 322.80 428.10 330.20 415.20 339.50 409.80 L 589.30 265.60 Z" fill="#ffffff" fill-rule="nonzero" group-id="4" node-id="230" stroke="none" target-height="197" target-width="283.3" target-x="322.8" target-y="260.2"/><g node-id="326"><g node-id="335"><path d="M 589.30 265.60 C 598.60 260.20 606.10 264.50 606.10 275.20 L 606.10 278.60 C 606.10 289.30 598.70 302.20 589.40 307.60 L 339.60 451.80 C 330.30 457.20 322.80 452.90 322.80 442.20 L 322.80 438.80 C 322.80 428.10 330.20 415.20 339.50 409.80 L 589.30 265.60 Z" fill="#ffffff" fill-rule="nonzero" group-id="4,13,22" node-id="236" stroke="none" target-height="197" target-width="283.3" target-x="322.8" target-y="260.2"/></g></g></g><g node-id="318"><path d="M 589.30 157.80 C 598.60 152.50 606.10 156.70 606.10 167.40 L 606.10 170.80 C 606.10 181.50 598.60 194.40 589.40 199.80 L 339.60 344.00 C 330.30 349.30 322.80 345.10 322.80 334.40 L 322.80 331.00 C 322.80 320.30 330.30 307.40 339.50 302.00 L 589.30 157.80 Z" fill="#ffffff" fill-rule="nonzero" group-id="5" node-id="243" stroke="none" target-height="196.79999" target-width="283.3" target-x="322.8" target-y="152.5"/><g node-id="327"><g node-id="336"><path d="M 589.30 157.80 C 598.60 152.50 606.10 156.70 606.10 167.40 L 606.10 170.80 C 606.10 181.50 598.60 194.40 589.40 199.80 L 339.60 344.00 C 330.30 349.30 322.80 345.10 322.80 334.40 L 322.80 331.00 C 322.80 320.30 330.30 307.40 339.50 302.00 L 589.30 157.80 Z" fill="#ffffff" fill-rule="nonzero" group-id="5,14,23" node-id="249" stroke="none" target-height="196.79999" target-width="283.3" target-x="322.8" target-y="152.5"/></g></g></g><g node-id="319"><path d="M 589.30 464.10 C 598.60 458.80 606.10 463.00 606.10 473.70 L 606.10 477.10 C 606.10 487.80 598.60 500.70 589.40 506.10 L 339.60 650.40 C 330.30 655.70 322.80 651.50 322.80 640.80 L 322.80 637.40 C 322.80 626.70 330.30 613.80 339.50 608.40 L 589.30 464.10 Z" fill="#ffffff" fill-rule="nonzero" group-id="6" node-id="256" stroke="none" target-height="196.90002" target-width="283.3" target-x="322.8" target-y="458.8"/><g node-id="328"><g node-id="337"><path d="M 589.30 464.10 C 598.60 458.80 606.10 463.00 606.10 473.70 L 606.10 477.10 C 606.10 487.80 598.60 500.70 589.40 506.10 L 339.60 650.40 C 330.30 655.70 322.80 651.50 322.80 640.80 L 322.80 637.40 C 322.80 626.70 330.30 613.80 339.50 608.40 L 589.30 464.10 Z" fill="#ffffff" fill-rule="nonzero" group-id="6,15,24" node-id="262" stroke="none" target-height="196.90002" target-width="283.3" target-x="322.8" target-y="458.8"/></g></g></g><g node-id="320"><g node-id="329"><path d="M 468.10 657.90 C 468.20 655.60 468.30 653.30 468.50 651.00 C 468.60 649.80 468.70 648.60 468.80 647.40 C 469.00 645.10 469.20 642.80 469.50 640.50 C 469.60 639.40 469.70 638.30 469.90 637.20 C 470.10 635.60 470.30 634.00 470.60 632.40 C 470.90 630.00 471.30 627.60 471.70 625.20 C 472.00 623.60 472.30 622.00 472.60 620.30 C 473.00 618.00 473.50 615.60 473.90 613.30 C 474.30 611.40 474.70 609.60 475.10 607.70 C 475.40 606.10 475.80 604.60 476.20 603.00 C 476.70 601.00 477.20 598.90 477.70 596.90 C 478.10 595.40 478.50 593.80 478.90 592.30 C 479.60 589.80 480.30 587.40 481.00 584.90 C 481.30 584.00 481.50 583.00 481.80 582.10 C 482.80 578.70 483.90 575.30 485.00 572.00 C 486.70 567.00 488.50 562.10 490.30 557.10 C 490.80 555.90 491.20 554.60 491.70 553.40 C 493.30 549.20 495.00 545.00 496.80 540.90 C 497.10 540.30 497.30 539.60 497.60 539.00 C 499.60 534.40 501.70 529.80 503.90 525.20 C 504.50 524.00 505.10 522.80 505.60 521.60 C 507.40 518.00 509.20 514.40 511.10 510.80 C 511.70 509.70 512.20 508.60 512.80 507.50 C 515.20 503.00 517.70 498.60 520.20 494.20 C 520.70 493.40 521.20 492.60 521.70 491.70 C 524.00 487.90 526.30 484.10 528.60 480.30 C 529.30 479.20 530.00 478.10 530.70 477.00 C 533.60 472.40 536.70 467.90 539.80 463.50 C 540.30 462.80 540.80 462.20 541.20 461.50 C 544.40 456.90 547.80 452.40 551.20 448.00 C 551.70 447.30 552.20 446.60 552.80 445.90 C 553.90 444.50 555.00 443.20 556.00 441.90 C 557.40 440.20 558.70 438.50 560.10 436.80 C 561.20 435.40 562.40 434.10 563.50 432.80 C 564.80 431.20 566.20 429.70 567.50 428.10 C 570.30 424.90 573.10 421.80 575.90 418.80 C 576.10 418.60 576.20 418.50 576.40 418.30 C 579.40 415.10 582.50 412.00 585.50 408.90 C 587.50 407.00 589.40 405.10 591.40 403.20 C 591.90 402.70 592.50 402.10 593.00 401.60 C 595.60 399.20 598.20 396.80 600.90 394.50 C 601.60 393.90 602.30 393.30 603.10 392.60 C 605.10 390.90 607.00 389.30 609.00 387.60 C 610.00 386.80 611.00 386.00 612.00 385.20 C 613.70 383.80 615.50 382.40 617.30 381.10 C 618.40 380.30 619.40 379.50 620.50 378.70 C 622.30 377.40 624.00 376.10 625.80 374.90 C 626.90 374.20 627.90 373.40 629.00 372.70 C 630.90 371.40 632.80 370.10 634.80 368.90 C 635.70 368.30 636.60 367.70 637.60 367.10 C 640.40 365.30 643.30 363.60 646.20 361.90 C 649.00 360.30 651.70 358.80 654.50 357.40 C 655.20 357.00 655.90 356.70 656.60 356.30 C 659.00 355.00 661.50 353.90 663.90 352.70 C 664.20 352.60 664.50 352.40 664.80 352.30 C 667.30 351.10 669.80 350.10 672.30 349.10 C 675.00 348.00 677.60 347.00 680.20 346.10 C 680.80 345.90 681.50 345.60 682.10 345.40 C 685.40 344.30 688.60 343.30 691.80 342.40 C 693.70 341.90 695.50 341.40 697.40 341.00 C 698.30 340.80 699.20 340.60 700.00 340.40 C 702.70 339.80 705.40 339.30 708.10 338.90 C 708.20 338.90 708.30 338.90 708.30 338.90 C 710.80 338.50 713.20 338.20 715.60 338.00 C 716.40 337.90 717.20 337.90 718.00 337.80 C 719.70 337.70 721.50 337.60 723.20 337.50 C 724.00 337.50 724.70 337.50 725.50 337.50 C 727.30 337.50 729.00 337.50 730.80 337.60 C 731.40 337.60 732.00 337.60 732.60 337.70 C 734.90 337.80 737.10 338.00 739.30 338.30 C 739.80 338.40 740.20 338.40 740.70 338.50 C 742.50 338.70 744.30 339.00 746.00 339.40 C 746.60 339.50 747.20 339.60 747.80 339.80 C 749.80 340.20 751.80 340.70 753.70 341.30 C 753.80 341.30 754.00 341.40 754.10 341.40 C 756.20 342.00 758.20 342.70 760.10 343.40 C 760.60 343.60 761.20 343.80 761.70 344.00 C 763.30 344.60 764.90 345.30 766.40 346.00 C 766.80 346.20 767.20 346.40 767.60 346.60 C 769.60 347.60 771.60 348.60 773.50 349.70 L 709.70 312.60 C 709.40 312.40 709.00 312.20 708.70 312.00 C 707.10 311.10 705.40 310.20 703.80 309.40 C 703.40 309.20 703.00 309.00 702.60 308.80 C 701.70 308.40 700.70 307.90 699.80 307.50 C 699.20 307.20 698.50 307.00 697.90 306.80 C 697.40 306.60 696.80 306.40 696.30 306.20 C 694.30 305.50 692.40 304.80 690.30 304.20 C 690.30 304.20 690.20 304.20 690.20 304.20 C 690.10 304.20 689.90 304.10 689.80 304.10 C 687.90 303.50 685.90 303.10 683.90 302.60 C 683.30 302.50 682.70 302.40 682.10 302.20 C 681.50 302.10 680.90 301.90 680.20 301.80 C 679.10 301.60 677.90 301.50 676.70 301.30 C 676.20 301.20 675.80 301.20 675.30 301.10 C 673.30 300.90 671.30 300.70 669.30 300.50 C 669.10 300.50 668.80 300.50 668.60 300.50 C 668.00 300.50 667.40 300.50 666.80 300.40 C 665.10 300.30 663.30 300.30 661.50 300.30 C 660.70 300.30 660.00 300.30 659.20 300.30 C 658.60 300.30 658.00 300.30 657.40 300.30 C 656.30 300.40 655.10 300.50 654.00 300.50 C 653.20 300.60 652.40 300.60 651.60 300.70 C 649.20 300.90 646.80 301.20 644.30 301.60 C 644.20 301.60 644.10 301.60 644.10 301.60 C 644.10 301.60 644.10 301.60 644.10 301.60 C 641.40 302.00 638.80 302.50 636.00 303.10 C 635.10 303.30 634.30 303.50 633.40 303.70 C 631.70 304.10 630.00 304.50 628.30 304.90 C 628.10 304.90 628.00 305.00 627.80 305.10 C 624.60 306.00 621.40 307.00 618.20 308.10 C 617.60 308.30 616.90 308.60 616.30 308.80 C 613.70 309.70 611.00 310.70 608.40 311.80 C 608.00 311.90 607.70 312.10 607.40 312.20 C 605.30 313.10 603.10 314.00 600.90 315.00 C 600.60 315.10 600.30 315.30 600.00 315.40 C 597.60 316.50 595.10 317.70 592.70 319.00 C 592.00 319.40 591.30 319.70 590.60 320.10 C 587.90 321.50 585.10 323.00 582.30 324.60 C 579.40 326.30 576.60 328.00 573.70 329.80 C 572.80 330.40 571.90 331.00 570.90 331.60 C 569.00 332.90 567.10 334.10 565.10 335.40 C 564.00 336.10 563.00 336.90 561.90 337.60 C 560.10 338.90 558.40 340.10 556.60 341.40 C 555.50 342.20 554.50 343.00 553.40 343.80 C 551.60 345.10 549.90 346.50 548.10 347.90 C 547.10 348.70 546.10 349.50 545.10 350.30 C 543.10 351.90 541.20 353.60 539.20 355.30 C 538.50 355.90 537.70 356.50 537.00 357.20 C 534.30 359.50 531.70 361.90 529.10 364.30 C 528.50 364.80 528.00 365.40 527.50 365.90 C 525.80 367.50 524.00 369.20 522.30 370.90 C 522.00 371.10 521.80 371.40 521.60 371.70 C 518.50 374.80 515.50 377.90 512.50 381.10 C 512.30 381.30 512.20 381.40 512.00 381.60 C 509.20 384.60 506.40 387.80 503.60 390.90 C 503.30 391.20 503.10 391.50 502.80 391.80 C 501.70 393.00 500.70 394.30 499.60 395.60 C 498.50 396.90 497.30 398.20 496.20 399.60 C 494.80 401.30 493.40 403.00 492.10 404.70 C 491.00 406.00 490.00 407.40 488.90 408.70 C 488.70 409.00 488.50 409.20 488.30 409.50 C 488.00 409.90 487.70 410.40 487.30 410.80 C 483.90 415.20 480.60 419.70 477.40 424.30 C 477.10 424.80 476.70 425.20 476.40 425.70 C 476.20 425.90 476.10 426.10 476.00 426.40 C 472.90 430.80 469.90 435.30 467.00 439.90 C 466.70 440.30 466.40 440.80 466.10 441.20 C 465.70 441.90 465.30 442.50 464.90 443.20 C 462.50 446.90 460.20 450.70 458.00 454.50 C 457.60 455.10 457.30 455.70 456.90 456.30 C 456.80 456.50 456.60 456.80 456.50 457.00 C 453.90 461.40 451.50 465.80 449.10 470.30 C 448.90 470.70 448.70 471.00 448.50 471.40 C 448.10 472.10 447.80 472.90 447.40 473.60 C 445.50 477.20 443.70 480.70 442.00 484.40 C 441.60 485.10 441.20 485.90 440.90 486.60 C 440.70 487.00 440.50 487.50 440.30 487.90 C 438.10 492.50 436.00 497.00 434.00 501.60 C 433.90 501.70 433.90 501.90 433.80 502.00 C 433.60 502.50 433.40 503.00 433.20 503.50 C 431.40 507.70 429.70 511.80 428.10 516.00 C 427.80 516.70 427.50 517.40 427.30 518.00 C 427.10 518.60 426.90 519.10 426.70 519.70 C 424.80 524.70 423.00 529.60 421.40 534.60 C 421.40 534.70 421.30 534.80 421.30 534.90 C 420.20 538.20 419.20 541.50 418.20 544.80 C 417.90 545.70 417.70 546.60 417.40 547.50 C 416.80 549.40 416.30 551.30 415.80 553.10 C 415.60 553.70 415.50 554.30 415.30 554.90 C 414.90 556.40 414.50 558.00 414.10 559.50 C 413.60 561.60 413.10 563.60 412.60 565.70 C 412.20 567.30 411.90 568.80 411.50 570.40 C 411.30 571.50 411.00 572.60 410.70 573.70 C 410.50 574.50 410.40 575.20 410.30 576.00 C 409.80 578.30 409.40 580.70 409.00 583.00 C 408.70 584.60 408.40 586.30 408.10 587.90 C 407.70 590.30 407.40 592.70 407.00 595.10 C 406.80 596.20 406.60 597.40 406.50 598.50 C 406.40 599.00 406.40 599.50 406.30 599.90 C 406.20 601.00 406.00 602.10 405.90 603.20 C 405.60 605.50 405.40 607.80 405.20 610.10 C 405.10 611.30 405.00 612.50 404.90 613.60 C 404.70 615.90 404.60 618.20 404.50 620.50 C 404.40 621.50 404.40 622.60 404.30 623.60 C 404.20 626.90 404.10 630.20 404.10 633.40 C 404.30 689.80 424.20 729.50 456.30 748.20 L 520.10 785.30 C 488.00 766.60 468.10 727.00 467.90 670.50 C 467.90 667.20 468.00 664.00 468.10 660.70 C 468.00 660.00 468.10 659.00 468.10 657.90 Z" fill="url(#SVGID_13_)" fill-rule="nonzero" group-id="7,16" node-id="271" stroke="none" target-height="485" target-width="369.4" target-x="404.1" target-y="300.3"/><g node-id="338"><path d="M 646.10 362.00 C 744.90 304.90 825.30 350.70 825.60 464.30 C 825.90 577.90 746.10 716.10 647.30 773.20 C 548.50 830.20 468.10 784.50 467.80 670.90 C 467.50 557.30 547.30 419.00 646.10 362.00 Z" fill="url(#SVGID_14_)" fill-rule="nonzero" group-id="7,16,25" node-id="275" stroke="none" target-height="525.30005" target-width="358.40002" target-x="467.5" target-y="304.9"/></g></g></g><g node-id="321"><g node-id="330"><g node-id="339"><path d="M 685.10 718.40 L 653.20 699.90 L 605.90 600.20 L 637.80 618.70 Z" fill="url(#SVGID_15_)" fill-rule="nonzero" group-id="8,17,26" node-id="286" stroke="none" target-height="118.20001" target-width="79.19995" target-x="605.9" target-y="600.2"/></g><g node-id="340"><path d="M 637.80 618.70 L 605.90 600.20 L 699.80 546.00 L 731.70 564.50 Z" fill="url(#SVGID_16_)" fill-rule="nonzero" group-id="8,17,27" node-id="291" stroke="none" target-height="72.70001" target-width="125.79999" target-x="605.9" target-y="546"/></g><path d="M 731.70 564.50 L 685.10 718.40 L 637.80 618.70 Z" fill="url(#SVGID_17_)" fill-rule="nonzero" group-id="8,17,28" node-id="296" stroke="none" target-height="153.90002" target-width="93.900024" target-x="637.8" target-y="564.5"/></g></g><g node-id="322"><g node-id="331"><g node-id="342"><path d="M 638.10 618.60 L 606.20 600.10 L 652.70 446.20 L 684.60 464.80 Z" fill="url(#SVGID_18_)" fill-rule="nonzero" group-id="9,18,29" node-id="307" stroke="none" target-height="172.39996" target-width="78.39996" target-x="606.2" target-y="446.2"/></g><path d="M 684.60 464.80 L 731.90 564.40 L 638.10 618.60 Z" fill="url(#SVGID_19_)" fill-rule="nonzero" group-id="9,18,30" node-id="312" stroke="none" target-height="153.79999" target-width="93.80005" target-x="638.1" target-y="464.8"/></g></g></svg>