<svg height="1024" node-id="1" sillyvg="true" template-height="1024" template-width="1024" version="1.1" viewBox="0 0 1024 1024" width="1024" xmlns="http://www.w3.org/2000/svg" xmlns:xlink="http://www.w3.org/1999/xlink"><defs node-id="89"><linearGradient gradientUnits="userSpaceOnUse" id="SVGID_1_" node-id="27" spreadMethod="pad" x1="132.8286" x2="845.2173" y1="576.2341" y2="576.2341"><stop offset="0" stop-color="#f6f6f9"/><stop offset="1" stop-color="#d7d8d5"/></linearGradient><linearGradient gradientUnits="userSpaceOnUse" id="SVGID_2_" node-id="32" spreadMethod="pad" x1="353.9496" x2="855.8536" y1="641.5801" y2="641.5801"><stop offset="0" stop-color="#d7d8d5"/><stop offset="1" stop-color="#f6f6f9"/></linearGradient><linearGradient gradientUnits="userSpaceOnUse" id="SVGID_3_" node-id="37" spreadMethod="pad" x1="392.8406" x2="824.8914" y1="643.9244" y2="643.9244"><stop offset="0" stop-color="#e97d08"/><stop offset="1" stop-color="#ffb438"/></linearGradient><linearGradient gradientUnits="userSpaceOnUse" id="SVGID_5_" node-id="44" spreadMethod="pad" x1="392.8406" x2="824.8914" y1="643.9244" y2="643.9244"><stop offset="0" stop-color="#e97d08"/><stop offset="1" stop-color="#ffb438"/></linearGradient><linearGradient gradientUnits="userSpaceOnUse" id="SVGID_7_" node-id="52" spreadMethod="pad" x1="264.7097" x2="533.1531" y1="266.7824" y2="266.7824"><stop offset="0" stop-color="#e97d08"/><stop offset="1" stop-color="#ffb438"/></linearGradient><linearGradient gradientUnits="userSpaceOnUse" id="SVGID_8_" node-id="58" spreadMethod="pad" x1="427.7548" x2="695.1823" y1="214.3017" y2="214.3017"><stop offset="0" stop-color="#e97d08"/><stop offset="1" stop-color="#ffb438"/></linearGradient><linearGradient gradientUnits="userSpaceOnUse" id="SVGID_9_" node-id="62" spreadMethod="pad" x1="319.9593" x2="701.4152" y1="230.0156" y2="230.0156"><stop offset="0" stop-color="#e97d08"/><stop offset="1" stop-color="#ffb438"/></linearGradient><linearGradient gradientUnits="userSpaceOnUse" id="SVGID_10_" node-id="68" spreadMethod="pad" x1="488.7511" x2="744.053" y1="646.5209" y2="646.5209"><stop offset="0" stop-color="#d7d8d5"/><stop offset="1" stop-color="#ededee"/></linearGradient><linearGradient gradientUnits="userSpaceOnUse" id="SVGID_11_" node-id="73" spreadMethod="pad" x1="540.0993" x2="778.8818" y1="665.4554" y2="665.4554"><stop offset="0" stop-color="#feffff"/><stop offset="1" stop-color="#ebf7f9"/></linearGradient><linearGradient gradientUnits="userSpaceOnUse" id="SVGID_12_" node-id="79" spreadMethod="pad" x1="606.4615" x2="750.8368" y1="688.5177" y2="688.5177"><stop offset="0" stop-color="#ffa21e"/><stop offset="1" stop-color="#ffcb27"/></linearGradient><linearGradient gradientUnits="userSpaceOnUse" id="SVGID_13_" node-id="84" spreadMethod="pad" x1="631.3692" x2="753.4474" y1="696.0636" y2="696.0636"><stop offset="0" stop-color="#ffcb27"/><stop offset="1" stop-color="#ffa21e"/></linearGradient></defs><g node-id="225"><g node-id="230"><path d="M 827.40 278.30 C 828.20 278.00 828.90 277.70 829.70 277.50 C 830.20 277.40 830.70 277.20 831.20 277.10 C 831.60 277.00 832.10 276.90 832.50 276.80 C 833.10 276.70 833.70 276.60 834.20 276.50 C 834.50 276.50 834.90 276.40 835.20 276.40 C 835.90 276.30 836.60 276.30 837.30 276.40 C 837.50 276.40 837.60 276.40 837.80 276.40 C 838.60 276.40 839.40 276.60 840.20 276.70 C 840.40 276.70 840.60 276.80 840.80 276.80 C 841.40 276.90 842.00 277.10 842.60 277.30 C 842.80 277.40 843.00 277.40 843.20 277.50 C 843.90 277.80 844.70 278.10 845.30 278.50 L 624.10 150.10 C 624.00 150.10 624.00 150.00 623.90 150.00 C 623.40 149.70 622.80 149.40 622.30 149.20 C 622.20 149.20 622.10 149.10 622.00 149.10 C 621.80 149.00 621.60 149.00 621.40 148.90 C 621.10 148.80 620.80 148.70 620.50 148.60 C 620.20 148.50 619.90 148.50 619.60 148.40 C 619.40 148.40 619.20 148.30 619.00 148.30 C 618.90 148.30 618.80 148.20 618.70 148.20 C 618.10 148.10 617.40 148.00 616.70 148.00 C 616.70 148.00 616.60 148.00 616.60 148.00 C 616.40 148.00 616.30 148.00 616.10 148.00 C 615.60 148.00 615.10 148.00 614.50 148.00 C 614.30 148.00 614.10 148.00 614.00 148.10 C 613.70 148.10 613.30 148.20 613.00 148.20 C 612.70 148.20 612.40 148.20 612.10 148.30 C 611.80 148.30 611.60 148.40 611.30 148.50 C 610.90 148.60 610.40 148.70 610.00 148.80 C 609.80 148.90 609.50 148.90 609.30 149.00 C 609.10 149.10 608.80 149.20 608.60 149.30 C 607.80 149.50 607.10 149.80 606.30 150.10 C 606.00 150.20 605.80 150.30 605.50 150.40 C 605.30 150.50 605.20 150.60 605.00 150.60 C 603.70 151.20 602.30 151.80 600.90 152.60 L 165.30 403.80 C 163.60 404.80 161.90 406.00 160.20 407.20 C 159.90 407.40 159.60 407.60 159.40 407.80 C 157.80 409.00 156.30 410.40 154.80 411.80 C 154.70 411.90 154.50 412.00 154.40 412.10 C 154.20 412.30 153.90 412.60 153.70 412.80 C 153.00 413.50 152.20 414.30 151.50 415.10 C 151.30 415.40 151.00 415.60 150.80 415.80 C 150.60 416.00 150.40 416.30 150.20 416.50 C 149.80 417.00 149.40 417.50 148.90 418.00 C 148.60 418.30 148.30 418.70 148.10 419.00 C 147.90 419.30 147.70 419.60 147.50 419.90 C 147.20 420.30 146.90 420.70 146.60 421.10 C 146.40 421.40 146.20 421.70 146.00 421.90 C 145.70 422.40 145.30 422.90 145.00 423.40 C 144.80 423.70 144.60 424.00 144.40 424.30 C 144.30 424.40 144.20 424.60 144.10 424.70 C 143.50 425.60 143.00 426.50 142.40 427.50 C 142.40 427.60 142.30 427.60 142.30 427.70 C 142.20 427.90 142.10 428.10 142.00 428.30 C 141.60 429.00 141.30 429.60 140.90 430.30 C 140.70 430.60 140.60 430.90 140.40 431.30 C 140.20 431.60 140.10 431.90 139.90 432.30 C 139.80 432.60 139.60 432.90 139.50 433.10 C 139.10 433.90 138.80 434.70 138.40 435.50 C 138.30 435.60 138.30 435.70 138.20 435.90 C 138.20 435.90 138.20 436.00 138.20 436.00 C 137.80 437.00 137.40 437.90 137.00 438.90 C 136.90 439.10 136.90 439.30 136.80 439.40 C 136.70 439.80 136.50 440.10 136.40 440.50 C 136.20 441.00 136.00 441.50 135.90 442.00 C 135.80 442.40 135.70 442.80 135.50 443.20 C 135.40 443.60 135.20 444.10 135.10 444.50 C 135.00 444.80 134.90 445.10 134.80 445.30 C 134.70 445.80 134.60 446.30 134.40 446.80 C 134.30 447.40 134.10 447.90 134.00 448.50 C 134.00 448.70 133.90 448.90 133.90 449.10 C 133.80 449.50 133.80 449.90 133.70 450.30 C 133.50 451.20 133.40 452.00 133.30 452.90 C 133.30 453.10 133.20 453.40 133.20 453.60 C 133.20 453.80 133.20 454.00 133.20 454.30 C 133.00 456.20 132.80 458.20 132.80 460.00 L 133.90 855.00 C 133.90 860.10 134.80 864.50 136.50 868.00 C 138.10 871.50 140.50 874.20 143.40 875.90 L 364.50 1004.40 C 358.60 1001.00 355.00 993.80 355.00 983.50 L 353.90 588.50 C 353.90 586.60 354.00 584.70 354.30 582.80 C 354.40 582.30 354.40 581.90 354.50 581.40 C 354.60 580.50 354.80 579.70 354.90 578.80 C 355.00 578.20 355.10 577.60 355.20 577.00 C 355.30 576.40 355.50 575.90 355.60 575.30 C 355.80 574.50 356.00 573.70 356.20 573.00 C 356.30 572.60 356.50 572.10 356.60 571.70 C 356.90 570.80 357.20 570.00 357.50 569.10 C 357.60 568.70 357.80 568.40 357.90 568.00 C 358.40 566.80 358.80 565.60 359.30 564.40 C 359.40 564.30 359.40 564.20 359.50 564.00 C 360.00 562.90 360.50 561.90 361.00 560.80 C 361.20 560.50 361.30 560.20 361.50 559.80 C 362.00 558.80 362.50 557.80 363.10 556.90 C 363.20 556.70 363.30 556.50 363.40 556.30 C 364.10 555.20 364.70 554.10 365.50 553.00 C 365.70 552.70 365.90 552.40 366.10 552.10 C 366.60 551.30 367.20 550.50 367.70 549.80 C 368.00 549.40 368.30 549.00 368.60 548.60 C 369.10 548.00 369.60 547.30 370.10 546.70 C 370.50 546.20 370.90 545.70 371.40 545.20 C 371.80 544.70 372.20 544.30 372.60 543.80 C 373.30 543.00 374.00 542.20 374.80 541.50 C 375.20 541.10 375.50 540.80 375.90 540.40 C 377.40 539.00 378.90 537.60 380.50 536.40 C 380.80 536.20 381.10 536.00 381.30 535.80 C 383.00 534.50 384.60 533.40 386.40 532.40 L 822.00 280.90 C 823.40 280.10 824.80 279.40 826.10 278.90 C 826.50 278.60 827.00 278.50 827.40 278.30 Z" fill="url(#SVGID_1_)" fill-rule="nonzero" group-id="1,6" node-id="162" stroke="none" target-height="856.4" target-width="712.5" target-x="132.8" target-y="148"/><g node-id="235"><path d="M 822.00 280.90 C 840.00 270.50 854.70 278.80 854.70 299.60 L 855.80 694.60 C 855.90 715.30 841.30 740.50 823.30 750.90 L 387.70 1002.40 C 369.70 1012.80 355.10 1004.40 355.00 983.80 L 353.90 588.80 C 353.80 568.10 368.40 542.90 386.40 532.50 L 822.00 280.90 Z" fill="url(#SVGID_2_)" fill-rule="nonzero" group-id="1,6,11" node-id="166" stroke="none" target-height="742.3" target-width="502.10004" target-x="353.8" target-y="270.5"/></g></g></g><g node-id="226"><path d="M 796.20 339.50 C 811.50 330.70 823.90 337.70 823.90 355.30 L 824.80 683.70 C 824.80 701.20 812.50 722.60 797.30 731.40 L 421.40 948.40 C 406.10 957.20 393.80 950.10 393.70 932.60 L 392.80 604.20 C 392.80 586.70 405.10 565.30 420.30 556.50 L 796.20 339.50 Z" fill="url(#SVGID_3_)" fill-rule="nonzero" group-id="2" node-id="173" stroke="none" target-height="626.5" target-width="432" target-x="392.8" target-y="330.7"/><g node-id="231"><g node-id="236"><path d="M 796.20 339.50 C 811.50 330.70 823.90 337.70 823.90 355.30 L 824.80 683.70 C 824.80 701.20 812.50 722.60 797.30 731.40 L 421.40 948.40 C 406.10 957.20 393.80 950.10 393.70 932.60 L 392.80 604.20 C 392.80 586.70 405.10 565.30 420.30 556.50 L 796.20 339.50 Z" fill="url(#SVGID_5_)" fill-rule="nonzero" group-id="2,7,12" node-id="179" stroke="none" target-height="626.5" target-width="432" target-x="392.8" target-y="330.7"/></g></g></g><g node-id="227"><g node-id="232"><path d="M 358.50 237.40 C 358.90 237.30 359.30 237.20 359.70 237.10 C 360.10 237.00 360.60 236.90 361.00 236.80 C 361.50 236.70 362.10 236.60 362.60 236.50 C 362.90 236.50 363.20 236.40 363.50 236.40 C 364.10 236.30 364.70 236.30 365.30 236.30 C 365.50 236.30 365.80 236.30 366.00 236.30 C 366.80 236.30 367.60 236.40 368.40 236.50 C 368.50 236.50 368.60 236.50 368.60 236.60 C 369.30 236.70 370.00 236.90 370.60 237.10 C 370.80 237.20 371.00 237.20 371.20 237.30 C 371.90 237.60 372.70 237.90 373.30 238.30 L 533.10 329.40 L 477.80 297.30 L 318.00 206.20 C 318.00 206.20 318.00 206.20 317.90 206.20 C 317.40 205.90 316.90 205.60 316.30 205.40 C 316.10 205.30 316.00 205.30 315.80 205.20 C 315.60 205.10 315.40 205.10 315.20 205.00 C 315.00 204.90 314.80 204.80 314.60 204.80 C 314.10 204.70 313.60 204.60 313.20 204.50 C 313.10 204.50 313.00 204.50 313.00 204.40 C 313.00 204.40 312.90 204.40 312.90 204.40 C 312.30 204.30 311.70 204.20 311.00 204.20 C 310.90 204.20 310.70 204.20 310.60 204.20 C 310.40 204.20 310.10 204.20 309.90 204.20 C 309.60 204.20 309.30 204.20 309.00 204.20 C 308.70 204.20 308.40 204.30 308.10 204.30 C 307.80 204.30 307.50 204.40 307.20 204.40 C 307.00 204.40 306.90 204.40 306.70 204.50 C 306.40 204.60 306.00 204.70 305.70 204.70 C 305.30 204.80 304.80 204.90 304.40 205.00 C 304.30 205.00 304.10 205.10 304.00 205.10 C 303.80 205.20 303.50 205.30 303.30 205.40 C 302.50 205.60 301.80 205.90 301.00 206.20 C 300.80 206.30 300.60 206.30 300.40 206.40 C 300.20 206.50 300.10 206.60 299.90 206.60 C 298.60 207.20 297.30 207.80 296.00 208.50 C 294.40 209.40 292.70 210.60 291.10 211.80 C 290.90 212.00 290.70 212.10 290.50 212.30 C 289.00 213.50 287.50 214.80 286.00 216.30 C 285.90 216.40 285.70 216.50 285.60 216.70 C 285.40 216.90 285.30 217.10 285.10 217.30 C 284.40 218.00 283.70 218.80 283.00 219.60 C 282.80 219.90 282.50 220.10 282.20 220.40 C 282.10 220.50 282.00 220.70 281.90 220.80 C 281.50 221.20 281.20 221.70 280.80 222.10 C 280.40 222.50 280.10 223.00 279.70 223.40 C 279.50 223.60 279.40 223.80 279.20 224.00 C 278.90 224.40 278.70 224.70 278.40 225.10 C 278.10 225.50 277.90 225.80 277.60 226.20 C 277.30 226.60 277.00 227.00 276.80 227.50 C 276.60 227.80 276.40 228.10 276.20 228.40 C 276.10 228.60 276.00 228.70 275.90 228.90 C 275.30 229.80 274.80 230.70 274.30 231.60 C 274.20 231.70 274.20 231.80 274.10 231.90 C 273.60 232.70 273.20 233.50 272.80 234.30 C 272.60 234.70 272.40 235.10 272.20 235.40 C 272.10 235.70 271.90 236.00 271.80 236.30 C 271.70 236.50 271.60 236.70 271.50 237.00 C 271.10 237.90 270.70 238.80 270.30 239.70 C 270.30 239.70 270.30 239.80 270.20 239.80 C 270.10 240.00 270.10 240.10 270.00 240.30 C 269.70 241.00 269.40 241.80 269.10 242.50 C 269.00 242.80 268.90 243.10 268.80 243.40 C 268.70 243.80 268.50 244.10 268.40 244.50 C 268.30 244.80 268.20 245.10 268.10 245.40 C 267.90 245.90 267.80 246.50 267.60 247.00 C 267.50 247.40 267.40 247.80 267.20 248.20 C 267.20 248.30 267.10 248.50 267.10 248.60 C 266.90 249.20 266.80 249.80 266.60 250.50 C 266.50 251.00 266.30 251.50 266.20 252.00 C 266.20 252.10 266.20 252.20 266.10 252.30 C 266.00 252.60 266.00 253.00 265.90 253.30 C 265.70 254.30 265.50 255.30 265.40 256.20 C 265.40 256.40 265.30 256.50 265.30 256.70 C 265.30 257.00 265.30 257.30 265.20 257.60 C 265.10 258.50 265.00 259.40 265.00 260.30 C 265.00 260.80 265.00 261.30 264.90 261.80 C 264.90 262.70 264.90 263.50 264.90 264.40 C 264.90 264.80 264.90 265.30 265.00 265.70 C 265.10 266.70 265.20 267.70 265.40 268.60 C 265.40 268.80 265.50 269.00 265.50 269.20 C 265.70 270.30 266.00 271.40 266.30 272.50 C 266.40 272.80 266.50 273.10 266.60 273.40 C 266.90 274.10 267.10 274.90 267.50 275.50 C 267.70 275.80 267.80 276.20 268.00 276.50 C 268.30 277.10 268.70 277.70 269.10 278.20 C 269.30 278.50 269.50 278.80 269.70 279.10 C 270.10 279.60 270.60 280.10 271.10 280.60 C 271.30 280.80 271.50 281.10 271.80 281.30 C 272.50 281.90 273.30 282.50 274.20 283.00 L 329.50 315.10 C 328.60 314.60 327.90 314.00 327.10 313.40 C 326.90 313.20 326.70 313.00 326.40 312.70 C 325.90 312.20 325.50 311.70 325.00 311.20 C 324.80 310.90 324.60 310.60 324.40 310.30 C 324.00 309.80 323.70 309.20 323.30 308.60 C 323.10 308.30 322.90 308.00 322.80 307.60 C 322.50 306.90 322.20 306.20 321.90 305.50 C 321.80 305.20 321.70 304.90 321.60 304.70 C 321.30 303.60 321.00 302.60 320.80 301.40 C 320.80 301.20 320.70 301.00 320.70 300.80 C 320.50 299.80 320.40 298.90 320.30 297.90 C 320.30 297.50 320.30 297.00 320.20 296.60 C 320.20 295.80 320.10 294.90 320.20 294.00 C 320.20 293.50 320.20 293.00 320.30 292.50 C 320.30 291.60 320.40 290.70 320.50 289.80 C 320.60 289.30 320.60 288.80 320.70 288.40 C 320.80 287.40 321.00 286.50 321.20 285.50 C 321.30 285.10 321.30 284.70 321.40 284.30 C 321.50 283.80 321.60 283.30 321.80 282.80 C 322.00 282.00 322.20 281.30 322.40 280.50 C 322.50 280.10 322.60 279.70 322.70 279.40 C 323.00 278.50 323.20 277.70 323.50 276.80 C 323.60 276.40 323.80 276.10 323.90 275.70 C 324.30 274.70 324.70 273.60 325.10 272.60 C 325.20 272.40 325.20 272.30 325.30 272.10 C 325.80 270.90 326.40 269.80 326.90 268.60 C 327.00 268.30 327.20 268.00 327.30 267.70 C 327.90 266.50 328.50 265.40 329.20 264.20 C 329.90 263.00 330.60 261.80 331.40 260.70 C 331.60 260.40 331.80 260.10 332.00 259.80 C 332.50 259.00 333.10 258.20 333.60 257.50 C 333.90 257.10 334.10 256.80 334.40 256.40 C 334.90 255.70 335.40 255.10 335.90 254.50 C 336.30 254.10 336.60 253.60 337.00 253.20 C 337.40 252.80 337.70 252.40 338.10 252.00 C 338.80 251.20 339.50 250.50 340.20 249.70 C 340.50 249.40 340.80 249.10 341.20 248.80 C 342.70 247.40 344.20 246.00 345.70 244.80 C 345.90 244.60 346.10 244.50 346.30 244.30 C 347.90 243.10 349.60 241.90 351.20 241.00 C 352.50 240.20 353.80 239.60 355.10 239.10 C 355.50 238.90 355.80 238.80 356.20 238.60 C 357.00 237.80 357.70 237.60 358.50 237.40 Z" fill="url(#SVGID_7_)" fill-rule="nonzero" group-id="3,8" node-id="188" stroke="none" target-height="125.2" target-width="268.19998" target-x="264.9" target-y="204.2"/><g node-id="237"><g node-id="240"><path d="M 655.30 74.40 C 655.60 74.00 655.80 73.70 656.10 73.30 C 656.60 72.60 657.10 72.00 657.60 71.40 C 658.00 71.00 658.30 70.50 658.70 70.10 C 659.10 69.70 659.40 69.30 659.80 68.90 C 660.50 68.10 661.20 67.40 661.90 66.60 C 662.20 66.30 662.50 66.00 662.90 65.70 C 664.40 64.30 665.90 62.90 667.40 61.70 C 667.60 61.50 667.80 61.40 668.00 61.20 C 669.60 60.00 671.30 58.80 672.90 57.90 C 674.20 57.10 675.50 56.50 676.80 56.00 C 677.20 55.80 677.50 55.70 677.90 55.50 C 678.70 55.20 679.40 54.90 680.20 54.70 C 680.60 54.60 681.00 54.50 681.40 54.40 C 681.80 54.30 682.30 54.20 682.70 54.10 C 683.20 54.00 683.80 53.90 684.30 53.80 C 684.60 53.80 684.90 53.70 685.20 53.70 C 685.80 53.60 686.40 53.60 687.00 53.60 C 687.20 53.60 687.50 53.60 687.70 53.60 C 688.50 53.60 689.30 53.70 690.10 53.80 C 690.20 53.80 690.30 53.80 690.30 53.90 C 691.00 54.00 691.70 54.20 692.30 54.40 C 692.50 54.50 692.70 54.50 692.90 54.60 C 693.60 54.90 694.40 55.20 695.00 55.60 L 639.70 23.50 C 639.70 23.50 639.70 23.50 639.60 23.50 C 639.10 23.20 638.60 22.90 638.00 22.70 C 637.80 22.60 637.70 22.60 637.50 22.50 C 637.30 22.40 637.10 22.40 636.90 22.30 C 636.70 22.20 636.50 22.10 636.30 22.10 C 635.80 22.00 635.30 21.90 634.90 21.80 C 634.80 21.80 634.70 21.80 634.70 21.70 C 634.70 21.70 634.60 21.70 634.60 21.70 C 634.00 21.60 633.40 21.50 632.70 21.50 C 632.60 21.50 632.40 21.50 632.30 21.50 C 632.10 21.50 631.80 21.50 631.60 21.50 C 631.30 21.50 631.00 21.50 630.70 21.50 C 630.40 21.50 630.10 21.60 629.80 21.60 C 629.50 21.60 629.20 21.70 628.90 21.70 C 628.70 21.70 628.60 21.70 628.40 21.80 C 628.10 21.90 627.70 22.00 627.40 22.00 C 627.00 22.10 626.50 22.20 626.10 22.30 C 626.00 22.30 625.80 22.40 625.70 22.40 C 625.50 22.50 625.20 22.60 625.00 22.70 C 624.20 22.90 623.50 23.20 622.70 23.50 C 622.50 23.60 622.30 23.60 622.10 23.70 C 621.90 23.80 621.80 23.90 621.60 23.90 C 620.30 24.50 619.00 25.10 617.70 25.80 C 616.10 26.70 614.40 27.90 612.80 29.10 C 612.60 29.30 612.40 29.40 612.20 29.60 C 610.70 30.80 609.20 32.10 607.70 33.60 C 607.60 33.70 607.40 33.80 607.30 34.00 C 607.10 34.20 607.00 34.40 606.80 34.60 C 606.10 35.30 605.40 36.10 604.70 36.90 C 604.50 37.20 604.20 37.40 603.90 37.70 C 603.80 37.80 603.70 38.00 603.60 38.10 C 603.20 38.50 602.90 39.00 602.50 39.40 C 602.10 39.80 601.80 40.30 601.40 40.70 C 601.20 40.90 601.10 41.10 600.90 41.30 C 600.60 41.70 600.40 42.00 600.10 42.40 C 599.80 42.80 599.60 43.10 599.30 43.50 C 599.00 43.90 598.70 44.30 598.50 44.80 C 598.30 45.10 598.10 45.40 597.90 45.70 C 597.80 45.90 597.70 46.00 597.60 46.20 C 597.00 47.10 596.50 48.00 596.00 48.90 C 595.90 49.00 595.90 49.10 595.80 49.20 L 436.80 324.10 C 436.30 324.90 435.90 325.70 435.50 326.50 C 435.30 326.90 435.10 327.20 434.90 327.60 C 434.80 327.90 434.60 328.20 434.50 328.50 C 434.40 328.70 434.30 329.00 434.10 329.20 C 433.70 330.10 433.30 331.00 432.90 331.90 C 432.90 331.90 432.90 332.00 432.90 332.00 C 432.80 332.10 432.80 332.30 432.70 332.40 C 432.40 333.20 432.10 333.90 431.80 334.70 C 431.70 335.00 431.60 335.30 431.50 335.60 C 431.40 336.00 431.20 336.30 431.10 336.70 C 431.00 337.00 430.90 337.40 430.80 337.70 C 430.60 338.20 430.50 338.80 430.30 339.30 C 430.20 339.70 430.10 340.10 430.00 340.40 C 430.00 340.50 429.90 340.70 429.90 340.80 C 429.70 341.40 429.60 342.00 429.40 342.60 C 429.30 343.10 429.10 343.60 429.00 344.10 C 429.00 344.20 429.00 344.30 428.90 344.40 C 428.80 344.70 428.80 345.10 428.70 345.40 C 428.50 346.40 428.30 347.30 428.20 348.30 C 428.20 348.50 428.10 348.60 428.10 348.80 C 428.10 349.10 428.10 349.40 428.00 349.70 C 427.90 350.60 427.80 351.50 427.80 352.40 C 427.80 352.90 427.80 353.40 427.70 353.90 C 427.70 354.80 427.70 355.60 427.70 356.50 C 427.70 356.90 427.70 357.40 427.80 357.80 C 427.90 358.80 428.00 359.80 428.20 360.80 C 428.20 361.00 428.20 361.20 428.30 361.40 C 428.50 362.50 428.80 363.60 429.10 364.70 C 429.20 365.00 429.30 365.30 429.40 365.60 C 429.70 366.30 430.00 367.10 430.30 367.70 C 430.50 368.00 430.60 368.40 430.80 368.70 C 431.10 369.30 431.50 369.90 431.90 370.40 C 432.10 370.70 432.30 371.00 432.50 371.30 C 432.90 371.80 433.40 372.30 433.90 372.80 C 434.10 373.00 434.30 373.30 434.60 373.50 C 435.30 374.10 436.10 374.70 437.00 375.20 L 492.30 407.30 C 491.40 406.80 490.70 406.20 489.90 405.60 C 489.70 405.40 489.50 405.20 489.20 404.90 C 488.70 404.40 488.30 403.90 487.80 403.40 C 487.60 403.10 487.40 402.80 487.20 402.50 C 486.80 402.00 486.50 401.40 486.10 400.80 C 485.90 400.50 485.70 400.20 485.60 399.80 C 485.30 399.10 485.00 398.40 484.70 397.70 C 484.60 397.40 484.50 397.10 484.40 396.80 C 484.10 395.70 483.80 394.70 483.60 393.50 C 483.60 393.30 483.50 393.10 483.50 392.90 C 483.30 391.90 483.20 391.00 483.10 390.00 C 483.10 389.60 483.10 389.10 483.00 388.70 C 483.00 387.90 482.90 387.00 483.00 386.10 C 483.00 385.60 483.00 385.10 483.10 384.60 C 483.10 383.70 483.20 382.80 483.30 381.90 C 483.40 381.40 483.40 380.90 483.50 380.50 C 483.60 379.60 483.80 378.60 484.00 377.60 C 484.10 377.20 484.10 376.70 484.20 376.30 C 484.30 375.80 484.40 375.30 484.60 374.80 C 484.80 374.00 485.00 373.30 485.20 372.50 C 485.30 372.10 485.40 371.70 485.50 371.40 C 485.80 370.50 486.00 369.70 486.30 368.80 C 486.40 368.40 486.60 368.10 486.70 367.70 C 487.10 366.70 487.50 365.60 487.90 364.60 C 488.00 364.50 488.00 364.30 488.10 364.20 C 488.60 363.00 489.20 361.80 489.70 360.70 C 489.80 360.40 490.00 360.10 490.10 359.80 C 490.70 358.60 491.30 357.50 492.00 356.30 L 650.90 81.20 C 651.60 80.00 652.30 78.80 653.10 77.70 C 653.30 77.40 653.50 77.10 653.70 76.80 C 654.20 76.00 654.80 75.20 655.30 74.40 Z" fill="url(#SVGID_8_)" fill-rule="nonzero" group-id="3,8,13,16" node-id="194" stroke="none" target-height="385.8" target-width="267.3" target-x="427.7" target-y="21.5"/></g></g><path d="M 692.20 54.20 C 686.10 50.70 678.00 51.80 670.00 56.40 C 662.00 61.00 654.00 69.20 647.90 79.70 L 511.00 316.70 L 373.20 238.20 C 367.10 234.70 359.00 235.80 351.00 240.40 C 343.00 245.00 335.00 253.20 328.90 263.70 C 316.70 284.80 316.80 307.50 329.00 314.50 L 488.90 405.60 C 494.30 408.70 501.20 408.20 508.20 404.80 C 509.20 404.30 510.20 403.80 511.20 403.20 C 519.20 398.60 527.20 390.40 533.30 379.90 L 692.10 104.80 C 704.50 84.00 704.40 61.20 692.20 54.20 Z" fill="url(#SVGID_9_)" fill-rule="nonzero" group-id="3,8" node-id="198" stroke="none" target-height="358" target-width="387.8" target-x="316.7" target-y="50.7"/></g></g><g node-id="228"><g node-id="233"><path d="M 540.60 721.80 C 540.80 718.40 541.20 715.00 541.60 711.60 C 541.70 710.60 541.90 709.70 542.00 708.70 C 542.20 707.10 542.50 705.50 542.70 703.90 C 542.90 702.80 543.10 701.70 543.30 700.60 C 543.60 699.00 543.90 697.50 544.20 695.90 C 544.40 695.00 544.60 694.20 544.80 693.30 C 545.70 689.30 546.60 685.30 547.70 681.40 C 547.90 680.70 548.10 680.10 548.30 679.40 C 549.30 676.00 550.30 672.50 551.40 669.10 C 551.50 668.80 551.60 668.60 551.60 668.30 C 552.70 665.00 553.90 661.70 555.20 658.40 C 555.50 657.60 555.80 656.70 556.20 655.90 C 557.30 653.10 558.40 650.30 559.60 647.50 C 559.80 647.10 559.90 646.70 560.10 646.30 C 561.40 643.20 562.80 640.20 564.30 637.10 C 564.70 636.30 565.10 635.50 565.50 634.70 C 566.70 632.30 567.90 629.90 569.10 627.50 C 569.50 626.80 569.90 626.00 570.30 625.30 C 571.90 622.30 573.50 619.40 575.20 616.40 C 575.50 615.80 575.90 615.30 576.20 614.70 C 577.70 612.20 579.20 609.60 580.80 607.10 C 581.30 606.40 581.70 605.60 582.20 604.90 C 584.20 601.90 586.20 598.80 588.20 595.90 C 588.50 595.50 588.80 595.00 589.20 594.60 C 591.40 591.50 593.60 588.50 595.80 585.60 C 596.10 585.20 596.40 584.80 596.70 584.40 C 599.50 580.70 602.50 577.20 605.50 573.70 C 605.90 573.20 606.30 572.80 606.70 572.30 C 608.50 570.20 610.40 568.10 612.30 566.10 C 612.40 566.00 612.50 565.90 612.60 565.80 C 614.60 563.70 616.60 561.60 618.70 559.50 C 619.10 559.10 619.60 558.70 620.00 558.20 C 622.70 555.60 625.40 553.00 628.20 550.60 C 628.40 550.40 628.70 550.20 628.90 549.90 C 631.80 547.40 634.70 545.00 637.60 542.70 C 638.20 542.30 638.70 541.80 639.30 541.40 C 642.20 539.20 645.10 537.00 648.10 535.00 C 648.60 534.60 649.20 534.30 649.70 533.90 C 652.80 531.80 655.90 529.80 659.10 528.00 C 661.60 526.50 664.20 525.20 666.70 523.90 C 667.40 523.50 668.10 523.20 668.90 522.80 C 670.80 521.90 672.70 521.00 674.60 520.20 C 675.30 519.90 675.90 519.60 676.60 519.30 C 678.40 518.60 680.10 517.90 681.90 517.30 C 682.30 517.10 682.80 517.00 683.20 516.80 C 685.40 516.10 687.50 515.40 689.60 514.80 C 690.80 514.50 692.10 514.20 693.30 513.90 C 693.90 513.80 694.50 513.60 695.10 513.50 C 696.90 513.10 698.70 512.80 700.50 512.50 C 703.20 512.10 705.90 511.80 708.50 511.70 C 709.00 511.70 709.60 511.60 710.10 511.60 C 712.40 511.50 714.80 511.50 717.00 511.70 C 717.40 511.70 717.80 511.80 718.20 511.80 C 720.00 511.90 721.80 512.20 723.60 512.40 C 724.20 512.50 724.70 512.60 725.30 512.70 C 727.30 513.10 729.30 513.50 731.30 514.10 C 731.40 514.10 731.50 514.20 731.50 514.20 C 733.30 514.70 735.10 515.40 736.90 516.10 C 737.40 516.30 737.90 516.50 738.40 516.70 C 739.90 517.40 741.40 518.10 742.80 518.90 C 743.30 519.20 743.80 519.40 744.20 519.70 L 692.90 489.90 C 692.70 489.80 692.50 489.60 692.20 489.50 C 691.90 489.40 691.70 489.30 691.40 489.10 C 690.00 488.30 688.50 487.60 687.00 486.90 C 686.70 486.80 686.50 486.60 686.20 486.50 C 686.00 486.40 685.70 486.30 685.50 486.30 C 683.70 485.60 682.00 484.90 680.10 484.40 C 680.00 484.40 680.00 484.30 679.90 484.30 C 679.90 484.30 679.90 484.30 679.90 484.30 C 678.00 483.70 676.00 483.30 673.90 482.90 C 673.70 482.90 673.40 482.80 673.20 482.70 C 672.90 482.60 672.60 482.60 672.20 482.60 C 670.40 482.30 668.60 482.10 666.80 482.00 C 666.50 482.00 666.20 481.90 665.90 481.90 C 665.80 481.90 665.70 481.90 665.60 481.90 C 663.30 481.80 661.00 481.80 658.70 481.80 C 658.50 481.80 658.30 481.80 658.00 481.80 C 657.70 481.80 657.40 481.90 657.10 481.90 C 654.50 482.00 651.80 482.30 649.10 482.70 C 649.10 482.70 649.10 482.70 649.10 482.70 C 647.30 483.00 645.50 483.30 643.70 483.70 C 643.10 483.80 642.60 484.00 642.00 484.10 C 640.90 484.40 639.70 484.60 638.60 484.90 C 638.50 484.90 638.40 485.00 638.30 485.00 C 636.20 485.60 634.00 486.20 631.90 487.00 C 631.50 487.10 631.00 487.30 630.60 487.50 C 628.90 488.10 627.10 488.80 625.30 489.50 C 625.10 489.60 624.80 489.70 624.60 489.80 C 624.20 490.00 623.70 490.20 623.30 490.40 C 621.40 491.20 619.50 492.10 617.60 493.00 C 616.90 493.30 616.20 493.70 615.40 494.10 C 612.90 495.40 610.40 496.70 607.80 498.20 C 604.60 500.00 601.50 502.00 598.40 504.10 C 597.90 504.50 597.30 504.80 596.80 505.20 C 593.80 507.20 590.90 509.40 588.00 511.60 C 587.40 512.00 586.90 512.50 586.30 512.90 C 583.40 515.20 580.40 517.60 577.60 520.10 C 577.40 520.30 577.10 520.50 576.90 520.80 C 574.10 523.20 571.40 525.80 568.70 528.40 C 568.40 528.70 568.20 528.90 567.90 529.20 C 567.70 529.40 567.60 529.50 567.40 529.70 C 565.30 531.70 563.30 533.80 561.30 535.90 C 561.20 536.00 561.10 536.10 561.00 536.30 C 559.10 538.30 557.30 540.40 555.40 542.50 C 555.20 542.70 555.00 542.90 554.90 543.10 C 554.70 543.40 554.50 543.60 554.20 543.90 C 551.20 547.40 548.30 550.90 545.40 554.60 C 545.30 554.70 545.20 554.80 545.10 554.90 C 544.90 555.20 544.70 555.50 544.50 555.80 C 542.20 558.70 540.00 561.70 537.90 564.80 C 537.70 565.10 537.50 565.40 537.20 565.70 C 537.10 565.80 537.00 566.00 536.90 566.10 C 534.80 569.10 532.80 572.10 530.90 575.10 C 530.70 575.40 530.50 575.70 530.30 576.00 C 530.00 576.40 529.80 576.90 529.50 577.30 C 527.90 579.80 526.40 582.30 524.90 584.90 C 524.70 585.30 524.40 585.70 524.20 586.10 C 524.10 586.30 524.00 586.40 523.90 586.60 C 522.20 589.50 520.60 592.50 519.00 595.50 C 518.90 595.70 518.70 596.00 518.60 596.20 C 518.30 596.70 518.10 597.20 517.80 597.70 C 516.60 600.10 515.30 602.50 514.20 604.90 C 514.00 605.40 513.70 605.90 513.40 606.40 C 513.30 606.70 513.10 607.00 513.00 607.30 C 511.50 610.30 510.10 613.40 508.80 616.50 C 508.80 616.60 508.70 616.70 508.70 616.80 C 508.60 617.10 508.40 617.50 508.30 617.80 C 507.10 620.60 506.00 623.40 504.90 626.20 C 504.70 626.60 504.50 627.10 504.30 627.50 C 504.20 627.90 504.00 628.30 503.90 628.60 C 502.60 631.90 501.40 635.20 500.30 638.50 C 500.30 638.60 500.30 638.60 500.20 638.70 C 500.10 638.90 500.10 639.10 500.00 639.30 C 498.90 642.70 497.80 646.20 496.90 649.60 C 496.80 650.00 496.60 650.50 496.50 650.90 C 496.40 651.10 496.40 651.40 496.30 651.60 C 495.20 655.60 494.20 659.60 493.40 663.50 C 493.30 663.90 493.20 664.20 493.10 664.60 C 493.00 665.10 492.90 665.60 492.80 666.20 C 492.50 667.80 492.20 669.30 491.90 670.90 C 491.70 672.00 491.50 673.10 491.30 674.20 C 491.00 675.80 490.80 677.40 490.60 679.00 C 490.50 679.80 490.40 680.50 490.30 681.30 C 490.30 681.50 490.30 681.70 490.20 681.90 C 489.80 685.30 489.40 688.70 489.20 692.10 C 489.10 692.80 489.10 693.50 489.10 694.30 C 488.90 697.80 488.80 701.20 488.80 704.70 C 488.80 711.80 489.30 718.40 490.20 724.70 C 490.80 728.90 491.60 732.90 492.60 736.70 C 493.10 738.60 493.60 740.50 494.20 742.30 C 495.90 747.70 498.10 752.70 500.60 757.20 C 502.30 760.20 504.10 763.00 506.10 765.70 C 511.10 772.20 517.00 777.50 523.70 781.40 L 575.00 811.20 C 553.60 798.70 540.30 772.30 540.20 734.60 C 540.20 731.20 540.30 727.70 540.50 724.20 C 540.50 723.30 540.50 722.60 540.60 721.80 Z" fill="url(#SVGID_10_)" fill-rule="nonzero" group-id="4,9" node-id="206" stroke="none" target-height="329.40002" target-width="255.40002" target-x="488.8" target-y="481.8"/><g node-id="238"><path d="M 659.10 528.30 C 725.00 490.20 778.70 520.80 778.90 596.60 C 779.10 672.40 725.80 764.70 659.90 802.70 C 593.90 840.80 540.30 810.20 540.10 734.40 C 539.90 658.60 593.10 566.30 659.10 528.30 Z" fill="url(#SVGID_11_)" fill-rule="nonzero" group-id="4,9,14" node-id="210" stroke="none" target-height="350.59998" target-width="239.19995" target-x="539.9" target-y="490.2"/></g></g></g><g node-id="229"><g node-id="234"><path d="M 725.90 610.60 C 725.90 610.60 725.90 610.60 725.90 610.60 C 725.70 610.50 725.60 610.40 725.40 610.40 C 725.20 610.30 725.10 610.30 724.90 610.20 C 724.70 610.20 724.60 610.10 724.40 610.10 C 724.30 610.10 724.10 610.10 724.00 610.00 L 620.00 601.00 C 620.00 601.00 619.90 601.00 619.90 601.00 C 619.70 601.00 619.50 601.00 619.30 601.00 C 619.10 601.00 618.80 601.00 618.60 601.10 C 618.30 601.10 618.10 601.20 617.80 601.30 C 617.80 601.30 617.80 601.30 617.80 601.30 C 617.80 601.30 617.80 601.30 617.80 601.30 C 617.50 601.40 617.10 601.50 616.80 601.60 C 616.40 601.80 616.00 602.00 615.60 602.20 C 615.00 602.50 614.50 602.90 613.90 603.30 C 613.70 603.40 613.60 603.60 613.40 603.80 C 613.10 604.00 612.80 604.30 612.60 604.50 C 612.50 604.60 612.40 604.70 612.30 604.80 C 612.20 604.90 612.10 605.00 612.00 605.10 C 611.80 605.30 611.70 605.40 611.50 605.60 C 611.20 605.90 611.00 606.20 610.80 606.50 C 610.80 606.60 610.70 606.60 610.70 606.70 C 610.70 606.70 610.60 606.80 610.60 606.80 C 610.50 607.00 610.30 607.10 610.20 607.30 C 610.00 607.60 609.80 607.80 609.70 608.10 C 609.60 608.30 609.50 608.50 609.40 608.70 C 609.40 608.70 609.40 608.80 609.30 608.80 C 609.30 608.80 609.20 608.90 609.20 608.90 C 609.10 609.20 608.90 609.40 608.80 609.70 C 608.70 610.00 608.50 610.20 608.40 610.50 C 608.30 610.60 608.30 610.80 608.20 610.90 C 608.20 610.90 608.20 611.00 608.10 611.00 C 608.10 611.10 608.00 611.10 608.00 611.20 C 607.90 611.50 607.80 611.70 607.70 612.00 C 607.60 612.30 607.50 612.60 607.40 612.80 C 607.40 612.90 607.30 613.00 607.30 613.10 C 607.30 613.20 607.30 613.20 607.20 613.30 C 607.20 613.50 607.10 613.60 607.10 613.80 C 607.00 614.10 606.90 614.50 606.80 614.80 C 606.80 615.00 606.70 615.20 606.70 615.40 C 606.70 615.50 606.70 615.60 606.60 615.70 C 606.60 615.80 606.60 615.90 606.50 616.10 C 606.40 616.70 606.40 617.30 606.40 617.90 L 606.80 755.60 C 606.80 756.30 606.90 757.00 607.00 757.60 C 607.40 759.40 608.20 760.70 609.40 761.40 L 634.30 775.90 C 632.70 775.00 631.70 773.00 631.70 770.10 L 631.30 632.40 C 631.30 631.70 631.40 631.00 631.50 630.20 C 631.50 630.10 631.50 630.00 631.60 629.90 C 631.70 629.20 631.90 628.50 632.10 627.90 C 632.10 627.80 632.10 627.80 632.20 627.70 C 632.40 627.00 632.70 626.30 633.00 625.60 C 633.00 625.60 633.00 625.50 633.10 625.50 C 633.40 624.80 633.80 624.10 634.20 623.40 C 634.20 623.40 634.20 623.30 634.30 623.30 C 634.70 622.70 635.10 622.00 635.60 621.40 C 635.60 621.40 635.70 621.30 635.70 621.30 C 636.10 620.80 636.60 620.20 637.00 619.80 C 637.10 619.70 637.20 619.60 637.30 619.50 C 637.70 619.10 638.00 618.80 638.40 618.50 C 638.60 618.30 638.70 618.20 638.90 618.00 C 639.40 617.60 640.00 617.20 640.60 616.90 C 641.30 616.50 642.10 616.10 642.80 615.90 C 642.80 615.90 642.80 615.90 642.80 615.90 C 643.60 615.70 644.30 615.60 645.00 615.70 L 749.00 624.70 C 749.70 624.80 750.40 625.00 750.90 625.30 L 725.90 610.60 Z" fill="url(#SVGID_12_)" fill-rule="nonzero" group-id="5,10" node-id="219" stroke="none" target-height="174.90002" target-width="144.5" target-x="606.4" target-y="601"/><g node-id="239"><path d="M 640.40 616.80 C 641.90 615.90 643.40 615.50 644.90 615.60 L 748.90 624.60 C 754.90 625.10 755.00 635.10 749.00 642.60 L 645.40 771.30 C 643.90 773.10 642.40 774.40 640.90 775.30 C 636.20 778.00 631.80 776.20 631.80 770.10 L 631.40 632.40 C 631.40 626.40 635.70 619.50 640.40 616.80 Z" fill="url(#SVGID_13_)" fill-rule="nonzero" group-id="5,10,15" node-id="223" stroke="none" target-height="162.5" target-width="123.599976" target-x="631.4" target-y="615.5"/></g></g></g></svg>