<svg t="1709086212759" class="icon" viewBox="0 0 1024 1024" version="1.1" xmlns="http://www.w3.org/2000/svg" p-id="30070" width="128" height="128"><path d="M505.152932 0.077113C222.458021 3.884775-3.697908 236.184159 0.077757 518.911067c3.775665 282.630917 236.043051 508.786845 518.737962 504.979183 282.630917-3.743668 508.818842-236.043051 505.075175-518.833954C1020.147226 222.457377 787.847843-3.730549 505.152932 0.077113z m56.730965 170.608859c52.05938 0 67.418017 30.205319 67.418017 64.66626 0 43.196166-34.556933 83.064628-93.463706 83.064629-49.307624 0-72.729545-24.733805-71.353667-65.754165-0.031997-34.428944 28.893436-81.976725 97.399356-81.976724z m-133.428158 661.349305c-35.548845 0-61.594533-21.694075-36.73274-116.629649l40.796379-168.241069c7.071372-27.005603 8.22327-37.820643 0-37.820643-10.655054 0-56.794959 18.686342-84.152531 37.020714l-17.790422-29.117416c86.552318-72.217591 186.03149-114.581831 228.715702-114.581831 35.548845 0 41.436323 42.108263 23.677898 106.742527l-46.715853 177.008291c-8.255267 31.261226-4.671585 42.012271 3.551684 42.012271 10.623057 0 45.595953-12.862858 79.992901-39.868462l20.126214 27.005604c-84.120534 84.024543-175.856393 116.469663-211.469232 116.469663z m0 0" fill="#7967ED" p-id="30071"></path></svg>