<svg t="1708358232106" class="icon" viewBox="0 0 1024 1024" version="1.1" xmlns="http://www.w3.org/2000/svg" p-id="13419" width="128" height="128"><path d="M398.140235 1012.675765c-58.970353-33.008941-101.195294-90.955294-103.604706-159.262118-3.493647-127.457882 90.352941-189.982118 145.950118-275.456 79.510588-122.88 57.825882-199.077647 57.825882-199.077647s66.379294 35.237647 104.929883 166.128941c12.047059 38.671059 14.516706 77.462588 10.842353 113.844706-5.963294 92.16-48.188235 175.224471-48.188236 175.224471s73.547294-14.817882 94.027295-141.131294c33.852235 33.008941 65.174588 80.715294 68.788705 130.891294 6.023529 86.497882-48.188235 166.068706-130.228705 200.161882 142.034824-30.72 243.591529-144.444235 278.588235-227.568941 44.574118-104.568471 32.527059-197.872941 25.298823-278.708706-9.637647-110.290824 31.262118-192.331294 31.262118-192.331294s-78.366118 21.684706-136.252235 111.435294c-26.503529 41.080471-37.345882 101.255529-37.345883 101.255529s6.023529-53.368471-31.442823-151.190588c-37.285647-95.653647-71.137882-129.746824-91.678118-200.222118C610.469647 92.16 669.44 0 669.44 0S435.727059 41.020235 329.472 233.231059c-93.967059 170.646588-55.416471 273.106824-55.416471 273.106823s-39.815529-35.297882-60.295529-84.208941c-20.48-48.971294-15.902118-93.304471-15.902118-93.30447S31.668706 501.76 112.504471 719.209412c54.272 152.395294 159.021176 252.566588 285.635764 293.526588" fill="#FA3A68" p-id="13420"></path></svg>