<svg t="1708358348763" class="icon" viewBox="0 0 1024 1024" version="1.1" xmlns="http://www.w3.org/2000/svg" p-id="18863" width="128" height="128"><path d="M541.11232 950.857143s-0.585143 0 0 0c-22.674286-0.073143-42.569143-16.603429-49.005714-40.740572L333.532891 320.438857 258.707749 573.732571c-6.948571 23.186286-26.477714 38.912-48.493715 38.912H51.201463a48.713143 48.713143 0 0 1-36.205714-16.676571 60.269714 60.269714 0 0 1-14.994286-40.228571c0.146286-31.305143 22.966857-56.685714 51.2-56.905143h121.782857l114.834286-386.706286A53.76 53.76 0 0 1 337.409463 73.142857c22.308571 0.512 41.910857 16.969143 48.493714 40.740572l156.233143 583.094857 118.637714-430.445715c6.363429-22.820571 24.868571-38.765714 46.299429-40.082285a51.2 51.2 0 0 1 49.590857 34.742857l89.453714 238.299428H972.801463c28.013714 0 51.2 25.6 51.2 56.832 0 31.158857-22.674286 56.832-51.2 56.832h-160.621714c-20.626286 0-39.204571-13.677714-47.396572-34.669714l-48.493714-127.561143L589.532891 911.36c-6.875429 23.332571-26.404571 39.204571-48.493714 39.497143z" fill="#68BB50" p-id="18864"></path></svg>