<svg t="1708745287143" class="icon" viewBox="0 0 1024 1024" version="1.1" xmlns="http://www.w3.org/2000/svg" p-id="67467" width="128" height="128"><path d="M741.45185 87.202222a40.565951 40.565951 0 0 0-34.57952 23.670036c-6.695351 15.123617-3.426444 30.562309 5.513819 41.62933l-4.253517 17.64422a80.58052 80.58052 0 0 1-78.650684 61.360924c-42.141328 0-77.19346-32.019532-80.58052-73.53071l-4.017211-49.860673c19.416518-12.760552 30.877384-36.469971 25.324181-62.227382a58.958474 58.958474 0 0 0-45.292081-44.504392 59.470472 59.470472 0 0 0-72.46733 57.580019c0 20.479898 10.673177 38.59673 26.781405 49.151755L475.213181 157.936638A80.462367 80.462367 0 0 1 394.632661 231.506732c-37.415198 0-69.986112-25.442334-78.650684-61.360924l-4.253517-17.64422c8.940263-11.027637 12.20917-26.505714 5.513818-41.62933a40.369029 40.369029 0 0 0-34.579519-23.630651A40.487182 40.487182 0 0 0 239.930665 134.305987c2.441834 13.745162 11.657788 24.654646 23.630651 29.892774l36.233665 252.847966h424.406493v-0.157538l36.194281-252.690428c12.012248-5.238128 21.267586-16.147612 23.630651-29.932158a40.29026 40.29026 0 0 0-42.535172-47.064381z" fill="#BDC1FC" p-id="67468"></path><path d="M239.339899 120.285134a40.093338 40.093338 0 1 0 80.186676 0 40.093338 40.093338 0 0 0-80.186676 0z" fill="#A9ADFD" p-id="67469"></path><path d="M741.45185 87.123454a40.565951 40.565951 0 0 0-34.57952 23.670035c-6.695351 15.123617-3.426444 30.562309 5.513819 41.62933l-4.253517 17.64422a80.58052 80.58052 0 0 1-78.650684 61.360924c-42.141328 0-77.19346-32.019532-80.58052-73.530709l-4.017211-49.860674c19.416518-12.760552 30.916768-36.469971 25.324181-62.227381A58.958474 58.958474 0 0 0 511.998228 0.00512v417.002223h212.203246v-0.118154l36.194281-252.729813c12.012248-5.238128 21.267586-16.147612 23.630651-29.932158a40.329645 40.329645 0 0 0-42.535172-47.103764z" fill="#A1A6FF" p-id="67470"></path><path d="M704.469881 120.285134a40.093338 40.093338 0 1 0 80.186676 0 40.093338 40.093338 0 0 0-80.186676 0z" fill="#B1B5FF" p-id="67471"></path><path d="M463.870468 56.127916a56.122796 56.122796 0 1 0 112.284977 0 56.122796 56.122796 0 0 0-112.245592 0z" fill="#A5A9FF" p-id="67472"></path><path d="M310.074314 95.906179c-4.804899 23.315576-25.324181 43.519782-54.704957 56.044027 6.971042 5.238128 15.674999 8.428266 25.245412 8.428266 22.527887 0 40.762873-17.092838 40.762873-38.202886a36.981969 36.981969 0 0 0-11.303328-26.269407z m463.436452 0.315075c-5.553203 23.0005-26.38756 42.732094-55.847105 54.941264 7.089195 5.671356 16.22638 9.215954 26.308791 9.215954 22.488503 0 40.684104-17.053453 40.684105-38.124117a36.9032 36.9032 0 0 0-11.145791-26.033101zM554.139555 16.034578c1.299686 3.426444 2.008605 6.971042 2.008606 10.633793 0 26.545098-35.327823 48.088375-78.88699 48.088375-7.876884 0-15.517461-0.70892-22.685425-2.087374 7.48304 23.276191 30.444155 40.172107 57.698173 40.172107 33.240449 0 60.218776-25.284797 60.218775-56.437872A54.744342 54.744342 0 0 0 554.139555 16.034578z" fill="#8D92FC" p-id="67473"></path><path d="M255.605664 110.71472c0.669535 1.69353 2.756909 2.04799 5.513818 0.866457a20.007285 20.007285 0 0 0 7.798115-6.459044c2.087374-2.835678 2.953831-5.631972 2.284296-7.325502-0.70892-1.69353-2.796294-2.04799-5.553203-0.866457a20.007285 20.007285 0 0 0-7.798115 6.459044c-2.04799 2.835678-2.914447 5.631972-2.244911 7.325502zM742.672767 108.981806c2.756909 2.323681 5.710741 3.544598 7.679961 3.229522 1.969221-0.275691 2.717525-2.087374 1.890452-4.72613a18.431908 18.431908 0 0 0-5.789509-7.955653c-2.756909-2.323681-5.710741-3.544598-7.679962-3.229522-1.969221 0.275691-2.717525 2.087374-1.890452 4.72613 0.787688 2.599372 2.993216 5.631972 5.78951 7.955653z" fill="#E1E3FF" p-id="67474"></path><path d="M495.968769 24.029615c0 4.450439 10.751946 8.034421 24.024496 8.034422 13.311933 0 24.06388-3.544598 24.063879-7.995037 0-4.450439-10.751946-8.034421-24.024495-8.034422-13.311933 0-24.06388 3.583982-24.06388 8.034422z" fill="#E7E8FF" p-id="67475"></path><path d="M511.998228 654.377233m-354.459766 0a354.459766 354.459766 0 1 0 708.919532 0 354.459766 354.459766 0 1 0-708.919532 0Z" fill="#E7E9FF" p-id="67476"></path><path d="M511.998228 654.377233m-299.912347 0a299.912347 299.912347 0 1 0 599.824693 0 299.912347 299.912347 0 1 0-599.824693 0Z" fill="#C3C6FC" p-id="67477"></path><path d="M511.998228 654.377233m-272.658329 0a272.658329 272.658329 0 1 0 545.316658 0 272.658329 272.658329 0 1 0-545.316658 0Z" fill="#A1A6FF" p-id="67478"></path><path d="M506.838869 508.064118c-34.106906 0-56.004643 13.942084-79.083912 39.148112l30.719846 30.719846c11.303328-13.19378 25.206028-25.599872 42.417019-25.599872 9.649183 0 17.368529 2.953831 22.64604 8.664573 5.395665 5.828894 8.152575 14.375313 8.152575 24.969721 0 35.327823-37.809042 78.178071-100.193961 133.907023v32.373992H594.705506v-46.749305H540.355009c-7.640577 0-17.644219 0.630151-26.978327 1.457223 39.502572-40.093338 70.379956-83.298045 70.379956-123.509536 0-22.764194-7.75873-41.550561-21.188817-54.665573-13.390702-13.154396-32.610298-20.716204-55.728952-20.716204z" fill="#FFFFFF" p-id="67479"></path></svg>