<svg t="1710998594522" class="icon" viewBox="0 0 1280 1024" version="1.1" xmlns="http://www.w3.org/2000/svg" p-id="11178" width="128" height="128"><path d="M910.6432 493.0048h-56.832V341.2992a75.776 75.776 0 0 0-75.8272-75.8272H626.176v-56.832a94.8224 94.8224 0 1 0-189.5936 0v56.832h-151.552c-41.984 0-75.52 33.8944-75.52 75.8272L209.3056 485.4784h56.6272a102.4 102.4 0 0 1 0 204.8H209.3056l-0.256 144.128c0 41.8816 33.8944 75.776 75.8784 75.776h144.1792v-56.832a102.4 102.4 0 0 1 204.6976 0v56.7296h144.1792a75.776 75.776 0 0 0 75.776-75.8272v-151.8592h56.8832c52.224 0 94.8736-42.2912 94.8736-94.8224 0-52.3776-42.496-94.5664-94.8736-94.5664" fill="#FA2727" p-id="11179"></path><path d="M38.4 0h1024v1024H38.4z" fill="#F7F7F7" fill-opacity="0" p-id="11180"></path></svg>