<svg t="1708358426312" class="icon" viewBox="0 0 1024 1024" version="1.1" xmlns="http://www.w3.org/2000/svg" p-id="21788" width="128" height="128"><path d="M187.136 793.808c-57.328-65.632-91.52-148.464-91.52-238.48 0-213.2 191.76-386.032 428.336-386.032 236.56 0 428.336 172.832 428.336 386.032s-191.76 386.048-428.32 386.048a467.792 467.792 0 0 1-176.4-34.16s-128.88-71.968-160.432-113.408z" fill="#FFC974" p-id="21789"></path><path d="M44.016 957.2a23.2 23.2 0 0 1-10.352-43.968l229.008-114c5.904-2.976 12.8-3.232 18.976-0.768 51.104 20.48 105.632 30.864 162.08 30.864 218.8 0 396.8-159.152 396.8-354.8S662.512 119.728 443.712 119.728s-396.8 159.152-396.8 354.8c0 78.912 28.352 153.6 82.032 216a23.2 23.2 0 0 1-35.184 30.256C32.752 649.84 0.512 564.688 0.512 474.528c0-221.216 198.816-401.2 443.2-401.2 244.368 0 443.2 179.984 443.2 401.2s-198.832 401.2-443.2 401.2c-58.8 0-115.792-10.224-169.552-30.4l-219.824 109.44a23.2 23.2 0 0 1-10.32 2.432z" fill="#FF9400" p-id="21790"></path><path d="M244.624 420.08a72 72 0 1 0 0 144 72 72 0 0 0 0-144z m0.048 98.992a25.888 25.888 0 1 1 0.016-51.76 25.888 25.888 0 0 1-0.016 51.76zM446.624 420.08a72 72 0 1 0 0 144 72 72 0 0 0 0-144z m0.048 98.992a25.888 25.888 0 1 1 0.016-51.76 25.888 25.888 0 0 1-0.016 51.76zM648.624 420.08a72.016 72.016 0 0 0 0 144 72 72 0 1 0 0-144z m0.048 98.992a25.856 25.856 0 1 1 0-51.712 25.856 25.856 0 0 1 0 51.712z" fill="#FF9400" p-id="21791"></path></svg>