<svg t="1709290513840" class="icon" viewBox="0 0 1024 1024" version="1.1" xmlns="http://www.w3.org/2000/svg" p-id="6189" width="128" height="128"><path d="M916.02 508.672L760.985 401.408a64.835 64.835 0 0 1-27.956-53.504l0.461-188.57c0.154-53.76-61.44-84.326-104.192-51.712l-149.965 114.33a64.763 64.763 0 0 1-59.494 10.035l-179.2-58.675c-51.098-16.742-99.174 32.358-81.408 83.098l62.413 177.92c7.065 20.121 3.737 42.444-8.807 59.699L101.632 646.298c-31.693 43.417 0.154 104.294 53.862 103.065l188.519-4.352a64.76 64.76 0 0 1 54.067 26.829l110.438 152.832c31.488 43.571 99.277 32.102 114.688-19.354l51.917-173.26 173.21 161.894a38.108 38.108 0 0 0 24.32 10.24 38.1 38.1 0 0 0 29.696-12.083 38.154 38.154 0 0 0-1.843-54.016L729.6 678.349l169.42-54.58c51.15-16.486 61.236-84.48 17-115.097z m-533.351-8.858L324.045 606.31a38.22 38.22 0 0 1-33.536 19.815c-6.247 0-12.544-1.536-18.381-4.762-18.483-10.189-25.242-33.433-15.053-51.917l54.784-99.532-26.06-87.143c-6.042-20.224 5.427-41.523 25.65-47.565 20.225-6.041 41.524 5.428 47.565 25.652l28.314 94.72c4.454 14.643 2.765 30.77-4.66 44.236z" fill="#BD50D3" p-id="6190"></path><path d="M788.122 420.198l-27.136-18.79a64.835 64.835 0 0 1-27.956-53.504l0.461-188.57c0.154-53.76-61.44-84.326-104.192-51.712l-149.965 114.33a64.737 64.737 0 0 1-59.494 10.035l-179.2-58.675c-51.098-16.742-99.174 32.358-81.408 83.098l62.413 177.92c7.065 20.121 3.737 42.444-8.807 59.699L101.632 646.298c-31.693 43.417 0.154 104.294 53.862 103.065l188.519-4.352a64.76 64.76 0 0 1 54.067 26.829l47.411 65.638c178.074-66.61 311.347-224.819 342.63-417.28z m-405.453 79.616L324.045 606.31a38.22 38.22 0 0 1-33.536 19.815c-6.247 0-12.544-1.536-18.381-4.762-18.483-10.189-25.242-33.433-15.053-51.917l54.784-99.532-26.06-87.143c-6.042-20.224 5.427-41.523 25.65-47.565 20.225-6.041 41.524 5.428 47.565 25.652l28.314 94.72c4.454 14.643 2.765 30.77-4.66 44.236z" fill="#C65EDB" p-id="6191"></path><path d="M101.632 646.298c-7.68 10.547-11.571 22.067-12.39 33.536 6.758 0.256 13.516 0.512 20.326 0.512 297.318 0 538.368-241.05 538.368-538.368 0-14.695-0.768-29.236-1.894-43.674-5.786 2.202-11.367 5.274-16.743 9.318l-149.965 114.33a64.737 64.737 0 0 1-59.494 10.035l-179.2-58.675c-51.098-16.742-99.174 32.358-81.408 83.098l62.413 177.92c7.065 20.121 3.737 42.444-8.807 59.699L101.632 646.298z m155.494-76.852l54.784-99.532-26.06-87.143c-6.042-20.224 5.427-41.523 25.65-47.565 20.225-6.041 41.524 5.428 47.566 25.652l28.313 94.72c4.403 14.694 2.663 30.822-4.71 44.236L324.045 606.31a38.22 38.22 0 0 1-33.536 19.815c-6.247 0-12.544-1.536-18.381-4.762a38.21 38.21 0 0 1-15.002-51.917z" fill="#CA6EE0" p-id="6192"></path><path d="M419.84 231.987l-179.2-58.675c-51.098-16.742-99.174 32.358-81.408 83.098l60.98 173.875c23.551-12.135 46.08-25.959 67.48-41.267l-1.842-6.247c-6.042-20.224 5.427-41.523 25.65-47.565 12.033-3.584 24.474-0.921 33.844 6.042 33.178-31.642 62.413-67.38 86.682-106.598-4.096-0.564-8.192-1.332-12.186-2.663z" fill="#D786EA" p-id="6193"></path></svg>