<svg t="1710948801282" class="icon" viewBox="0 0 1024 1024" version="1.1" xmlns="http://www.w3.org/2000/svg" p-id="11879" width="128" height="128"><path d="M112.64 151.893333c-34.133333 0-61.44 27.306667-61.44 61.44S80.213333 273.066667 112.64 273.066667s61.44-27.306667 61.44-61.44-27.306667-59.733333-61.44-59.733334zM919.893333 151.893333H332.8c-29.013333 0-51.2 22.186667-51.2 51.2V221.866667c0 29.013333 22.186667 51.2 51.2 51.2H921.6c29.013333 0 51.2-22.186667 51.2-51.2v-18.773334c-1.706667-29.013333-23.893333-51.2-52.906667-51.2zM112.64 450.56C78.506667 450.56 51.2 477.866667 51.2 512s27.306667 61.44 61.44 61.44 61.44-27.306667 61.44-61.44-27.306667-61.44-61.44-61.44zM919.893333 450.56H332.8c-29.013333 0-51.2 22.186667-51.2 51.2v18.773333c0 29.013333 22.186667 51.2 51.2 51.2H921.6c29.013333 0 51.2-22.186667 51.2-51.2v-18.773333c-1.706667-27.306667-23.893333-51.2-52.906667-51.2zM112.64 750.933333c-34.133333 0-61.44 27.306667-61.44 61.44s27.306667 61.44 61.44 61.44 61.44-27.306667 61.44-61.44S146.773333 750.933333 112.64 750.933333zM919.893333 750.933333H332.8c-29.013333 0-51.2 22.186667-51.2 51.2v18.773334c0 29.013333 22.186667 51.2 51.2 51.2H921.6c29.013333 0 51.2-22.186667 51.2-51.2V802.133333c-1.706667-29.013333-23.893333-51.2-52.906667-51.2z" fill="#7292ed" p-id="11880"></path></svg>