<svg height="1291" node-id="1" sillyvg="true" template-height="1291" template-width="1430" version="1.1" viewBox="0 0 1430 1291" width="1430" xmlns="http://www.w3.org/2000/svg" xmlns:xlink="http://www.w3.org/1999/xlink"><defs node-id="60"><linearGradient gradientUnits="userSpaceOnUse" id="_未命名的渐变_10" node-id="5" spreadMethod="pad" x1="714.93" x2="714.93" y1="1290.92" y2="995.69"><stop offset="0" stop-color="#f7fbff" stop-opacity="0.5"/><stop offset="1" stop-color="#ecf5ff"/></linearGradient><linearGradient gradientUnits="userSpaceOnUse" id="_未命名的渐变_15" node-id="8" spreadMethod="pad" x1="1227.25" x2="1007.27" y1="66.57" y2="66.57"><stop offset="0" stop-color="#f7fbff"/><stop offset="1" stop-color="#ecf5ff"/></linearGradient><linearGradient gradientUnits="userSpaceOnUse" id="_未命名的渐变_15-2" node-id="11" spreadMethod="pad" x1="344.06" x2="191.03" y1="283.66" y2="283.66"><stop offset="0" stop-color="#f7fbff"/><stop offset="1" stop-color="#ecf5ff"/></linearGradient><linearGradient gradientUnits="userSpaceOnUse" id="_未命名的渐变_14" node-id="14" spreadMethod="pad" x1="438.63" x2="1116.5" y1="757.12" y2="757.12"><stop offset="0" stop-color="#dcedff"/><stop offset="1" stop-color="#4095e6"/></linearGradient><linearGradient gradientTransform="matrix(0.95686431 0.29053519 -0.29053519 0.95686431 1487 -440.7)" gradientUnits="userSpaceOnUse" id="_未命名的渐变_42" node-id="17" spreadMethod="pad" x1="-616.99" x2="-41.09" y1="1456.12" y2="1456.12"><stop offset="0" stop-color="#fafafd"/><stop offset="1" stop-color="#bedcfa"/></linearGradient><linearGradient gradientTransform="matrix(0.95686431 0.29053519 -0.29053519 0.95686431 1487 -440.7)" gradientUnits="userSpaceOnUse" id="_未命名的渐变_42-2" node-id="20" spreadMethod="pad" x1="-236.16" x2="-135.59" y1="1242.65" y2="1242.65"><stop offset="0" stop-color="#fafafd"/><stop offset="1" stop-color="#bedcfa"/></linearGradient><linearGradient gradientUnits="userSpaceOnUse" id="_未命名的渐变_14-2" node-id="23" spreadMethod="pad" x1="687.92" x2="687.92" y1="1020.55" y2="496.45"><stop offset="0" stop-color="#dcedff"/><stop offset="1" stop-color="#4095e6"/></linearGradient><linearGradient gradientUnits="userSpaceOnUse" id="_未命名的渐变_42-3" node-id="24" spreadMethod="pad" x1="402.21" x2="978.1" y1="862.37" y2="862.37"><stop offset="0" stop-color="#fafafd"/><stop offset="1" stop-color="#bedcfa"/></linearGradient><linearGradient gradientUnits="userSpaceOnUse" id="_未命名的渐变_42-4" node-id="25" spreadMethod="pad" x1="783.03" x2="883.6" y1="648.91" y2="648.91"><stop offset="0" stop-color="#fafafd"/><stop offset="1" stop-color="#bedcfa"/></linearGradient><clipPath id="clippath" node-id="12"><path d="M 762.81 1028.35 L 989.34 1096.96 L 1148.41 572.95 L 925.79 505.52 L 804.85 622.56 L 822.59 943.99 L 762.81 1028.35 Z" fill="#000000" fill-rule="nonzero" node-id="117" stroke="none" target-height="591.43994" target-width="385.60004" target-x="762.81" target-y="505.52"/></clipPath><clipPath id="clippath-1" node-id="21"><path d="M 748.86 1022.32 L 381.05 1022.32 L 381.05 474.69 L 748.86 474.69 L 667.12 621.81 L 781.55 924.23 L 748.86 1022.32 Z" fill="#000000" fill-rule="nonzero" node-id="121" stroke="none" target-height="547.63" target-width="400.5" target-x="381.05" target-y="474.69"/></clipPath></defs><g node-id="203"><g node-id="204"><path d="M 1429.86 1143.31 C 1429.86 1182.46 1354.54 1220.01 1220.46 1247.69 C 1086.39 1275.38 904.54 1290.93 714.93 1290.93 C 525.32 1290.93 343.47 1275.38 209.40 1247.69 C 75.32 1220.01 0.00 1182.46 0.00 1143.31 C 0.00 1104.16 75.32 1066.61 209.40 1038.93 C 343.47 1011.24 525.32 995.69 714.93 995.69 C 904.54 995.69 1086.39 1011.24 1220.46 1038.93 C 1354.54 1066.61 1429.86 1104.16 1429.86 1143.31 Z" fill="url(#_未命名的渐变_10)" fill-rule="nonzero" group-id="1,2" node-id="130" stroke="none" target-height="295.24005" target-width="1429.86" target-x="0" target-y="995.69"/><g node-id="206"><path d="M 1162.16 989.30 L 1176.10 989.30 C 1178.02 989.30 1179.58 990.86 1179.58 992.78 L 1179.58 992.78 L 1179.58 1055.50 C 1179.58 1059.35 1176.46 1062.47 1172.61 1062.47 L 1165.64 1062.47 C 1161.79 1062.47 1158.67 1059.35 1158.67 1055.50 L 1158.67 1055.50 L 1158.67 992.78 C 1158.67 990.86 1160.23 989.30 1162.15 989.30 L 1162.15 989.30 Z" fill="#e9f0f4" fill-rule="nonzero" group-id="1,2,4" node-id="134" stroke="none" target-height="73.16998" target-width="20.909912" target-x="1158.67" target-y="989.3"/><path d="M 1169.13 846.43 L 1169.13 1020.66 L 1099.44 989.30 L 1169.13 846.43 Z" fill="#e1eaef" fill-rule="nonzero" group-id="1,2,4" node-id="136" stroke="none" target-height="174.22998" target-width="69.69006" target-x="1099.44" target-y="846.43"/><path d="M 1169.13 846.43 L 1169.13 1020.66 L 1238.82 989.30 L 1169.13 846.43 Z" fill="#f5f7fa" fill-rule="nonzero" group-id="1,2,4" node-id="138" stroke="none" target-height="174.22998" target-width="69.68994" target-x="1169.13" target-y="846.43"/></g><g node-id="207"><path d="M 1263.74 988.50 L 1282.24 988.50 C 1284.79 988.50 1286.87 990.57 1286.87 993.13 L 1286.87 993.13 L 1286.87 1076.38 C 1286.87 1081.49 1282.73 1085.63 1277.62 1085.63 L 1268.37 1085.63 C 1263.26 1085.63 1259.12 1081.49 1259.12 1076.38 L 1259.12 1076.38 L 1259.12 993.13 C 1259.12 990.58 1261.19 988.50 1263.75 988.50 L 1263.75 988.50 Z" fill="#e9f0f4" fill-rule="nonzero" group-id="1,2,5" node-id="143" stroke="none" target-height="97.130005" target-width="27.75" target-x="1259.12" target-y="988.5"/><path d="M 1272.99 798.87 L 1272.99 1030.13 L 1180.49 988.50 L 1272.99 798.87 Z" fill="#e1eaef" fill-rule="nonzero" group-id="1,2,5" node-id="145" stroke="none" target-height="231.26001" target-width="92.5" target-x="1180.49" target-y="798.87"/><path d="M 1272.99 798.87 L 1272.99 1030.13 L 1365.49 988.50 L 1272.99 798.87 Z" fill="#f5f7fa" fill-rule="nonzero" group-id="1,2,5" node-id="147" stroke="none" target-height="231.26001" target-width="92.5" target-x="1272.99" target-y="798.87"/></g><g node-id="208"><path d="M 244.89 976.92 L 263.39 976.92 C 265.94 976.92 268.02 978.99 268.02 981.55 L 268.02 981.55 L 268.02 1064.80 C 268.02 1069.91 263.88 1074.05 258.77 1074.05 L 249.52 1074.05 C 244.41 1074.05 240.27 1069.91 240.27 1064.80 L 240.27 1064.80 L 240.27 981.55 C 240.27 979.00 242.34 976.92 244.90 976.92 L 244.90 976.92 Z" fill="#e9f0f4" fill-rule="nonzero" group-id="1,2,6" node-id="152" stroke="none" target-height="97.130066" target-width="27.749985" target-x="240.27" target-y="976.92"/><path d="M 254.14 787.29 L 254.14 1018.55 L 161.64 976.92 L 254.14 787.29 Z" fill="#e1eaef" fill-rule="nonzero" group-id="1,2,6" node-id="154" stroke="none" target-height="231.26001" target-width="92.5" target-x="161.64" target-y="787.29"/><path d="M 254.14 787.29 L 254.14 1018.55 L 346.64 976.92 L 254.14 787.29 Z" fill="#f5f7fa" fill-rule="nonzero" group-id="1,2,6" node-id="156" stroke="none" target-height="231.26001" target-width="92.500015" target-x="254.14" target-y="787.29"/></g><path d="M 1204.13 65.71 C 1204.05 65.68 1203.99 65.60 1203.99 65.52 C 1204.02 28.87 1175.53 0.00 1140.41 0.00 C 1119.72 0.00 1101.40 9.91 1089.77 25.19 C 1089.72 25.26 1089.63 25.29 1089.55 25.26 C 1085.52 23.92 1081.22 23.16 1076.74 23.16 C 1054.36 23.16 1036.22 41.30 1036.22 63.68 C 1036.22 63.85 1036.24 64.02 1036.25 64.20 C 1019.35 67.03 1006.57 82.02 1007.31 99.88 C 1008.09 118.79 1024.84 133.15 1043.76 133.15 L 1191.12 133.15 C 1209.06 133.15 1225.09 120.16 1227.05 102.33 C 1228.88 85.56 1218.76 70.91 1204.14 65.71 Z" fill="url(#_未命名的渐变_15)" fill-rule="nonzero" group-id="1,2" node-id="159" stroke="none" target-height="133.15" target-width="222.31" target-x="1006.57" target-y="0"/><path d="M 327.98 283.05 C 327.92 283.03 327.89 282.98 327.89 282.92 C 327.91 257.43 308.09 237.34 283.66 237.34 C 269.27 237.34 256.52 244.23 248.43 254.86 C 248.39 254.91 248.33 254.93 248.27 254.91 C 245.47 253.97 242.48 253.45 239.36 253.45 C 223.79 253.45 211.17 266.07 211.17 281.64 C 211.17 281.76 211.19 281.88 211.19 282.00 C 199.43 283.97 190.55 294.39 191.06 306.82 C 191.60 319.97 203.25 329.96 216.42 329.96 L 318.93 329.96 C 331.41 329.96 342.56 320.92 343.92 308.52 C 345.20 296.85 338.15 286.66 327.99 283.05 Z" fill="url(#_未命名的渐变_15-2)" fill-rule="nonzero" group-id="1,2" node-id="161" stroke="none" target-height="92.619995" target-width="154.65001" target-x="190.55" target-y="237.34"/><path d="M 338.65 1134.63 C 338.65 1144.18 437.16 1151.99 559.23 1151.99 C 681.30 1151.99 779.81 1144.18 779.81 1134.63 C 779.81 1125.08 681.29 1117.26 559.23 1117.26 C 437.16 1117.19 338.65 1124.64 338.65 1134.62" fill="#ced6dd" fill-opacity="0.3" fill-rule="nonzero" group-id="1,2,7" node-id="165" stroke="none" target-height="34.80005" target-width="441.16" target-x="338.65" target-y="1117.19"/><path d="M 776.03 1138.23 C 774.30 1147.65 830.33 1163.93 901.51 1174.57 C 972.69 1185.20 1031.55 1186.08 1033.28 1176.66 C 1035.01 1167.24 978.97 1150.94 907.80 1140.31 C 836.63 1129.61 777.84 1128.37 776.03 1138.22" fill="#ced6dd" fill-opacity="0.3" fill-rule="nonzero" group-id="1,2,8" node-id="170" stroke="none" target-height="57.70996" target-width="260.71002" target-x="774.3" target-y="1128.37"/></g><g node-id="205"><g node-id="211"><g clip-path="url(#clippath)" group-id="1,3,9" node-id="178"><path d="M 1087.10 577.23 L 620.26 435.52 C 598.37 428.88 575.24 441.23 568.59 463.12 L 458.44 826.00 C 456.41 829.39 455.34 832.90 455.19 836.69 L 440.42 885.35 C 433.78 907.24 446.13 930.37 468.02 937.02 L 934.86 1078.73 C 956.75 1085.37 979.88 1073.02 986.53 1051.13 L 1114.70 628.90 C 1121.34 607.01 1108.99 583.88 1087.10 577.23 Z" fill="url(#_未命名的渐变_14)" fill-rule="nonzero" group-id="1,3,9,11" node-id="180" stroke="none" target-height="656.49" target-width="687.55994" target-x="433.78" target-y="428.88"/><path d="M 992.21 959.01 C 986.55 917.54 973.80 877.16 953.39 840.46 C 952.21 838.34 951.01 836.24 949.80 834.17 C 941.15 819.36 927.57 810.24 910.52 807.56 C 883.64 803.40 848.95 816.06 804.59 846.14 C 794.00 853.27 784.18 860.63 776.01 866.99 C 759.39 819.57 725.28 730.97 687.92 683.59 C 676.84 669.55 661.80 662.48 644.17 662.80 C 625.02 663.16 603.59 672.67 578.89 691.86 C 564.59 702.87 549.12 717.19 532.57 734.52 L 473.67 806.45 C 462.16 820.51 453.80 836.84 449.16 854.37 C 449.14 854.45 449.13 854.50 449.13 854.50 C 437.35 893.31 459.58 934.42 498.79 946.32 L 908.51 1070.69 C 909.91 1071.11 934.03 1078.39 935.44 1078.73 C 978.00 1089.03 999.08 1051.46 998.21 1008.99 C 998.11 1004.16 997.73 999.26 997.06 994.36 L 992.23 958.97 Z" fill="url(#_未命名的渐变_42)" fill-rule="nonzero" group-id="1,3,9,11,13" node-id="184" stroke="none" target-height="426.55005" target-width="561.73" target-x="437.35" target-y="662.48"/><path d="M 998.47 694.38 C 998.47 722.15 975.95 744.67 948.18 744.67 C 920.41 744.67 897.89 722.15 897.89 694.38 C 897.89 666.61 920.41 644.09 948.18 644.09 C 975.95 644.09 998.47 666.61 998.47 694.38 Z" fill="url(#_未命名的渐变_42-2)" fill-rule="nonzero" group-id="1,3,9,11,13" node-id="186" stroke="none" target-height="100.579956" target-width="100.579956" target-x="897.89" target-y="644.09"/></g></g><g clip-path="url(#clippath-1)" group-id="1,3,10" node-id="193"><path d="M 932.21 496.45 L 444.34 496.45 C 421.46 496.45 402.92 514.99 402.92 537.87 L 402.92 917.10 C 401.96 920.93 401.96 924.60 402.92 928.27 L 402.92 979.12 C 402.92 1002.00 421.46 1020.54 444.34 1020.54 L 932.21 1020.54 C 955.09 1020.54 973.63 1002.00 973.63 979.12 L 973.63 537.86 C 973.63 514.98 955.09 496.44 932.21 496.44 Z" fill="url(#_未命名的渐变_14-2)" fill-rule="nonzero" group-id="1,3,10,12" node-id="195" stroke="none" target-height="524.1" target-width="571.67004" target-x="401.96" target-y="496.44"/><path d="M 952.32 889.34 C 934.85 851.30 910.93 816.37 880.74 787.18 C 878.99 785.49 877.24 783.83 875.48 782.21 C 862.90 770.56 847.26 765.77 830.16 768.16 C 803.23 771.99 773.71 794.18 740.01 835.85 C 731.95 845.75 724.69 855.65 718.72 864.11 C 689.05 823.56 630.66 748.69 581.15 714.21 C 566.47 703.99 550.02 701.60 533.25 707.03 C 515.03 712.94 497.29 728.26 479.22 753.80 C 468.74 768.49 458.09 786.69 447.29 808.08 L 411.83 894.02 C 404.90 910.81 401.64 928.87 402.29 947.00 C 402.29 947.09 402.29 947.13 402.29 947.13 C 402.29 987.69 435.50 1020.56 476.48 1020.56 L 904.66 1020.56 C 906.12 1020.56 931.32 1020.52 932.76 1020.44 C 976.47 1017.93 985.74 975.86 972.57 935.48 C 971.07 930.88 969.28 926.31 967.22 921.82 L 952.31 889.36 Z" fill="url(#_未命名的渐变_42-3)" fill-rule="nonzero" group-id="1,3,10,12,14" node-id="199" stroke="none" target-height="318.96002" target-width="584.1" target-x="401.64" target-y="701.6"/><path d="M 883.61 648.91 C 883.61 676.68 861.09 699.20 833.32 699.20 C 805.55 699.20 783.03 676.68 783.03 648.91 C 783.03 621.14 805.55 598.62 833.32 598.62 C 861.09 598.62 883.61 621.14 883.61 648.91 Z" fill="url(#_未命名的渐变_42-4)" fill-rule="nonzero" group-id="1,3,10,12,14" node-id="201" stroke="none" target-height="100.58002" target-width="100.579956" target-x="783.03" target-y="598.62"/></g></g></g></svg>