<svg height="1291" node-id="1" sillyvg="true" template-height="1291" template-width="1430" version="1.1" viewBox="0 0 1430 1291" width="1430" xmlns="http://www.w3.org/2000/svg" xmlns:xlink="http://www.w3.org/1999/xlink"><defs node-id="40"><linearGradient gradientUnits="userSpaceOnUse" id="_未命名的渐变_10" node-id="5" spreadMethod="pad" x1="714.93" x2="714.93" y1="1290.92" y2="995.69"><stop offset="0" stop-color="#f7fbff" stop-opacity="0.5"/><stop offset="1" stop-color="#ecf5ff"/></linearGradient><linearGradient gradientUnits="userSpaceOnUse" id="_未命名的渐变_15" node-id="8" spreadMethod="pad" x1="1227.25" x2="1007.27" y1="66.57" y2="66.57"><stop offset="0" stop-color="#f7fbff"/><stop offset="1" stop-color="#ecf5ff"/></linearGradient><linearGradient gradientUnits="userSpaceOnUse" id="_未命名的渐变_15-2" node-id="11" spreadMethod="pad" x1="344.06" x2="191.03" y1="283.66" y2="283.66"><stop offset="0" stop-color="#f7fbff"/><stop offset="1" stop-color="#ecf5ff"/></linearGradient><linearGradient gradientUnits="userSpaceOnUse" id="_未命名的渐变_14" node-id="12" spreadMethod="pad" x1="714.93" x2="714.93" y1="1068.14" y2="291"><stop offset="0" stop-color="#dcedff"/><stop offset="1" stop-color="#4095e6"/></linearGradient><linearGradient gradientUnits="userSpaceOnUse" id="_未命名的渐变_42" node-id="15" spreadMethod="pad" x1="714.93" x2="714.93" y1="747.09" y2="425.14"><stop offset="0" stop-color="#fafafd"/><stop offset="1" stop-color="#bedcfa"/></linearGradient></defs><g node-id="121"><g node-id="122"><path d="M 1429.86 1143.31 C 1429.86 1182.46 1354.54 1220.01 1220.46 1247.69 C 1086.39 1275.38 904.54 1290.93 714.93 1290.93 C 525.32 1290.93 343.47 1275.38 209.40 1247.69 C 75.32 1220.01 0.00 1182.46 0.00 1143.31 C 0.00 1104.16 75.32 1066.61 209.40 1038.93 C 343.47 1011.24 525.32 995.69 714.93 995.69 C 904.54 995.69 1086.39 1011.24 1220.46 1038.93 C 1354.54 1066.61 1429.86 1104.16 1429.86 1143.31 Z" fill="url(#_未命名的渐变_10)" fill-rule="nonzero" group-id="1,2" node-id="78" stroke="none" target-height="295.24005" target-width="1429.86" target-x="0" target-y="995.69"/><g node-id="123"><path d="M 1162.16 989.30 L 1176.10 989.30 C 1178.02 989.30 1179.58 990.86 1179.58 992.78 L 1179.58 992.78 L 1179.58 1055.50 C 1179.58 1059.35 1176.46 1062.47 1172.61 1062.47 L 1165.64 1062.47 C 1161.79 1062.47 1158.67 1059.35 1158.67 1055.50 L 1158.67 1055.50 L 1158.67 992.78 C 1158.67 990.86 1160.23 989.30 1162.15 989.30 L 1162.15 989.30 Z" fill="#e9f0f4" fill-rule="nonzero" group-id="1,2,3" node-id="82" stroke="none" target-height="73.16998" target-width="20.909912" target-x="1158.67" target-y="989.3"/><path d="M 1169.13 846.43 L 1169.13 1020.66 L 1099.44 989.30 L 1169.13 846.43 Z" fill="#e1eaef" fill-rule="nonzero" group-id="1,2,3" node-id="84" stroke="none" target-height="174.22998" target-width="69.69006" target-x="1099.44" target-y="846.43"/><path d="M 1169.13 846.43 L 1169.13 1020.66 L 1238.82 989.30 L 1169.13 846.43 Z" fill="#f5f7fa" fill-rule="nonzero" group-id="1,2,3" node-id="86" stroke="none" target-height="174.22998" target-width="69.68994" target-x="1169.13" target-y="846.43"/></g><g node-id="124"><path d="M 1263.74 988.50 L 1282.24 988.50 C 1284.79 988.50 1286.87 990.57 1286.87 993.13 L 1286.87 993.13 L 1286.87 1076.38 C 1286.87 1081.49 1282.73 1085.63 1277.62 1085.63 L 1268.37 1085.63 C 1263.26 1085.63 1259.12 1081.49 1259.12 1076.38 L 1259.12 1076.38 L 1259.12 993.13 C 1259.12 990.58 1261.19 988.50 1263.75 988.50 L 1263.75 988.50 Z" fill="#e9f0f4" fill-rule="nonzero" group-id="1,2,4" node-id="91" stroke="none" target-height="97.130005" target-width="27.75" target-x="1259.12" target-y="988.5"/><path d="M 1272.99 798.87 L 1272.99 1030.13 L 1180.49 988.50 L 1272.99 798.87 Z" fill="#e1eaef" fill-rule="nonzero" group-id="1,2,4" node-id="93" stroke="none" target-height="231.26001" target-width="92.5" target-x="1180.49" target-y="798.87"/><path d="M 1272.99 798.87 L 1272.99 1030.13 L 1365.49 988.50 L 1272.99 798.87 Z" fill="#f5f7fa" fill-rule="nonzero" group-id="1,2,4" node-id="95" stroke="none" target-height="231.26001" target-width="92.5" target-x="1272.99" target-y="798.87"/></g><g node-id="125"><path d="M 244.89 976.92 L 263.39 976.92 C 265.94 976.92 268.02 978.99 268.02 981.55 L 268.02 981.55 L 268.02 1064.80 C 268.02 1069.91 263.88 1074.05 258.77 1074.05 L 249.52 1074.05 C 244.41 1074.05 240.27 1069.91 240.27 1064.80 L 240.27 1064.80 L 240.27 981.55 C 240.27 979.00 242.34 976.92 244.90 976.92 L 244.90 976.92 Z" fill="#e9f0f4" fill-rule="nonzero" group-id="1,2,5" node-id="100" stroke="none" target-height="97.130066" target-width="27.749985" target-x="240.27" target-y="976.92"/><path d="M 254.14 787.29 L 254.14 1018.55 L 161.64 976.92 L 254.14 787.29 Z" fill="#e1eaef" fill-rule="nonzero" group-id="1,2,5" node-id="102" stroke="none" target-height="231.26001" target-width="92.5" target-x="161.64" target-y="787.29"/><path d="M 254.14 787.29 L 254.14 1018.55 L 346.64 976.92 L 254.14 787.29 Z" fill="#f5f7fa" fill-rule="nonzero" group-id="1,2,5" node-id="104" stroke="none" target-height="231.26001" target-width="92.500015" target-x="254.14" target-y="787.29"/></g><path d="M 1204.13 65.71 C 1204.05 65.68 1203.99 65.60 1203.99 65.52 C 1204.02 28.87 1175.53 0.00 1140.41 0.00 C 1119.72 0.00 1101.40 9.91 1089.77 25.19 C 1089.72 25.26 1089.63 25.29 1089.55 25.26 C 1085.52 23.92 1081.22 23.16 1076.74 23.16 C 1054.36 23.16 1036.22 41.30 1036.22 63.68 C 1036.22 63.85 1036.24 64.02 1036.25 64.20 C 1019.35 67.03 1006.57 82.02 1007.31 99.88 C 1008.09 118.79 1024.84 133.15 1043.76 133.15 L 1191.12 133.15 C 1209.06 133.15 1225.09 120.16 1227.05 102.33 C 1228.88 85.56 1218.76 70.91 1204.14 65.71 Z" fill="url(#_未命名的渐变_15)" fill-rule="nonzero" group-id="1,2" node-id="107" stroke="none" target-height="133.15" target-width="222.31" target-x="1006.57" target-y="0"/><path d="M 327.98 283.05 C 327.92 283.03 327.89 282.98 327.89 282.92 C 327.91 257.43 308.09 237.34 283.66 237.34 C 269.27 237.34 256.52 244.23 248.43 254.86 C 248.39 254.91 248.33 254.93 248.27 254.91 C 245.47 253.97 242.48 253.45 239.36 253.45 C 223.79 253.45 211.17 266.07 211.17 281.64 C 211.17 281.76 211.19 281.88 211.19 282.00 C 199.43 283.97 190.55 294.39 191.06 306.82 C 191.60 319.97 203.25 329.96 216.42 329.96 L 318.93 329.96 C 331.41 329.96 342.56 320.92 343.92 308.52 C 345.20 296.85 338.15 286.66 327.99 283.05 Z" fill="url(#_未命名的渐变_15-2)" fill-rule="nonzero" group-id="1,2" node-id="109" stroke="none" target-height="92.619995" target-width="154.65001" target-x="190.55" target-y="237.34"/><path d="M 639.96 1134.63 C 639.96 1144.18 673.57 1151.99 715.22 1151.99 C 756.87 1151.99 790.48 1144.18 790.48 1134.63 C 790.48 1125.08 756.87 1117.26 715.22 1117.26 C 673.57 1117.19 639.96 1124.64 639.96 1134.62" fill="#ced6dd" fill-opacity="0.68" fill-rule="nonzero" group-id="1,2,6" node-id="113" stroke="none" target-height="34.80005" target-width="150.51996" target-x="639.96" target-y="1117.19"/></g><path d="M 714.93 291.00 C 537.86 291.00 392.98 434.98 392.98 612.95 C 392.98 693.44 422.49 770.35 477.04 830.26 L 714.92 1068.14 L 952.80 830.26 C 1007.35 770.34 1036.86 693.43 1036.86 612.95 C 1036.86 434.98 891.98 291.00 714.91 291.00 Z" fill="url(#_未命名的渐变_14)" fill-rule="nonzero" group-id="1" node-id="117" stroke="none" target-height="777.14" target-width="643.88" target-x="392.98" target-y="291"/><path d="M 875.90 586.11 C 875.90 675.01 803.83 747.08 714.93 747.08 C 626.03 747.08 553.96 675.01 553.96 586.11 C 553.96 497.21 626.03 425.14 714.93 425.14 C 803.83 425.14 875.90 497.21 875.90 586.11 Z" fill="url(#_未命名的渐变_42)" fill-rule="nonzero" group-id="1" node-id="119" stroke="none" target-height="321.94" target-width="321.94" target-x="553.96" target-y="425.14"/></g></svg>