<svg xmlns="http://www.w3.org/2000/svg" version="1.1" id="图层_1" x="0px" y="0px" width="194.409" height="181.27606" viewBox="0.71077377 0.39999998 53.289227 49.689373" xml:space="preserve" class="style-removed" preserveAspectRatio="none" data-parent="shape_ksMm8e7l2h">


<g id="g15">
	<path d="m 31.3,48 c -0.1,0 -0.1,0 -0.2,0 -0.7,0 -1.4,0 -2,-0.1 -0.2,0 -0.3,0 -0.5,-0.1 h -0.2 c -0.4,0 -0.8,-0.1 -1.2,-0.2 -0.4,-0.1 -0.7,-0.1 -1.1,-0.2 L 25.8,47.3 C 24.9,47.1 24,46.8 23.2,46.5 H 23.1 C 15.2,43.4 9.8,36.3 9.1,28 9,27.9 8,15.5 18.8,9.1 23.4,6.4 29,5.9 34.7,7.8 c 4.1,1.4 7.4,4.3 9.4,8.3 1.9,4 2.3,8.5 0.9,12.7 -1,3.3 -3.3,6 -6.3,7.5 -2.9,1.5 -6.2,1.7 -9.3,0.7 -4.9,-1.7 -7.6,-7.2 -6,-12.3 0.6,-1.8 1.8,-3.3 3.5,-4.2 1.7,-0.9 3.6,-1 5.4,-0.4 1.3,0.4 2.4,1.4 3,2.6 0.6,1.3 0.7,2.7 0.3,4 -0.3,0.9 -0.9,1.7 -1.8,2.2 -0.9,0.5 -1.9,0.5 -2.8,0.2 -0.6,-0.2 -1.3,-0.2 -1.8,0.1 -0.6,0.3 -1.1,0.8 -1.3,1.5 -0.4,1.3 0.3,2.8 1.6,3.2 2.2,0.7 4.5,0.6 6.5,-0.5 2,-1.1 3.6,-2.9 4.3,-5.1 0.8,-2.6 0.6,-5.5 -0.6,-8 -1.2,-2.5 -3.3,-4.3 -5.8,-5.2 -3,-1 -6.3,-0.8 -9.1,0.7 -2.9,1.5 -5,4 -6,7.2 -2.5,7.8 1.6,16.2 9.2,18.7 4.3,1.5 8.9,1.1 13,-0.9 4.2,-2.1 7.4,-5.9 8.8,-10.5 C 51.6,24.8 51.1,18.9 48.6,13.7 46.1,8.5 41.7,4.7 36.4,2.9 31.9,1.4 26.6,1 22,2.1 12,4.1 4.5,13.2 4.5,24 c 0,12.6 10,25.9 28.4,23.9 0.2,0 0.4,-0.1 0.5,-0.1 -0.5,0 -1,0.1 -1.6,0.1 C 31.5,48 31.4,48 31.3,48 Z" fill="#ffd100" id="path14"/>
	<path d="m 54,23.1 v -0.3 c 0,-0.3 0,-0.6 0,-1 0,-0.5 -0.1,-1 -0.2,-1.5 V 20 c 0,-0.2 0,-0.3 -0.1,-0.5 -0.1,-0.6 -0.2,-1.1 -0.4,-1.7 l -0.1,-0.2 c 0,-0.1 -0.1,-0.2 -0.1,-0.4 -0.2,-0.5 -0.3,-1.1 -0.5,-1.6 L 52.5,15.4 C 52.5,15.3 52.4,15.1 52.4,15 52.2,14.5 52,14.1 51.8,13.6 L 51.7,13.3 C 51.6,13.1 51.6,13 51.5,12.8 51.3,12.4 51.1,12.1 50.9,11.8 L 50.7,11.4 C 50.6,11.2 50.5,11 50.4,10.9 50.2,10.6 50,10.3 49.8,10 L 49.5,9.6 C 49.4,9.4 49.2,9.2 49.1,9.1 48.9,8.8 48.6,8.5 48.3,8.2 L 48,7.9 C 47.9,7.7 47.7,7.6 47.6,7.5 47.3,7.2 46.9,6.8 46.6,6.5 L 46.4,6.3 C 46.3,6.2 46.2,6.1 46.1,6 45.7,5.6 45.3,5.3 44.8,5 L 44.6,4.9 C 44.5,4.8 44.4,4.8 44.3,4.7 43.8,4.3 43.3,4 42.9,3.8 L 42.7,3.7 C 42.6,3.7 42.6,3.6 42.5,3.6 42,3.3 41.5,3 41,2.8 L 40.8,2.7 C 40.7,2.7 40.6,2.6 40.5,2.6 40,2.2 39.5,2 39,1.8 L 38.8,1.7 C 38.7,1.7 38.6,1.6 38.4,1.6 38,1.5 37.6,1.4 37.2,1.3 L 36.8,1.2 C 36.6,1.1 36.4,1 36.2,1 35.9,0.9 35.6,0.9 35.3,0.8 L 34.8,0.7 c -0.3,0 -0.6,-0.1 -0.9,-0.1 -0.3,0 -0.5,0 -0.8,-0.1 h -0.4 c -0.4,0 -0.7,-0.1 -1.1,-0.1 -0.3,0 -0.7,0 -1,0 h -0.3 c -0.3,0 -0.6,0 -0.9,0 -0.5,0 -1,0.1 -1.5,0.2 h -0.3 c -0.2,0 -0.3,0 -0.5,0.1 -0.3,0 -0.5,0.1 -0.8,0.2 3.4,-0.2 6.8,0.2 10,1.3 5.5,1.9 10,5.9 12.6,11.2 2.6,5.4 3.1,11.5 1.3,17.2 -1.5,4.8 -4.8,8.7 -9.2,10.9 -1.1,0.5 -2.1,1 -3.2,1.3 -3.4,1 -6.9,0.9 -10.3,-0.3 C 19.6,39.8 15.3,31 17.9,22.8 c 1.1,-3.3 3.3,-6 6.3,-7.6 3,-1.6 6.5,-1.9 9.7,-0.8 2.7,0.9 5,2.9 6.3,5.6 1.3,2.7 1.5,5.7 0.6,8.5 -0.8,2.4 -2.4,4.4 -4.6,5.6 -2.2,1.2 -4.7,1.4 -7.1,0.6 -1.7,-0.6 -2.6,-2.4 -2.1,-4.2 0.3,-0.9 0.9,-1.5 1.6,-1.9 0.8,-0.4 1.6,-0.4 2.4,-0.2 0.7,0.2 1.5,0.2 2.2,-0.2 0.7,-0.4 1.2,-1 1.4,-1.7 0.4,-1.2 0.3,-2.4 -0.3,-3.5 -0.5,-1.1 -1.4,-1.9 -2.6,-2.3 -1.6,-0.5 -3.3,-0.4 -4.8,0.4 -1.3,0.9 -2.4,2.2 -2.9,3.9 -1.5,4.7 1,9.8 5.5,11.3 2.9,1 6,0.8 8.7,-0.6 2.9,-1.4 5,-3.9 6,-7.1 1.3,-4 1,-8.3 -0.9,-12.1 C 41.4,12.7 38.3,9.9 34.4,8.6 32.2,7.8 30,7.5 27.8,7.5 24.7,7.5 21.7,8.3 19.1,9.8 8.7,15.9 9.7,27.8 9.7,28 c 0.8,8.1 6,14.9 13.6,17.9 0.9,0.3 1.7,0.6 2.6,0.8 l 0.3,0.1 c 0.4,0.1 0.7,0.2 1.1,0.2 0.4,0.1 0.7,0.1 1.1,0.2 h 0.2 c 0.1,0 0.3,0 0.4,0.1 0.6,0.1 1.3,0.1 1.9,0.1 0.2,0 0.3,0 0.5,0 0.7,0 1.3,0 1.9,-0.1 h 0.2 c 0.5,-0.1 1.1,-0.2 1.8,-0.3 0,0 0,0 0,0 0.5,-0.1 0.9,-0.2 1.4,-0.3 L 37,46.6 c 0.2,0 0.4,-0.1 0.6,-0.2 0.4,-0.1 0.8,-0.3 1.2,-0.4 l 0.4,-0.1 c 0.2,-0.1 0.4,-0.2 0.6,-0.2 0.3,-0.1 0.5,-0.3 0.8,-0.4 l 0.5,-0.2 c 0.2,-0.1 0.5,-0.2 0.7,-0.4 0.2,-0.1 0.4,-0.2 0.6,-0.4 L 42.9,44 c 0.3,-0.2 0.6,-0.3 0.8,-0.5 0.2,-0.1 0.3,-0.2 0.5,-0.4 l 0.4,-0.3 c 0.3,-0.2 0.6,-0.4 0.9,-0.7 0.2,-0.1 0.3,-0.3 0.5,-0.4 l 0.4,-0.4 c 0.2,-0.2 0.5,-0.4 0.7,-0.7 0.2,-0.2 0.4,-0.4 0.6,-0.6 l 0.4,-0.4 c 0.2,-0.2 0.4,-0.4 0.5,-0.6 0.2,-0.3 0.5,-0.6 0.7,-0.9 l 0.3,-0.4 c 0.1,-0.2 0.2,-0.3 0.3,-0.5 0.3,-0.4 0.5,-0.8 0.8,-1.3 l 0.2,-0.3 c 0.1,-0.1 0.1,-0.2 0.2,-0.4 0.2,-0.4 0.5,-0.9 0.7,-1.4 l 0.1,-0.3 c 0.1,-0.1 0.1,-0.3 0.2,-0.4 0.2,-0.4 0.3,-0.8 0.5,-1.3 l 0.1,-0.4 c 0.1,-0.2 0.1,-0.3 0.2,-0.5 0.1,-0.3 0.2,-0.7 0.3,-1 l 0.1,-0.5 c 0.1,-0.2 0.1,-0.5 0.2,-0.7 0.1,-0.3 0.1,-0.6 0.1,-0.9 l 0.1,-0.5 c 0.1,-0.3 0.1,-0.7 0.1,-1 0,-0.3 0,-0.5 0.1,-0.8 v -0.4 c 0,-0.4 0,-0.8 0.1,-1.2 0,-0.1 0,-0.5 0,-0.8 z" fill="#ff7500" id="path15"/>
</g>
</svg>